<svg xmlns="http://www.w3.org/2000/svg" xmlns:xlink="http://www.w3.org/1999/xlink" width="107.999" height="108" viewBox="0 0 107.999 108">
  <defs>
    <filter id="Rectangle_411831" x="0" y="0" width="107.999" height="108" filterUnits="userSpaceOnUse">
      <feOffset dy="3" input="SourceAlpha"/>
      <feGaussianBlur stdDeviation="3" result="blur"/>
      <feFlood flood-opacity="0.161"/>
      <feComposite operator="in" in2="blur"/>
      <feComposite in="SourceGraphic"/>
    </filter>
    <clipPath id="clip-path">
      <rect id="Rectangle_425301" data-name="Rectangle 425301" width="54" height="62" transform="translate(-6744 -6575)" fill="#fff" stroke="#707070" stroke-width="1" opacity="0"/>
    </clipPath>
  </defs>
  <g id="Group_1205442" data-name="Group 1205442" transform="translate(6770.96 6595.266)">
    <g id="Group_1205301" data-name="Group 1205301" transform="translate(-7562.742 -8551.266)">
      <g id="Group_1203409" data-name="Group 1203409" transform="translate(800.781 1962)">
        <g transform="matrix(1, 0, 0, 1, -9, -6)" filter="url(#Rectangle_411831)">
          <g id="Rectangle_411831-2" data-name="Rectangle 411831" transform="translate(9 6)" fill="#8fe8d5" stroke="#fff" stroke-width="2">
            <path d="M5,0H58A32,32,0,0,1,90,32V85a5,5,0,0,1-5,5H32A32,32,0,0,1,0,58V5A5,5,0,0,1,5,0Z" stroke="none"/>
            <path d="M5,1H58A31,31,0,0,1,89,32V85a4,4,0,0,1-4,4H32A31,31,0,0,1,1,58V5A4,4,0,0,1,5,1Z" fill="none"/>
          </g>
        </g>
      </g>
      <path id="Path_1260076" data-name="Path 1260076" d="M15.052.687H.856V6.415H10.991L.856,16.481l4.1,4.068,10.1-10.031V20.549h5.8V.687Z" transform="translate(799.924 2031.451)" fill="#1f1321" fill-rule="evenodd"/>
      <path id="Path_1260092" data-name="Path 1260092" d="M5.27,15.8h10.8V11.438H8.359l7.709-7.657L12.953.687,5.27,8.318V.687H.856V15.8Z" transform="translate(874.712 1961.314)" fill="#1f1321" fill-rule="evenodd"/>
    </g>
    <g id="Mask_Group_1107907" data-name="Mask Group 1107907" clip-path="url(#clip-path)">
      <g id="tipografia_1_" data-name="tipografia (1)" transform="translate(-6748 -6575)">
        <path id="Path_1270777" data-name="Path 1270777" d="M33.193,37.04V7.823a.609.609,0,0,1,.608-.608H42.21a.609.609,0,0,1,.608.608v5.088a.609.609,0,0,0,.608.608h5.161a.609.609,0,0,0,.608-.608V1.518A.609.609,0,0,0,48.588.91H7.721a.609.609,0,0,0-.608.608V12.911a.609.609,0,0,0,.608.608h5.161a.609.609,0,0,0,.608-.608V7.823a.609.609,0,0,1,.608-.608h8.409a.609.609,0,0,1,.608.608V51.863a.609.609,0,0,1-.235.48L20.09,54.514a.609.609,0,0,1-.374.128H15.925a.609.609,0,0,0-.608.608v5.232a.609.609,0,0,0,.608.608H40.384a.609.609,0,0,0,.608-.608V55.25a.609.609,0,0,0-.608-.608H36.593a.608.608,0,0,1-.374-.128l-2.791-2.171a.609.609,0,0,1-.235-.48V37.04" fill="#63cff1"/>
        <g id="Group_1205447" data-name="Group 1205447">
          <path id="Path_1270778" data-name="Path 1270778" d="M33.428,52.343l2.955,2.3H34.535a3.168,3.168,0,0,1-1.945-.667l-1.063-.826a3.287,3.287,0,0,1-1.269-2.6l.023-42.728a.608.608,0,0,1,.608-.608h1.72a.608.608,0,0,1,.608.609l-.024,44.039A.609.609,0,0,0,33.428,52.343Z" fill="#33bddd"/>
          <path id="Path_1270779" data-name="Path 1270779" d="M38.055,54.641h2.328a.609.609,0,0,1,.608.608v5.232a.609.609,0,0,1-.608.608h-1.72a.609.609,0,0,1-.608-.608v-5.84Z" fill="#33bddd"/>
          <path id="Path_1270780" data-name="Path 1270780" d="M49.2,1.518V12.912a.609.609,0,0,1-.608.608H46.26V.91h2.328A.609.609,0,0,1,49.2,1.518Z" fill="#33bddd"/>
        </g>
        <path id="Path_1270781" data-name="Path 1270781" d="M50.25,48.29l-5.421,5.421a.605.605,0,0,1-.856,0l-1.588-1.588a.605.605,0,0,1,0-.856l5.421-5.421a.605.605,0,0,1,.856,0l1.588,1.588A.606.606,0,0,1,50.25,48.29Z" fill="#e6eaee"/>
        <path id="Path_1270782" data-name="Path 1270782" d="M48.549,45.733l1.813,1.813a.446.446,0,0,1,0,.631L48.5,50.035a.446.446,0,0,0,0-.631l-1.813-1.813a.446.446,0,0,0-.631,0l1.858-1.858A.446.446,0,0,1,48.549,45.733Z" fill="#cdd3d9"/>
        <path id="Path_1270783" data-name="Path 1270783" d="M33.2,37.207l2.483,9.469a3.717,3.717,0,0,0,3.3,2.763L40,49.52a3.988,3.988,0,0,1,2.5,1.155l.235.235L47.449,46.2l-.235-.235a3.987,3.987,0,0,1-1.155-2.5l-.081-1.02a3.717,3.717,0,0,0-2.763-3.3l-9.469-2.483A.446.446,0,0,0,33.2,37.207Z" fill="#ffd071"/>
        <path id="Path_1270784" data-name="Path 1270784" d="M45.977,42.446l.082,1.02a3.987,3.987,0,0,0,1.155,2.5l.235.235-1.178,1.178-.235-.235a3.987,3.987,0,0,1-1.155-2.5l-.081-1.02a3.717,3.717,0,0,0-2.763-3.3l-8.611-2.258-.225-.858a.447.447,0,0,1,.545-.545l9.47,2.483A3.718,3.718,0,0,1,45.977,42.446Z" fill="#f7b657"/>
        <path id="Path_1270785" data-name="Path 1270785" d="M54.758,54.238l-3.993,3.993a.446.446,0,0,1-.631,0l-4.906-4.919,4.624-4.624,4.907,4.92A.446.446,0,0,1,54.758,54.238Z" fill="#ff6e5e"/>
        <path id="Path_1270786" data-name="Path 1270786" d="M54.763,54.234l-.838.838L48.7,49.842l1.153-1.153L54.763,53.6A.446.446,0,0,1,54.763,54.234Z" fill="#f4584d"/>
        <circle id="Ellipse_12468" data-name="Ellipse 12468" cx="2.078" cy="2.078" r="2.078" transform="translate(38.442 41.903)" fill="#e6eaee"/>
        <path id="Path_1270787" data-name="Path 1270787" d="M41.989,42.512a2.078,2.078,0,0,1-.487,3.3A2.078,2.078,0,0,0,38.689,43a2.078,2.078,0,0,1,3.3-.487Z" fill="#cdd3d9"/>
        <path id="Path_1270788" data-name="Path 1270788" d="M40.992,60.181H26.916a.91.91,0,1,0,0,1.819H40.992a.91.91,0,0,0,0-1.819Z"/>
        <path id="Path_1270789" data-name="Path 1270789" d="M23.115,19.137a.91.91,0,0,0-.91.91V51.715l-2.593,2.017H15.925a1.52,1.52,0,0,0-1.518,1.518v5.232A1.52,1.52,0,0,0,15.925,62h4.541a.91.91,0,1,0,0-1.819h-4.24v-4.63h3.49a1.525,1.525,0,0,0,.932-.32l2.791-2.171a1.508,1.508,0,0,0,.586-1.2V20.047A.909.909,0,0,0,23.115,19.137Z"/>
        <path id="Path_1270790" data-name="Path 1270790" d="M55.4,52.966,51.107,48.66a1.518,1.518,0,0,0-.215-1.87L49.306,45.2a1.517,1.517,0,0,0-1.778-.27,3.08,3.08,0,0,1-.562-1.54l-.081-1.02a4.632,4.632,0,0,0-3.439-4.108L34.1,35.815V8.124h7.807v4.787a1.52,1.52,0,0,0,1.518,1.518h5.161a1.52,1.52,0,0,0,1.518-1.518V1.518A1.52,1.52,0,0,0,48.588,0H7.721A1.52,1.52,0,0,0,6.2,1.518V12.911A1.52,1.52,0,0,0,7.721,14.43h5.161A1.52,1.52,0,0,0,14.4,12.911V8.124h7.807v5.4a.91.91,0,0,0,1.819,0v-5.7a1.52,1.52,0,0,0-1.518-1.518H14.1A1.52,1.52,0,0,0,12.58,7.823V12.61H8.022V1.819H48.287V12.61H43.728V7.823A1.52,1.52,0,0,0,42.21,6.305H33.8a1.52,1.52,0,0,0-1.518,1.518V36.2a12.943,12.943,0,0,0,.6,3.366l1.023,3.9.9,3.44a4.631,4.631,0,0,0,4.108,3.439l1.02.081a3.08,3.08,0,0,1,1.54.562,1.517,1.517,0,0,0,.27,1.778l1.586,1.586a1.515,1.515,0,0,0,1.868.216l4.293,4.3a1.355,1.355,0,0,0,1.918,0L55.4,54.882A1.358,1.358,0,0,0,55.4,52.966ZM40.076,48.613l-1.02-.081a2.811,2.811,0,0,1-2.493-2.087l-1.825-6.959,3.127,3.127a2.987,2.987,0,1,0,1.286-1.286L36.025,38.2l6.959,1.825a2.811,2.811,0,0,1,2.087,2.493l.081,1.02a4.9,4.9,0,0,0,1.035,2.641l-3.47,3.47A4.9,4.9,0,0,0,40.076,48.613Zm-.382-5.458a1.168,1.168,0,1,1,0,1.652A1.164,1.164,0,0,1,39.694,43.155Zm4.706,9.7L43.243,51.7,48.234,46.7l1.158,1.158-.183.183h0L46.755,50.5Zm6.05,4.407-3.937-3.947,2.307-2.307,1.031-1.031,3.937,3.947Z"/>
      </g>
    </g>
  </g>
</svg>
