<svg xmlns="http://www.w3.org/2000/svg" xmlns:xlink="http://www.w3.org/1999/xlink" width="76.345" height="76.345" viewBox="0 0 76.345 76.345">
  <defs>
    <clipPath id="clip-path">
      <rect id="Rectangle_425300" data-name="Rectangle 425300" width="48" height="52" transform="translate(13465 -11178)" fill="#fff" stroke="#707070" stroke-width="1" opacity="0"/>
    </clipPath>
  </defs>
  <g id="Group_1205279" data-name="Group 1205279" transform="translate(-13450.88 11190.079)">
    <g id="Group_1205279-2" data-name="Group 1205279" transform="translate(13450.88 -11190.079)">
      <g id="Group_1187152" data-name="Group 1187152">
        <g id="Group_1185946" data-name="Group 1185946">
          <g id="Group_1184280" data-name="Group 1184280">
            <g id="Group_1182168" data-name="Group 1182168">
              <g id="Group_1178877" data-name="Group 1178877">
                <g id="Group_1111311" data-name="Group 1111311">
                  <g id="Group_1098742" data-name="Group 1098742" transform="translate(0 0)">
                    <g id="Rectangle_400898" data-name="Rectangle 400898" transform="translate(0)" fill="#8fe8d5" stroke="#63a194" stroke-width="1" opacity="0.859">
                      <rect width="76.345" height="76.345" rx="38.172" stroke="none"/>
                      <rect x="0.5" y="0.5" width="75.345" height="75.345" rx="37.672" fill="none"/>
                    </g>
                    <g id="Rectangle_400907" data-name="Rectangle 400907" fill="none" stroke="#63a194" stroke-width="1">
                      <rect width="76.345" height="76.345" rx="38.172" stroke="none"/>
                      <rect x="0.5" y="0.5" width="75.345" height="75.345" rx="37.672" fill="none"/>
                    </g>
                  </g>
                </g>
              </g>
            </g>
          </g>
        </g>
      </g>
    </g>
    <g id="Mask_Group_1107912" data-name="Mask Group 1107912" clip-path="url(#clip-path)">
      <g id="medios-de-comunicacion-social_2_" data-name="medios-de-comunicacion-social (2)" transform="translate(13464.953 -11176.007)">
        <path id="Path_1270838" data-name="Path 1270838" d="M18.162,9.408a8.706,8.706,0,1,0-8.706,8.7A8.705,8.705,0,0,0,18.162,9.408Zm0,0" fill="#64e8ff"/>
        <path id="Path_1270839" data-name="Path 1270839" d="M9.456.7A8.767,8.767,0,0,0,7.972.83a8.706,8.706,0,0,1,0,17.157A8.705,8.705,0,1,0,9.456.7Zm0,0" fill="#0fd9ff"/>
        <path id="Path_1270840" data-name="Path 1270840" d="M47.343,9.408a8.705,8.705,0,1,0-8.705,8.7A8.705,8.705,0,0,0,47.343,9.408Zm0,0" fill="#6193ff"/>
        <path id="Path_1270841" data-name="Path 1270841" d="M47.34,9.159A8.705,8.705,0,0,0,38.389.707a8.793,8.793,0,0,0-1.343.142,8.706,8.706,0,0,1,0,17.118,8.711,8.711,0,0,0,10.3-8.808Zm0,0" fill="#407bff"/>
        <path id="Path_1270842" data-name="Path 1270842" d="M18.162,38.606a8.706,8.706,0,1,0-8.706,8.7,8.705,8.705,0,0,0,8.706-8.7Zm0,0" fill="#ff6969"/>
        <path id="Path_1270843" data-name="Path 1270843" d="M9.456,29.9a8.71,8.71,0,0,0-1.961.222,8.707,8.707,0,0,1,0,16.966A8.706,8.706,0,1,0,9.456,29.9Zm0,0" fill="#ff4848"/>
        <path id="Path_1270844" data-name="Path 1270844" d="M47.343,38.606a8.705,8.705,0,1,0-8.705,8.7,8.705,8.705,0,0,0,8.705-8.7Zm0,0" fill="#ff95c2"/>
        <path id="Path_1270845" data-name="Path 1270845" d="M38.638,29.9a8.734,8.734,0,0,0-1.755.177,8.707,8.707,0,0,1,0,17.056A8.706,8.706,0,1,0,38.638,29.9Zm0,0" fill="#ff758e"/>
        <path id="Path_1270846" data-name="Path 1270846" d="M13.57,6.02a4.664,4.664,0,0,1-1.06.47A1.911,1.911,0,0,0,9.157,7.77V8.2A4.548,4.548,0,0,1,5.45,6.443a.124.124,0,0,0-.214.034A4.029,4.029,0,0,0,7.45,11.81a4.963,4.963,0,0,1-2.484.848.124.124,0,0,0-.046.237C8.664,14.624,13,12.47,13,7.758a1.915,1.915,0,0,0-.034-.354,3.287,3.287,0,0,0,.788-1.234.124.124,0,0,0-.179-.149Zm0,0" fill="#fff"/>
        <path id="Path_1270847" data-name="Path 1270847" d="M7.6,38.51V35.745a.264.264,0,0,1,.4-.229L10.386,36.9l2.393,1.383a.264.264,0,0,1,0,.458l-2.393,1.383L7.992,41.5a.265.265,0,0,1-.4-.229Zm0,0" fill="#fff"/>
        <path id="Path_1270848" data-name="Path 1270848" d="M22.192,25.683h-3.22a.707.707,0,0,1-.707-.707V21.282a.707.707,0,0,1,.707-.707h3.22a.11.11,0,0,1,.11.11v4.888a.11.11,0,0,1-.11.11Zm0,0" fill="#ff95c2"/>
        <path id="Path_1270849" data-name="Path 1270849" d="M29.137,28.14A21.827,21.827,0,0,0,22.3,25.407V20.851a21.686,21.686,0,0,0,3.279-.973,21.67,21.67,0,0,0,3.555-1.759Zm0,0" fill="#e5f4ff"/>
        <path id="Path_1270850" data-name="Path 1270850" d="M41.949,29.8a18.889,18.889,0,0,0,.006-11.582A9.411,9.411,0,0,0,38.368,0a9.427,9.427,0,0,0-8.54,6.087,18.894,18.894,0,0,0-11.567,0A9.409,9.409,0,1,0,6.14,18.212a18.894,18.894,0,0,0,0,11.587,9.424,9.424,0,0,0-6.1,8.806,9.323,9.323,0,0,0,.912,4.047.7.7,0,0,0,1.27-.606,7.926,7.926,0,0,1-.775-3.441A8,8,0,1,1,4.04,44.5a.7.7,0,1,0-.952,1.035,9.409,9.409,0,0,0,15.179-3.625,18.9,18.9,0,0,0,11.56,0A9.409,9.409,0,1,0,41.949,29.8ZM32.82,3.915a7.95,7.95,0,0,1,5.589-2.5c.078,0,.155,0,.232,0a8,8,0,0,1,.226,16q-.116,0-.232,0a8,8,0,0,1-5.815-13.5ZM24.046,41.4a17.375,17.375,0,0,1-5.385-.85A9.41,9.41,0,0,0,7.5,29.4,17.482,17.482,0,0,1,7.49,18.61a9.426,9.426,0,0,0,6.565-.992.7.7,0,0,0-.689-1.226,8.007,8.007,0,1,1,2.28-1.911.7.7,0,1,0,1.088.892,9.411,9.411,0,0,0,1.924-7.929,17.486,17.486,0,0,1,10.776,0,9.42,9.42,0,0,0,9.2,11.375c.09,0,.182,0,.273,0a9.512,9.512,0,0,0,1.7-.2A17.481,17.481,0,0,1,40.6,29.4,9.41,9.41,0,0,0,29.433,40.555a17.37,17.37,0,0,1-5.386.85Zm14.591,5.2a8,8,0,1,1,8-8,8.011,8.011,0,0,1-8,8Zm0,0"/>
        <path id="Path_1270851" data-name="Path 1270851" d="M14.245,5.257a.7.7,0,0,0-.8.007,3.957,3.957,0,0,1-.766.422A2.615,2.615,0,0,0,8.469,7.453,3.834,3.834,0,0,1,5.893,5.86a.7.7,0,0,0-1.218.119,5.952,5.952,0,0,0-.433,2.45,4.3,4.3,0,0,0,1.73,3.327,4.27,4.27,0,0,1-1.479.2.7.7,0,0,0-.37,1.318,7.093,7.093,0,0,0,3.44.92,6.2,6.2,0,0,0,3.159-.851,5.879,5.879,0,0,0,2.566-3.132.73.73,0,0,0,.037-.105A7.308,7.308,0,0,0,13.7,7.755c0-.037,0-.074,0-.11A4,4,0,0,0,14.533,6a.7.7,0,0,0-.288-.748Zm-4.236,6.878a4.839,4.839,0,0,1-2.822.642,5.554,5.554,0,0,0,.659-.384.7.7,0,0,0-.11-1.225A3.124,3.124,0,0,1,5.649,8.408a4.062,4.062,0,0,1,.026-.725A5.244,5.244,0,0,0,9.175,8.9a.7.7,0,0,0,.685-.7V7.761a1.208,1.208,0,0,1,2.119-.808.7.7,0,0,0,.322.21.7.7,0,0,0-.03.373,1.2,1.2,0,0,1,.021.222,5.928,5.928,0,0,1-.3,1.9.687.687,0,0,0-.027.082,4.455,4.455,0,0,1-1.959,2.39Zm0,0"/>
        <path id="Path_1270852" data-name="Path 1270852" d="M36.323,9.963h1v4.194a.7.7,0,0,0,1.407,0V9.963h1.086a.7.7,0,1,0,0-1.407H38.727V6.589a1.227,1.227,0,0,1,1.226-1.225h.911a.7.7,0,1,0,0-1.407h-.911a2.635,2.635,0,0,0-2.632,2.632V8.556h-1a.7.7,0,0,0,0,1.407Zm0,0"/>
        <path id="Path_1270853" data-name="Path 1270853" d="M7.86,42.243a.968.968,0,0,0,.484-.129l4.787-2.765a.967.967,0,0,0,0-1.676L8.344,34.907a.968.968,0,0,0-1.452.838v5.53a.967.967,0,0,0,.968.967ZM8.3,36.505l3.471,2-3.471,2Zm0,0"/>
        <path id="Path_1270854" data-name="Path 1270854" d="M41.694,33.624H35.582a1.928,1.928,0,0,0-1.925,1.926v6.111a1.928,1.928,0,0,0,1.925,1.926h6.112a1.928,1.928,0,0,0,1.925-1.926V35.55A1.928,1.928,0,0,0,41.694,33.624Zm.519,8.037a.519.519,0,0,1-.519.519H35.582a.519.519,0,0,1-.519-.519V35.55a.52.52,0,0,1,.519-.519h6.112a.52.52,0,0,1,.519.519Zm0,0"/>
        <path id="Path_1270855" data-name="Path 1270855" d="M38.638,36.479a2.126,2.126,0,1,0,2.126,2.126A2.129,2.129,0,0,0,38.638,36.479Zm0,2.845a.719.719,0,1,1,.719-.719A.72.72,0,0,1,38.638,39.325Zm0,0"/>
        <path id="Path_1270856" data-name="Path 1270856" d="M29.84,28.854V17.4a.7.7,0,1,0-1.407,0v.315a20.984,20.984,0,0,1-3.1,1.5,20.977,20.977,0,0,1-2.64.82.811.811,0,0,0-.5-.17h-3.22a1.412,1.412,0,0,0-1.411,1.411v3.694a1.412,1.412,0,0,0,1.411,1.411h.644l.244,4.69a.7.7,0,0,0,.7.667H20.6A.7.7,0,0,0,21.264,31l-.24-4.616h1.168a.81.81,0,0,0,.5-.17c.571.138,1.139.3,1.693.484a.7.7,0,0,0,.443-1.335c-.6-.2-1.206-.372-1.819-.519V21.413a22.431,22.431,0,0,0,2.829-.879,22.425,22.425,0,0,0,2.6-1.2v7.588q-.464-.251-.936-.478a.7.7,0,0,0-.61,1.268c.524.252,1.042.53,1.546.826v.314a.7.7,0,0,0,1.407,0ZM18.968,24.976l0-3.7H21.6v3.7Zm0,0"/>
      </g>
    </g>
  </g>
</svg>
