<svg xmlns="http://www.w3.org/2000/svg" xmlns:xlink="http://www.w3.org/1999/xlink" width="107.999" height="108" viewBox="0 0 107.999 108">
  <defs>
    <filter id="Rectangle_411831" x="0" y="0" width="107.999" height="108" filterUnits="userSpaceOnUse">
      <feOffset dy="3" input="SourceAlpha"/>
      <feGaussianBlur stdDeviation="3" result="blur"/>
      <feFlood flood-opacity="0.161"/>
      <feComposite operator="in" in2="blur"/>
      <feComposite in="SourceGraphic"/>
    </filter>
    <clipPath id="clip-path">
      <rect id="Rectangle_425301" data-name="Rectangle 425301" width="54" height="62" transform="translate(-6744 -6575)" fill="#fff" stroke="#707070" stroke-width="1" opacity="0"/>
    </clipPath>
  </defs>
  <g id="Group_1205452" data-name="Group 1205452" transform="translate(6770.961 6595.266)">
    <g id="Group_1205301" data-name="Group 1205301" transform="translate(-7562.742 -8551.266)">
      <g id="Group_1203409" data-name="Group 1203409" transform="translate(800.781 1962)">
        <g transform="matrix(1, 0, 0, 1, -9, -6)" filter="url(#Rectangle_411831)">
          <g id="Rectangle_411831-2" data-name="Rectangle 411831" transform="translate(9 6)" fill="#8fe8d5" stroke="#fff" stroke-width="2">
            <path d="M5,0H58A32,32,0,0,1,90,32V85a5,5,0,0,1-5,5H32A32,32,0,0,1,0,58V5A5,5,0,0,1,5,0Z" stroke="none"/>
            <path d="M5,1H58A31,31,0,0,1,89,32V85a4,4,0,0,1-4,4H32A31,31,0,0,1,1,58V5A4,4,0,0,1,5,1Z" fill="none"/>
          </g>
        </g>
      </g>
      <path id="Path_1260076" data-name="Path 1260076" d="M15.052.687H.856V6.415H10.991L.856,16.481l4.1,4.068,10.1-10.031V20.549h5.8V.687Z" transform="translate(799.924 2031.451)" fill="#1f1321" fill-rule="evenodd"/>
      <path id="Path_1260092" data-name="Path 1260092" d="M5.27,15.8h10.8V11.438H8.359l7.709-7.657L12.953.687,5.27,8.318V.687H.856V15.8Z" transform="translate(874.712 1961.314)" fill="#1f1321" fill-rule="evenodd"/>
    </g>
    <g id="Mask_Group_1107911" data-name="Mask Group 1107911" clip-path="url(#clip-path)">
      <g id="diseno" transform="translate(-6744.003 -6571.002)">
        <path id="Path_1270822" data-name="Path 1270822" d="M52.728,37.093C49.821,40.865,39.407,53.106,27,53.106S4.186,40.865,1.278,37.093a1.758,1.758,0,0,1,0-2.178c2.493-3.231,10.5-12.683,20.54-15.311a19.525,19.525,0,0,1,10.243-.036.334.334,0,0,1,.126.036c10.045,2.628,18.047,12.079,20.54,15.311A1.758,1.758,0,0,1,52.728,37.093Z" fill="#f5f5f5"/>
        <path id="Path_1270823" data-name="Path 1270823" d="M52.728,34.915c-2.493-3.231-10.5-12.683-20.54-15.311a.334.334,0,0,0-.126-.036,19.532,19.532,0,0,0-6.41-.617c9.484.671,18.617,8.5,24.376,15.963a1.758,1.758,0,0,1,0,2.178c-2.8,3.634-12.572,15.122-24.375,15.961,10.483.741,20.665-7.646,27.075-15.961a1.758,1.758,0,0,0,0-2.178Z" fill="#cfd8dc"/>
        <circle id="Ellipse_12469" data-name="Ellipse 12469" cx="13.502" cy="13.502" r="13.502" transform="translate(13.502 22.503)" fill="#02a9f4"/>
        <path id="Path_1270824" data-name="Path 1270824" d="M25.653,22.571a13.5,13.5,0,0,1,0,26.866,13.5,13.5,0,1,0,0-26.866Z" fill="#0377bc"/>
        <circle id="Ellipse_12470" data-name="Ellipse 12470" cx="7.201" cy="7.201" r="7.201" transform="translate(19.802 28.803)" fill="#607d8b"/>
        <path id="Path_1270825" data-name="Path 1270825" d="M25.653,28.935a7.2,7.2,0,0,1,0,14.139,7.2,7.2,0,1,0,0-14.139Z" fill="#37474f"/>
        <path id="Path_1270826" data-name="Path 1270826" d="M21.3,8.1l-5.554,5.554-1.116-1.116a2.357,2.357,0,0,1,0-3.33L16.85,6.985a2.357,2.357,0,0,1,3.33,0Z" fill="#9e9e9e"/>
        <path id="Path_1270827" data-name="Path 1270827" d="M32.062,19.568a19.516,19.516,0,0,0-10.243.036c-2.507-2.346-4.4-4.263-6.076-5.95L21.3,8.1C24.727,11.531,28.6,15.431,32.062,19.568Z" fill="#ffdf00"/>
        <path id="Path_1270828" data-name="Path 1270828" d="M16.166,7.6a3.892,3.892,0,0,1-5.878.6c-1.494-1.494-.135-3.987-2.1-6.481a.429.429,0,0,1,.288-.684c1.593-.216,5.239-.441,7.309,1.557a3.861,3.861,0,0,1,.378,5Z" fill="#607d8b"/>
        <path id="Path_1270829" data-name="Path 1270829" d="M38.264,13.655c-1.829,1.839-3.59,3.624-6.076,5.95a.334.334,0,0,0-.126-.036c-1.422-1.7-3.114-3.591-5.059-5.644,2.266-2.4,3.67-3.787,5.707-5.824Z" fill="#e91e63"/>
        <path id="Path_1270830" data-name="Path 1270830" d="M32.71,8.1l-1.35,1.35,4.2,4.2c-1.753,1.762-2.6,2.622-4.638,4.58,1.368,1.577,1.039,1.281,1.26,1.37,2.507-2.346,4.4-4.263,6.076-5.95Z" fill="#ad1457"/>
        <path id="Path_1270831" data-name="Path 1270831" d="M39.38,12.539l-1.116,1.116L32.71,8.1l1.116-1.116a2.357,2.357,0,0,1,3.33,0L39.38,9.208A2.357,2.357,0,0,1,39.38,12.539Z" fill="#9e9e9e"/>
        <path id="Path_1270832" data-name="Path 1270832" d="M39.38,9.208,37.156,6.985a2.356,2.356,0,0,0-3.015-.257,25.077,25.077,0,0,1,2.538,2.481,2.352,2.352,0,0,1,.211,3.073l1.374,1.374,1.116-1.116a2.357,2.357,0,0,0,0-3.33Z" fill="#707070"/>
        <path id="Path_1270833" data-name="Path 1270833" d="M45.816,1.719c-1.962,2.493-.6,4.987-2.1,6.481a3.87,3.87,0,0,1-5.554-.207,3.87,3.87,0,0,1,.054-5.4c2.07-2,5.716-1.773,7.309-1.557a.429.429,0,0,1,.288.684Z" fill="#607d8b"/>
        <path id="Path_1270834" data-name="Path 1270834" d="M45.527,1.035a14.251,14.251,0,0,0-3.3-.068c.221.021.427.044.6.068a.429.429,0,0,1,.288.684c-1.962,2.493-.6,4.987-2.1,6.481a3.611,3.611,0,0,1-1.26.823,3.749,3.749,0,0,0,3.96-.823c1.494-1.494.135-3.987,2.1-6.481a.429.429,0,0,0-.288-.684Z" fill="#37474f"/>
        <g id="Group_1205453" data-name="Group 1205453">
          <path id="Path_1270835" data-name="Path 1270835" d="M.563,34.363a2.683,2.683,0,0,0,0,3.282C3.528,41.483,14.2,54.006,27,54.006s23.475-12.523,26.44-16.361a2.683,2.683,0,0,0,0-3.282c-2.407-3.121-9.909-11.975-19.509-15.182,2.393-2.284,3.492-3.415,6.079-6.006a3.25,3.25,0,0,0,.869-3,4.591,4.591,0,0,0,3.474-1.334c1.8-1.8.427-4.347,2.168-6.562A1.331,1.331,0,0,0,45.65.144c-2.032-.27-5.775-.4-8.053,1.8a4.645,4.645,0,0,0-1.389,3.543,3.248,3.248,0,0,0-3.018.865c-2.79,2.79-3.917,3.9-6.186,6.276C24.785,10.3,23.845,9.38,20.817,6.352A3.248,3.248,0,0,0,17.8,5.487,4.645,4.645,0,0,0,16.41,1.944c-2.278-2.2-6.023-2.071-8.054-1.8a1.331,1.331,0,0,0-.874,2.134c1.76,2.238.349,4.743,2.168,6.561a4.591,4.591,0,0,0,3.471,1.332,3.25,3.25,0,0,0,.869,3c2.525,2.529,3.683,3.72,6.08,6.007-9.6,3.21-17.1,12.065-19.506,15.184ZM38.846,3.24c1.41-1.362,3.848-1.548,5.795-1.391-1.43,2.4-.561,4.725-1.557,5.72a2.988,2.988,0,0,1-4.519-.5,2.97,2.97,0,0,1,.281-3.829ZM36.52,7.621l2.223,2.224a1.456,1.456,0,0,1,0,2.058l-.477.478L33.984,8.1l.479-.479a1.459,1.459,0,0,1,2.058,0ZM32.711,9.373,37,13.656c-1.485,1.49-2.685,2.7-4.792,4.69-1.17-1.373-2.5-2.852-3.96-4.411,2-2.1,3.055-3.149,4.468-4.563ZM10.923,7.566c-1-1-.116-3.3-1.557-5.72,1.616-.136,4.275-.077,5.795,1.394a2.97,2.97,0,0,1,.281,3.829,2.988,2.988,0,0,1-4.519.5Zm4.34,2.279,2.223-2.224a1.459,1.459,0,0,1,2.058,0l.479.48-4.282,4.281-.478-.479a1.456,1.456,0,0,1,0-2.058Zm1.749,3.811L21.3,9.373c2.936,2.936,5.637,5.695,8.389,8.816a20.113,20.113,0,0,0-7.607.419c-2.2-2.066-3.661-3.54-5.067-4.951ZM27,19.8c11.983,0,22.177,11.987,25.016,15.662a.876.876,0,0,1,0,1.08C49.18,40.22,38.986,52.206,27,52.206S4.826,40.22,1.987,36.544a.876.876,0,0,1,0-1.08C4.826,31.789,15.02,19.8,27,19.8Z" fill="#000100"/>
          <path id="Path_1270836" data-name="Path 1270836" d="M27,50.406A14.4,14.4,0,1,0,12.6,36,14.4,14.4,0,0,0,27,50.406Zm0-27A12.6,12.6,0,1,1,14.4,36,12.6,12.6,0,0,1,27,23.4Z" fill="#000100"/>
          <path id="Path_1270837" data-name="Path 1270837" d="M27,44.105A8.1,8.1,0,1,0,18.9,36a8.1,8.1,0,0,0,8.1,8.1Zm0-14.4A6.3,6.3,0,1,1,20.7,36,6.3,6.3,0,0,1,27,29.7Z" fill="#000100"/>
        </g>
      </g>
    </g>
  </g>
</svg>
