<svg xmlns="http://www.w3.org/2000/svg" xmlns:xlink="http://www.w3.org/1999/xlink" width="107.999" height="108" viewBox="0 0 107.999 108">
  <defs>
    <filter id="Rectangle_411831" x="0" y="0" width="107.999" height="108" filterUnits="userSpaceOnUse">
      <feOffset dy="3" input="SourceAlpha"/>
      <feGaussianBlur stdDeviation="3" result="blur"/>
      <feFlood flood-opacity="0.161"/>
      <feComposite operator="in" in2="blur"/>
      <feComposite in="SourceGraphic"/>
    </filter>
    <clipPath id="clip-path">
      <rect id="Rectangle_425301" data-name="Rectangle 425301" width="54" height="62" transform="translate(-6744 -6575)" fill="#fff" stroke="#707070" stroke-width="1" opacity="0"/>
    </clipPath>
  </defs>
  <g id="Group_1205392" data-name="Group 1205392" transform="translate(6770.961 6595.266)">
    <g id="Group_1205301" data-name="Group 1205301" transform="translate(-7562.742 -8551.266)">
      <g id="Group_1203409" data-name="Group 1203409" transform="translate(800.781 1962)">
        <g transform="matrix(1, 0, 0, 1, -9, -6)" filter="url(#Rectangle_411831)">
          <g id="Rectangle_411831-2" data-name="Rectangle 411831" transform="translate(9 6)" fill="#d9aef1" stroke="#fff" stroke-width="2">
            <path d="M5,0H58A32,32,0,0,1,90,32V85a5,5,0,0,1-5,5H32A32,32,0,0,1,0,58V5A5,5,0,0,1,5,0Z" stroke="none"/>
            <path d="M5,1H58A31,31,0,0,1,89,32V85a4,4,0,0,1-4,4H32A31,31,0,0,1,1,58V5A4,4,0,0,1,5,1Z" fill="none"/>
          </g>
        </g>
      </g>
      <path id="Path_1260076" data-name="Path 1260076" d="M15.052.687H.856V6.415H10.991L.856,16.481l4.1,4.068,10.1-10.031V20.549h5.8V.687Z" transform="translate(799.924 2031.451)" fill="#1f1321" fill-rule="evenodd"/>
      <path id="Path_1260092" data-name="Path 1260092" d="M5.27,15.8h10.8V11.438H8.359l7.709-7.657L12.953.687,5.27,8.318V.687H.856V15.8Z" transform="translate(874.712 1961.314)" fill="#1f1321" fill-rule="evenodd"/>
    </g>
    <g id="Mask_Group_1107904" data-name="Mask Group 1107904" clip-path="url(#clip-path)">
      <g id="jerarquia" transform="translate(-6744.871 -6571.871)">
        <g id="Group_1205415" data-name="Group 1205415">
          <circle id="Ellipse_12461" data-name="Ellipse 12461" cx="5.226" cy="5.226" r="5.226" transform="translate(1.742 43.548)" fill="#78b75b"/>
        </g>
        <g id="Group_1205416" data-name="Group 1205416">
          <circle id="Ellipse_12462" data-name="Ellipse 12462" cx="5.226" cy="5.226" r="5.226" transform="translate(15.677 43.548)" fill="#78b75b"/>
        </g>
        <g id="Group_1205417" data-name="Group 1205417">
          <circle id="Ellipse_12463" data-name="Ellipse 12463" cx="5.226" cy="5.226" r="5.226" transform="translate(29.613 43.548)" fill="#78b75b"/>
        </g>
        <g id="Group_1205418" data-name="Group 1205418">
          <circle id="Ellipse_12464" data-name="Ellipse 12464" cx="5.226" cy="5.226" r="5.226" transform="translate(43.548 43.548)" fill="#78b75b"/>
        </g>
        <g id="Group_1205419" data-name="Group 1205419">
          <circle id="Ellipse_12465" data-name="Ellipse 12465" cx="6.097" cy="6.097" r="6.097" transform="translate(7.839 22.645)" fill="#e47c6e"/>
        </g>
        <g id="Group_1205420" data-name="Group 1205420">
          <circle id="Ellipse_12466" data-name="Ellipse 12466" cx="6.097" cy="6.097" r="6.097" transform="translate(35.71 22.645)" fill="#e47c6e"/>
        </g>
        <g id="Group_1205421" data-name="Group 1205421">
          <circle id="Ellipse_12467" data-name="Ellipse 12467" cx="6.097" cy="6.097" r="6.097" transform="translate(21.774 1.742)" fill="#f5b953"/>
        </g>
        <g id="Group_1205422" data-name="Group 1205422">
          <path id="Path_1270758" data-name="Path 1270758" d="M27.871,14.806a6.968,6.968,0,1,1,6.968-6.968A6.976,6.976,0,0,1,27.871,14.806Zm0-12.194A5.226,5.226,0,1,0,33.1,7.839,5.231,5.231,0,0,0,27.871,2.613Z"/>
        </g>
        <g id="Group_1205423" data-name="Group 1205423">
          <path id="Path_1270759" data-name="Path 1270759" d="M13.935,35.71A6.968,6.968,0,1,1,20.9,28.742,6.976,6.976,0,0,1,13.935,35.71Zm0-12.194a5.226,5.226,0,1,0,5.226,5.226A5.231,5.231,0,0,0,13.935,23.516Z"/>
        </g>
        <g id="Group_1205424" data-name="Group 1205424">
          <path id="Path_1270760" data-name="Path 1270760" d="M41.806,35.71a6.968,6.968,0,1,1,6.968-6.968A6.976,6.976,0,0,1,41.806,35.71Zm0-12.194a5.226,5.226,0,1,0,5.226,5.226A5.231,5.231,0,0,0,41.806,23.516Z"/>
        </g>
        <g id="Group_1205425" data-name="Group 1205425">
          <path id="Path_1270761" data-name="Path 1270761" d="M6.968,54.871a6.1,6.1,0,1,1,6.1-6.1A6.1,6.1,0,0,1,6.968,54.871Zm0-10.452a4.355,4.355,0,1,0,4.355,4.355A4.36,4.36,0,0,0,6.968,44.419Z"/>
        </g>
        <g id="Group_1205426" data-name="Group 1205426">
          <path id="Path_1270762" data-name="Path 1270762" d="M20.9,54.871a6.1,6.1,0,1,1,6.1-6.1A6.1,6.1,0,0,1,20.9,54.871Zm0-10.452a4.355,4.355,0,1,0,4.355,4.355A4.36,4.36,0,0,0,20.9,44.419Z"/>
        </g>
        <g id="Group_1205427" data-name="Group 1205427">
          <path id="Path_1270763" data-name="Path 1270763" d="M34.839,54.871a6.1,6.1,0,1,1,6.1-6.1A6.1,6.1,0,0,1,34.839,54.871Zm0-10.452a4.355,4.355,0,1,0,4.355,4.355A4.36,4.36,0,0,0,34.839,44.419Z"/>
        </g>
        <g id="Group_1205428" data-name="Group 1205428">
          <path id="Path_1270764" data-name="Path 1270764" d="M48.774,54.871a6.1,6.1,0,1,1,6.1-6.1A6.1,6.1,0,0,1,48.774,54.871Zm0-10.452a4.355,4.355,0,1,0,4.355,4.355A4.36,4.36,0,0,0,48.774,44.419Z"/>
        </g>
        <g id="Group_1205429" data-name="Group 1205429">
          <path id="Path_1270765" data-name="Path 1270765" d="M42.677,22.645H40.935V20.032H14.806v2.613H13.065V19.161a.871.871,0,0,1,.871-.871H41.806a.871.871,0,0,1,.871.871Z"/>
        </g>
        <g id="Group_1205430" data-name="Group 1205430">
          <path id="Path_1270766" data-name="Path 1270766" d="M27,13.935h1.742v5.226H27Z"/>
        </g>
        <g id="Group_1205431" data-name="Group 1205431">
          <path id="Path_1270767" data-name="Path 1270767" d="M21.774,43.548H20.032V40.935H7.839v2.613H6.1V40.065a.871.871,0,0,1,.871-.871H20.9a.871.871,0,0,1,.871.871Z"/>
        </g>
        <g id="Group_1205432" data-name="Group 1205432">
          <path id="Path_1270768" data-name="Path 1270768" d="M13.065,34.839h1.742v5.226H13.065Z"/>
        </g>
        <g id="Group_1205433" data-name="Group 1205433">
          <path id="Path_1270769" data-name="Path 1270769" d="M49.645,43.548H47.9V40.935H35.71v2.613H33.968V40.065a.871.871,0,0,1,.871-.871H48.774a.871.871,0,0,1,.871.871Z"/>
        </g>
        <g id="Group_1205434" data-name="Group 1205434">
          <path id="Path_1270770" data-name="Path 1270770" d="M40.935,34.839h1.742v5.226H40.935Z"/>
        </g>
      </g>
    </g>
  </g>
</svg>
