<svg xmlns="http://www.w3.org/2000/svg" xmlns:xlink="http://www.w3.org/1999/xlink" width="107.999" height="108" viewBox="0 0 107.999 108">
  <defs>
    <filter id="Rectangle_411831" x="0" y="0" width="107.999" height="108" filterUnits="userSpaceOnUse">
      <feOffset dy="3" input="SourceAlpha"/>
      <feGaussianBlur stdDeviation="3" result="blur"/>
      <feFlood flood-opacity="0.161"/>
      <feComposite operator="in" in2="blur"/>
      <feComposite in="SourceGraphic"/>
    </filter>
    <clipPath id="clip-path">
      <rect id="Rectangle_425301" data-name="Rectangle 425301" width="54" height="62" transform="translate(-6744 -6575)" fill="#fff" stroke="#707070" stroke-width="1" opacity="0"/>
    </clipPath>
  </defs>
  <g id="Group_1205314" data-name="Group 1205314" transform="translate(6770.96 6595.266)">
    <g id="Group_1205301" data-name="Group 1205301" transform="translate(-7562.742 -8551.266)">
      <g id="Group_1203409" data-name="Group 1203409" transform="translate(800.781 1962)">
        <g transform="matrix(1, 0, 0, 1, -9, -6)" filter="url(#Rectangle_411831)">
          <g id="Rectangle_411831-2" data-name="Rectangle 411831" transform="translate(9 6)" fill="#8fe8d5" stroke="#fff" stroke-width="2">
            <path d="M5,0H58A32,32,0,0,1,90,32V85a5,5,0,0,1-5,5H32A32,32,0,0,1,0,58V5A5,5,0,0,1,5,0Z" stroke="none"/>
            <path d="M5,1H58A31,31,0,0,1,89,32V85a4,4,0,0,1-4,4H32A31,31,0,0,1,1,58V5A4,4,0,0,1,5,1Z" fill="none"/>
          </g>
        </g>
      </g>
      <path id="Path_1260076" data-name="Path 1260076" d="M15.052.687H.856V6.415H10.991L.856,16.481l4.1,4.068,10.1-10.031V20.549h5.8V.687Z" transform="translate(799.924 2031.451)" fill="#1f1321" fill-rule="evenodd"/>
      <path id="Path_1260092" data-name="Path 1260092" d="M5.27,15.8h10.8V11.438H8.359l7.709-7.657L12.953.687,5.27,8.318V.687H.856V15.8Z" transform="translate(874.712 1961.314)" fill="#1f1321" fill-rule="evenodd"/>
    </g>
    <g id="Mask_Group_1107892" data-name="Mask Group 1107892" clip-path="url(#clip-path)">
      <g id="_x31_4_x2C__Visual_x2C__optical_x2C__control_x2C__focus_x2C__look_x2C__vision" transform="translate(-6744.106 -6571.106)">
        <g id="Group_1205333" data-name="Group 1205333">
          <path id="Path_1270498" data-name="Path 1270498" d="M27.8,19.2l-.067,15.826A22.641,22.641,0,0,0,43.2,27.106s-6.328-7.337-15.4-7.91Z" fill="#e2e8eb"/>
          <path id="Path_1270499" data-name="Path 1270499" d="M11.01,27.106c.626.817,6.071,8.183,16.1,7.941V19.165c-10.025-.241-16.1,7.941-16.1,7.941Z" fill="#e2e8eb"/>
          <path id="Path_1270500" data-name="Path 1270500" d="M27.8,19.2a7.941,7.941,0,0,1-.067,15.826c-.242.014-.572.025-.63.025a7.941,7.941,0,1,1,0-15.882Q27.458,19.173,27.8,19.2Z" fill="#6e788b"/>
          <circle id="Ellipse_12431" data-name="Ellipse 12431" cx="2.647" cy="2.647" r="2.647" transform="translate(24.459 24.459)" fill="#ff3f2e"/>
          <path id="Path_1270501" data-name="Path 1270501" d="M53.047,23.4v7.412H48.5a21.575,21.575,0,0,1-3.676,8.841l3.122,3.122L42.7,48.017,39.565,44.88A21.576,21.576,0,0,1,30.812,48.5v4.552H23.4V48.5a21.58,21.58,0,0,1-8.9-3.72L11.33,47.941,6.089,42.7l3.2-3.2a21.577,21.577,0,0,1-3.571-8.691H1.165V23.4H5.717a21.575,21.575,0,0,1,3.676-8.841L6.164,11.33,11.4,6.089l3.242,3.242A21.576,21.576,0,0,1,23.4,5.717V1.165h7.412V5.717A21.572,21.572,0,0,1,39.59,9.349l3.185-3.185,5.241,5.24-3.18,3.18A21.572,21.572,0,0,1,48.5,23.4Zm-9.529,3.706A16.412,16.412,0,1,0,27.106,43.518,16.412,16.412,0,0,0,43.518,27.106Z" fill="#00e2de"/>
          <g id="Group_1205332" data-name="Group 1205332">
            <path id="Path_1270502" data-name="Path 1270502" d="M54.106,31.871V22.341H49.37A22.437,22.437,0,0,0,46.2,14.714l3.309-3.309L42.776,4.667,39.46,7.982a22.438,22.438,0,0,0-7.589-3.141V.106H22.341V4.842a22.44,22.44,0,0,0-7.563,3.124L11.405,4.592,4.667,11.33l3.357,3.357a22.435,22.435,0,0,0-3.182,7.654H.106v9.529H4.842a22.447,22.447,0,0,0,3.082,7.5L4.592,42.7l6.738,6.738,3.294-3.294a22.849,22.849,0,0,0,7.717,3.224v4.737h9.529V49.37a22.443,22.443,0,0,0,7.563-3.124L42.7,49.514l6.738-6.738-3.251-3.251A22.439,22.439,0,0,0,49.37,31.87h4.736Zm-6.654-1.238a20.913,20.913,0,0,1-4.013,9.138l3.006,3.006L42.7,46.519,39.685,43.5a20.985,20.985,0,0,1-9.052,3.949l-.879.151v4.385H24.459V47.6l-.879-.151a21.04,21.04,0,0,1-9.2-4.06L11.33,46.444,7.587,42.7l3.077-3.077a21.008,21.008,0,0,1-3.9-8.992l-.151-.879H2.224V24.459H6.609a20.928,20.928,0,0,1,3.647-9.288l.518-.729L7.662,11.33l3.743-3.743,3.122,3.122.728-.511a20.857,20.857,0,0,1,9.2-3.589V2.224h5.294V6.609a20.959,20.959,0,0,1,9.228,3.606l.728.513,3.066-3.066,3.743,3.743-3.062,3.062a20.964,20.964,0,0,1,3.995,9.113l.151.879h4.385v5.294H47.6Z"/>
            <path id="Path_1270503" data-name="Path 1270503" d="M27.106,9.635A17.471,17.471,0,1,0,44.576,27.106,17.49,17.49,0,0,0,27.106,9.635Zm0,2.118A15.377,15.377,0,0,1,42.268,24.69c-4.125-3.709-9.5-6.45-15.135-6.584a21.146,21.146,0,0,0-15.152,6.353A15.378,15.378,0,0,1,27.106,11.753ZM27.1,33.988a6.882,6.882,0,0,1,0-13.764c.192,0,.382.013.571.025a6.88,6.88,0,0,1-.06,13.719C27.439,33.977,27.269,33.984,27.1,33.988Zm-6.964-1.2a19.483,19.483,0,0,1-7.761-5.67,21.707,21.707,0,0,1,7.644-5.548,8.972,8.972,0,0,0,.117,11.218ZM34.561,22.07a26.646,26.646,0,0,1,7.212,5.071,22.876,22.876,0,0,1-7.354,5.2,8.973,8.973,0,0,0,.143-10.273ZM27.106,42.459A15.378,15.378,0,0,1,12,29.853c8.687,8.767,21.528,7.975,30.247-.2A15.377,15.377,0,0,1,27.106,42.459Z"/>
            <path id="Path_1270504" data-name="Path 1270504" d="M27.106,23.4a3.706,3.706,0,1,0,3.706,3.706A3.71,3.71,0,0,0,27.106,23.4Zm0,5.294a1.588,1.588,0,1,1,1.588-1.588A1.59,1.59,0,0,1,27.106,28.694Z"/>
          </g>
        </g>
      </g>
    </g>
  </g>
</svg>
