<svg xmlns="http://www.w3.org/2000/svg" xmlns:xlink="http://www.w3.org/1999/xlink" width="107.999" height="108" viewBox="0 0 107.999 108">
  <defs>
    <filter id="Rectangle_411831" x="0" y="0" width="107.999" height="108" filterUnits="userSpaceOnUse">
      <feOffset dy="3" input="SourceAlpha"/>
      <feGaussianBlur stdDeviation="3" result="blur"/>
      <feFlood flood-opacity="0.161"/>
      <feComposite operator="in" in2="blur"/>
      <feComposite in="SourceGraphic"/>
    </filter>
    <clipPath id="clip-path">
      <rect id="Rectangle_425301" data-name="Rectangle 425301" width="54" height="62" transform="translate(-6744 -6575)" fill="#fff" stroke="#707070" stroke-width="1" opacity="0"/>
    </clipPath>
  </defs>
  <g id="Group_1205309" data-name="Group 1205309" transform="translate(6770.961 6595.266)">
    <g id="Group_1205301" data-name="Group 1205301" transform="translate(-7562.742 -8551.266)">
      <g id="Group_1203409" data-name="Group 1203409" transform="translate(800.781 1962)">
        <g transform="matrix(1, 0, 0, 1, -9, -6)" filter="url(#Rectangle_411831)">
          <g id="Rectangle_411831-2" data-name="Rectangle 411831" transform="translate(9 6)" fill="#8fe8d5" stroke="#fff" stroke-width="2">
            <path d="M5,0H58A32,32,0,0,1,90,32V85a5,5,0,0,1-5,5H32A32,32,0,0,1,0,58V5A5,5,0,0,1,5,0Z" stroke="none"/>
            <path d="M5,1H58A31,31,0,0,1,89,32V85a4,4,0,0,1-4,4H32A31,31,0,0,1,1,58V5A4,4,0,0,1,5,1Z" fill="none"/>
          </g>
        </g>
      </g>
      <path id="Path_1260076" data-name="Path 1260076" d="M15.052.687H.856V6.415H10.991L.856,16.481l4.1,4.068,10.1-10.031V20.549h5.8V.687Z" transform="translate(799.924 2031.451)" fill="#1f1321" fill-rule="evenodd"/>
      <path id="Path_1260092" data-name="Path 1260092" d="M5.27,15.8h10.8V11.438H8.359l7.709-7.657L12.953.687,5.27,8.318V.687H.856V15.8Z" transform="translate(874.712 1961.314)" fill="#1f1321" fill-rule="evenodd"/>
    </g>
    <g id="Mask_Group_1107887" data-name="Mask Group 1107887" clip-path="url(#clip-path)">
      <g id="cuenta" transform="translate(-6744 -6571)">
        <g id="Group_1205326" data-name="Group 1205326">
          <g id="Group_1205315" data-name="Group 1205315">
            <path id="Path_1270432" data-name="Path 1270432" d="M25.16,32.071a3.8,3.8,0,0,1-.479,1.162l-2.2-.586L20.9,32.226V30.188a.871.871,0,0,1,.528-.8l.818-.351A7.836,7.836,0,0,0,27,21.831v-.057h1.742a3.483,3.483,0,0,0,3.484-3.484v6.146a10.427,10.427,0,0,0-3.3,5.851h0a7.445,7.445,0,0,1-3.761,1.784Z" fill="#656d78"/>
          </g>
          <g id="Group_1205316" data-name="Group 1205316">
            <path id="Path_1270433" data-name="Path 1270433" d="M12.833,11.783a5.635,5.635,0,0,1-4.994,3.023H6.1A3.484,3.484,0,0,0,2.613,18.29V15.677a14.806,14.806,0,0,1,29.613,0V18.29a3.484,3.484,0,0,0-3.484-3.484H27V13.9a1.7,1.7,0,0,0-1.7-1.7h-.911V10.411a1.7,1.7,0,0,0-3.118-.944,3.163,3.163,0,0,1-3.4,1.314l-1.321-.33.871,3.484-1.79-.3a4.105,4.105,0,0,1-2.8-1.854Z" fill="#656d78"/>
          </g>
          <g id="Group_1205317" data-name="Group 1205317">
            <path id="Path_1270434" data-name="Path 1270434" d="M9.679,32.071l-.256-.051A4.136,4.136,0,0,1,6.392,29.5l-.453-.09a4.137,4.137,0,0,1-3.326-4.057V18.29A3.483,3.483,0,0,0,6.1,21.774H7.839v.057a7.836,7.836,0,0,0,4.751,7.205l.818.351a.871.871,0,0,1,.528.8v2.038l-1.581.421-2.2.586a3.8,3.8,0,0,1-.479-1.162Z" fill="#656d78"/>
          </g>
          <g id="Group_1205318" data-name="Group 1205318">
            <path id="Path_1270435" data-name="Path 1270435" d="M27,53.129H.871V42.736A9.147,9.147,0,0,1,7.66,33.9l1.328-.354a8.711,8.711,0,0,0,16.862,0l1.328.354a9.234,9.234,0,0,1,1.837.708,10.463,10.463,0,0,0,4.824,6.6,9.15,9.15,0,0,1,.128,1.533V53.129Z" fill="#ff826e"/>
          </g>
          <g id="Group_1205319" data-name="Group 1205319">
            <path id="Path_1270436" data-name="Path 1270436" d="M24.681,33.233l1.169.312a8.711,8.711,0,0,1-16.862,0l1.169-.312,2.2-.586a5.227,5.227,0,0,0,10.129,0Z" fill="#fc6e51"/>
          </g>
          <g id="Group_1205320" data-name="Group 1205320">
            <path id="Path_1270437" data-name="Path 1270437" d="M28.742,14.806a3.484,3.484,0,1,1,0,6.968H27V14.806Z" fill="#f0d0b4"/>
          </g>
          <g id="Group_1205321" data-name="Group 1205321">
            <path id="Path_1270438" data-name="Path 1270438" d="M27,21.774v.057a7.836,7.836,0,0,1-4.751,7.205l-.818.351a.871.871,0,0,0-.528.8v2.038l1.581.421a5.228,5.228,0,0,1-10.129,0l1.581-.421V30.188a.871.871,0,0,0-.528-.8l-.818-.351a7.836,7.836,0,0,1-4.751-7.205V14.806a5.635,5.635,0,0,0,4.994-3.023,4.105,4.105,0,0,0,2.8,1.854l1.79.3-.871-3.484,1.321.33a3.163,3.163,0,0,0,3.4-1.314,1.7,1.7,0,0,1,3.118.944v1.782H25.3A1.7,1.7,0,0,1,27,13.9v7.879Z" fill="#f0d0b4"/>
          </g>
          <g id="Group_1205322" data-name="Group 1205322">
            <path id="Path_1270439" data-name="Path 1270439" d="M7.839,14.806v6.968H6.1a3.484,3.484,0,1,1,0-6.968Z" fill="#f0d0b4"/>
          </g>
          <g id="Group_1205323" data-name="Group 1205323">
            <path id="Path_1270440" data-name="Path 1270440" d="M53.129,2.613v8.71a1.741,1.741,0,0,1-1.742,1.742H46.161l-1.445,2.888a1.076,1.076,0,0,1-2.039-.481V13.065H37.452a1.741,1.741,0,0,1-1.742-1.742V2.613A1.741,1.741,0,0,1,37.452.871H51.387a1.741,1.741,0,0,1,1.742,1.742Z" fill="#e6e9ed"/>
          </g>
          <g id="Group_1205324" data-name="Group 1205324">
            <path id="Path_1270441" data-name="Path 1270441" d="M40.935,51.387v.871a.871.871,0,0,1-.871.871H38.323a.871.871,0,0,1-.871-.871V42.533h0a10.472,10.472,0,0,0,3.484,0h0v8.854Z" fill="#fcd770"/>
          </g>
          <g id="Group_1205325" data-name="Group 1205325">
            <path id="Path_1270442" data-name="Path 1270442" d="M29.015,34.607a10.452,10.452,0,1,1,11.92,7.925,10.46,10.46,0,0,1-7.1-1.328A10.463,10.463,0,0,1,29.015,34.607Zm17.146-2.381a6.968,6.968,0,1,0-6.968,6.968A6.967,6.967,0,0,0,46.161,32.226Z" fill="#fcd770"/>
          </g>
        </g>
        <g id="Group_1205327" data-name="Group 1205327">
          <path id="Path_1270443" data-name="Path 1270443" d="M15.677,19.95a1.662,1.662,0,0,1,1.66-1.66H17.5a1.66,1.66,0,0,1,.525,3.234l-1.478.493v4.112H18.29V23.273l.287-.1A3.4,3.4,0,0,0,17.5,16.548h-.164a3.406,3.406,0,0,0-3.4,3.4v.082h1.742Z"/>
          <circle id="Ellipse_12429" data-name="Ellipse 12429" cx="0.871" cy="0.871" r="0.871" transform="translate(16.548 27.871)"/>
          <path id="Path_1270444" data-name="Path 1270444" d="M39.194,24.387a7.839,7.839,0,1,0,7.839,7.839A7.848,7.848,0,0,0,39.194,24.387Zm0,13.935a6.1,6.1,0,1,1,6.1-6.1A6.1,6.1,0,0,1,39.194,38.323Z"/>
          <path id="Path_1270445" data-name="Path 1270445" d="M39.194,20.9a11.256,11.256,0,0,0-6.1,1.785V15.677a15.677,15.677,0,0,0-31.355,0V25.35a5.021,5.021,0,0,0,4.026,4.911l.022,0a5.026,5.026,0,0,0,2.9,2.459l-1.25.333A10.028,10.028,0,0,0,0,42.736V54H34.839V42.736c0-.02,0-.04,0-.059a11.234,11.234,0,0,0,1.743.567v9.015A1.744,1.744,0,0,0,38.323,54h1.742a1.744,1.744,0,0,0,1.742-1.742h1.742V50.516H41.806V48.774H45.29V47.032H41.806V43.244A11.323,11.323,0,0,0,39.194,20.9ZM28.13,29.816a6.558,6.558,0,0,1-2,1.116v-1.32H24.387v1.6a2.949,2.949,0,0,1-.173.994l-2.44-.651V30.187l.818-.351a8.7,8.7,0,0,0,5.239-7.191h.91a4.332,4.332,0,0,0,2.613-.873v2.292a11.319,11.319,0,0,0-3.225,5.753Zm-.216,3.392q-.253-.082-.511-.151l-1.209-.322a8.3,8.3,0,0,0,1.678-.668c0,.053,0,.105,0,.159,0,.331.015.659.043.983ZM11.79,33.7a6.068,6.068,0,0,0,1.14,1.784L11.7,36.714a7.816,7.816,0,0,1-1.6-2.563ZM6.968,20.9H6.1a2.613,2.613,0,1,1,0-5.226h.871ZM8.71,15.619a6.479,6.479,0,0,0,4.207-2.379,4.978,4.978,0,0,0,2.57,1.256l3.1.517-.841-3.365a4.044,4.044,0,0,0,4.248-1.7.831.831,0,0,1,1.523.461v2.653H25.3a.832.832,0,0,1,.831.831v7.936a6.96,6.96,0,0,1-4.223,6.4l-.818.351a1.74,1.74,0,0,0-1.056,1.6v2.708l1.312.35a4.358,4.358,0,0,1-7.85,0l1.312-.35V30.187a1.74,1.74,0,0,0-1.056-1.6l-.818-.35a6.96,6.96,0,0,1-4.223-6.4Zm5.579,20.97a6.085,6.085,0,0,0,2.26.8v1.755a7.823,7.823,0,0,1-3.519-1.3Zm4,.8a6.085,6.085,0,0,0,2.26-.8l1.259,1.259a7.823,7.823,0,0,1-3.519,1.3Zm4.849-.674-1.231-1.231a6.071,6.071,0,0,0,1.14-1.784l1.694.452A7.816,7.816,0,0,1,23.14,36.714Zm4.731-21.037h.871a2.613,2.613,0,0,1,0,5.226h-.871ZM17.419,1.742A13.953,13.953,0,0,1,31.326,14.787a4.331,4.331,0,0,0-2.584-.852h-.871V13.9A2.576,2.576,0,0,0,25.3,11.323h-.04v-.911a2.573,2.573,0,0,0-4.714-1.427,2.3,2.3,0,0,1-2.464.953l-2.729-.682.9,3.6-.479-.08a3.232,3.232,0,0,1-2.709-3.2H11.323a4.988,4.988,0,0,0,.5,2.193,4.743,4.743,0,0,1-3.118,2.08v-3.4H6.968v3.484H6.1a4.331,4.331,0,0,0-2.584.852A13.953,13.953,0,0,1,17.419,1.742ZM6.968,27.963V26.129H5.226v1.834c0,.094,0,.186.009.279A3.276,3.276,0,0,1,3.484,25.35V21.772a4.332,4.332,0,0,0,2.613.873h.91a8.7,8.7,0,0,0,5.239,7.192l.818.351v1.369l-2.44.651a2.949,2.949,0,0,1-.173-.994v-1.6H8.71V30.85A3.277,3.277,0,0,1,6.968,27.963ZM33.1,42.736v9.522H27.871v-8.71H26.129v8.71H8.71v-8.71H6.968v8.71H1.742V42.736a8.284,8.284,0,0,1,6.142-7.995l.521-.139a9.581,9.581,0,0,0,18.027,0l.521.139a8.307,8.307,0,0,1,1.318.475,11.365,11.365,0,0,0,4.762,6.506A8.346,8.346,0,0,1,33.1,42.736Zm6.968,9.522H38.323V43.515q.431.033.871.033t.871-.033Zm-.871-10.452a9.581,9.581,0,1,1,9.581-9.581A9.592,9.592,0,0,1,39.194,41.806Z"/>
          <path id="Path_1270446" data-name="Path 1270446" d="M51.387,0H37.452a2.616,2.616,0,0,0-2.613,2.613v8.71a2.616,2.616,0,0,0,2.613,2.613h4.355v1.536a1.948,1.948,0,0,0,3.69.871l1.2-2.407h4.688A2.616,2.616,0,0,0,54,11.323V2.613A2.616,2.616,0,0,0,51.387,0Zm.871,11.323a.872.872,0,0,1-.871.871H45.623l-1.685,3.37a.206.206,0,0,1-.39-.092V12.194h-6.1a.872.872,0,0,1-.871-.871V2.613a.872.872,0,0,1,.871-.871H51.387a.872.872,0,0,1,.871.871Z"/>
          <path id="Path_1270447" data-name="Path 1270447" d="M42.933,3.739l-2,2-2-2L37.707,4.971l2,2-2,2L38.938,10.2l2-2,2,2,1.232-1.232-2-2,2-2Z"/>
          <path id="Path_1270448" data-name="Path 1270448" d="M49.9,3.739l-2,2-2-2L44.674,4.971l2,2-2,2L45.906,10.2l2-2,2,2,1.232-1.232-2-2,2-2Z"/>
        </g>
      </g>
    </g>
  </g>
</svg>
