<svg xmlns="http://www.w3.org/2000/svg" xmlns:xlink="http://www.w3.org/1999/xlink" width="107.999" height="107.999" viewBox="0 0 107.999 107.999">
  <defs>
    <filter id="Rectangle_411831" x="0" y="0" width="107.999" height="107.999" filterUnits="userSpaceOnUse">
      <feOffset dy="3" input="SourceAlpha"/>
      <feGaussianBlur stdDeviation="3" result="blur"/>
      <feFlood flood-opacity="0.161"/>
      <feComposite operator="in" in2="blur"/>
      <feComposite in="SourceGraphic"/>
    </filter>
    <clipPath id="clip-path">
      <rect id="Rectangle_424839" data-name="Rectangle 424839" width="50.999" height="57.999" transform="translate(-6708 -10662)" fill="#fff" stroke="#707070" stroke-width="1" opacity="0"/>
    </clipPath>
  </defs>
  <g id="Group_1203897" data-name="Group 1203897" transform="translate(6736.27 10684)">
    <g id="Group_1203888" data-name="Group 1203888" transform="translate(-6727.271 -10678)">
      <g id="Group_1203409" data-name="Group 1203409" transform="translate(0.001)">
        <g transform="matrix(1, 0, 0, 1, -9, -6)" filter="url(#Rectangle_411831)">
          <g id="Rectangle_411831-2" data-name="Rectangle 411831" transform="translate(9 6)" fill="#d9aef1" stroke="#fff" stroke-width="2">
            <path d="M5,0H58A32,32,0,0,1,90,32V85a5,5,0,0,1-5,5H32A32,32,0,0,1,0,58V5A5,5,0,0,1,5,0Z" stroke="none"/>
            <path d="M5,1H58A31,31,0,0,1,89,32V85a4,4,0,0,1-4,4H32A31,31,0,0,1,1,58V5A4,4,0,0,1,5,1Z" fill="none"/>
          </g>
        </g>
      </g>
      <path id="Path_1260076" data-name="Path 1260076" d="M16.614.687H.856V7.046h11.25L.856,18.219,5.4,22.735,16.614,11.6V22.735h6.441V.687Z" transform="translate(-0.856 67.265)" fill="#1f1321" fill-rule="evenodd"/>
      <path id="Path_1260092" data-name="Path 1260092" d="M5.755,17.459H17.742V12.622H9.184l8.558-8.5L14.284.687,5.755,9.157V.687H.856V17.459Z" transform="translate(72.258 -0.686)" fill="#1f1321" fill-rule="evenodd"/>
    </g>
    <g id="Mask_Group_1107880" data-name="Mask Group 1107880" clip-path="url(#clip-path)">
      <g id="comercializacion" transform="translate(-6711.5 -10662)">
        <g id="Group_1205286" data-name="Group 1205286">
          <path id="Path_1270326" data-name="Path 1270326" d="M27.706,25.2v5.1l-11.1.975L6.158,30.3V25.2l10.065-1.071Z" fill="#f9f8f9"/>
          <path id="Path_1270327" data-name="Path 1270327" d="M52.609,51.825v3.059L52.4,55a1.7,1.7,0,0,1-1.7,1.7l-16.157-.058a1.7,1.7,0,0,1-1.7-1.7l-.283-3.118,10.025-1.257Z" fill="#b2e5fb"/>
          <path id="Path_1270328" data-name="Path 1270328" d="M52.609,33.9v.145l-10.587,1-9.463-1,.516-.893s2.094-6.456,2.321-7.308l.493-5.846,6.694-1.558,6.7,1.558,2.991,11.291a10.208,10.208,0,0,1,.34,2.611Z" fill="#b2e5fb"/>
          <path id="Path_1270329" data-name="Path 1270329" d="M33.692,34.04H52.609V51.825H33.692Z" fill="#736572"/>
          <g id="Group_1205284" data-name="Group 1205284">
            <path id="Path_1270330" data-name="Path 1270330" d="M45.516,46.636a3.934,3.934,0,0,1-4.969.924.12.12,0,0,1-.023-.19l1.938-1.938a.118.118,0,0,1,.154-.013,5.727,5.727,0,0,0,2.819,1.019.122.122,0,0,1,.081.2Z" fill="#75cff9"/>
            <path id="Path_1270331" data-name="Path 1270331" d="M46.013,44.826c0,.119-.007.236-.018.352a.114.114,0,0,1-.1.1c-.117.011-.234.018-.352.018a3.627,3.627,0,0,1-3.623-3.623c0-.12.007-.237.018-.352a.112.112,0,0,1,.1-.1c.117-.011.234-.018.353-.018a3.628,3.628,0,0,1,3.623,3.623Z" fill="#91dafa"/>
            <path id="Path_1270332" data-name="Path 1270332" d="M41.881,44.8,39.8,46.879a.129.129,0,0,1-.2-.025,4.228,4.228,0,0,1,.993-5.342.131.131,0,0,1,.214.087A6.156,6.156,0,0,0,41.9,44.63a.127.127,0,0,1-.014.166Z" fill="#b2e5fb"/>
          </g>
          <path id="Path_1270333" data-name="Path 1270333" d="M49.279,19.994H36.229l2.492-9.41A5.594,5.594,0,0,0,38.89,9.22V5.861l7.727.029V9.22a5.541,5.541,0,0,0,.17,1.364Z" fill="#f9f8f9"/>
          <path id="Path_1270334" data-name="Path 1270334" d="M38.233,19.994,35.088,31.867a7.869,7.869,0,0,0-.264,2.029v.145l-1.031,1.069L32.559,34.04V33.9a10.159,10.159,0,0,1,.34-2.611l2.991-11.291,1.081-1.009Z" fill="#91dafa"/>
          <path id="Path_1270335" data-name="Path 1270335" d="M52.609,54.884v.566a1.7,1.7,0,0,1-1.7,1.7H34.258a1.7,1.7,0,0,1-1.7-1.7V51.825l1.133-.838,1.133.838v1.926a1.133,1.133,0,0,0,1.133,1.133Z" fill="#91dafa"/>
          <path id="Path_1270336" data-name="Path 1270336" d="M27.706,51.825v3.059l-.463.225a1.7,1.7,0,0,1-1.7,1.7L7.71,56.594a1.7,1.7,0,0,1-1.7-1.7L5.39,51.825l11.158-.838Z" fill="#ff7e92"/>
          <path id="Path_1270337" data-name="Path 1270337" d="M6.158,30.3H27.706V51.825H6.158Z" fill="#ff5f7a"/>
          <path id="Path_1270338" data-name="Path 1270338" d="M27.706,24.283V25.2H5.39l.566-.922a3.4,3.4,0,0,1,1.632-2.9l2.684-1.633a1.132,1.132,0,0,0,.544-.967l-.566-2.6,12.6.029v2.569a1.132,1.132,0,0,0,.544.967l2.684,1.633a3.4,3.4,0,0,1,1.631,2.9Z" fill="#ff7e92"/>
          <g id="Group_1205285" data-name="Group 1205285">
            <path id="Path_1270339" data-name="Path 1270339" d="M21.983,45.019a6.307,6.307,0,0,1-9.331,2.053l3.818-3.818a8.07,8.07,0,0,0,5.062,1.778C21.682,45.032,21.832,45.027,21.983,45.019Z" fill="#75cff9"/>
            <path id="Path_1270340" data-name="Path 1270340" d="M15.858,42.813l-3.432,3.432a5.669,5.669,0,0,1,1.844-8.387c-.006.133-.011.268-.011.4A7.254,7.254,0,0,0,15.858,42.813Z" fill="#b2e5fb"/>
            <path id="Path_1270341" data-name="Path 1270341" d="M21.875,42.9a5.363,5.363,0,0,1-.086.951,5.411,5.411,0,0,1-6.277-6.274,5.5,5.5,0,0,1,.954-.086A5.415,5.415,0,0,1,21.875,42.9Z" fill="#91dafa"/>
          </g>
          <path id="Path_1270342" data-name="Path 1270342" d="M40.816,5.883V9.22a7.867,7.867,0,0,1-.237,1.917l-2.346,8.857H35.889l2.492-9.41A5.594,5.594,0,0,0,38.55,9.22V5.875Z" fill="#e8e8e8"/>
          <path id="Path_1270343" data-name="Path 1270343" d="M47.4,6.514H40.816l-2.778-.266a.566.566,0,0,1-.566-.566L37.51,1.69a.566.566,0,0,1,.566-.566L40.816.85H47.4a.566.566,0,0,1,.566.566V2.832l-.635.85.635.85V5.947a.566.566,0,0,1-.566.566Z" fill="#736572"/>
          <path id="Path_1270344" data-name="Path 1270344" d="M40.816.85V6.514H37.77a.567.567,0,0,1-.566-.566V4.531l1.059-.788L37.2,2.832V1.416A.567.567,0,0,1,37.77.85Z" fill="#615260"/>
          <path id="Path_1270345" data-name="Path 1270345" d="M32.559,34.04h2.266V51.825H32.559Z" fill="#615260"/>
          <path id="Path_1270346" data-name="Path 1270346" d="M7.655,25.2v5.1l-1.227.869L5.39,30.3V25.2l1.133-.84Z" fill="#e8e8e8"/>
          <path id="Path_1270347" data-name="Path 1270347" d="M27.706,54.884v.566a1.7,1.7,0,0,1-1.7,1.7H7.089a1.7,1.7,0,0,1-1.7-1.7V51.825l1.043-.91,1.223.91v2.266a.793.793,0,0,0,.793.793Z" fill="#ff5f7a"/>
          <path id="Path_1270348" data-name="Path 1270348" d="M12.515,16.185v2.593a3.414,3.414,0,0,1-1.631,2.9L8.2,23.314a1.14,1.14,0,0,0-.545.969V25.2H5.39v-.922a3.4,3.4,0,0,1,1.632-2.9l2.684-1.633a1.132,1.132,0,0,0,.544-.967v-2.6Z" fill="#ff5f7a"/>
          <path id="Path_1270349" data-name="Path 1270349" d="M5.39,30.3H7.655V51.825H5.39Z" fill="#ef4b72"/>
          <path id="Path_1270350" data-name="Path 1270350" d="M23.628,16.709H12.515L9.9,16.463a.566.566,0,0,1-.566-.566L9.3,11.841a.566.566,0,0,1,.566-.566l2.653-.23H23.628a.566.566,0,0,1,.566.566v4.531A.566.566,0,0,1,23.628,16.709Z" fill="#f9f8f9"/>
          <path id="Path_1270351" data-name="Path 1270351" d="M12.515,11.045v5.664H9.468a.567.567,0,0,1-.566-.566V11.611a.567.567,0,0,1,.566-.566Z" fill="#e8e8e8"/>
        </g>
        <g id="Group_1205287" data-name="Group 1205287">
          <path id="Path_1270352" data-name="Path 1270352" d="M53.09,31.067l-.95-3.588a.85.85,0,0,0-1.643.435l.95,3.588a9.348,9.348,0,0,1,.284,1.689H42.272a.85.85,0,1,0,0,1.7h9.487V50.976H33.408V34.89h4.9a.85.85,0,1,0,0-1.7H33.436a9.337,9.337,0,0,1,.284-1.689l2.823-10.659H48.625l.866,3.272a.85.85,0,1,0,1.643-.435l-3.524-13.3a4.731,4.731,0,0,1-.144-1.156V7.36a1.417,1.417,0,0,0,1.348-1.412V1.416A1.418,1.418,0,0,0,47.4,0H37.769a1.418,1.418,0,0,0-1.416,1.416V5.947A1.416,1.416,0,0,0,37.7,7.36V9.22a4.711,4.711,0,0,1-.141,1.146l-5.483,20.7a11.047,11.047,0,0,0-.368,2.828V55.45A2.552,2.552,0,0,0,34.257,58H50.91a2.552,2.552,0,0,0,2.549-2.549V33.9a11.047,11.047,0,0,0-.368-2.828ZM38.052,5.664V4.531h9.062V5.664ZM47.115,1.7V2.832H38.052V1.7ZM39.2,10.791a6.43,6.43,0,0,0,.2-1.571V7.363h6.367V9.22a6.445,6.445,0,0,0,.2,1.581l2.21,8.343H36.993ZM50.91,56.3H34.258a.85.85,0,0,1-.85-.85V52.675H51.759V55.45A.851.851,0,0,1,50.91,56.3Z"/>
          <path id="Path_1270353" data-name="Path 1270353" d="M42.584,39.989a4.644,4.644,0,1,0,4.644,4.644A4.649,4.649,0,0,0,42.584,39.989Zm2.944,4.644c0,.084,0,.167-.011.25-.083.007-.167.012-.25.012a2.948,2.948,0,0,1-2.944-2.944c0-.085,0-.168.011-.25.083-.007.166-.011.25-.011A2.948,2.948,0,0,1,45.528,44.632Zm-4.882-2.215a4.615,4.615,0,0,0,.793,2.157L39.99,46.024a2.938,2.938,0,0,1,.656-3.607Zm1.937,5.159a2.926,2.926,0,0,1-1.392-.351l1.449-1.449a4.614,4.614,0,0,0,2.157.793,2.938,2.938,0,0,1-2.215,1.007Z"/>
          <path id="Path_1270354" data-name="Path 1270354" d="M45.416,36.589H39.752a.85.85,0,1,0,0,1.7h5.664a.85.85,0,0,0,0-1.7Z"/>
          <path id="Path_1270355" data-name="Path 1270355" d="M26.516,20.654,23.833,19.02a.285.285,0,0,1-.136-.242V17.555a1.417,1.417,0,0,0,1.348-1.412V11.611A1.418,1.418,0,0,0,23.628,10.2H17.115a.85.85,0,0,0,0,1.7h6.23v3.965H9.751V11.894h3.4a.85.85,0,0,0,0-1.7H9.468a1.418,1.418,0,0,0-1.416,1.416v4.531A1.416,1.416,0,0,0,9.4,17.555v1.224a.285.285,0,0,1-.136.242L6.58,20.654a4.273,4.273,0,0,0-2.039,3.629V41.432a.85.85,0,0,0,1.7,0V31.152H26.857V50.976H6.24V45.4a.85.85,0,1,0-1.7,0V55.45A2.552,2.552,0,0,0,7.089,58H26.007a2.552,2.552,0,0,0,2.549-2.549V24.283a4.273,4.273,0,0,0-2.039-3.629ZM7.464,22.105l2.684-1.633a1.994,1.994,0,0,0,.952-1.693v-1.22H22v1.22a1.994,1.994,0,0,0,.952,1.693l2.684,1.634a2.564,2.564,0,0,1,1.224,2.177v.072H6.24v-.072a2.564,2.564,0,0,1,1.224-2.177ZM6.24,29.453v-3.4H26.857v3.4ZM26.007,56.3H7.089a.85.85,0,0,1-.85-.85V52.675H26.857V55.45A.85.85,0,0,1,26.007,56.3Z"/>
          <path id="Path_1270356" data-name="Path 1270356" d="M19.947,34.55a.85.85,0,1,0,0-1.7h-6.8a.85.85,0,0,0,0,1.7Z"/>
          <path id="Path_1270357" data-name="Path 1270357" d="M10.093,42.763A6.512,6.512,0,1,0,16.6,36.251a6.52,6.52,0,0,0-6.512,6.512ZM16.6,47.576a4.785,4.785,0,0,1-2.747-.864l2.79-2.79a6.647,6.647,0,0,0,4.065,1.347A4.814,4.814,0,0,1,16.6,47.576Zm4.813-4.813a4.83,4.83,0,0,1-.058.748,4.805,4.805,0,0,1-5.5-5.5,4.813,4.813,0,0,1,5.562,4.755ZM14.1,38.656a6.653,6.653,0,0,0,1.347,4.065l-2.79,2.79A4.805,4.805,0,0,1,14.1,38.656Z"/>
        </g>
      </g>
    </g>
  </g>
</svg>
