<svg xmlns="http://www.w3.org/2000/svg" xmlns:xlink="http://www.w3.org/1999/xlink" width="107.999" height="107.999" viewBox="0 0 107.999 107.999">
  <defs>
    <filter id="Rectangle_411831" x="0" y="0" width="107.999" height="107.999" filterUnits="userSpaceOnUse">
      <feOffset dy="3" input="SourceAlpha"/>
      <feGaussianBlur stdDeviation="3" result="blur"/>
      <feFlood flood-opacity="0.161"/>
      <feComposite operator="in" in2="blur"/>
      <feComposite in="SourceGraphic"/>
    </filter>
    <clipPath id="clip-path">
      <rect id="Rectangle_425353" data-name="Rectangle 425353" width="51" height="54" transform="translate(-1598 -9837)" fill="#fff" stroke="#707070" stroke-width="1" opacity="0"/>
    </clipPath>
    <clipPath id="clip-path-2">
      <path id="path11571" d="M0-51H51V0H0Z"/>
    </clipPath>
  </defs>
  <g id="Group_1205626" data-name="Group 1205626" transform="translate(1626.416 9861.287)">
    <g id="Group_1205618" data-name="Group 1205618" transform="translate(5109.854 822.713)">
      <g id="Group_1203888" data-name="Group 1203888" transform="translate(-6727.271 -10678)">
        <g id="Group_1203409" data-name="Group 1203409" transform="translate(0.001)">
          <g transform="matrix(1, 0, 0, 1, -9, -6)" filter="url(#Rectangle_411831)">
            <g id="Rectangle_411831-2" data-name="Rectangle 411831" transform="translate(9 6)" fill="#d9aef1" stroke="#fff" stroke-width="2">
              <path d="M5,0H58A32,32,0,0,1,90,32V85a5,5,0,0,1-5,5H32A32,32,0,0,1,0,58V5A5,5,0,0,1,5,0Z" stroke="none"/>
              <path d="M5,1H58A31,31,0,0,1,89,32V85a4,4,0,0,1-4,4H32A31,31,0,0,1,1,58V5A4,4,0,0,1,5,1Z" fill="none"/>
            </g>
          </g>
        </g>
        <path id="Path_1260076" data-name="Path 1260076" d="M16.614.687H.856V7.046h11.25L.856,18.219,5.4,22.735,16.614,11.6V22.735h6.441V.687Z" transform="translate(-0.856 67.265)" fill="#1f1321" fill-rule="evenodd"/>
        <path id="Path_1260092" data-name="Path 1260092" d="M5.755,17.459H17.742V12.622H9.184l8.558-8.5L14.284.687,5.755,9.157V.687H.856V17.459Z" transform="translate(72.258 -0.686)" fill="#1f1321" fill-rule="evenodd"/>
      </g>
    </g>
    <g id="Mask_Group_1107927" data-name="Mask Group 1107927" clip-path="url(#clip-path)">
      <g id="g11565" transform="translate(-1598 -9784.5)">
        <g id="g11567">
          <g id="g11569" clip-path="url(#clip-path-2)">
            <g id="g11575" transform="translate(11.067 -27.127)">
              <path id="path11577" d="M0,0V2.231A5.922,5.922,0,0,0,5.945,8.176a5.83,5.83,0,0,0,5.716-5.83V0A5.831,5.831,0,0,0,5.831-5.831,5.831,5.831,0,0,0,0,0" fill="#ffcec0"/>
            </g>
            <g id="g11579" transform="translate(18.829 -19.279)">
              <path id="path11581" d="M0,0A5.832,5.832,0,0,0,3.9-5.5V-7.848a5.831,5.831,0,0,0-5.831-5.831A5.831,5.831,0,0,0-7.762-7.848v2.231A5.982,5.982,0,0,0-3.688.047" fill="none" stroke="#000" stroke-linecap="round" stroke-linejoin="round" stroke-miterlimit="10" stroke-width="1.494"/>
            </g>
            <g id="g11583" transform="translate(11.972 -26.877)">
              <path id="path11585" d="M0,0A1.843,1.843,0,0,1-.5,2.559a1.843,1.843,0,0,1-2.559-.5A1.843,1.843,0,0,1-2.559-.5,1.843,1.843,0,0,1,0,0" fill="#ffcec0"/>
            </g>
            <g id="g11587" transform="translate(11.474 -24.318)">
              <path id="path11589" d="M0,0A1.843,1.843,0,0,1-2.559-.5a1.843,1.843,0,0,1,.5-2.559,1.843,1.843,0,0,1,2.559.5" fill="none" stroke="#000" stroke-linecap="round" stroke-linejoin="round" stroke-miterlimit="10" stroke-width="1.494"/>
            </g>
            <g id="g11591" transform="translate(15.731 -22.937)">
              <path id="path11593" d="M0,0A1.942,1.942,0,0,0,1.631.887,1.942,1.942,0,0,0,3.262,0" fill="none" stroke="#000" stroke-linecap="round" stroke-linejoin="round" stroke-miterlimit="10" stroke-width="1.494"/>
            </g>
            <g id="g11595" transform="translate(8.911 -29.884)">
              <path id="path11597" d="M0,0A5.149,5.149,0,0,0,.343,1.851a5.147,5.147,0,0,0,1.851.343,5.16,5.16,0,0,0,5.16-5.162,5.146,5.146,0,0,0-.343-1.851A5.132,5.132,0,0,0,5.16-5.162,5.16,5.16,0,0,0,0,0" fill="#384848"/>
            </g>
            <g id="g11599" transform="translate(8.911 -29.884)">
              <path id="path11601" d="M0,0A5.149,5.149,0,0,0,.343,1.851a5.147,5.147,0,0,0,1.851.343,5.16,5.16,0,0,0,5.16-5.162,5.146,5.146,0,0,0-.343-1.851A5.132,5.132,0,0,0,5.16-5.162,5.16,5.16,0,0,0,0,0Z" fill="none" stroke="#000" stroke-linecap="round" stroke-linejoin="round" stroke-miterlimit="10" stroke-width="1.494"/>
            </g>
            <g id="g11603" transform="translate(24.63 -30.818)">
              <path id="path11605" d="M0,0A6.782,6.782,0,0,1-.149,2.476a6.786,6.786,0,0,1-2.365.747,6.8,6.8,0,0,1-7.58-5.916l0-.026A2.888,2.888,0,0,1-7.605-5.913l.026,0A6.8,6.8,0,0,1,0,0" fill="#47666b"/>
            </g>
            <g id="g11607" transform="translate(24.481 -28.342)">
              <path id="path11609" d="M0,0A6.8,6.8,0,0,1-2.219.727a6.781,6.781,0,0,0,.133-2.407A6.8,6.8,0,0,0-9.042-7.643a2.846,2.846,0,0,1,1.586-.745l.025,0A6.8,6.8,0,0,1,.149-2.476,6.8,6.8,0,0,1,0,0" fill="#3f5958"/>
            </g>
            <g id="g11611" transform="translate(24.63 -30.818)">
              <path id="path11613" d="M0,0A6.782,6.782,0,0,1-.149,2.476a6.786,6.786,0,0,1-2.365.747,6.8,6.8,0,0,1-7.58-5.916l0-.026A2.888,2.888,0,0,1-7.605-5.913l.026,0A6.8,6.8,0,0,1,0,0Z" fill="none" stroke="#000" stroke-linecap="round" stroke-linejoin="round" stroke-miterlimit="10" stroke-width="1.494"/>
            </g>
            <g id="g11615" transform="translate(14.739 -25.518)">
              <path id="path11617" d="M0,0V.407" fill="none" stroke="#000" stroke-linecap="round" stroke-linejoin="round" stroke-miterlimit="10" stroke-width="1.494"/>
            </g>
            <g id="g11619" transform="translate(20.071 -25.518)">
              <path id="path11621" d="M0,0V.407" fill="none" stroke="#000" stroke-linecap="round" stroke-linejoin="round" stroke-miterlimit="10" stroke-width="1.494"/>
            </g>
            <g id="g11623" transform="translate(38.56 -23.923)">
              <path id="path11625" d="M0,0H-7.691a3.84,3.84,0,0,1-3.84-3.84V-5.357a7.685,7.685,0,0,1,7.685-7.685A7.686,7.686,0,0,1,3.84-5.357V-3.84A3.84,3.84,0,0,1,0,0" fill="#fca62f"/>
            </g>
            <g id="g11627" transform="translate(42.4 -29.28)">
              <path id="path11629" d="M0,0V1.518A3.839,3.839,0,0,1-3.839,5.357H-6.372a3.84,3.84,0,0,0,3.84-3.839V0A7.666,7.666,0,0,0-4.782-5.435,7.652,7.652,0,0,0-8.951-7.581a7.675,7.675,0,0,1,1.266-.1A7.661,7.661,0,0,1-2.25-5.435,7.665,7.665,0,0,1,0,0" fill="#f98824"/>
            </g>
            <g id="g11631" transform="translate(38.824 -35.773)">
              <path id="path11633" d="M0,0A7.647,7.647,0,0,0-4.109-1.192a7.686,7.686,0,0,0-7.685,7.686V8.011a3.84,3.84,0,0,0,3.84,3.84H-.264a3.84,3.84,0,0,0,3.84-3.84V6.493A7.647,7.647,0,0,0,2.553,2.663" fill="none" stroke="#000" stroke-linecap="round" stroke-linejoin="round" stroke-miterlimit="10" stroke-width="1.494"/>
            </g>
            <g id="g11635" transform="translate(39.589 -26.167)">
              <path id="path11637" d="M0,0V1.837a5.38,5.38,0,0,1-5.38,5.38,5.38,5.38,0,0,1-5.38-5.38V0A5.383,5.383,0,0,1-7.191-5.067,8.691,8.691,0,0,0-.112-1.1,5.437,5.437,0,0,1,0,0" fill="#ffcec0"/>
            </g>
            <g id="g11639" transform="translate(39.589 -26.167)">
              <path id="path11641" d="M0,0V1.837a5.38,5.38,0,0,1-5.38,5.38,5.38,5.38,0,0,1-5.38-5.38V0A5.383,5.383,0,0,1-7.191-5.067,8.691,8.691,0,0,0-.112-1.1,5.437,5.437,0,0,1,0,0Z" fill="none" stroke="#000" stroke-linecap="round" stroke-linejoin="round" stroke-miterlimit="10" stroke-width="1.494"/>
            </g>
            <g id="g11643" transform="translate(32.397 -31.234)">
              <path id="path11645" d="M0,0-.7-1.135" fill="none" stroke="#000" stroke-linecap="round" stroke-linejoin="round" stroke-miterlimit="10" stroke-width="1.494"/>
            </g>
            <g id="g11647" transform="translate(31.986 -23.076)">
              <path id="path11649" d="M0,0A2.187,2.187,0,0,0,1.836,1,2.187,2.187,0,0,0,3.672,0" fill="none" stroke="#000" stroke-linecap="round" stroke-linejoin="round" stroke-miterlimit="10" stroke-width="1.494"/>
            </g>
            <g id="g11651" transform="translate(31.109 -25.947)">
              <path id="path11653" d="M0,0V.408" fill="none" stroke="#000" stroke-linecap="round" stroke-linejoin="round" stroke-miterlimit="10" stroke-width="1.494"/>
            </g>
            <g id="g11655" transform="translate(36.445 -25.947)">
              <path id="path11657" d="M0,0V.408" fill="none" stroke="#000" stroke-linecap="round" stroke-linejoin="round" stroke-miterlimit="10" stroke-width="1.494"/>
            </g>
            <g id="g11659" transform="translate(38.49 -26.978)">
              <path id="path11661" d="M0,0A1.845,1.845,0,1,0,2.561-.5,1.845,1.845,0,0,0,0,0" fill="#ffcec0"/>
            </g>
            <g id="g11663" transform="translate(38.988 -24.417)">
              <path id="path11665" d="M0,0A1.845,1.845,0,0,0,2.561-.5a1.845,1.845,0,0,0-.5-2.561,1.845,1.845,0,0,0-2.561.5" fill="none" stroke="#000" stroke-linecap="round" stroke-linejoin="round" stroke-miterlimit="10" stroke-width="1.494"/>
            </g>
            <g id="g11667" transform="translate(34.715 -40.925)">
              <path id="path11669" d="M0,0A1.845,1.845,0,0,0-1.845-1.845,1.845,1.845,0,0,0-3.69,0,1.845,1.845,0,0,0-1.845,1.845,1.845,1.845,0,0,0,0,0" fill="#ffcec0"/>
            </g>
            <g id="g11671" transform="translate(34.715 -40.925)">
              <path id="path11673" d="M0,0A1.845,1.845,0,0,0-1.845-1.845,1.845,1.845,0,0,0-3.69,0,1.845,1.845,0,0,0-1.845,1.845,1.845,1.845,0,0,0,0,0Z" fill="none" stroke="#000" stroke-linecap="round" stroke-linejoin="round" stroke-miterlimit="10" stroke-width="1.494"/>
            </g>
            <g id="g11675" transform="translate(20.749 -40.925)">
              <path id="path11677" d="M0,0A1.845,1.845,0,0,0-1.845-1.845,1.845,1.845,0,0,0-3.69,0,1.845,1.845,0,0,0-1.845,1.845,1.845,1.845,0,0,0,0,0" fill="#ffcec0"/>
            </g>
            <g id="g11679" transform="translate(20.749 -40.925)">
              <path id="path11681" d="M0,0A1.845,1.845,0,0,0-1.845-1.845,1.845,1.845,0,0,0-3.69,0,1.845,1.845,0,0,0-1.845,1.845,1.845,1.845,0,0,0,0,0Z" fill="none" stroke="#000" stroke-linecap="round" stroke-linejoin="round" stroke-miterlimit="10" stroke-width="1.494"/>
            </g>
            <g id="g11683" transform="translate(19.671 -41.928)">
              <path id="path11685" d="M0,0V2.39A6.342,6.342,0,0,0,6.366,8.756a6.244,6.244,0,0,0,6.122-6.243V0A6.244,6.244,0,0,0,6.244-6.244,6.244,6.244,0,0,0,0,0" fill="#ffcec0"/>
            </g>
            <g id="g11687" transform="translate(19.671 -41.928)">
              <path id="path11689" d="M0,0V2.39A6.342,6.342,0,0,0,6.366,8.756a6.244,6.244,0,0,0,6.122-6.243V0A6.244,6.244,0,0,0,6.244-6.244,6.244,6.244,0,0,0,0,0Z" fill="none" stroke="#000" stroke-linecap="round" stroke-linejoin="round" stroke-miterlimit="10" stroke-width="1.494"/>
            </g>
            <g id="g11691" transform="translate(23.06 -40.205)">
              <path id="path11693" d="M0,0V.436" fill="none" stroke="#000" stroke-linecap="round" stroke-linejoin="round" stroke-miterlimit="10" stroke-width="1.494"/>
            </g>
            <g id="g11695" transform="translate(28.77 -40.205)">
              <path id="path11697" d="M0,0V.436" fill="none" stroke="#000" stroke-linecap="round" stroke-linejoin="round" stroke-miterlimit="10" stroke-width="1.494"/>
            </g>
            <g id="g11699" transform="translate(24.168 -37.44)">
              <path id="path11701" d="M0,0A2.08,2.08,0,0,0,1.747.95,2.08,2.08,0,0,0,3.493,0" fill="none" stroke="#000" stroke-linecap="round" stroke-linejoin="round" stroke-miterlimit="10" stroke-width="1.494"/>
            </g>
            <g id="g11703" transform="translate(18.406 -44.47)">
              <path id="path11705" d="M0,0A5.767,5.767,0,0,0,.384,2.074a5.767,5.767,0,0,0,2.074.384A5.782,5.782,0,0,0,8.239-3.325,5.766,5.766,0,0,0,7.855-5.4a5.752,5.752,0,0,0-2.074-.384A5.782,5.782,0,0,0,0,0" fill="#a9d3d8"/>
            </g>
            <g id="g11707" transform="translate(18.406 -44.47)">
              <path id="path11709" d="M0,0A5.767,5.767,0,0,0,.384,2.074a5.767,5.767,0,0,0,2.074.384A5.782,5.782,0,0,0,8.239-3.325,5.766,5.766,0,0,0,7.855-5.4a5.752,5.752,0,0,0-2.074-.384A5.782,5.782,0,0,0,0,0Z" fill="none" stroke="#000" stroke-linecap="round" stroke-linejoin="round" stroke-miterlimit="10" stroke-width="1.494"/>
            </g>
            <g id="g11711" transform="translate(33.424 -44.47)">
              <path id="path11713" d="M0,0A5.767,5.767,0,0,1-.384,2.074a5.768,5.768,0,0,1-2.074.384A5.782,5.782,0,0,1-8.239-3.325,5.768,5.768,0,0,1-7.855-5.4a5.753,5.753,0,0,1,2.074-.384A5.782,5.782,0,0,1,0,0" fill="#cbe5e7"/>
            </g>
            <g id="g11715" transform="translate(33.424 -44.469)">
              <path id="path11717" d="M0,0A5.754,5.754,0,0,1-.385,2.074a5.772,5.772,0,0,1-2.074.385c-.074,0-.147,0-.221,0A5.771,5.771,0,0,0-2.443.814,5.782,5.782,0,0,0-8-4.965c.043-.148.092-.293.147-.435a5.755,5.755,0,0,1,2.074-.384A5.781,5.781,0,0,1,0,0" fill="#a9d3d8"/>
            </g>
            <g id="g11719" transform="translate(33.424 -44.47)">
              <path id="path11721" d="M0,0A5.767,5.767,0,0,1-.384,2.074a5.768,5.768,0,0,1-2.074.384A5.782,5.782,0,0,1-8.239-3.325,5.768,5.768,0,0,1-7.855-5.4a5.753,5.753,0,0,1,2.074-.384A5.782,5.782,0,0,1,0,0Z" fill="none" stroke="#000" stroke-linecap="round" stroke-linejoin="round" stroke-miterlimit="10" stroke-width="1.494"/>
            </g>
            <g id="g11723" transform="translate(34.739 -11.647)">
              <path id="path11725" d="M0,0,8.058-3.757l2.311-6.348a1.952,1.952,0,0,1,2.5-1.167,1.953,1.953,0,0,1,1.167,2.5L11.192-.95A2.723,2.723,0,0,1,9.784.586l-1.816.847A9.483,9.483,0,0,0,3.486,5.8L.948,10.9l-4.34-1.58Z" fill="#ffcec0"/>
            </g>
            <g id="g11727" transform="translate(48.777 -20.416)">
              <path id="path11729" d="M0,0-2.846,7.819A2.724,2.724,0,0,1-4.254,9.355L-6.07,10.2a9.484,9.484,0,0,0-4.482,4.369l-2.538,5.1-2.318-.844,3.9-7.744A3.431,3.431,0,0,1-9.737,9.146L-6.2,7.5A2.719,2.719,0,0,0-4.8,5.963L-2.318-.844a1.945,1.945,0,0,0-.066-1.493,1.717,1.717,0,0,0-.093-.175,1.946,1.946,0,0,1,1.31.009,1.947,1.947,0,0,1,1.1,1.01A1.945,1.945,0,0,1,0,0" fill="#fdb0a0"/>
            </g>
            <g id="g11731" transform="translate(40.752 -14.451)">
              <path id="path11733" d="M0,0,2.045-.953,4.355-7.3a1.952,1.952,0,0,1,2.5-1.167,1.953,1.953,0,0,1,1.167,2.5L5.179,1.853A2.722,2.722,0,0,1,3.771,3.39l-1.816.847A9.484,9.484,0,0,0-2.527,8.606l-2.538,5.1" fill="none" stroke="#000" stroke-linecap="round" stroke-linejoin="round" stroke-miterlimit="10" stroke-width="1.494"/>
            </g>
            <g id="g11735" transform="translate(28.307 -3.433)">
              <path id="path11737" d="M0,0,1.667-6.653A6.2,6.2,0,0,1,5.06-10.764L10.065-13.1a1.251,1.251,0,0,1,1.662.6,3.051,3.051,0,0,1-1.476,4.055l-1.278.6A4.866,4.866,0,0,0,6.457-5.1L4.063,1.479Z" fill="#ffcec0"/>
            </g>
            <g id="g11739" transform="translate(29.11 -6.637)">
              <path id="path11741" d="M0,0-.8,3.2" fill="none" stroke="#000" stroke-linecap="round" stroke-linejoin="round" stroke-miterlimit="10" stroke-width="1.494"/>
            </g>
            <g id="g11743" transform="translate(34.764 -8.53)">
              <path id="path11745" d="M0,0A4.866,4.866,0,0,1,2.516-2.746l1.278-.6A3.051,3.051,0,0,0,5.27-7.4,1.251,1.251,0,0,0,3.608-8L-1.4-5.668A6.2,6.2,0,0,0-4.751-1.7" fill="none" stroke="#000" stroke-linecap="round" stroke-linejoin="round" stroke-miterlimit="10" stroke-width="1.494"/>
            </g>
            <g id="g11747" transform="translate(16.261 -11.647)">
              <path id="path11749" d="M0,0-8.058-3.757l-2.311-6.348a1.952,1.952,0,0,0-2.5-1.167h0a1.953,1.953,0,0,0-1.167,2.5L-11.192-.95A2.723,2.723,0,0,0-9.784.586l1.816.847A9.483,9.483,0,0,1-3.486,5.8l2.538,5.1,4.34-1.58Z" fill="#ffcec0"/>
            </g>
            <g id="g11751" transform="translate(10.248 -14.451)">
              <path id="path11753" d="M0,0-2.045-.953-4.355-7.3a1.952,1.952,0,0,0-2.5-1.167h0a1.953,1.953,0,0,0-1.167,2.5l2.846,7.819A2.722,2.722,0,0,0-3.771,3.39l1.816.847A9.484,9.484,0,0,1,2.527,8.606l2.538,5.1" fill="none" stroke="#000" stroke-linecap="round" stroke-linejoin="round" stroke-miterlimit="10" stroke-width="1.494"/>
            </g>
            <g id="g11755" transform="translate(22.692 -3.433)">
              <path id="path11757" d="M0,0-1.667-6.653A6.2,6.2,0,0,0-5.06-10.764L-10.065-13.1a1.251,1.251,0,0,0-1.662.6,3.051,3.051,0,0,0,1.476,4.055l1.278.6A4.866,4.866,0,0,1-6.457-5.1l2.393,6.575Z" fill="#ffcec0"/>
            </g>
            <g id="g11759" transform="translate(22.693 -3.433)">
              <path id="path11761" d="M0,0-2.471.9l-1.5-6A6.2,6.2,0,0,0-7.367-9.21l-4.643-2.164a3.052,3.052,0,0,1,.282-1.12,1.251,1.251,0,0,1,1.663-.6l5.005,2.333A6.2,6.2,0,0,1-1.668-6.653Z" fill="#fdb0a0"/>
            </g>
            <g id="g11763" transform="translate(16.236 -8.53)">
              <path id="path11765" d="M0,0A4.866,4.866,0,0,0-2.516-2.746l-1.278-.6A3.051,3.051,0,0,1-5.27-7.4,1.251,1.251,0,0,1-3.608-8L1.4-5.668A6.2,6.2,0,0,1,4.79-1.557L6.457,5.1" fill="none" stroke="#000" stroke-linecap="round" stroke-linejoin="round" stroke-miterlimit="10" stroke-width="1.494"/>
            </g>
          </g>
        </g>
      </g>
    </g>
  </g>
</svg>
