<svg xmlns="http://www.w3.org/2000/svg" xmlns:xlink="http://www.w3.org/1999/xlink" width="107.999" height="107.999" viewBox="0 0 107.999 107.999">
  <defs>
    <filter id="Rectangle_411831" x="0" y="0" width="107.999" height="107.999" filterUnits="userSpaceOnUse">
      <feOffset dy="3" input="SourceAlpha"/>
      <feGaussianBlur stdDeviation="3" result="blur"/>
      <feFlood flood-opacity="0.161"/>
      <feComposite operator="in" in2="blur"/>
      <feComposite in="SourceGraphic"/>
    </filter>
    <clipPath id="clip-path">
      <rect id="Rectangle_424839" data-name="Rectangle 424839" width="50.999" height="57.999" transform="translate(-6708 -10662)" fill="#fff" stroke="#707070" stroke-width="1" opacity="0"/>
    </clipPath>
  </defs>
  <g id="Group_1203899" data-name="Group 1203899" transform="translate(6736.27 10684)">
    <g id="Group_1203888" data-name="Group 1203888" transform="translate(-6727.271 -10678)">
      <g id="Group_1203409" data-name="Group 1203409" transform="translate(0.001)">
        <g transform="matrix(1, 0, 0, 1, -9, -6)" filter="url(#Rectangle_411831)">
          <g id="Rectangle_411831-2" data-name="Rectangle 411831" transform="translate(9 6)" fill="#d9aef1" stroke="#fff" stroke-width="2">
            <path d="M5,0H58A32,32,0,0,1,90,32V85a5,5,0,0,1-5,5H32A32,32,0,0,1,0,58V5A5,5,0,0,1,5,0Z" stroke="none"/>
            <path d="M5,1H58A31,31,0,0,1,89,32V85a4,4,0,0,1-4,4H32A31,31,0,0,1,1,58V5A4,4,0,0,1,5,1Z" fill="none"/>
          </g>
        </g>
      </g>
      <path id="Path_1260076" data-name="Path 1260076" d="M16.614.687H.856V7.046h11.25L.856,18.219,5.4,22.735,16.614,11.6V22.735h6.441V.687Z" transform="translate(-0.856 67.265)" fill="#1f1321" fill-rule="evenodd"/>
      <path id="Path_1260092" data-name="Path 1260092" d="M5.755,17.459H17.742V12.622H9.184l8.558-8.5L14.284.687,5.755,9.157V.687H.856V17.459Z" transform="translate(72.258 -0.686)" fill="#1f1321" fill-rule="evenodd"/>
    </g>
    <g id="Mask_Group_1107882" data-name="Mask Group 1107882" clip-path="url(#clip-path)">
      <g id="marca_1_" data-name="marca (1)" transform="translate(-6708.406 -10658.906)">
        <g id="Group_1205290" data-name="Group 1205290">
          <path id="Path_1270377" data-name="Path 1270377" d="M24.2,7.13a2.97,2.97,0,0,1,3.4,0,2.735,2.735,0,0,0,1.882.5,2.974,2.974,0,0,1,2.949,1.7,2.73,2.73,0,0,0,1.377,1.377,2.971,2.971,0,0,1,1.7,2.949,2.725,2.725,0,0,0,.5,1.879,2.974,2.974,0,0,1,0,3.408,2.729,2.729,0,0,0-.5,1.879,2.971,2.971,0,0,1-1.7,2.949,2.73,2.73,0,0,0-1.377,1.377,2.974,2.974,0,0,1-2.949,1.7,2.736,2.736,0,0,0-1.882.5,2.97,2.97,0,0,1-3.4,0,2.736,2.736,0,0,0-1.882-.5,2.974,2.974,0,0,1-2.949-1.7A2.74,2.74,0,0,0,18,23.776a2.959,2.959,0,0,1-1.7-2.949,2.744,2.744,0,0,0-.5-1.879,2.974,2.974,0,0,1,0-3.408,2.74,2.74,0,0,0,.5-1.879A2.959,2.959,0,0,1,18,10.713a2.741,2.741,0,0,0,1.377-1.377,2.974,2.974,0,0,1,2.949-1.7,2.734,2.734,0,0,0,1.882-.5Z" fill="#f7b84e" fill-rule="evenodd"/>
          <path id="Path_1270378" data-name="Path 1270378" d="M27.591,7.115l.017.014a2.735,2.735,0,0,0,1.882.5,2.974,2.974,0,0,1,2.949,1.7,2.73,2.73,0,0,0,1.377,1.377,2.971,2.971,0,0,1,1.7,2.949,2.725,2.725,0,0,0,.5,1.879,2.974,2.974,0,0,1,0,3.408,2.729,2.729,0,0,0-.5,1.879,2.971,2.971,0,0,1-1.7,2.949,2.73,2.73,0,0,0-1.377,1.377,2.974,2.974,0,0,1-2.949,1.7,2.736,2.736,0,0,0-1.882.5l-.017.012a2.893,2.893,0,0,1-.783-.387A2.628,2.628,0,0,0,25,26.5a2.859,2.859,0,0,1-1.678-.373,2.812,2.812,0,0,1-1.162-1.268,2.634,2.634,0,0,0-1.328-1.325,2.864,2.864,0,0,1-1.638-2.84,2.642,2.642,0,0,0-.485-1.81,2.865,2.865,0,0,1,0-3.281,2.643,2.643,0,0,0,.485-1.81,2.864,2.864,0,0,1,1.638-2.84,2.635,2.635,0,0,0,1.328-1.325,2.826,2.826,0,0,1,1.162-1.268A2.859,2.859,0,0,1,25,7.988a2.627,2.627,0,0,0,1.81-.485,2.891,2.891,0,0,1,.783-.387Z" fill="#ffcb5b" fill-rule="evenodd"/>
          <path id="Path_1270379" data-name="Path 1270379" d="M25.9,23.563a6.319,6.319,0,1,0-6.319-6.319A6.331,6.331,0,0,0,25.9,23.563Z" fill="#f2992c" fill-rule="evenodd"/>
          <path id="Path_1270380" data-name="Path 1270380" d="M27.14,11.045a6.321,6.321,0,0,1,0,12.4,6.321,6.321,0,0,1,0-12.4Z" fill="#faa845" fill-rule="evenodd"/>
          <path id="Path_1270381" data-name="Path 1270381" d="M25.9,13.928l.961,2.346,2.527.186L27.456,18.1l.6,2.461L25.9,19.226,23.75,20.56l.605-2.461-1.936-1.638,2.527-.186Z" fill="#ffcb5b" fill-rule="evenodd"/>
        </g>
        <path id="Path_1270382" data-name="Path 1270382" d="M27.269,44.89h14.79V49.6H27.269Z" fill="#1b6fab"/>
        <path id="Path_1270383" data-name="Path 1270383" d="M27.269,49.6H38.436L38.39,44.89H27.269Z" fill="#3589c9" fill-rule="evenodd"/>
        <path id="Path_1270384" data-name="Path 1270384" d="M46.181,26.658,45.842,17.9a1.654,1.654,0,0,1,3.273-.293L50.71,27.619a5.881,5.881,0,0,1-1.632,5.258l-8.146,8.146a3.116,3.116,0,0,0-.935,2.5l.092,1.365H29.24l.075-6.225a5.524,5.524,0,0,1,1.649-3.987l2.255-2.255a5.394,5.394,0,0,1,2.527-1.457l1.09-.293,5.49-5.487a2.266,2.266,0,0,1,3.2,0,2.233,2.233,0,0,1,.657,1.472Z" fill="#e2b698" fill-rule="evenodd"/>
        <path id="Path_1270385" data-name="Path 1270385" d="M46.181,26.658,45.842,17.9a1.52,1.52,0,0,1,1.334-1.583,1.584,1.584,0,0,1,.316.74l1.595,10.019a5.875,5.875,0,0,1-1.632,5.255l-8.146,8.149a3.309,3.309,0,0,0-.935,2.5l.017,1.916H29.24l.075-6.225a5.524,5.524,0,0,1,1.649-3.987l2.255-2.255a5.394,5.394,0,0,1,2.527-1.457l1.09-.293,5.49-5.487a2.266,2.266,0,0,1,3.2,0,2.233,2.233,0,0,1,.657,1.472Z" fill="#efc9ae" fill-rule="evenodd"/>
        <path id="Path_1270386" data-name="Path 1270386" d="M9.752,44.89h14.79V49.6H9.752Z" fill="#1b6fab"/>
        <path id="Path_1270387" data-name="Path 1270387" d="M24.541,49.6H13.375l.046-4.707H24.541Z" fill="#3589c9" fill-rule="evenodd"/>
        <path id="Path_1270388" data-name="Path 1270388" d="M5.63,26.658,5.965,17.9A1.652,1.652,0,0,0,2.7,17.6L1.1,27.619A5.887,5.887,0,0,0,2.73,32.877l8.149,8.146a3.126,3.126,0,0,1,.935,2.5l-.095,1.365H22.571L22.5,38.666a5.515,5.515,0,0,0-1.652-3.987l-2.252-2.255a5.4,5.4,0,0,0-2.53-1.457l-1.09-.293L9.485,25.187a2.27,2.27,0,0,0-3.2,0,2.243,2.243,0,0,0-.654,1.472Z" fill="#e2b698" fill-rule="evenodd"/>
        <path id="Path_1270389" data-name="Path 1270389" d="M5.63,26.658,5.965,17.9a1.515,1.515,0,0,0-1.331-1.583,1.584,1.584,0,0,0-.316.74L2.724,27.071a5.874,5.874,0,0,0,1.629,5.255L12.5,40.476a3.32,3.32,0,0,1,.935,2.5L13.42,44.89h9.15L22.5,38.666a5.515,5.515,0,0,0-1.652-3.987l-2.252-2.255a5.39,5.39,0,0,0-2.53-1.457l-1.09-.293L9.485,25.187a2.27,2.27,0,0,0-3.2,0,2.243,2.243,0,0,0-.654,1.472Z" fill="#efc9ae" fill-rule="evenodd"/>
        <path id="Path_1270390" data-name="Path 1270390" d="M23.933,48.688H10.354V45.194H23.933Zm-12.624-8.4L3.16,32.143a5.247,5.247,0,0,1-1.46-4.73L3.295,17.393a.967.967,0,0,1,1.136-.8.931.931,0,0,1,.927.975l-.333,8.763v.006a2.863,2.863,0,0,0,.832,2.174l4.678,4.678a.616.616,0,0,0,.43.178.607.607,0,0,0,.427-1.036L6.714,27.654a1.659,1.659,0,0,1,0-2.344,1.666,1.666,0,0,1,2.344,0L14.545,30.8a.637.637,0,0,0,.273.158l1.087.293a4.737,4.737,0,0,1,2.255,1.3L20.417,34.8a4.89,4.89,0,0,1,1.474,3.566l.066,5.611H12.371l.049-.717a3.73,3.73,0,0,0-1.11-2.972Zm13.229,3.689H23.17L23.1,38.356a6.151,6.151,0,0,0-1.827-4.409L19.02,31.693a6.015,6.015,0,0,0-2.8-1.618l-.929-.25L9.915,24.453a2.853,2.853,0,0,0-2.028-.838,2.889,2.889,0,0,0-1.566.459l.255-6.457a2.155,2.155,0,0,0-2.028-2.232A2.184,2.184,0,0,0,2.1,17.2L.5,27.221A6.5,6.5,0,0,0,2.3,33l8.149,8.149a2.536,2.536,0,0,1,.763,2.031l-.057.8H9.749a.608.608,0,0,0-.605.608v4.7a.608.608,0,0,0,.605.608h14.79a.606.606,0,0,0,.605-.608v-4.7a.606.606,0,0,0-.605-.608ZM40.5,40.292a3.727,3.727,0,0,0-1.11,2.972l.049.717H29.851l.069-5.611A4.89,4.89,0,0,1,31.394,34.8l2.255-2.255a4.786,4.786,0,0,1,2.258-1.3l1.087-.293a.637.637,0,0,0,.273-.158l5.487-5.487a1.669,1.669,0,0,1,2.344,0,1.715,1.715,0,0,1,.482,1.084,1.681,1.681,0,0,1-.482,1.262l-4.681,4.678a.61.61,0,0,0,0,.858.622.622,0,0,0,.433.178.614.614,0,0,0,.427-.178l4.676-4.678s.006,0,.006,0a2.876,2.876,0,0,0,.832-2.171v-.006l-.338-8.763a.938.938,0,0,1,.929-.975.967.967,0,0,1,1.136.8l1.595,10.019a5.246,5.246,0,0,1-1.463,4.73L40.5,40.292Zm.952,8.4H27.877V45.194H41.454ZM49.509,33a6.5,6.5,0,0,0,1.8-5.78L49.715,17.2a2.185,2.185,0,0,0-2.453-1.816,2.146,2.146,0,0,0-2.022,2.232l.25,6.457a2.886,2.886,0,0,0-3.594.379l-5.37,5.373-.938.25a6.072,6.072,0,0,0-2.8,1.618l-2.249,2.255a6.121,6.121,0,0,0-1.833,4.409l-.066,5.625H27.272a.608.608,0,0,0-.608.608v4.7a.608.608,0,0,0,.608.608h14.79a.608.608,0,0,0,.605-.608v-4.7a.608.608,0,0,0-.605-.608H40.656l-.057-.8a2.507,2.507,0,0,1,.763-2.031L49.508,33ZM18.168,4.749a.607.607,0,0,1,1.053-.605l.924,1.6a.607.607,0,0,1-.224.829.608.608,0,0,1-.829-.224l-.924-1.6ZM12.887,9.425a.607.607,0,0,1,.829-.224l1.6.927a.607.607,0,0,1-.3,1.133.6.6,0,0,1-.3-.08l-1.6-.929a.609.609,0,0,1-.224-.826ZM10.873,16.94a.605.605,0,0,1,.605-.605h1.85a.607.607,0,1,1,0,1.213h-1.85A.606.606,0,0,1,10.873,16.94Zm4.667,5.986a.607.607,0,0,1-.224.829l-1.6.924a.61.61,0,0,1-.3.08.6.6,0,0,1-.525-.3.612.612,0,0,1,.224-.829l1.6-.924a.607.607,0,0,1,.829.224ZM19.92,27.3a.606.606,0,0,1,.224.829l-.924,1.6a.607.607,0,1,1-1.053-.605l.924-1.6a.609.609,0,0,1,.829-.224Zm6.592,2.212v1.847a.605.605,0,1,1-1.21,0V29.515a.605.605,0,1,1,1.21,0Zm6.207-1.988.921,1.6a.606.606,0,1,1-1.05.605l-.924-1.6a.607.607,0,0,1,1.053-.605Zm5.981-3.9a.607.607,0,0,1-.3,1.133.615.615,0,0,1-.3-.08l-1.6-.924A.607.607,0,0,1,37.1,22.7l1.6.924Zm-.218-7.292h1.85a.607.607,0,0,1,0,1.213h-1.85a.607.607,0,0,1,0-1.213Zm-2.212-5.378a.612.612,0,0,1,.224-.829l1.6-.927a.606.606,0,1,1,.605,1.05l-1.6.929a.608.608,0,0,1-.829-.224Zm-4.6-5.212.924-1.6a.606.606,0,1,1,1.05.605l-.921,1.6a.609.609,0,0,1-.528.3.583.583,0,0,1-.3-.083.608.608,0,0,1-.224-.829ZM25.3,4.365V2.515a.605.605,0,1,1,1.21,0v1.85a.605.605,0,1,1-1.21,0Zm-.307,12.211a.614.614,0,0,0,.516-.376l.4-.97.4.97a.607.607,0,0,0,.519.376l1.041.077-.8.677a.612.612,0,0,0-.2.608l.25,1.018-.892-.554a.614.614,0,0,0-.637,0l-.892.554.25-1.018a.6.6,0,0,0-.2-.608l-.8-.677,1.05-.077Zm-2.966.046,1.647,1.391-.513,2.1a.606.606,0,0,0,.909.66l1.836-1.136,1.833,1.136a.607.607,0,0,0,.677-.026.614.614,0,0,0,.232-.634l-.513-2.1,1.647-1.391a.605.605,0,0,0-.344-1.067l-2.154-.161-.815-2a.608.608,0,0,0-.562-.379.6.6,0,0,0-.562.379l-.815,2-2.154.161a.6.6,0,0,0-.533.416.614.614,0,0,0,.186.651Zm3.878-5.393a5.711,5.711,0,1,1-5.714,5.711A5.719,5.719,0,0,1,25.907,11.229Zm0,12.636A6.924,6.924,0,1,0,18.98,16.94a6.932,6.932,0,0,0,6.927,6.924Zm-9.624-8.278A3.367,3.367,0,0,0,16.9,13.3a2.3,2.3,0,0,1,.307-1.385,2.343,2.343,0,0,1,1.047-.961,3.378,3.378,0,0,0,1.672-1.672,2.31,2.31,0,0,1,.958-1.044,2.336,2.336,0,0,1,1.385-.307,3.309,3.309,0,0,0,2.283-.614,2.367,2.367,0,0,1,2.7,0,3.368,3.368,0,0,0,2.283.614,2.33,2.33,0,0,1,1.388.31,2.291,2.291,0,0,1,.955,1.044,3.373,3.373,0,0,0,1.672,1.669A2.363,2.363,0,0,1,34.911,13.3a3.376,3.376,0,0,0,.611,2.286,2.358,2.358,0,0,1,0,2.708,3.372,3.372,0,0,0-.611,2.283,2.364,2.364,0,0,1-1.354,2.346A3.345,3.345,0,0,0,31.885,24.6a2.353,2.353,0,0,1-2.344,1.351,3.355,3.355,0,0,0-2.278.611,2.372,2.372,0,0,1-2.716,0,3.316,3.316,0,0,0-1.948-.625,3.226,3.226,0,0,0-.33.014,2.357,2.357,0,0,1-2.344-1.354,3.361,3.361,0,0,0-1.672-1.669,2.334,2.334,0,0,1-1.047-.964,2.285,2.285,0,0,1-.307-1.383,3.355,3.355,0,0,0-.617-2.28,2.389,2.389,0,0,1,0-2.711Zm-.992-.694a3.557,3.557,0,0,0,0,4.1,2.138,2.138,0,0,1,.4,1.48,3.507,3.507,0,0,0,.465,2.094,3.563,3.563,0,0,0,1.586,1.457A2.111,2.111,0,0,1,18.825,25.1a3.565,3.565,0,0,0,3.551,2.051,2.115,2.115,0,0,1,1.477.4,3.586,3.586,0,0,0,4.1,0,2.1,2.1,0,0,1,1.474-.4,3.567,3.567,0,0,0,3.554-2.048,2.122,2.122,0,0,1,1.081-1.084,3.581,3.581,0,0,0,2.057-3.554,2.1,2.1,0,0,1,.393-1.477,3.582,3.582,0,0,0,0-4.1,2.1,2.1,0,0,1-.393-1.48,3.588,3.588,0,0,0-2.057-3.554,2.122,2.122,0,0,1-1.081-1.079A3.51,3.51,0,0,0,31.538,7.19a3.548,3.548,0,0,0-2.1-.465,2.113,2.113,0,0,1-1.48-.4,3.586,3.586,0,0,0-4.1,0,2.111,2.111,0,0,1-1.477.4,3.579,3.579,0,0,0-3.551,2.048A2.127,2.127,0,0,1,17.74,9.858a3.583,3.583,0,0,0-1.586,1.451,3.534,3.534,0,0,0-.465,2.1,2.136,2.136,0,0,1-.4,1.483Z" fill="#070202"/>
      </g>
    </g>
  </g>
</svg>
