<svg xmlns="http://www.w3.org/2000/svg" xmlns:xlink="http://www.w3.org/1999/xlink" width="107.999" height="107.999" viewBox="0 0 107.999 107.999">
  <defs>
    <filter id="Rectangle_411831" x="0" y="0" width="107.999" height="107.999" filterUnits="userSpaceOnUse">
      <feOffset dy="3" input="SourceAlpha"/>
      <feGaussianBlur stdDeviation="3" result="blur"/>
      <feFlood flood-opacity="0.161"/>
      <feComposite operator="in" in2="blur"/>
      <feComposite in="SourceGraphic"/>
    </filter>
    <clipPath id="clip-path">
      <rect id="Rectangle_425353" data-name="Rectangle 425353" width="51" height="54" transform="translate(-1598 -9837)" fill="#fff" stroke="#707070" stroke-width="1" opacity="0"/>
    </clipPath>
  </defs>
  <g id="Group_1205630" data-name="Group 1205630" transform="translate(1626.416 9861.287)">
    <g id="Group_1205618" data-name="Group 1205618" transform="translate(5109.854 822.713)">
      <g id="Group_1203888" data-name="Group 1203888" transform="translate(-6727.271 -10678)">
        <g id="Group_1203409" data-name="Group 1203409" transform="translate(0.001)">
          <g transform="matrix(1, 0, 0, 1, -9, -6)" filter="url(#Rectangle_411831)">
            <g id="Rectangle_411831-2" data-name="Rectangle 411831" transform="translate(9 6)" fill="#d9aef1" stroke="#fff" stroke-width="2">
              <path d="M5,0H58A32,32,0,0,1,90,32V85a5,5,0,0,1-5,5H32A32,32,0,0,1,0,58V5A5,5,0,0,1,5,0Z" stroke="none"/>
              <path d="M5,1H58A31,31,0,0,1,89,32V85a4,4,0,0,1-4,4H32A31,31,0,0,1,1,58V5A4,4,0,0,1,5,1Z" fill="none"/>
            </g>
          </g>
        </g>
        <path id="Path_1260076" data-name="Path 1260076" d="M16.614.687H.856V7.046h11.25L.856,18.219,5.4,22.735,16.614,11.6V22.735h6.441V.687Z" transform="translate(-0.856 67.265)" fill="#1f1321" fill-rule="evenodd"/>
        <path id="Path_1260092" data-name="Path 1260092" d="M5.755,17.459H17.742V12.622H9.184l8.558-8.5L14.284.687,5.755,9.157V.687H.856V17.459Z" transform="translate(72.258 -0.686)" fill="#1f1321" fill-rule="evenodd"/>
      </g>
    </g>
    <g id="Mask_Group_1107930" data-name="Mask Group 1107930" clip-path="url(#clip-path)">
      <g id="circulo" transform="translate(-1597.998 -9835.497)">
        <g id="Icons">
          <path id="Path_1272013" data-name="Path 1272013" d="M16.148,43.628a1.7,1.7,0,0,0-.583-2.295A18.7,18.7,0,0,1,6.8,25.5v-.858H8.916a.441.441,0,0,0,.34-.714L5.439,18.868a.425.425,0,0,0-.68,0L.942,23.925a.451.451,0,0,0,.34.722H3.4v.85a22.083,22.083,0,0,0,10.38,18.74,1.7,1.7,0,0,0,2.369-.609Z" fill="#a4c400"/>
          <path id="Path_1272014" data-name="Path 1272014" d="M15.565,41.334A18.7,18.7,0,0,1,6.8,25.5v-.858H8.916a.441.441,0,0,0,.34-.714L5.439,18.868a.425.425,0,0,0-.68,0L3.825,20.1l2.882,3.82a.441.441,0,0,1-.34.714H4.25V25.5a18.7,18.7,0,0,0,8.766,15.837,1.7,1.7,0,0,1,.583,2.295,1.743,1.743,0,0,1-.246.322c.143.094.281.2.425.286a1.7,1.7,0,0,0,1.785-2.9Z" fill="#90ac00"/>
          <path id="Path_1272015" data-name="Path 1272015" d="M43.628,34.846a1.7,1.7,0,0,0-2.295.583A18.7,18.7,0,0,1,25.5,44.2h-.858V42.078a.441.441,0,0,0-.714-.34l-5.057,3.817a.425.425,0,0,0,0,.68l5.059,3.817a.451.451,0,0,0,.722-.34V47.595h.85a22.083,22.083,0,0,0,18.738-10.38,1.7,1.7,0,0,0-.609-2.369Z" fill="#a4c400"/>
          <path id="Path_1272016" data-name="Path 1272016" d="M43.628,34.846a1.7,1.7,0,0,0-2.125.36,1.687,1.687,0,0,1,.181,2.008,22.083,22.083,0,0,1-18.737,10.38H22.1v1.079l1.827,1.379a.451.451,0,0,0,.722-.34V47.595h.85a22.083,22.083,0,0,0,18.74-10.38,1.7,1.7,0,0,0-.609-2.369Z" fill="#90ac00"/>
          <path id="Path_1272017" data-name="Path 1272017" d="M34.846,7.366a1.7,1.7,0,0,0,.583,2.295A18.7,18.7,0,0,1,44.2,25.5v.858H42.078a.441.441,0,0,0-.34.714l3.817,5.057a.425.425,0,0,0,.68,0l3.817-5.059a.451.451,0,0,0-.34-.722H47.595V25.5a22.083,22.083,0,0,0-10.38-18.74,1.7,1.7,0,0,0-2.369.609Z" fill="#a4c400"/>
          <path id="Path_1272018" data-name="Path 1272018" d="M49.713,26.347H47.595V25.5a22.083,22.083,0,0,0-10.38-18.74,1.693,1.693,0,0,0-2.125.286A22.069,22.069,0,0,1,45.045,25.5v.85h2.117a.451.451,0,0,1,.34.722L44.62,30.89l.935,1.237a.425.425,0,0,0,.68,0l3.817-5.059a.451.451,0,0,0-.339-.721Z" fill="#90ac00"/>
          <path id="Path_1272019" data-name="Path 1272019" d="M7.366,16.148a1.7,1.7,0,0,0,2.295-.583A18.7,18.7,0,0,1,25.5,6.8h.858V8.916a.441.441,0,0,0,.714.34l5.057-3.817a.425.425,0,0,0,0-.68L27.07.942a.451.451,0,0,0-.722.34V3.4H25.5A22.083,22.083,0,0,0,6.758,13.78a1.7,1.7,0,0,0,.609,2.369Z" fill="#a4c400"/>
          <path id="Path_1272020" data-name="Path 1272020" d="M32.127,4.759,27.07.942a.451.451,0,0,0-.722.34V2.32l3.23,2.439a.425.425,0,0,1,0,.68L26.356,7.871V8.916a.441.441,0,0,0,.714.34l5.057-3.817a.425.425,0,0,0,0-.68Z" fill="#90ac00"/>
          <circle id="Ellipse_12499" data-name="Ellipse 12499" cx="12.749" cy="12.749" r="12.749" transform="translate(12.749 12.749)" fill="#02a9f4"/>
          <path id="Path_1272021" data-name="Path 1272021" d="M25.5,12.749c-.43,0-.856.023-1.275.065a12.749,12.749,0,0,1,0,25.368c.419.042.845.065,1.275.065a12.749,12.749,0,1,0,0-25.5Z" fill="#0377bc"/>
        </g>
        <g id="Icons_copy" data-name="Icons copy">
          <path id="Path_1272022" data-name="Path 1272022" d="M4.08,18.358.273,23.4a1.288,1.288,0,0,0-.139,1.37,1.275,1.275,0,0,0,1.148.728H2.55A22.84,22.84,0,0,0,13.328,44.96a2.5,2.5,0,0,0,1.328.384,2.572,2.572,0,0,0,2.228-1.288h0a2.55,2.55,0,0,0-.868-3.437A17.773,17.773,0,0,1,7.649,25.5l1.266-.008a1.275,1.275,0,0,0,1.148-.713,1.29,1.29,0,0,0-.13-1.36L6.119,18.358a1.264,1.264,0,0,0-1-.51,1.238,1.238,0,0,0-1.038.51ZM8.088,23.8H6.8a.85.85,0,0,0-.85.85v.85a19.463,19.463,0,0,0,9.163,16.556.855.855,0,0,1-.245,1.561.818.818,0,0,1-.637-.1A21.149,21.149,0,0,1,4.25,25.5v-.85a.85.85,0,0,0-.85-.85H2.1l3-3.972Z"/>
          <path id="Path_1272023" data-name="Path 1272023" d="M44.052,34.109h0a2.55,2.55,0,0,0-3.437.868A17.775,17.775,0,0,1,25.5,43.345h0l-.008-1.266a1.275,1.275,0,0,0-.713-1.148,1.29,1.29,0,0,0-1.36.13l-5.058,3.814a1.264,1.264,0,0,0-.51,1,1.283,1.283,0,0,0,.51,1.036L23.4,50.722a1.275,1.275,0,0,0,.791.275,1.327,1.327,0,0,0,.579-.135,1.275,1.275,0,0,0,.724-1.148V48.445A22.84,22.84,0,0,0,44.96,37.666a2.5,2.5,0,0,0,.308-1.951A2.585,2.585,0,0,0,44.052,34.109Zm-.537,2.654A21.149,21.149,0,0,1,25.5,46.745h-.85a.85.85,0,0,0-.85.85v1.3l-3.972-3L23.789,42.9V44.2a.85.85,0,0,0,.85.85H25.5a19.463,19.463,0,0,0,16.556-9.163.855.855,0,0,1,1.561.245.814.814,0,0,1-.1.637Z"/>
          <path id="Path_1272024" data-name="Path 1272024" d="M45.9,33.151a1.283,1.283,0,0,0,1.02-.51L50.723,27.6a1.288,1.288,0,0,0,.139-1.37,1.275,1.275,0,0,0-1.15-.728H48.445A22.84,22.84,0,0,0,37.666,6.034a2.5,2.5,0,0,0-1.951-.308,2.585,2.585,0,0,0-1.606,1.212h0a2.55,2.55,0,0,0,.868,3.437A17.773,17.773,0,0,1,43.345,25.5l-1.266.008a1.275,1.275,0,0,0-1.148.713,1.29,1.29,0,0,0,.13,1.36l3.814,5.058a1.264,1.264,0,0,0,1,.515ZM42.908,27.2H44.2a.85.85,0,0,0,.85-.85V25.5A19.463,19.463,0,0,0,35.882,8.941a.855.855,0,0,1,.245-1.561.818.818,0,0,1,.637.1A21.149,21.149,0,0,1,46.745,25.5v.85a.85.85,0,0,0,.85.85h1.3l-3,3.972Z"/>
          <path id="Path_1272025" data-name="Path 1272025" d="M32.641,4.08,27.6.273a1.3,1.3,0,0,0-2.1,1.009V2.55A22.84,22.84,0,0,0,6.034,13.328a2.5,2.5,0,0,0-.308,1.955,2.585,2.585,0,0,0,1.212,1.606h0a2.527,2.527,0,0,0,1.266.34,2.565,2.565,0,0,0,2.172-1.208A17.775,17.775,0,0,1,25.5,7.649h0l.008,1.266a1.275,1.275,0,0,0,.713,1.148,1.292,1.292,0,0,0,1.36-.13l5.058-3.814a1.264,1.264,0,0,0,.515-1,1.283,1.283,0,0,0-.511-1.036ZM27.2,8.088V6.8a.85.85,0,0,0-.85-.85H25.5A19.463,19.463,0,0,0,8.941,15.112a.855.855,0,0,1-1.561-.245.814.814,0,0,1,.1-.637A21.149,21.149,0,0,1,25.5,4.25h.85a.85.85,0,0,0,.85-.85V2.1l3.972,3Z"/>
          <path id="Path_1272026" data-name="Path 1272026" d="M11.9,25.5A13.6,13.6,0,1,0,25.5,11.9,13.6,13.6,0,0,0,11.9,25.5Zm25.5,0A11.9,11.9,0,1,1,25.5,13.6,11.9,11.9,0,0,1,37.4,25.5Z"/>
          <path id="Path_1272027" data-name="Path 1272027" d="M24.572,15.34a.85.85,0,1,0,.151,1.693,8.889,8.889,0,0,1,1.549,0h.076a.851.851,0,0,0,.075-1.7A10.358,10.358,0,0,0,24.572,15.34Z"/>
          <path id="Path_1272028" data-name="Path 1272028" d="M18.97,17.66c-.235.2-.464.4-.68.626s-.425.45-.626.68a.85.85,0,1,0,1.3,1.092c.165-.2.34-.388.523-.572s.375-.358.572-.523a.85.85,0,1,0-1.09-1.3Z"/>
          <path id="Path_1272029" data-name="Path 1272029" d="M16.262,23.8a.841.841,0,0,0-.922.771c-.027.309-.042.617-.042.929s.014.62.042.926a.85.85,0,0,0,.85.774h.076a.85.85,0,0,0,.771-.922c-.022-.255-.035-.51-.035-.774s.013-.519.035-.774a.85.85,0,0,0-.775-.929Z"/>
          <path id="Path_1272030" data-name="Path 1272030" d="M19.488,31.507c-.184-.184-.358-.375-.523-.572a.85.85,0,1,0-1.3,1.09c.2.235.4.464.626.68s.45.429.68.626a.85.85,0,1,0,1.092-1.3C19.862,31.865,19.672,31.691,19.488,31.507Z"/>
          <path id="Path_1272031" data-name="Path 1272031" d="M26.272,33.961a8.89,8.89,0,0,1-1.549,0,.85.85,0,1,0-.151,1.693c.305.027.614.042.926.042s.62-.014.926-.042a.85.85,0,1,0-.151-1.693Z"/>
          <path id="Path_1272032" data-name="Path 1272032" d="M31.481,33.531a.85.85,0,0,0,.544-.2c.235-.2.464-.4.68-.626s.429-.45.626-.68a.85.85,0,1,0-1.3-1.092c-.165.2-.34.388-.523.572s-.375.358-.572.523a.85.85,0,0,0,.546,1.5Z"/>
          <path id="Path_1272033" data-name="Path 1272033" d="M34.732,27.2h.076a.85.85,0,0,0,.846-.774c.027-.305.042-.614.042-.926s-.014-.62-.042-.926a.85.85,0,1,0-1.693.151c.022.255.035.51.035.774s-.013.519-.035.774a.85.85,0,0,0,.771.926Z"/>
          <path id="Path_1272034" data-name="Path 1272034" d="M31.507,19.488c.184.184.358.375.523.572a.85.85,0,1,0,1.3-1.09c-.2-.235-.4-.464-.626-.68s-.45-.425-.68-.626a.85.85,0,1,0-1.092,1.3C31.132,19.13,31.323,19.3,31.507,19.488Z"/>
        </g>
      </g>
    </g>
  </g>
</svg>
