<svg xmlns="http://www.w3.org/2000/svg" xmlns:xlink="http://www.w3.org/1999/xlink" width="107.999" height="107.999" viewBox="0 0 107.999 107.999">
  <defs>
    <filter id="Rectangle_411831" x="0" y="0" width="107.999" height="107.999" filterUnits="userSpaceOnUse">
      <feOffset dy="3" input="SourceAlpha"/>
      <feGaussianBlur stdDeviation="3" result="blur"/>
      <feFlood flood-opacity="0.161"/>
      <feComposite operator="in" in2="blur"/>
      <feComposite in="SourceGraphic"/>
    </filter>
    <clipPath id="clip-path">
      <rect id="Rectangle_424839" data-name="Rectangle 424839" width="50.999" height="57.999" transform="translate(-6708 -10662)" fill="#fff" stroke="#707070" stroke-width="1" opacity="0"/>
    </clipPath>
    <clipPath id="clip-path-2">
      <path id="path3874" d="M0-51H51V0H0Z"/>
    </clipPath>
  </defs>
  <g id="Group_1203900" data-name="Group 1203900" transform="translate(6736.27 10684)">
    <g id="Group_1203888" data-name="Group 1203888" transform="translate(-6727.271 -10678)">
      <g id="Group_1203409" data-name="Group 1203409" transform="translate(0.001)">
        <g transform="matrix(1, 0, 0, 1, -9, -6)" filter="url(#Rectangle_411831)">
          <g id="Rectangle_411831-2" data-name="Rectangle 411831" transform="translate(9 6)" fill="#d9aef1" stroke="#fff" stroke-width="2">
            <path d="M5,0H58A32,32,0,0,1,90,32V85a5,5,0,0,1-5,5H32A32,32,0,0,1,0,58V5A5,5,0,0,1,5,0Z" stroke="none"/>
            <path d="M5,1H58A31,31,0,0,1,89,32V85a4,4,0,0,1-4,4H32A31,31,0,0,1,1,58V5A4,4,0,0,1,5,1Z" fill="none"/>
          </g>
        </g>
      </g>
      <path id="Path_1260076" data-name="Path 1260076" d="M16.614.687H.856V7.046h11.25L.856,18.219,5.4,22.735,16.614,11.6V22.735h6.441V.687Z" transform="translate(-0.856 67.265)" fill="#1f1321" fill-rule="evenodd"/>
      <path id="Path_1260092" data-name="Path 1260092" d="M5.755,17.459H17.742V12.622H9.184l8.558-8.5L14.284.687,5.755,9.157V.687H.856V17.459Z" transform="translate(72.258 -0.686)" fill="#1f1321" fill-rule="evenodd"/>
    </g>
    <g id="Mask_Group_1107883" data-name="Mask Group 1107883" clip-path="url(#clip-path)">
      <g id="g3864" transform="translate(-6708 -10607.501)">
        <path id="path3866" d="M38.648-4.184h-26.3V-7.172h26.3Z" fill="#ffc808"/>
        <path id="path3868" d="M35.659-4.184h2.988V-7.172H35.659Z" fill="#ffae08"/>
        <g id="g3870">
          <g id="g3872" clip-path="url(#clip-path-2)">
            <g id="g3878" transform="translate(50.247 -38.422)">
              <path id="path3880" d="M0,0-1.579,10.632a.464.464,0,0,1-.562.382l-8.054-1.842V30.652a.6.6,0,0,1-.6.6H-38.7a.6.6,0,0,1-.6-.6V9.174l-8.054,1.841a.464.464,0,0,1-.562-.382L-49.495,0a.461.461,0,0,1,.233-.47L-41-5.054A7.55,7.55,0,0,1-37.337-6l25.188,0a7.551,7.551,0,0,1,3.663.949L-.233-.47A.461.461,0,0,1,0,0" fill="#f3f3f3"/>
            </g>
            <g id="g3882" transform="translate(50.014 -38.892)">
              <path id="path3884" d="M0,0-8.253-4.581a7.551,7.551,0,0,0-3.663-.949l-25.188,0h-.026l22.225,0a7.551,7.551,0,0,1,3.663.949L-2.988,0a.461.461,0,0,1,.233.47L-4.309,10.936l2.4.549a.464.464,0,0,0,.562-.382L.233.47A.461.461,0,0,0,0,0" fill="#e4e4e4"/>
            </g>
            <g id="g3886" transform="translate(37.064 -7.769)">
              <path id="path3888" d="M0,0A.6.6,0,0,1-.6.6H2.391a.6.6,0,0,0,.6-.6V-21.479L1.74-21.793A1.4,1.4,0,0,0,0-20.436Z" fill="#e4e4e4"/>
            </g>
            <g id="g3890" transform="translate(31.664 -46.751)">
              <path id="path3892" d="M0,0C-.031.023-3.183,2.312-6.164,2.312S-12.268.044-12.328,0c-.662-.489-2.421,1.932-1.758,2.422.16.118,3.955,2.892,7.922,2.892S1.6,2.54,1.757,2.422C2.419,1.933.663-.487,0,0" fill="#ffc808"/>
            </g>
            <g id="g3894" transform="translate(31.664 -46.751)">
              <path id="path3896" d="M0,0A14.271,14.271,0,0,1-1.544.943c.4.584.626,1.248.313,1.479A16.628,16.628,0,0,1-7.658,5.191a9.5,9.5,0,0,0,1.494.123C-2.2,5.314,1.6,2.54,1.757,2.422,2.419,1.933.663-.487,0,0" fill="#ffae08"/>
            </g>
            <g id="g3898" transform="translate(40.052 -17.633)">
              <path id="path3900" d="M0,0V9.864a.6.6,0,0,1-.6.6H-19.672a3.133,3.133,0,0,1,.718-1.638,13.087,13.087,0,0,1,2.548-1.978,4.068,4.068,0,0,0,1.858-2.54c.344-2.472-3.042-4.325-2.648-6.79.191-1.2,1.262-2.129,1.4-3.335A3.478,3.478,0,0,0-17.189-8.66C-18.015-9.381-19-9.9-19.806-10.65a6.411,6.411,0,0,1-1.5-7.021c1.444-3.4,5.407-3.49,7.3-.416A17.69,17.69,0,0,1-12.682-14.7a5.107,5.107,0,0,0,2.093,2.88c1.145.633,2.587.487,3.759,1.067A3.383,3.383,0,0,1-4.994-7.677c-.061,1.691-1.4,3.344-.8,4.928C-5.346-1.556-3.984-1-2.737-.732A12.423,12.423,0,0,1,0,0" fill="#b140ed"/>
            </g>
            <g id="g3902" transform="translate(37.315 -18.366)">
              <path id="path3904" d="M0,0Q-.125-.027-.251-.058V10.6a.6.6,0,0,1-.6.6H2.139a.6.6,0,0,0,.6-.6V.732A12.423,12.423,0,0,0,0,0" fill="#982cd1"/>
            </g>
            <g id="g3906" transform="translate(50.247 -38.422)">
              <path id="path3908" d="M0,0-1.251,8.423A6.536,6.536,0,0,0-1.77,7.3c-.793-1.223-2.386-1.568-3.792-1.953S-8.539,4.205-8.793,2.77C-9,1.627-8.255.437-8.586-.676-9.021-2.143-10.9-2.489-12.128-3.4A4.5,4.5,0,0,1-13.616-6h1.467a7.557,7.557,0,0,1,3.664.948L-.233-.47A.461.461,0,0,1,0,0" fill="#f65082"/>
            </g>
            <g id="g3910" transform="translate(50.014 -38.892)">
              <path id="path3912" d="M0,0-8.253-4.581a7.557,7.557,0,0,0-3.663-.948h-1.467c.011.055.024.109.037.164a7.564,7.564,0,0,1,2.105.785L-2.988,0a.461.461,0,0,1,.233.47l-.869,5.849A3.914,3.914,0,0,1-1.537,7.772a6.536,6.536,0,0,1,.519,1.121L.233.47A.461.461,0,0,0,0,0" fill="#ed4073"/>
            </g>
            <g id="g3914" transform="translate(13.463 -44.425)">
              <path id="path3916" d="M0,0A15.14,15.14,0,0,0-.96,1.98c-.6,1.809.04,4.064-1.22,5.492C-3.157,8.58-4.823,8.65-6.3,8.7s-3.173.281-3.958,1.531c-.709,1.129-.751,2.389-1.309,3.489L-12.711,6a.461.461,0,0,1,.233-.47L-4.217.949A7.548,7.548,0,0,1-.553,0Z" fill="#4dd0e1"/>
            </g>
            <path id="path3918" d="M38.648-4.184h-26.3V-7.172h26.3Z" fill="none" stroke="#000" stroke-linecap="round" stroke-linejoin="round" stroke-miterlimit="10" stroke-width="1.494"/>
            <g id="g3920" transform="translate(33.813 -44.422)">
              <path id="path3922" d="M0,0H4.285A7.557,7.557,0,0,1,7.948.949L16.2,5.53a.461.461,0,0,1,.233.47L14.855,16.632a.464.464,0,0,1-.562.382L6.239,15.173V36.653a.6.6,0,0,1-.6.6h-27.91a.6.6,0,0,1-.6-.6V15.174l-8.054,1.841a.464.464,0,0,1-.562-.382L-33.061,6a.461.461,0,0,1,.233-.47l8.26-4.584A7.548,7.548,0,0,1-20.9,0h4.465" fill="none" stroke="#000" stroke-linecap="round" stroke-linejoin="round" stroke-miterlimit="10" stroke-width="1.494"/>
            </g>
            <g id="g3924" transform="translate(31.664 -46.751)">
              <path id="path3926" d="M0,0C-.031.023-3.183,2.312-6.164,2.312S-12.268.044-12.328,0c-.662-.489-2.421,1.932-1.758,2.422.16.118,3.955,2.892,7.922,2.892S1.6,2.54,1.757,2.422C2.419,1.933.663-.487,0,0Z" fill="none" stroke="#000" stroke-linecap="round" stroke-linejoin="round" stroke-miterlimit="10" stroke-width="1.494"/>
            </g>
            <g id="g3928" transform="translate(20.385 -7.219)">
              <path id="path3930" d="M0,0A3.146,3.146,0,0,1,.713-1.591,13.089,13.089,0,0,1,3.261-3.569a4.068,4.068,0,0,0,1.858-2.54c.344-2.472-3.042-4.325-2.649-6.79.191-1.2,1.262-2.129,1.4-3.335a3.477,3.477,0,0,0-1.389-2.841C1.652-19.8.665-20.319-.139-21.065a6.411,6.411,0,0,1-1.5-7.021c1.444-3.4,5.407-3.49,7.3-.416a17.683,17.683,0,0,1,1.319,3.384,5.107,5.107,0,0,0,2.093,2.88c1.145.633,2.587.487,3.759,1.067a3.382,3.382,0,0,1,1.836,3.081c-.061,1.691-1.4,3.344-.8,4.928.45,1.193,1.812,1.748,3.059,2.017a12.915,12.915,0,0,1,2.685.707" fill="none" stroke="#000" stroke-linecap="round" stroke-linejoin="round" stroke-miterlimit="10" stroke-width="1.494"/>
            </g>
            <g id="g3932" transform="translate(48.977 -30.046)">
              <path id="path3934" d="M0,0A6.159,6.159,0,0,0-.5-1.073C-1.293-2.3-2.886-2.641-4.292-3.026S-7.269-4.17-7.523-5.605c-.2-1.143.538-2.333.207-3.447-.435-1.466-2.313-1.813-3.542-2.722a4.482,4.482,0,0,1-1.477-2.548" fill="none" stroke="#000" stroke-linecap="round" stroke-linejoin="round" stroke-miterlimit="10" stroke-width="1.494"/>
            </g>
            <g id="g3936" transform="translate(13.401 -44.425)">
              <path id="path3938" d="M0,0H.062A15.141,15.141,0,0,0-.9,1.98c-.6,1.809.04,4.064-1.22,5.492C-3.095,8.58-4.761,8.65-6.236,8.7s-3.173.281-3.959,1.531c-.7,1.109-.749,2.344-1.28,3.431" fill="none" stroke="#000" stroke-linecap="round" stroke-linejoin="round" stroke-miterlimit="10" stroke-width="1.494"/>
            </g>
          </g>
        </g>
      </g>
    </g>
  </g>
</svg>
