<svg xmlns="http://www.w3.org/2000/svg" xmlns:xlink="http://www.w3.org/1999/xlink" width="107.999" height="107.999" viewBox="0 0 107.999 107.999">
  <defs>
    <filter id="Rectangle_411831" x="0" y="0" width="107.999" height="107.999" filterUnits="userSpaceOnUse">
      <feOffset dy="3" input="SourceAlpha"/>
      <feGaussianBlur stdDeviation="3" result="blur"/>
      <feFlood flood-opacity="0.161"/>
      <feComposite operator="in" in2="blur"/>
      <feComposite in="SourceGraphic"/>
    </filter>
    <clipPath id="clip-path">
      <rect id="Rectangle_424839" data-name="Rectangle 424839" width="50.999" height="57.999" transform="translate(-6708 -10662)" fill="#fff" stroke="#707070" stroke-width="1" opacity="0"/>
    </clipPath>
  </defs>
  <g id="Group_1203901" data-name="Group 1203901" transform="translate(6736.27 10684)">
    <g id="Group_1203888" data-name="Group 1203888" transform="translate(-6727.271 -10678)">
      <g id="Group_1203409" data-name="Group 1203409" transform="translate(0.001)">
        <g transform="matrix(1, 0, 0, 1, -9, -6)" filter="url(#Rectangle_411831)">
          <g id="Rectangle_411831-2" data-name="Rectangle 411831" transform="translate(9 6)" fill="#d9aef1" stroke="#fff" stroke-width="2">
            <path d="M5,0H58A32,32,0,0,1,90,32V85a5,5,0,0,1-5,5H32A32,32,0,0,1,0,58V5A5,5,0,0,1,5,0Z" stroke="none"/>
            <path d="M5,1H58A31,31,0,0,1,89,32V85a4,4,0,0,1-4,4H32A31,31,0,0,1,1,58V5A4,4,0,0,1,5,1Z" fill="none"/>
          </g>
        </g>
      </g>
      <path id="Path_1260076" data-name="Path 1260076" d="M16.614.687H.856V7.046h11.25L.856,18.219,5.4,22.735,16.614,11.6V22.735h6.441V.687Z" transform="translate(-0.856 67.265)" fill="#1f1321" fill-rule="evenodd"/>
      <path id="Path_1260092" data-name="Path 1260092" d="M5.755,17.459H17.742V12.622H9.184l8.558-8.5L14.284.687,5.755,9.157V.687H.856V17.459Z" transform="translate(72.258 -0.686)" fill="#1f1321" fill-rule="evenodd"/>
    </g>
    <g id="Mask_Group_1107884" data-name="Mask Group 1107884" clip-path="url(#clip-path)">
      <g id="cargando" transform="translate(-6708 -10658.5)">
        <g id="Group_1205293" data-name="Group 1205293">
          <g id="Group_1205291" data-name="Group 1205291">
            <path id="Path_1270391" data-name="Path 1270391" d="M11.9,28.637c1.295.6,4.49,9.224,4.49,9.224,1.133,3.426.239,7.948-1.161,11.864a.3.3,0,0,0,.281.4l1.324.1H32.049a.3.3,0,0,0,.293-.239c.613-3,1.6-7.166,6.2-6.543a26.152,26.152,0,0,0,5.355.485c1.474-.241,2.944-.889,3.375-2.64a2.792,2.792,0,0,0-.431-2.317.675.675,0,0,1,.216-.835,3,3,0,0,1,.707-.346.787.787,0,0,0,.529-.793,1.408,1.408,0,0,0-.613-1.007.1.1,0,0,1-.016-.145A7.741,7.741,0,0,1,48.7,34.87l.02-.016a.8.8,0,0,0-.035-1.249c-.645-.487-2.115-1.792-.226-2.373,1.224-.377,1.8-.972,1.8-1.883,0-.781-.5-1.23-1.147-1.731a9.944,9.944,0,0,1-2.8-3.09,1.236,1.236,0,0,1-.064-1.086c.359-.844,1.271-1.721,1.072-2.575a10.476,10.476,0,0,1-1-3.188c-.459-7.047-5.68-11.291-12.177-12.587A17.592,17.592,0,0,0,31.948,4.8L31.4,4.763l-1.124.416-7.72-1.046Z" fill="#e3a76f"/>
            <path id="Path_1270392" data-name="Path 1270392" d="M36.514,17.666a18.809,18.809,0,0,0-5.11-12.9l-8.843-.63L11.9,28.637c.955.441,2.506,5.253,3.254,7.746h0c.265.885.43,1.478.43,1.478,1.134,3.426.806,8.045-.595,11.961a.3.3,0,0,0,.282.4h1.563A19.839,19.839,0,0,0,17.45,37.31a.6.6,0,0,1,.562-.767,18.917,18.917,0,0,0,18.5-18.876Z" fill="#d6995c"/>
            <path id="Path_1270393" data-name="Path 1270393" d="M34.522,17.666A16.887,16.887,0,0,0,5.384,6.043s-.538.7-.832,1.065A16.521,16.521,0,0,0,1.219,17.666C1.219,26.993,8.3,33.9,17.631,33.9c5.057,0,9.483-1.637,12.578-5.158.216-.246.6-.626.851-.889.157-.164.258-.29.258-.29a16.813,16.813,0,0,0,3.2-9.9Z" fill="#f9f8f9"/>
            <path id="Path_1270394" data-name="Path 1270394" d="M31.332,27.546A16.888,16.888,0,1,1,5.432,5.993a16.888,16.888,0,0,0,25.9,21.553Z" fill="#e8e8e8"/>
          </g>
          <g id="Group_1205292" data-name="Group 1205292">
            <circle id="Ellipse_12414" data-name="Ellipse 12414" cx="2.49" cy="2.49" r="2.49" transform="translate(15.14 23.374)" fill="#b2e5fb"/>
            <circle id="Ellipse_12415" data-name="Ellipse 12415" cx="2.49" cy="2.49" r="2.49" transform="translate(22.271 19.258)" fill="#d3effd"/>
            <circle id="Ellipse_12416" data-name="Ellipse 12416" cx="2.49" cy="2.49" r="2.49" transform="translate(22.271 11.024)" fill="#e6f7fe"/>
            <circle id="Ellipse_12417" data-name="Ellipse 12417" cx="2.49" cy="2.49" r="2.49" transform="translate(15.14 6.907)" fill="#6cbff8"/>
            <circle id="Ellipse_12418" data-name="Ellipse 12418" cx="2.49" cy="2.49" r="2.49" transform="translate(8.01 11.024)" fill="#75cff9"/>
            <circle id="Ellipse_12419" data-name="Ellipse 12419" cx="2.49" cy="2.49" r="2.49" transform="translate(8.01 19.258)" fill="#91dafa"/>
          </g>
        </g>
        <g id="Group_1205294" data-name="Group 1205294">
          <path id="Path_1270395" data-name="Path 1270395" d="M35.389,43.124c-2.654,1.27-3.347,4.706-3.8,6.98a.747.747,0,1,0,1.465.3c.423-2.1,1-4.979,2.985-5.927a.747.747,0,1,0-.645-1.348Z"/>
          <path id="Path_1270396" data-name="Path 1270396" d="M48.7,31.906c.569-.191,2.3-.774,2.3-2.6a2.931,2.931,0,0,0-1.436-2.33,9.523,9.523,0,0,1-2.337-2.436,1.315,1.315,0,0,1-.008-1.393,3.587,3.587,0,0,0,.827-2.523,4.641,4.641,0,0,0-.356-.913,6.33,6.33,0,0,1-.662-2.677.747.747,0,1,0-1.487.145,7.953,7.953,0,0,0,.8,3.169,3.662,3.662,0,0,1,.252.614,3.1,3.1,0,0,1-.644,1.4,2.817,2.817,0,0,0,.024,2.984,10.917,10.917,0,0,0,2.68,2.81c.673.52.857.767.856,1.145,0,.281,0,.751-1.286,1.183a1.764,1.764,0,0,0-1.325,1.374,2.708,2.708,0,0,0,1.137,2.309.2.2,0,0,1,.084.129.431.431,0,0,1-.113.285,1.394,1.394,0,0,1-.718.518.726.726,0,0,0-.616.592.754.754,0,0,0,.38.793c.14.08.467.282.486.44a.192.192,0,0,1-.113.175,3.4,3.4,0,0,0-.787.4,1.423,1.423,0,0,0-.441,1.815,2.207,2.207,0,0,1,.358,1.784c-.285,1.163-1.164,1.827-2.766,2.09a23.433,23.433,0,0,1-4.522-.406.747.747,0,1,0-.208,1.48,21.957,21.957,0,0,0,4.972.4c2.2-.363,3.542-1.442,3.975-3.209a3.463,3.463,0,0,0-.449-2.769,4.476,4.476,0,0,1,.472-.22,1.681,1.681,0,0,0,.993-1.722,1.658,1.658,0,0,0-.293-.766,3.112,3.112,0,0,0,.465-.49A1.847,1.847,0,0,0,49.6,34.1a1.683,1.683,0,0,0-.661-1.119,1.387,1.387,0,0,1-.566-.878c.006-.036.1-.123.327-.2Z"/>
          <path id="Path_1270397" data-name="Path 1270397" d="M32.638,5.472c6.036.791,10.477,3.9,12.186,8.533a.747.747,0,1,0,1.4-.517,13.388,13.388,0,0,0-5.214-6.537,19.067,19.067,0,0,0-8.179-2.96.747.747,0,1,0-.194,1.481Z"/>
          <path id="Path_1270398" data-name="Path 1270398" d="M15.4,37.141a.747.747,0,0,0-.476.943c1.068,3.246.782,7.918-.73,11.9a.747.747,0,1,0,1.4.53c1.651-4.351,1.939-9.294.752-12.9a.747.747,0,0,0-.943-.476Z"/>
          <path id="Path_1270399" data-name="Path 1270399" d="M17.631,1.494a16.116,16.116,0,0,1,5.143.837A.747.747,0,0,0,23.25.914,17.633,17.633,0,0,0,4.408,29.293a.747.747,0,0,0,1.12-.989,16.137,16.137,0,0,1,12.1-26.81Z"/>
          <path id="Path_1270400" data-name="Path 1270400" d="M32.854,8.732a17.733,17.733,0,0,0-6.323-6.324A.747.747,0,0,0,25.776,3.7a16.138,16.138,0,0,1-8.145,30.07,16,16,0,0,1-9.65-3.2.747.747,0,0,0-.894,1.2A17.634,17.634,0,0,0,32.854,8.732Z"/>
          <path id="Path_1270401" data-name="Path 1270401" d="M17.631,6.16A3.237,3.237,0,1,0,20.868,9.4,3.241,3.241,0,0,0,17.631,6.16Zm0,4.98A1.743,1.743,0,1,1,19.374,9.4,1.745,1.745,0,0,1,17.631,11.14Z"/>
          <path id="Path_1270402" data-name="Path 1270402" d="M10.5,10.276a3.237,3.237,0,1,0,3.237,3.237A3.241,3.241,0,0,0,10.5,10.276Zm0,4.98a1.743,1.743,0,1,1,1.743-1.743A1.745,1.745,0,0,1,10.5,15.257Z"/>
          <path id="Path_1270403" data-name="Path 1270403" d="M10.5,18.511a3.237,3.237,0,1,0,3.237,3.237A3.241,3.241,0,0,0,10.5,18.511Zm0,4.98a1.743,1.743,0,1,1,1.743-1.743A1.745,1.745,0,0,1,10.5,23.491Z"/>
          <path id="Path_1270404" data-name="Path 1270404" d="M24.762,10.276A3.237,3.237,0,1,0,28,13.514a3.241,3.241,0,0,0-3.237-3.237Zm0,4.98a1.743,1.743,0,1,1,1.743-1.743,1.745,1.745,0,0,1-1.743,1.743Z"/>
          <path id="Path_1270405" data-name="Path 1270405" d="M24.762,18.511A3.237,3.237,0,1,0,28,21.748a3.241,3.241,0,0,0-3.237-3.237Zm0,4.98a1.743,1.743,0,1,1,1.743-1.743,1.745,1.745,0,0,1-1.743,1.743Z"/>
          <path id="Path_1270406" data-name="Path 1270406" d="M17.631,22.627a3.237,3.237,0,1,0,3.237,3.237A3.241,3.241,0,0,0,17.631,22.627Zm0,4.98a1.743,1.743,0,1,1,1.743-1.743A1.745,1.745,0,0,1,17.631,27.607Z"/>
        </g>
      </g>
    </g>
  </g>
</svg>
