<svg xmlns="http://www.w3.org/2000/svg" xmlns:xlink="http://www.w3.org/1999/xlink" width="107.999" height="108" viewBox="0 0 107.999 108">
  <defs>
    <filter id="Rectangle_411831" x="0" y="0" width="107.999" height="108" filterUnits="userSpaceOnUse">
      <feOffset dy="3" input="SourceAlpha"/>
      <feGaussianBlur stdDeviation="3" result="blur"/>
      <feFlood flood-opacity="0.161"/>
      <feComposite operator="in" in2="blur"/>
      <feComposite in="SourceGraphic"/>
    </filter>
    <clipPath id="clip-path">
      <rect id="Rectangle_425301" data-name="Rectangle 425301" width="54" height="62" transform="translate(-6744 -6575)" fill="#fff" stroke="#707070" stroke-width="1" opacity="0"/>
    </clipPath>
  </defs>
  <g id="Group_1205364" data-name="Group 1205364" transform="translate(6770.96 6595.266)">
    <g id="Group_1205301" data-name="Group 1205301" transform="translate(-7562.742 -8551.266)">
      <g id="Group_1203409" data-name="Group 1203409" transform="translate(800.781 1962)">
        <g transform="matrix(1, 0, 0, 1, -9, -6)" filter="url(#Rectangle_411831)">
          <g id="Rectangle_411831-2" data-name="Rectangle 411831" transform="translate(9 6)" fill="#8fe8d5" stroke="#fff" stroke-width="2">
            <path d="M5,0H58A32,32,0,0,1,90,32V85a5,5,0,0,1-5,5H32A32,32,0,0,1,0,58V5A5,5,0,0,1,5,0Z" stroke="none"/>
            <path d="M5,1H58A31,31,0,0,1,89,32V85a4,4,0,0,1-4,4H32A31,31,0,0,1,1,58V5A4,4,0,0,1,5,1Z" fill="none"/>
          </g>
        </g>
      </g>
      <path id="Path_1260076" data-name="Path 1260076" d="M15.052.687H.856V6.415H10.991L.856,16.481l4.1,4.068,10.1-10.031V20.549h5.8V.687Z" transform="translate(799.924 2031.451)" fill="#1f1321" fill-rule="evenodd"/>
      <path id="Path_1260092" data-name="Path 1260092" d="M5.27,15.8h10.8V11.438H8.359l7.709-7.657L12.953.687,5.27,8.318V.687H.856V15.8Z" transform="translate(874.712 1961.314)" fill="#1f1321" fill-rule="evenodd"/>
    </g>
    <g id="Mask_Group_1107896" data-name="Mask Group 1107896" clip-path="url(#clip-path)">
      <g id="dominio" transform="translate(-6744 -6568.52)">
        <path id="Path_1270566" data-name="Path 1270566" d="M50.674,24.519A23.674,23.674,0,1,1,27,.845,23.674,23.674,0,0,1,50.674,24.519Zm0,0" fill="#80e0dc"/>
        <path id="Path_1270567" data-name="Path 1270567" d="M50.674,24.519A23.692,23.692,0,0,1,20.043,47.154,23.679,23.679,0,0,0,30.1,1.046,23.679,23.679,0,0,1,50.674,24.519Zm0,0" fill="#00a8b0"/>
        <path id="Path_1270568" data-name="Path 1270568" d="M52.039,30.5H1.961A1.169,1.169,0,0,1,.792,29.331V22.2a1.169,1.169,0,0,1,1.169-1.169H52.039A1.169,1.169,0,0,1,53.208,22.2v7.127A1.169,1.169,0,0,1,52.039,30.5Zm0,0" fill="#e7e7e7"/>
        <path id="Path_1270569" data-name="Path 1270569" d="M52.039,30.536h-9.2V20.929h9.2A1.169,1.169,0,0,1,53.208,22.1v7.269a1.169,1.169,0,0,1-1.169,1.169Zm0,0" fill="#c9f0ff"/>
        <path id="Path_1270570" data-name="Path 1270570" d="M48.377,23.531l.474.96a.4.4,0,0,0,.3.217l1.06.154a.4.4,0,0,1,.22.676l-.767.748a.4.4,0,0,0-.114.351l.181,1.056a.4.4,0,0,1-.575.418l-.948-.5a.4.4,0,0,0-.369,0l-.948.5a.4.4,0,0,1-.575-.418l.181-1.056a.4.4,0,0,0-.114-.351l-.767-.748a.4.4,0,0,1,.22-.676l1.06-.154a.4.4,0,0,0,.3-.217l.474-.96a.4.4,0,0,1,.71,0Zm0,0" fill="#ffd86e"/>
        <path id="Path_1270571" data-name="Path 1270571" d="M52.039,30.5H50.612V21.035h1.427A1.169,1.169,0,0,1,53.208,22.2v7.127A1.169,1.169,0,0,1,52.039,30.5Zm0,0" fill="#9ae7fd"/>
        <path id="Path_1270572" data-name="Path 1270572" d="M52.039,20.138h-.964A24.469,24.469,0,0,0,9.7,7.219,24.286,24.286,0,0,0,2.906,20.243H1.961A1.963,1.963,0,0,0,0,22.2v7.127a1.963,1.963,0,0,0,1.961,1.961h1.53a24.463,24.463,0,0,0,7.574,11.793.792.792,0,0,0,1.032-1.2,22.931,22.931,0,0,1-2.61-2.638,30.372,30.372,0,0,1,3.693-1.276,26.252,26.252,0,0,0,1.992,3.013,30.877,30.877,0,0,0,5.376,5.492,22.693,22.693,0,0,1-4.644-1.94.792.792,0,0,0-.769,1.385A24.488,24.488,0,0,0,50.508,31.328h1.531A1.963,1.963,0,0,0,54,29.367V22.1a1.963,1.963,0,0,0-1.961-1.961Zm-2.576,0H43.954c-.066-.41-.139-.821-.224-1.231a27.9,27.9,0,0,0-2.194-6.487c.146-.04.293-.079.438-.12a30.189,30.189,0,0,0,3.552-1.22,22.633,22.633,0,0,1,3.937,9.058Zm-7.1.106H34.185c-.027-.4-.057-.794-.092-1.191-.157-1.772-.389-3.487-.687-5.127a51.26,51.26,0,0,0,6.565-1.1,26.3,26.3,0,0,1,2.209,6.407c.07.338.131.676.187,1.015ZM43.18,8.338q.7.7,1.33,1.448a30.563,30.563,0,0,1-2.972.99c-.248.071-.5.139-.748.206a27.823,27.823,0,0,0-1.653-2.613,27.2,27.2,0,0,0-5.587-5.786,22.768,22.768,0,0,1,9.63,5.755ZM29.442,1.766A25.739,25.739,0,0,1,37.849,9.29q.724,1.015,1.343,2.087a50.067,50.067,0,0,1-6.1.99A32.574,32.574,0,0,0,29.053,1.728q.195.017.389.037ZM27,1.636h.058A28.424,28.424,0,0,1,31.511,12.5q-2.537.183-5.2.146c-1.2-.017-2.489-.055-3.828-.136A28.437,28.437,0,0,1,26.942,1.637H27Zm-2.053.092A32.6,32.6,0,0,0,20.9,12.4a45.431,45.431,0,0,1-6.14-.932q.641-1.117,1.395-2.175a25.748,25.748,0,0,1,8.407-7.524q.194-.02.389-.037Zm-4.36,12.231c-.3,1.63-.525,3.334-.681,5.093-.035.4-.065.793-.091,1.191H11.632c.056-.339.118-.677.188-1.015a26.315,26.315,0,0,1,2.165-6.318,46.062,46.062,0,0,0,6.6,1.049ZM10.82,8.338a22.768,22.768,0,0,1,9.63-5.755,27.181,27.181,0,0,0-5.587,5.786,27.69,27.69,0,0,0-1.7,2.695,30.3,30.3,0,0,1-3.68-1.272q.633-.75,1.334-1.453ZM8.473,11.081A31.4,31.4,0,0,0,12.425,12.5a27.912,27.912,0,0,0-2.156,6.408q-.138.667-.241,1.336H4.517a22.632,22.632,0,0,1,3.956-9.162ZM1.961,29.708a.378.378,0,0,1-.377-.378V22.2a.378.378,0,0,1,.377-.377H24.818a.792.792,0,0,0,0-1.584H21.4c.025-.35.051-.7.082-1.051.157-1.772.389-3.482.689-5.112,1.444.093,2.829.134,4.119.152q.468.007.934.007,2.343,0,4.6-.172c.3,1.633.534,3.348.691,5.124q.046.525.083,1.051H29.762a.792.792,0,1,0,0,1.584H42.044v7.881H1.961Zm39.893,1.583a25.2,25.2,0,0,1-1.888,4.923,51.291,51.291,0,0,0-6.552-1.1c.227-1.238.414-2.514.558-3.819h7.882Zm-9.473,0c-.143,1.258-.327,2.487-.55,3.679q-2.7-.205-5.539-.166c-1.293.019-2.68.06-4.126.153-.222-1.187-.4-2.412-.547-3.665Zm-23.9,6.663a22.862,22.862,0,0,1-3.335-6.663h5.369a26.84,26.84,0,0,0,1.913,5.247A31.354,31.354,0,0,0,8.478,37.955Zm3.67-6.663h7.879c.143,1.294.328,2.56.553,3.788a46.061,46.061,0,0,0-6.591,1.047,25.2,25.2,0,0,1-1.841-4.835Zm12.4,15.976a27.383,27.383,0,0,1-8.122-7.246,24.587,24.587,0,0,1-1.651-2.452,45.487,45.487,0,0,1,6.114-.927A40.766,40.766,0,0,0,22,40.751a30.966,30.966,0,0,0,2.954,6.558c-.136-.012-.272-.026-.408-.041ZM27,47.4h-.058a25.505,25.505,0,0,1-3.435-7.147c-.389-1.177-.729-2.426-1.02-3.73,1.339-.081,2.626-.119,3.828-.136q2.657-.038,5.2.147c-.29,1.3-.63,2.546-1.018,3.719A25.494,25.494,0,0,1,27.058,47.4H27Zm2.04-.091A30.918,30.918,0,0,0,32,40.751,40.5,40.5,0,0,0,33.1,36.672a50.063,50.063,0,0,1,6.069.984,24.563,24.563,0,0,1-1.6,2.365,27.384,27.384,0,0,1-8.13,7.251q-.2.021-.4.039ZM43.18,40.7a22.762,22.762,0,0,1-9.742,5.787,30.87,30.87,0,0,0,5.39-5.5,26.16,26.16,0,0,0,1.945-2.933q.384.1.765.21a30.678,30.678,0,0,1,2.97.99c-.421.5-.861.983-1.328,1.449Zm2.343-2.742a30.214,30.214,0,0,0-3.55-1.219c-.145-.042-.292-.08-.438-.12a26.831,26.831,0,0,0,1.942-5.29h5.374a22.63,22.63,0,0,1-3.329,6.629Zm6.893-8.626a.378.378,0,0,1-.377.377H43.627V21.827h8.412a.378.378,0,0,1,.377.378Zm0,0"/>
        <path id="Path_1270573" data-name="Path 1270573" d="M50.323,24.079l-.854-.124-.382-.774a1.188,1.188,0,0,0-2.131,0l-.382.774-.854.124a1.188,1.188,0,0,0-.658,2.027l.618.6-.146.851a1.188,1.188,0,0,0,1.724,1.252l.764-.4.764.4a1.188,1.188,0,0,0,1.724-1.252l-.146-.851.618-.6a1.188,1.188,0,0,0-.658-2.027Zm-1.214,1.64a1.189,1.189,0,0,0-.342,1.051l.046.266-.239-.125a1.187,1.187,0,0,0-1.106,0l-.239.125.045-.266a1.187,1.187,0,0,0-.342-1.051l-.193-.188.267-.039a1.189,1.189,0,0,0,.895-.65l.119-.242.119.242a1.187,1.187,0,0,0,.894.65l.267.039Zm0,0"/>
        <path id="Path_1270574" data-name="Path 1270574" d="M5.992,27.3c0,.117-.176.24-.381.24-.222,0-.374-.123-.374-.24V23.373c0-.14.152-.234.374-.234.2,0,.381.094.381.234v1.8a.8.8,0,0,1,.737-.445,1.125,1.125,0,0,1,1.006,1.188V27.3c0,.158-.193.24-.38.24s-.374-.082-.374-.24V25.912a.541.541,0,0,0-.509-.527.5.5,0,0,0-.48.527V27.3Zm0,0"/>
        <path id="Path_1270575" data-name="Path 1270575" d="M9.4,26.591c0,.228.082.31.328.31h.228a.319.319,0,1,1,0,.638H9.725c-.7,0-1.082-.287-1.082-.948V23.754c0-.14.2-.234.374-.234.193,0,.38.094.38.234V24.76h.69c.123,0,.193.14.193.275s-.07.275-.193.275H9.4v1.281Zm0,0"/>
        <path id="Path_1270576" data-name="Path 1270576" d="M11.779,26.591c0,.228.082.31.328.31h.228a.319.319,0,1,1,0,.638h-.228c-.7,0-1.082-.287-1.082-.948V23.754c0-.14.2-.234.374-.234.193,0,.38.094.38.234V24.76h.69c.123,0,.193.14.193.275s-.07.275-.193.275h-.69Zm0,0"/>
        <path id="Path_1270577" data-name="Path 1270577" d="M14.125,24.994v.176a.92.92,0,0,1,.79-.445,1.124,1.124,0,0,1,1.047,1.188v.48a1.162,1.162,0,0,1-1.024,1.2.869.869,0,0,1-.766-.462v1.463c0,.123-.176.24-.386.24s-.368-.117-.368-.24v-3.6c0-.14.158-.234.357-.234s.351.094.351.234Zm1.082.919a.549.549,0,0,0-.532-.527.512.512,0,0,0-.5.527V26.5a.569.569,0,0,0,.515.433.558.558,0,0,0,.521-.538Zm0,0"/>
        <path id="Path_1270578" data-name="Path 1270578" d="M18.11,26.766c0-.515-1.387-.193-1.387-1.17,0-.415.263-.872,1.047-.872.474,0,.93.164.93.38,0,.105-.1.363-.275.363-.14,0-.322-.17-.644-.17-.293,0-.41.146-.41.263,0,.427,1.4.135,1.4,1.176,0,.521-.386.854-1.077.854-.6,0-1.059-.246-1.059-.5,0-.123.105-.333.251-.333.17,0,.3.263.79.263.345,0,.427-.135.427-.252Zm0,0"/>
        <path id="Path_1270579" data-name="Path 1270579" d="M20.328,25.468a.4.4,0,0,1-.392.4.4.4,0,1,1,.392-.4Zm0,1.708a.4.4,0,0,1-.392.4.4.4,0,1,1,.392-.4Zm0,0"/>
        <path id="Path_1270580" data-name="Path 1270580" d="M23.669,23.291a.227.227,0,0,1-.023.105l-2.1,4.248a.254.254,0,0,1-.228.129.273.273,0,0,1-.281-.257.2.2,0,0,1,.029-.1l2.1-4.265a.228.228,0,0,1,.211-.123.284.284,0,0,1,.293.263Zm0,0"/>
        <path id="Path_1270581" data-name="Path 1270581" d="M25.436,23.291a.232.232,0,0,1-.023.105l-2.1,4.248a.253.253,0,0,1-.228.129.273.273,0,0,1-.281-.257.2.2,0,0,1,.029-.1l2.1-4.265a.228.228,0,0,1,.211-.123.284.284,0,0,1,.293.263Zm0,0"/>
        <path id="Path_1270582" data-name="Path 1270582" d="M28.818,27.468c-.041.1-.17.135-.3.135-.146,0-.275-.047-.31-.135l-.451-1.276-.445,1.27c-.035.094-.176.14-.322.14a.292.292,0,0,1-.293-.14l-.9-2.311a.24.24,0,0,1-.029-.111c0-.181.293-.31.492-.31a.214.214,0,0,1,.216.123l.585,1.662.439-1.445c.041-.134.14-.152.257-.152s.217.018.257.152l.433,1.451.591-1.667a.217.217,0,0,1,.217-.123c.187,0,.486.129.486.316a.214.214,0,0,1-.023.105Zm0,0"/>
        <path id="Path_1270583" data-name="Path 1270583" d="M33.224,27.468c-.041.1-.169.135-.3.135-.146,0-.275-.047-.31-.135l-.45-1.276-.445,1.27c-.035.094-.175.14-.322.14a.293.293,0,0,1-.293-.14l-.9-2.311a.24.24,0,0,1-.029-.111c0-.181.293-.31.492-.31a.215.215,0,0,1,.217.123l.585,1.662.439-1.445c.041-.134.14-.152.257-.152s.216.018.257.152l.433,1.451.591-1.667a.217.217,0,0,1,.216-.123c.187,0,.486.129.486.316a.214.214,0,0,1-.023.105Zm0,0"/>
        <path id="Path_1270584" data-name="Path 1270584" d="M37.63,27.468c-.041.1-.169.135-.3.135-.146,0-.275-.047-.31-.135l-.45-1.276-.445,1.27c-.035.094-.176.14-.322.14a.293.293,0,0,1-.293-.14l-.9-2.311a.24.24,0,0,1-.029-.111c0-.181.293-.31.492-.31a.215.215,0,0,1,.217.123l.585,1.662.439-1.445c.041-.134.14-.152.257-.152s.217.018.257.152l.433,1.451.591-1.667a.217.217,0,0,1,.216-.123c.187,0,.486.129.486.316a.214.214,0,0,1-.023.105Zm0,0"/>
      </g>
    </g>
  </g>
</svg>
