<svg xmlns="http://www.w3.org/2000/svg" xmlns:xlink="http://www.w3.org/1999/xlink" width="107.999" height="108" viewBox="0 0 107.999 108">
  <defs>
    <filter id="Rectangle_411831" x="0" y="0" width="107.999" height="108" filterUnits="userSpaceOnUse">
      <feOffset dy="3" input="SourceAlpha"/>
      <feGaussianBlur stdDeviation="3" result="blur"/>
      <feFlood flood-opacity="0.161"/>
      <feComposite operator="in" in2="blur"/>
      <feComposite in="SourceGraphic"/>
    </filter>
    <clipPath id="clip-path">
      <rect id="Rectangle_425301" data-name="Rectangle 425301" width="54" height="62" transform="translate(-6744 -6575)" fill="#fff" stroke="#707070" stroke-width="1" opacity="0"/>
    </clipPath>
  </defs>
  <g id="Group_1205367" data-name="Group 1205367" transform="translate(6770.96 6595.266)">
    <g id="Group_1205301" data-name="Group 1205301" transform="translate(-7562.742 -8551.266)">
      <g id="Group_1203409" data-name="Group 1203409" transform="translate(800.781 1962)">
        <g transform="matrix(1, 0, 0, 1, -9, -6)" filter="url(#Rectangle_411831)">
          <g id="Rectangle_411831-2" data-name="Rectangle 411831" transform="translate(9 6)" fill="#8fe8d5" stroke="#fff" stroke-width="2">
            <path d="M5,0H58A32,32,0,0,1,90,32V85a5,5,0,0,1-5,5H32A32,32,0,0,1,0,58V5A5,5,0,0,1,5,0Z" stroke="none"/>
            <path d="M5,1H58A31,31,0,0,1,89,32V85a4,4,0,0,1-4,4H32A31,31,0,0,1,1,58V5A4,4,0,0,1,5,1Z" fill="none"/>
          </g>
        </g>
      </g>
      <path id="Path_1260076" data-name="Path 1260076" d="M15.052.687H.856V6.415H10.991L.856,16.481l4.1,4.068,10.1-10.031V20.549h5.8V.687Z" transform="translate(799.924 2031.451)" fill="#1f1321" fill-rule="evenodd"/>
      <path id="Path_1260092" data-name="Path 1260092" d="M5.27,15.8h10.8V11.438H8.359l7.709-7.657L12.953.687,5.27,8.318V.687H.856V15.8Z" transform="translate(874.712 1961.314)" fill="#1f1321" fill-rule="evenodd"/>
    </g>
    <g id="Mask_Group_1107899" data-name="Mask Group 1107899" clip-path="url(#clip-path)">
      <g id="tiempo" transform="translate(-6744.886 -6572.328)">
        <g id="a_" data-name="a`">
          <g id="Group_1205376" data-name="Group 1205376">
            <g id="Group_1205370" data-name="Group 1205370">
              <path id="Path_1270602" data-name="Path 1270602" d="M24.787,29.415h7.082V43.378H24.787Z" fill="#c12b35"/>
              <path id="Path_1270603" data-name="Path 1270603" d="M28.126,29.415h3.743V40.722H30.1a3.542,3.542,0,0,1-3.541-3.541v-6.2A1.569,1.569,0,0,1,28.126,29.415Z" fill="#e63a45"/>
            </g>
            <g id="Group_1205371" data-name="Group 1205371">
              <path id="Path_1270604" data-name="Path 1270604" d="M35.41,20.361h7.082V43.378H35.41Z" fill="#1cb15f"/>
              <path id="Path_1270605" data-name="Path 1270605" d="M38.75,20.361h3.743V40.722H40.722a3.542,3.542,0,0,1-3.541-3.541V21.93A1.569,1.569,0,0,1,38.75,20.361Z" fill="#27d674"/>
            </g>
            <g id="Group_1205373" data-name="Group 1205373">
              <g id="Group_1205372" data-name="Group 1205372">
                <circle id="Ellipse_12434" data-name="Ellipse 12434" cx="2.656" cy="2.656" r="2.656" transform="translate(15.049 11.508)" fill="#edf4fa"/>
                <circle id="Ellipse_12435" data-name="Ellipse 12435" cx="2.656" cy="2.656" r="2.656" transform="translate(4.426 24.787)" fill="#edf4fa"/>
                <circle id="Ellipse_12436" data-name="Ellipse 12436" cx="2.656" cy="2.656" r="2.656" transform="translate(25.673 16.82)" fill="#edf4fa"/>
                <circle id="Ellipse_12437" data-name="Ellipse 12437" cx="2.656" cy="2.656" r="2.656" transform="translate(36.296 4.426)" fill="#edf4fa"/>
                <circle id="Ellipse_12438" data-name="Ellipse 12438" cx="2.656" cy="2.656" r="2.656" transform="translate(46.919 7.082)" fill="#edf4fa"/>
              </g>
              <path id="Path_1270606" data-name="Path 1270606" d="M43.376,5.589h1.77V11.23h-1.77Z" transform="matrix(0.243, -0.97, 0.97, 0.243, 25.369, 49.311)" fill="#355485"/>
              <path id="Path_1270607" data-name="Path 1270607" d="M28.13,12.393H39.147v1.77H28.13Z" transform="matrix(0.651, -0.759, 0.759, 0.651, 1.664, 30.177)" fill="#355485"/>
              <path id="Path_1270608" data-name="Path 1270608" d="M22.121,13.529h1.77v6.565h-1.77Z" transform="translate(-2.321 29.884) rotate(-63.435)" fill="#355485"/>
              <path id="Path_1270609" data-name="Path 1270609" d="M6.545,19.919H18.259V21.69H6.545Z" transform="translate(-11.588 17.488) rotate(-51.331)" fill="#355485"/>
              <path id="Path_1270610" data-name="Path 1270610" d="M17.705,17.705a3.541,3.541,0,1,1,3.541-3.541A3.545,3.545,0,0,1,17.705,17.705Zm0-5.312a1.771,1.771,0,1,0,1.771,1.771A1.772,1.772,0,0,0,17.705,12.394Z" fill="#27d674"/>
              <path id="Path_1270611" data-name="Path 1270611" d="M7.082,30.984a3.541,3.541,0,1,1,3.541-3.541A3.545,3.545,0,0,1,7.082,30.984Zm0-5.312a1.771,1.771,0,1,0,1.771,1.771A1.772,1.772,0,0,0,7.082,25.673Z" fill="#e63a45"/>
              <path id="Path_1270612" data-name="Path 1270612" d="M28.328,23.017a3.541,3.541,0,1,1,3.541-3.541A3.545,3.545,0,0,1,28.328,23.017Zm0-5.312A1.771,1.771,0,1,0,30.1,19.476,1.772,1.772,0,0,0,28.328,17.705Z" fill="#e63a45"/>
              <path id="Path_1270613" data-name="Path 1270613" d="M38.951,10.623a3.541,3.541,0,1,1,3.541-3.541A3.545,3.545,0,0,1,38.951,10.623Zm0-5.312a1.771,1.771,0,1,0,1.771,1.771A1.772,1.772,0,0,0,38.951,5.312Z" fill="#27d674"/>
              <path id="Path_1270614" data-name="Path 1270614" d="M49.575,13.279a3.541,3.541,0,1,1,3.541-3.541A3.545,3.545,0,0,1,49.575,13.279Zm0-5.312a1.771,1.771,0,1,0,1.771,1.771A1.772,1.772,0,0,0,49.575,7.967Z" fill="#27d674"/>
            </g>
            <path id="Path_1270615" data-name="Path 1270615" d="M46.034,15.935h7.082V43.378H46.034Z" fill="#1cb15f"/>
            <path id="Path_1270616" data-name="Path 1270616" d="M21.246,42.493h33.64v1.771H21.246Z" fill="#27d674"/>
            <path id="Path_1270617" data-name="Path 1270617" d="M49.373,15.935h3.743V40.722H51.345A3.542,3.542,0,0,1,47.8,37.181V17.5A1.569,1.569,0,0,1,49.373,15.935Z" fill="#27d674"/>
            <g id="Group_1205375" data-name="Group 1205375">
              <path id="Path_1270618" data-name="Path 1270618" d="M15.049,25.673A13.279,13.279,0,1,0,28.328,38.951,13.279,13.279,0,0,0,15.049,25.673Zm0,23.9A10.623,10.623,0,1,1,25.673,38.951,10.624,10.624,0,0,1,15.049,49.575Z" fill="#355485"/>
              <circle id="Ellipse_12439" data-name="Ellipse 12439" cx="13.279" cy="13.279" r="13.279" transform="translate(1.771 25.673)" fill="#355485"/>
              <path id="Path_1270619" data-name="Path 1270619" d="M27,40.279a1.328,1.328,0,0,1-1.328-1.328,10.623,10.623,0,0,0-21.246,0,1.328,1.328,0,0,1-2.656,0,13.279,13.279,0,0,1,26.558,0A1.328,1.328,0,0,1,27,40.279Z" fill="#446aa9"/>
              <circle id="Ellipse_12440" data-name="Ellipse 12440" cx="10.623" cy="10.623" r="10.623" transform="translate(4.426 28.328)" fill="#eef1fa"/>
              <path id="Path_1270620" data-name="Path 1270620" d="M7.082,38.951a10.618,10.618,0,0,1,9.3-10.531,10.623,10.623,0,1,0,0,21.062A10.618,10.618,0,0,1,7.082,38.951Z" fill="#c2cfe8"/>
              <g id="Group_1205374" data-name="Group 1205374">
                <path id="Path_1270621" data-name="Path 1270621" d="M14.164,28.328h1.771v3.541H14.164Z" fill="#36393f"/>
                <path id="Path_1270622" data-name="Path 1270622" d="M14.164,46.034h1.771v3.541H14.164Z" fill="#36393f"/>
                <path id="Path_1270623" data-name="Path 1270623" d="M22.132,38.066h3.541v1.771H22.132Z" fill="#36393f"/>
                <path id="Path_1270624" data-name="Path 1270624" d="M4.426,38.066H7.967v1.771H4.426Z" fill="#36393f"/>
                <path id="Path_1270625" data-name="Path 1270625" d="M21.016,44.869h1.77v1.86h-1.77Z" transform="translate(-25.974 28.905) rotate(-45)" fill="#36393f"/>
                <path id="Path_1270626" data-name="Path 1270626" d="M7.308,31.163h1.77v1.86H7.308Z" transform="translate(-20.295 15.195) rotate(-45)" fill="#36393f"/>
                <path id="Path_1270627" data-name="Path 1270627" d="M7.264,44.914h1.86v1.77H7.264Z" transform="translate(-29.989 19.211) rotate(-45)" fill="#36393f"/>
                <path id="Path_1270628" data-name="Path 1270628" d="M20.97,31.207h1.86v1.77H20.97Z" transform="translate(-16.281 24.889) rotate(-45)" fill="#36393f"/>
                <path id="Path_1270629" data-name="Path 1270629" d="M17.705,39.837H15.049a.885.885,0,0,1-.885-.885V34.525h1.771v3.541h1.771Z" fill="#36393f"/>
              </g>
            </g>
          </g>
        </g>
        <g id="af">
          <g id="Group_1205377" data-name="Group 1205377">
            <path id="Path_1270630" data-name="Path 1270630" d="M15.049,53.116a14.179,14.179,0,0,0,13.121-8.853H54.886V42.493H54V15.935a.885.885,0,0,0-.885-.885H46.034a.885.885,0,0,0-.885.885V42.493H43.378V30.984H41.607V42.493H36.3V21.246h5.312v7.082h1.771V20.361a.885.885,0,0,0-.885-.885H35.41a.885.885,0,0,0-.885.885V42.493H32.755V29.214a.885.885,0,0,0-.885-.885H24.386a14.022,14.022,0,0,0-14.242-2.647,3.685,3.685,0,0,0-.235-.356l6.349-7.936a3.485,3.485,0,0,0,4.1-.907l4.507,2.254a3.541,3.541,0,1,0,6.36-1.283l6.174-7.2a3.481,3.481,0,0,0,4.645-1.483l3.991,1a3.583,3.583,0,1,0,.444-1.714l-3.991-1A3.54,3.54,0,1,0,36.052,9.1l-6.174,7.2a3.465,3.465,0,0,0-4.206.851L21.166,14.9a3.542,3.542,0,1,0-6.284,1.373L8.527,24.22a3.531,3.531,0,0,0-4.171,5.472A14.144,14.144,0,0,0,15.05,53.115ZM49.575,7.967A1.771,1.771,0,1,1,47.8,9.738,1.772,1.772,0,0,1,49.575,7.967ZM38.951,5.312a1.771,1.771,0,1,1-1.771,1.771A1.772,1.772,0,0,1,38.951,5.312ZM28.328,17.705a1.771,1.771,0,1,1-1.771,1.771A1.772,1.772,0,0,1,28.328,17.705Zm18.59-.885H52.23V42.493H46.919ZM30.984,42.493H28.747A13.985,13.985,0,0,0,26.089,30.1h4.9Zm-3.541-3.541A12.394,12.394,0,1,1,15.049,26.558,12.407,12.407,0,0,1,27.443,38.951ZM17.705,12.394a1.771,1.771,0,1,1-1.771,1.771A1.772,1.772,0,0,1,17.705,12.394ZM7.082,25.673a1.764,1.764,0,0,1,1.427.728,14.229,14.229,0,0,0-2.892,2.015,1.754,1.754,0,0,1,1.465-2.743Z"/>
            <path id="Path_1270631" data-name="Path 1270631" d="M15.049,50.46A11.508,11.508,0,1,0,3.541,38.951,11.522,11.522,0,0,0,15.049,50.46ZM5.357,38.066a9.7,9.7,0,0,1,2.214-5.342l.656.656,1.252-1.252-.656-.656a9.688,9.688,0,0,1,5.342-2.214v2.611h1.771V29.259a9.7,9.7,0,0,1,5.342,2.214l-.656.656,1.252,1.252.656-.656a9.688,9.688,0,0,1,2.214,5.342H22.132v1.771h2.611a9.7,9.7,0,0,1-2.214,5.342l-.656-.656L20.62,45.774l.656.656a9.688,9.688,0,0,1-5.342,2.214V46.034H14.164v2.611A9.7,9.7,0,0,1,8.823,46.43l.656-.656L8.227,44.522l-.656.656a9.688,9.688,0,0,1-2.214-5.342H7.967V38.066Z"/>
            <path id="Path_1270632" data-name="Path 1270632" d="M15.049,39.837h2.656V38.066H15.935V34.525H14.164v4.426A.885.885,0,0,0,15.049,39.837Z"/>
          </g>
        </g>
      </g>
    </g>
  </g>
</svg>
