<svg xmlns="http://www.w3.org/2000/svg" xmlns:xlink="http://www.w3.org/1999/xlink" width="107.999" height="108" viewBox="0 0 107.999 108">
  <defs>
    <filter id="Rectangle_411831" x="0" y="0" width="107.999" height="108" filterUnits="userSpaceOnUse">
      <feOffset dy="3" input="SourceAlpha"/>
      <feGaussianBlur stdDeviation="3" result="blur"/>
      <feFlood flood-opacity="0.161"/>
      <feComposite operator="in" in2="blur"/>
      <feComposite in="SourceGraphic"/>
    </filter>
    <clipPath id="clip-path">
      <rect id="Rectangle_425301" data-name="Rectangle 425301" width="54" height="62" transform="translate(-6744 -6575)" fill="#fff" stroke="#707070" stroke-width="1" opacity="0"/>
    </clipPath>
  </defs>
  <g id="Group_1205365" data-name="Group 1205365" transform="translate(6770.96 6595.266)">
    <g id="Group_1205301" data-name="Group 1205301" transform="translate(-7562.742 -8551.266)">
      <g id="Group_1203409" data-name="Group 1203409" transform="translate(800.781 1962)">
        <g transform="matrix(1, 0, 0, 1, -9, -6)" filter="url(#Rectangle_411831)">
          <g id="Rectangle_411831-2" data-name="Rectangle 411831" transform="translate(9 6)" fill="#8fe8d5" stroke="#fff" stroke-width="2">
            <path d="M5,0H58A32,32,0,0,1,90,32V85a5,5,0,0,1-5,5H32A32,32,0,0,1,0,58V5A5,5,0,0,1,5,0Z" stroke="none"/>
            <path d="M5,1H58A31,31,0,0,1,89,32V85a4,4,0,0,1-4,4H32A31,31,0,0,1,1,58V5A4,4,0,0,1,5,1Z" fill="none"/>
          </g>
        </g>
      </g>
      <path id="Path_1260076" data-name="Path 1260076" d="M15.052.687H.856V6.415H10.991L.856,16.481l4.1,4.068,10.1-10.031V20.549h5.8V.687Z" transform="translate(799.924 2031.451)" fill="#1f1321" fill-rule="evenodd"/>
      <path id="Path_1260092" data-name="Path 1260092" d="M5.27,15.8h10.8V11.438H8.359l7.709-7.657L12.953.687,5.27,8.318V.687H.856V15.8Z" transform="translate(874.712 1961.314)" fill="#1f1321" fill-rule="evenodd"/>
    </g>
    <g id="Mask_Group_1107897" data-name="Mask Group 1107897" clip-path="url(#clip-path)">
      <g id="manzana" transform="translate(-6750.065 -6577.065)">
        <path id="Path_1270585" data-name="Path 1270585" d="M39.724,7.119H26.407A19.475,19.475,0,0,0,6.84,26.478V39.653A19.475,19.475,0,0,0,26.407,59.012H39.724A19.475,19.475,0,0,0,59.291,39.653V26.478A19.475,19.475,0,0,0,39.724,7.119ZM34.9,19.077A7.662,7.662,0,0,1,39.723,16.5a7.2,7.2,0,0,1-1.684,5.371,6.267,6.267,0,0,1-4.939,2.35,6.912,6.912,0,0,1,1.8-5.147Zm9.333,26.428c-1.337,2-2.785,4.117-5.013,4.117s-2.9-1.335-5.459-1.335c-2.451,0-3.231,1.224-5.348,1.335-2.228.111-3.9-2.226-5.236-4.229-2.9-4.117-5.013-11.684-2.117-16.8a7.954,7.954,0,0,1,6.8-4.229c2.117,0,4.122,1.447,5.459,1.447,1.226,0,3.676-1.78,6.239-1.558a7.727,7.727,0,0,1,6.016,3.338,7.41,7.41,0,0,0,.891,13.131,16.861,16.861,0,0,1-2.228,4.785Z" fill="#efdef9"/>
        <path id="Path_1270586" data-name="Path 1270586" d="M42,33.933a7.482,7.482,0,0,1,3.565-6.343,7.727,7.727,0,0,0-6.016-3.338c-2.562-.223-5.013,1.558-6.239,1.558-1.337,0-3.342-1.447-5.459-1.447a7.954,7.954,0,0,0-6.8,4.229c-2.9,5.119-.78,12.686,2.117,16.8,1.337,2,3.008,4.34,5.236,4.229,2.117-.111,2.9-1.335,5.348-1.335,2.562,0,3.231,1.335,5.459,1.335s3.676-2.114,5.013-4.117a16.865,16.865,0,0,0,2.228-4.785A7.48,7.48,0,0,1,42,33.933Z" fill="#fff"/>
        <path id="Path_1270587" data-name="Path 1270587" d="M38.039,21.875A7.2,7.2,0,0,0,39.723,16.5,7.662,7.662,0,0,0,34.9,19.077a6.911,6.911,0,0,0-1.8,5.147,6.267,6.267,0,0,0,4.939-2.35Z" fill="#fff"/>
        <g id="Group_1205368" data-name="Group 1205368">
          <path id="Path_1270588" data-name="Path 1270588" d="M33.866,24.134a6,6,0,0,1,1.617-4.555,7.2,7.2,0,0,1,3.5-2.169,7.939,7.939,0,0,1-2.03,4.605l1.227.947a8.873,8.873,0,0,0,2.314-6.544.773.773,0,0,0-.825-.687,8.471,8.471,0,0,0-5.354,2.835,7.709,7.709,0,0,0-1.984,5.75Z" fill="#1d1d1b"/>
          <path id="Path_1270589" data-name="Path 1270589" d="M46.731,40a6.639,6.639,0,0,1-.823-11.714.775.775,0,0,0,.3-1.118A7.781,7.781,0,0,0,42.9,24.309l-.776,1.348a6.251,6.251,0,0,1,2.342,1.752,8.177,8.177,0,0,0,1.061,13.725,18.1,18.1,0,0,1-1.943,3.938s-2.522,3.776-4.373,3.776c-1.968,0-2.737-1.335-5.459-1.335-2.633,0-3.467,1.235-5.386,1.336-1.748.09-3.209-1.871-4.553-3.885-2.98-4.552-4.713-11.351-2.087-15.991a7.2,7.2,0,0,1,6.121-3.835c1.955,0,3.89,1.447,5.459,1.447,1.988,0,4.045-2.442,8.063-1.207l.331-1.516c-4.44-1.3-7.065,1.173-8.395,1.173-1.1,0-3.185-1.447-5.459-1.447a8.748,8.748,0,0,0-7.47,4.622c-2.915,5.151-1.149,12.924,2.152,17.623,1.223,1.832,3.054,4.569,5.72,4.569,2.3,0,3.192-1.339,5.5-1.339,2.355,0,3.018,1.335,5.459,1.335,2.68,0,4.331-2.474,5.658-4.462-.013,0,2.359-3.8,2.359-5.215a.775.775,0,0,0-.5-.723Z" fill="#1d1d1b"/>
          <path id="Path_1270590" data-name="Path 1270590" d="M53.418,13.766,54.5,12.652q-.536-.561-1.113-1.08l-1.078,1.115Q52.884,13.2,53.418,13.766Z" fill="#1d1d1b"/>
          <path id="Path_1270591" data-name="Path 1270591" d="M55.256,13.493l-1.214.964a18.38,18.38,0,0,1,4.473,12.021V39.653A18.709,18.709,0,0,1,39.724,58.237H26.407A18.836,18.836,0,0,1,9.729,48.209l-1.339.782a20.387,20.387,0,0,0,18.017,10.8H39.724A20.261,20.261,0,0,0,60.065,39.653V26.477a19.925,19.925,0,0,0-4.812-12.988Z" fill="#1d1d1b"/>
          <path id="Path_1270592" data-name="Path 1270592" d="M7.615,39.653V26.477A18.71,18.71,0,0,1,26.407,7.894H39.724A18.831,18.831,0,0,1,51.6,12.086l.921-1.247a20.373,20.373,0,0,0-12.8-4.5H26.407A20.261,20.261,0,0,0,6.065,26.477V39.653a19.844,19.844,0,0,0,1.82,8.321l1.434-.593a18.3,18.3,0,0,1-1.7-7.728Z" fill="#1d1d1b"/>
        </g>
      </g>
    </g>
  </g>
</svg>
