<svg xmlns="http://www.w3.org/2000/svg" width="61.695" height="68.551" viewBox="0 0 61.695 68.551">
  <g id="texto" transform="translate(-0.473 0)">
    <path id="Path_1272089" data-name="Path 1272089" d="M55.49,7.031H7.5v16h4.57l2.285-9.14h16v53.7l-9.14,1.142V73.3h27.42v-4.57l-9.14-1.142v-53.7h16l2.285,9.14h4.57v-16Zm0,0" transform="translate(-5.889 -5.889)" fill="#545454"/>
    <path id="Path_1272090" data-name="Path 1272090" d="M295.871,316.5h9.14v16h-9.14Zm0,0" transform="translate(-247.413 -265.087)" fill="#ffa439"/>
    <path id="Path_1272091" data-name="Path 1272091" d="M277.055,288.367H288.48a2.285,2.285,0,1,1,0,4.57H277.055a2.285,2.285,0,0,1,0-4.57Zm0,0" transform="translate(-229.739 -241.524)" fill="#5e5e5e"/>
    <path id="Path_1272092" data-name="Path 1272092" d="M283.91,163.777v6.741a3.428,3.428,0,1,1-2.285,0v-6.741l-6.856,8.814,3.428,11.425h9.14l3.428-11.425Zm0,0" transform="translate(-229.739 -137.173)" fill="#bfbfbf"/>
    <path id="Path_1272093" data-name="Path 1272093" d="M1.615,18.28h4.57a1.143,1.143,0,0,0,1.109-.864L9.362,9.14H23.322V60.687L15.183,61.7a1.142,1.142,0,0,0-1,1.133v4.57a1.142,1.142,0,0,0,1.142,1.143H42.745a1.143,1.143,0,0,0,1.143-1.143v-4.57a1.143,1.143,0,0,0-1-1.133l-8.139-1.018V9.14H48.708l2.069,8.276a1.141,1.141,0,0,0,1.108.864h4.57A1.142,1.142,0,0,0,57.6,17.137v-16A1.142,1.142,0,0,0,56.455,0H1.615A1.142,1.142,0,0,0,.473,1.142v16A1.142,1.142,0,0,0,1.615,18.28ZM2.758,2.285H55.313v13.71H52.778L50.709,7.72A1.143,1.143,0,0,0,49.6,6.855h-16A1.142,1.142,0,0,0,32.463,8V61.7a1.142,1.142,0,0,0,1,1.133L41.6,63.847v2.419H16.467V63.847l8.139-1.018a1.142,1.142,0,0,0,1-1.133V8a1.142,1.142,0,0,0-1.142-1.143h-16a1.143,1.143,0,0,0-1.108.865L5.293,15.995H2.758Zm0,0"/>
    <path id="Path_1272094" data-name="Path 1272094" d="M275.928,148.266l-8,10.283a1.14,1.14,0,0,0-.193,1.028l3,9.994a3.418,3.418,0,0,0,.382,6.818v14.853a1.142,1.142,0,0,0,1.142,1.142h9.14a1.142,1.142,0,0,0,1.143-1.142V176.389a3.419,3.419,0,0,0,.381-6.817l3-9.993a1.143,1.143,0,0,0-.193-1.028l-8-10.283a1.183,1.183,0,0,0-1.667-.137,1.147,1.147,0,0,0-.136.136Zm4.329,41.832H273.4v-13.71h6.856Zm3.427-17.138a1.142,1.142,0,0,1-1.142,1.142H271.117a1.142,1.142,0,0,1,0-2.285h11.426A1.142,1.142,0,0,1,283.684,172.961Zm-3.135-3.428h-7.44L270.1,159.487l6.734-8.658,6.734,8.658Zm0,0" transform="translate(-223.801 -123.833)"/>
    <path id="Path_1272095" data-name="Path 1272095" d="M302.906,207.392a3.427,3.427,0,1,0,3.427-3.428A3.428,3.428,0,0,0,302.906,207.392Zm4.57,0a1.143,1.143,0,1,1-1.143-1.142A1.143,1.143,0,0,1,307.476,207.392Zm0,0" transform="translate(-253.305 -170.832)"/>
  </g>
</svg>
