<svg id="Page-1" xmlns="http://www.w3.org/2000/svg" width="75.837" height="70.777" viewBox="0 0 75.837 70.777">
  <g id="_028---Word-Processing" data-name="028---Word-Processing" transform="translate(0)">
    <path id="Shape" d="M30.069,38.916H71.777a2.535,2.535,0,0,0,2.528-2.528V3.528A2.535,2.535,0,0,0,71.777,1H3.528A2.535,2.535,0,0,0,1,3.528V36.389a2.528,2.528,0,0,0,2.528,2.528Z" transform="translate(0.264 0.264)" fill="#ffdc00"/>
    <path id="Shape-2" data-name="Shape" d="M57.792,1H54a2.535,2.535,0,0,1,2.528,2.528V36.389A2.535,2.535,0,0,1,54,38.916h3.792a2.535,2.535,0,0,0,2.528-2.528V3.528A2.535,2.535,0,0,0,57.792,1Z" transform="translate(14.25 0.264)" fill="#fec108"/>
    <rect id="Rectangle-path" width="11.004" height="33.011" rx="2" transform="translate(1.693 36.47)" fill="#02a9f4"/>
    <path id="Shape-3" data-name="Shape" d="M8.792,29H5a2.535,2.535,0,0,1,2.528,2.528V59.333A2.535,2.535,0,0,1,5,61.861H8.792a2.535,2.535,0,0,0,2.528-2.528V31.528A2.535,2.535,0,0,0,8.792,29Z" transform="translate(1.319 7.653)" fill="#0377bc"/>
    <path id="Shape-4" data-name="Shape" d="M70.262,43.1,46.577,57.516a8.847,8.847,0,0,1-4.6,1.289H10V31h3.539a11.576,11.576,0,0,1,7.2,2.528,11.576,11.576,0,0,0,7.2,2.528h6.61a6.366,6.366,0,0,1,5.536,3.261,4.573,4.573,0,0,1-.7,5.586h2.97a4.971,4.971,0,0,0,1.605-.265l23.394-7.8a3.482,3.482,0,0,1,3.867,1.213v.013a3.45,3.45,0,0,1-.973,5.03Z" transform="translate(2.639 8.18)" fill="#ffe0b2"/>
    <path id="Shape-5" data-name="Shape" d="M31.966,38.261a4.573,4.573,0,0,1-.7,5.586h2.97a4.947,4.947,0,0,0,.895-.087,4.568,4.568,0,0,0,.622-5.5A6.366,6.366,0,0,0,30.222,35H26.43a6.366,6.366,0,0,1,5.536,3.261Z" transform="translate(6.974 9.236)" fill="#dfc49c"/>
    <path id="Shape-6" data-name="Shape" d="M65.35,36.882V36.87a3.482,3.482,0,0,0-3.867-1.213l-.947.316a3.457,3.457,0,0,1,1.022.9v.013a3.45,3.45,0,0,1-.973,5.03L36.9,56.333a8.847,8.847,0,0,1-4.6,1.289h3.792a8.847,8.847,0,0,0,4.6-1.289L64.377,41.913a3.45,3.45,0,0,0,.973-5.03Z" transform="translate(8.523 9.363)" fill="#dfc49c"/>
    <path id="Shape-7" data-name="Shape" d="M16.951,33.528a11.576,11.576,0,0,0,7.2,2.528h3.792a11.576,11.576,0,0,1-7.2-2.528A11.576,11.576,0,0,0,13.539,31H10v.011A11.575,11.575,0,0,1,16.951,33.528Z" transform="translate(2.639 8.18)" fill="#dfc49c"/>
    <path id="Shape-8" data-name="Shape" d="M30.778,6.744V11.85a1.264,1.264,0,0,1-1.732,1.175l-1.2-.48a1.227,1.227,0,0,0-.468-.088H21.3V27.421a1.338,1.338,0,0,0,.063.392l.645,1.934a1.264,1.264,0,0,1-1.2,1.668H15.472a1.264,1.264,0,0,1-1.2-1.668l.645-1.934a1.338,1.338,0,0,0,.063-.392V12.457H8.9a1.227,1.227,0,0,0-.468.088l-1.2.48A1.264,1.264,0,0,1,5.5,11.85V6.744A1.264,1.264,0,0,1,7.232,5.569l1.2.48a1.227,1.227,0,0,0,.468.088H27.378a1.227,1.227,0,0,0,.468-.088l1.2-.48a1.264,1.264,0,0,1,1.732,1.175Z" transform="translate(1.451 1.446)" fill="#02a9f4"/>
    <g id="Group_1205694" data-name="Group 1205694">
      <path id="Shape-9" data-name="Shape" d="M3.792,63.389h6.319a3.792,3.792,0,0,0,3.559-2.528H44.615a10.111,10.111,0,0,0,5.259-1.474L73.558,44.969a4.713,4.713,0,0,0,1.417-6.753,1.044,1.044,0,0,0-.087-.126,4.745,4.745,0,0,0-5.277-1.652L46.2,44.233a3.72,3.72,0,0,1-1.2.2h-.72a5.814,5.814,0,0,0-.445-4.929A7.606,7.606,0,0,0,37.2,35.583H30.586a10.3,10.3,0,0,1-6.415-2.251,12.847,12.847,0,0,0-7.993-2.8H13.67A3.792,3.792,0,0,0,10.111,28H3.792A3.792,3.792,0,0,0,0,31.792V59.6a3.792,3.792,0,0,0,3.792,3.792Zm18.8-28.082a12.847,12.847,0,0,0,7.994,2.8H37.2a5.217,5.217,0,0,1,4.349,2.439,1.245,1.245,0,0,0,.1.2,3.3,3.3,0,0,1-.19,3.678H33.771a12.668,12.668,0,0,0-7.011,2.122l-.924.619a1.265,1.265,0,1,0,1.41,2.1l.915-.617a10.133,10.133,0,0,1,5.609-1.7H45.007a6.218,6.218,0,0,0,2-.33l23.387-7.8a2.209,2.209,0,0,1,2.4.694c.019.032.039.061.061.091a2.184,2.184,0,0,1-.621,3.191L48.56,57.229a7.592,7.592,0,0,1-3.945,1.1H13.9V33.056h2.275A10.3,10.3,0,0,1,22.592,35.306ZM2.528,31.792a1.264,1.264,0,0,1,1.264-1.264h6.319a1.264,1.264,0,0,1,1.264,1.264V59.6a1.264,1.264,0,0,1-1.264,1.264H3.792A1.264,1.264,0,0,1,2.528,59.6Z" transform="translate(0 7.389)"/>
      <path id="Shape-10" data-name="Shape" d="M27.639,13.985l1.208.484a2.528,2.528,0,0,0,3.458-2.355V7.009A2.528,2.528,0,0,0,28.84,4.66l-1.2.478H9.166L7.958,4.654A2.528,2.528,0,0,0,4.5,7.009v5.106a2.528,2.528,0,0,0,3.466,2.348l1.2-.478h4.815V27.678L13.337,29.6a2.528,2.528,0,0,0,2.4,3.339h5.334a2.528,2.528,0,0,0,2.4-3.332l-.645-1.926v-13.7Zm-6.077-2.528A1.264,1.264,0,0,0,20.3,12.721V27.686a2.639,2.639,0,0,0,.126.791l.645,1.939H15.736l.657-1.978a2.575,2.575,0,0,0,.114-.752V12.721a1.264,1.264,0,0,0-1.264-1.264H9.164a2.47,2.47,0,0,0-.938.179l-1.2.478V7.006l1.188.475a2.487,2.487,0,0,0,.948.185H27.642a2.47,2.47,0,0,0,.938-.179L29.778,7v5.116l-1.187-.475a2.5,2.5,0,0,0-.949-.185Z" transform="translate(1.187 1.181)"/>
      <path id="Shape-11" data-name="Shape" d="M30.264,7.528h5.056a1.264,1.264,0,0,0,0-2.528H30.264a1.264,1.264,0,0,0,0,2.528Z" transform="translate(7.653 1.319)"/>
      <path id="Shape-12" data-name="Shape" d="M58.486,5H38.264a1.264,1.264,0,0,0,0,2.528H58.486a1.264,1.264,0,1,0,0-2.528Z" transform="translate(9.764 1.319)"/>
      <path id="Shape-13" data-name="Shape" d="M55.319,10H50.264a1.264,1.264,0,1,0,0,2.528h5.056a1.264,1.264,0,0,0,0-2.528Z" transform="translate(12.93 2.639)"/>
      <path id="Shape-14" data-name="Shape" d="M30.264,12.528H50.486a1.264,1.264,0,1,0,0-2.528H30.264a1.264,1.264,0,0,0,0,2.528Z" transform="translate(7.653 2.639)"/>
      <path id="Shape-15" data-name="Shape" d="M30.264,17.528h5.056a1.264,1.264,0,0,0,0-2.528H30.264a1.264,1.264,0,0,0,0,2.528Z" transform="translate(7.653 3.958)"/>
      <path id="Shape-16" data-name="Shape" d="M58.486,15H38.264a1.264,1.264,0,0,0,0,2.528H58.486a1.264,1.264,0,1,0,0-2.528Z" transform="translate(9.764 3.958)"/>
      <path id="Shape-17" data-name="Shape" d="M55.319,20H50.264a1.264,1.264,0,1,0,0,2.528h5.056a1.264,1.264,0,0,0,0-2.528Z" transform="translate(12.93 5.278)"/>
      <path id="Shape-18" data-name="Shape" d="M30.264,22.528H50.486a1.264,1.264,0,1,0,0-2.528H30.264a1.264,1.264,0,0,0,0,2.528Z" transform="translate(7.653 5.278)"/>
      <path id="Shape-19" data-name="Shape" d="M30.264,27.528h5.056a1.264,1.264,0,0,0,0-2.528H30.264a1.264,1.264,0,1,0,0,2.528Z" transform="translate(7.653 6.597)"/>
      <path id="Shape-20" data-name="Shape" d="M58.486,25H38.264a1.264,1.264,0,0,0,0,2.528H58.486a1.264,1.264,0,1,0,0-2.528Z" transform="translate(9.764 6.597)"/>
      <path id="Shape-21" data-name="Shape" d="M72.041,0H3.792A3.792,3.792,0,0,0,0,3.792V32.039a1.264,1.264,0,1,0,2.528,0V3.792A1.264,1.264,0,0,1,3.792,2.528h68.25a1.264,1.264,0,0,1,1.264,1.264V36.653a1.264,1.264,0,0,1-1.264,1.264H30.333a1.264,1.264,0,1,0,0,2.528H72.041a3.792,3.792,0,0,0,3.792-3.792V3.792A3.792,3.792,0,0,0,72.041,0Z" transform="translate(0)"/>
    </g>
  </g>
</svg>
