<svg xmlns="http://www.w3.org/2000/svg" width="99.088" height="67.755" viewBox="0 0 99.088 67.755">
  <g id="titulo" transform="translate(0 -80.95)">
    <g id="Group_1205687" data-name="Group 1205687" transform="translate(1.41 82.36)">
      <path id="Path_1272053" data-name="Path 1272053" d="M101.618,153.172H9.221a1.935,1.935,0,0,1-1.935-1.935V90.172a1.935,1.935,0,0,1,1.935-1.935h92.4a1.935,1.935,0,0,1,1.935,1.935v61.064A1.935,1.935,0,0,1,101.618,153.172Z" transform="translate(-7.286 -88.237)" fill="#f6f1f1"/>
    </g>
    <g id="Group_1205688" data-name="Group 1205688" transform="translate(1.41 82.36)">
      <path id="Path_1272054" data-name="Path 1272054" d="M101.618,88.238H95.312v54.813a1.88,1.88,0,0,1-1.88,1.88H7.286v6.306a1.935,1.935,0,0,0,1.935,1.935h92.4a1.935,1.935,0,0,0,1.935-1.935V90.173a1.935,1.935,0,0,0-1.935-1.935Z" transform="translate(-7.286 -88.238)" fill="#e7ecf6"/>
    </g>
    <g id="Group_1205689" data-name="Group 1205689" transform="translate(5.868 91.516)">
      <path id="Path_1272055" data-name="Path 1272055" d="M116.759,162.874H31.237a.913.913,0,0,1-.783-1.383l6.755-11.246a2.009,2.009,0,0,0,0-2.069L30.454,136.93a.913.913,0,0,1,.783-1.383h85.522a.913.913,0,0,1,.783,1.383l-6.755,11.246a2.009,2.009,0,0,0,0,2.069l6.755,11.246A.913.913,0,0,1,116.759,162.874Z" transform="translate(-30.322 -135.547)" fill="#e7a52e"/>
    </g>
    <g id="Group_1205692" data-name="Group 1205692" transform="translate(89.436 91.516)">
      <g id="Group_1205690" data-name="Group 1205690" transform="translate(0 19.864)">
        <path id="Path_1272056" data-name="Path 1272056" d="M465.779,244.267l-3.652-6.08v7.463H465a.913.913,0,0,0,.783-1.383Z" transform="translate(-462.127 -238.187)" fill="#e49542"/>
      </g>
      <g id="Group_1205691" data-name="Group 1205691">
        <path id="Path_1272057" data-name="Path 1272057" d="M465,135.547h-2.869v7.463l3.652-6.08A.913.913,0,0,0,465,135.547Z" transform="translate(-462.127 -135.547)" fill="#e49542"/>
      </g>
    </g>
    <g id="Group_1205693" data-name="Group 1205693" transform="translate(0 80.95)">
      <path id="Path_1272058" data-name="Path 1272058" d="M95.8,80.95H39.214a1.41,1.41,0,1,0,0,2.821H95.8a.471.471,0,0,1,.47.47v61.174a.471.471,0,0,1-.47.47H3.29a.471.471,0,0,1-.47-.47V84.241a.471.471,0,0,1,.47-.47H32.363a1.41,1.41,0,1,0,0-2.821H3.29A3.294,3.294,0,0,0,0,84.241v61.174a3.294,3.294,0,0,0,3.29,3.29H95.8a3.294,3.294,0,0,0,3.29-3.29V84.241A3.294,3.294,0,0,0,95.8,80.95Z" transform="translate(0 -80.95)"/>
      <path id="Path_1272059" data-name="Path 1272059" d="M112.882,131.781a2.323,2.323,0,0,0-1.992-3.52H25.368a2.323,2.323,0,0,0-1.992,3.52l6.755,11.245a.6.6,0,0,1,0,.617l-6.755,11.246a2.323,2.323,0,0,0,1.992,3.519H110.89a2.323,2.323,0,0,0,1.992-3.52l-6.755-11.246a.6.6,0,0,1,0-.617ZM103.71,145.1l6.3,10.493H26.247l6.3-10.493a3.413,3.413,0,0,0,0-3.521l-6.3-10.493h83.765l-6.3,10.493A3.412,3.412,0,0,0,103.71,145.1Z" transform="translate(-18.586 -119.105)"/>
      <path id="Path_1272060" data-name="Path 1272060" d="M305.713,177.911c-1.285.007-2.669.012-3.653.012V164.851a1.41,1.41,0,1,0-2.82,0v14.469a1.41,1.41,0,0,0,1.172,1.39,14.141,14.141,0,0,0,1.77.033c.77,0,1.895,0,3.548-.013a1.41,1.41,0,1,0-.016-2.82Z" transform="translate(-241.328 -147.476)"/>
      <path id="Path_1272061" data-name="Path 1272061" d="M183.47,163.441a1.41,1.41,0,0,0-1.41,1.41v14.482a1.41,1.41,0,0,0,2.821,0V164.851A1.41,1.41,0,0,0,183.47,163.441Z" transform="translate(-146.826 -147.476)"/>
      <path id="Path_1272062" data-name="Path 1272062" d="M370.524,166.945a1.41,1.41,0,0,0,0-2.821h-6.046a1.41,1.41,0,0,0-1.41,1.41v14.349a1.41,1.41,0,0,0,1.41,1.41h6.046a1.41,1.41,0,0,0,0-2.821h-4.636v-4.354h4.19a1.41,1.41,0,0,0,0-2.821h-4.19v-4.354h4.636Z" transform="translate(-292.802 -148.027)"/>
      <path id="Path_1272063" data-name="Path 1272063" d="M229.088,163.441h-8a1.41,1.41,0,0,0,0,2.821h2.572v13.071a1.41,1.41,0,1,0,2.821,0V166.262h2.6a1.41,1.41,0,1,0,0-2.821Z" transform="translate(-177.165 -147.476)"/>
      <path id="Path_1272064" data-name="Path 1272064" d="M112.525,163.441h-8a1.41,1.41,0,0,0,0,2.821H107.1v13.071a1.41,1.41,0,1,0,2.821,0V166.262h2.6a1.41,1.41,0,1,0,0-2.821Z" transform="translate(-83.161 -147.476)"/>
      <path id="Path_1272065" data-name="Path 1272065" d="M88.621,318.472H53.929a1.41,1.41,0,0,0,0,2.821H88.621a1.41,1.41,0,1,0,0-2.821Z" transform="translate(-42.355 -272.504)"/>
      <path id="Path_1272066" data-name="Path 1272066" d="M158.051,356.919h-18.03a1.41,1.41,0,1,0,0,2.821h18.03a1.41,1.41,0,0,0,0-2.821Z" transform="translate(-111.785 -303.51)"/>
      <path id="Path_1272067" data-name="Path 1272067" d="M53.929,356.919a1.41,1.41,0,0,0,0,2.821h10.2a1.41,1.41,0,1,0,0-2.821Z" transform="translate(-42.355 -303.51)"/>
      <path id="Path_1272068" data-name="Path 1272068" d="M413.847,318.472h-7.792a1.41,1.41,0,0,0,0,2.821h7.792a1.41,1.41,0,0,0,0-2.821Z" transform="translate(-326.334 -272.504)"/>
      <path id="Path_1272069" data-name="Path 1272069" d="M267.06,321.292h20.284a1.41,1.41,0,0,0,0-2.821H267.06a1.41,1.41,0,0,0,0,2.821Z" transform="translate(-214.239 -272.503)"/>
      <path id="Path_1272070" data-name="Path 1272070" d="M267.06,359.739h34.692a1.41,1.41,0,1,0,0-2.82H267.06a1.41,1.41,0,1,0,0,2.82Z" transform="translate(-214.239 -303.51)"/>
    </g>
  </g>
</svg>
