<svg xmlns="http://www.w3.org/2000/svg" width="70.578" height="70.578" viewBox="0 0 70.578 70.578">
  <g id="editor-de-texto_1_" data-name="editor-de-texto (1)" transform="translate(0)">
    <g id="Group_1205686" data-name="Group 1205686" transform="translate(1.035 1.036)">
      <path id="Path_1272047" data-name="Path 1272047" d="M8.313,68.045h6.373a.805.805,0,0,1,.8.8v6.369a.806.806,0,0,1-.8.805H8.313a.806.806,0,0,1-.8-.805V68.85A.805.805,0,0,1,8.313,68.045Zm0-30.264h6.373a.8.8,0,0,1,.8.8v6.369a.805.805,0,0,1-.8.8H8.313a.805.805,0,0,1-.8-.8V38.582A.8.8,0,0,1,8.313,37.781Zm0-30.268h6.373a.8.8,0,0,1,.8.8v6.373a.8.8,0,0,1-.8.8H8.313a.8.8,0,0,1-.8-.8V8.314a.8.8,0,0,1,.8-.8Zm30.268,0H44.95a.805.805,0,0,1,.8.8v6.373a.806.806,0,0,1-.8.8H38.581a.8.8,0,0,1-.8-.8V8.314a.8.8,0,0,1,.8-.8Zm30.268,0h6.369a.805.805,0,0,1,.8.8v6.373a.806.806,0,0,1-.8.8H68.849a.805.805,0,0,1-.8-.8V8.314a.805.805,0,0,1,.8-.8Zm0,30.268h6.369a.805.805,0,0,1,.8.8v6.369a.809.809,0,0,1-.8.8H68.849a.809.809,0,0,1-.8-.8V38.582A.805.805,0,0,1,68.849,37.781Zm0,30.264h6.369a.809.809,0,0,1,.8.8v6.369a.809.809,0,0,1-.8.805H68.849a.809.809,0,0,1-.8-.805V68.85A.809.809,0,0,1,68.849,68.045Zm-30.268,0H44.95a.809.809,0,0,1,.8.8v6.369a.809.809,0,0,1-.8.805H38.581a.806.806,0,0,1-.8-.805V68.85a.805.805,0,0,1,.8-.8Z" transform="translate(-7.512 -7.513)" fill="#95d6a4" fill-rule="evenodd"/>
      <path id="Path_1272048" data-name="Path 1272048" d="M136.02,109.787h29.33a.809.809,0,0,1,.8.805v6.369a.809.809,0,0,1-.8.8h-9.874a.72.72,0,0,0-.8.8v29.541a.806.806,0,0,1-.805.8H147.5a.805.805,0,0,1-.8-.8V118.567c0-.617-.254-.8-.8-.8H136.02a.809.809,0,0,1-.8-.8v-6.369A.809.809,0,0,1,136.02,109.787Z" transform="translate(-117.611 -95.689)" fill="#90d8f9" fill-rule="evenodd"/>
      <path id="Path_1272049" data-name="Path 1272049" d="M252.91,109.787h4.013a.809.809,0,0,1,.8.805v6.369a.809.809,0,0,1-.8.8H252.91a.805.805,0,0,0,.8-.8v-6.369A.806.806,0,0,0,252.91,109.787Zm-5.861,7.979a.72.72,0,0,0-.8.8v29.541a.806.806,0,0,1-.805.8H241.43a.8.8,0,0,0,.8-.8V118.567a.721.721,0,0,1,.805-.8Z" transform="translate(-209.185 -95.689)" fill="#6bbef6" fill-rule="evenodd"/>
      <path id="Path_1272050" data-name="Path 1272050" d="M247.223,207.669h21.308a.805.805,0,0,1,.8.8v4.3a.809.809,0,0,1-.8.805h-6.9a.707.707,0,0,0-.8.8V232.5a.805.805,0,0,1-.8.8h-4.3a.8.8,0,0,1-.8-.8V214.378a.733.733,0,0,0-.805-.8h-6.9a.809.809,0,0,1-.8-.805v-4.3a.806.806,0,0,1,.805-.8Z" transform="translate(-213.485 -180.078)" fill="#fc7070" fill-rule="evenodd"/>
      <path id="Path_1272051" data-name="Path 1272051" d="M324.541,207.669h4.013a.805.805,0,0,1,.8.8v4.3a.809.809,0,0,1-.8.805h-4.013a.809.809,0,0,0,.805-.805v-4.3A.805.805,0,0,0,324.541,207.669Zm-2.884,5.908a.707.707,0,0,0-.8.8V232.5a.805.805,0,0,1-.805.8h-4.013a.8.8,0,0,0,.8-.8V214.378a.71.71,0,0,1,.8-.8Z" transform="translate(-273.509 -180.078)" fill="#d15a63" fill-rule="evenodd"/>
    </g>
    <path id="Path_1272052" data-name="Path 1272052" d="M61.567,60.535h2.958V40.31H61.567a1.031,1.031,0,0,1-1.032-1.032V31.3a1.032,1.032,0,0,1,1.032-1.036h2.958V10.046H61.567a1.034,1.034,0,0,1-1.032-1.036V6.057H40.31V9.011a1.034,1.034,0,0,1-1.032,1.036H31.3a1.035,1.035,0,0,1-1.036-1.036V6.057H10.046V9.011a1.037,1.037,0,0,1-1.036,1.036H6.057V30.268H9.011A1.035,1.035,0,0,1,10.046,31.3v7.975A1.034,1.034,0,0,1,9.011,40.31H6.057V60.535H9.011a1.034,1.034,0,0,1,1.036,1.032v2.958H30.268V61.567A1.032,1.032,0,0,1,31.3,60.535h7.975a1.031,1.031,0,0,1,1.032,1.032v2.958H60.536V61.567A1.031,1.031,0,0,1,61.567,60.535ZM13.329,35.566a1.034,1.034,0,1,1,0-2.067H25.805a1.034,1.034,0,0,1,0,2.067Zm0,9.863a1.034,1.034,0,1,1,0-2.067H25.805a1.034,1.034,0,0,1,0,2.067Zm0,9.863a1.034,1.034,0,1,1,0-2.067H25.805a1.034,1.034,0,0,1,0,2.067Zm0-14.794a1.034,1.034,0,1,1,0-2.067H25.805a1.034,1.034,0,0,1,0,2.067Zm0,9.863a1.034,1.034,0,1,1,0-2.067H25.805a1.034,1.034,0,0,1,0,2.067ZM43.084,27.591a1.033,1.033,0,1,1,0,2.067H35V33.5h7.471a1.031,1.031,0,0,1,1.032,1.036v18.69h3.841V34.535A1.032,1.032,0,0,1,48.383,33.5H55.85V29.658H47.77a1.033,1.033,0,1,1,0-2.067h9.116a1.034,1.034,0,0,1,1.032,1.036v5.908a1.031,1.031,0,0,1-1.032,1.032H49.415v18.69a1.034,1.034,0,0,1-1.032,1.036H42.475a1.037,1.037,0,0,1-1.036-1.036V35.566H39.13v18.69A1.034,1.034,0,0,1,38.1,55.292H30.119a1.034,1.034,0,0,1-1.032-1.036V24.145H18.639A1.034,1.034,0,0,1,17.6,23.113V15.134A1.034,1.034,0,0,1,18.639,14.1H31.768a1.034,1.034,0,0,1,0,2.067H19.675v5.908H30.119a1.035,1.035,0,0,1,1.036,1.036V53.225h5.908V35.566H33.968a1.03,1.03,0,0,1-1.032-1.032V28.627a1.034,1.034,0,0,1,1.032-1.036h3.095V23.113A1.032,1.032,0,0,1,38.1,22.078H48.544V16.169H36.45a1.034,1.034,0,0,1,0-2.067H49.579a1.03,1.03,0,0,1,1.032,1.032v7.979a1.031,1.031,0,0,1-1.032,1.032H39.131v3.446h3.954ZM66.592,60.535h2.954a1.031,1.031,0,0,1,1.032,1.032v7.979a1.03,1.03,0,0,1-1.032,1.032H61.567a1.03,1.03,0,0,1-1.032-1.032V66.592H40.31v2.954a1.03,1.03,0,0,1-1.032,1.032H31.3a1.031,1.031,0,0,1-1.036-1.032V66.592H10.046v2.954a1.034,1.034,0,0,1-1.036,1.032H1.035A1.034,1.034,0,0,1,0,69.546V61.567a1.034,1.034,0,0,1,1.036-1.032H3.99V40.31H1.035A1.034,1.034,0,0,1,0,39.278V31.3a1.035,1.035,0,0,1,1.036-1.036H3.99V10.046H1.035A1.037,1.037,0,0,1,0,9.011V1.036A1.037,1.037,0,0,1,1.035,0H9.011a1.037,1.037,0,0,1,1.036,1.036V3.99H30.268V1.036A1.035,1.035,0,0,1,31.3,0h7.975A1.034,1.034,0,0,1,40.31,1.036V3.99H60.536V1.036A1.034,1.034,0,0,1,61.567,0h7.979a1.034,1.034,0,0,1,1.032,1.036V9.011a1.034,1.034,0,0,1-1.032,1.036H66.592V30.268h2.954A1.031,1.031,0,0,1,70.578,31.3v7.975a1.031,1.031,0,0,1-1.032,1.032H66.592V60.535ZM68.511,62.6H62.6v5.908h5.908ZM7.975,2.067H2.067V7.975H7.975Zm30.268,0H32.335V7.975h5.908Zm30.268,0H62.6V7.975h5.908Zm0,30.268H62.6v5.908h5.908Zm-60.535,0H2.067v5.908H7.975Zm0,30.268H2.067v5.908H7.975Zm30.268,0H32.335v5.908h5.908Z" transform="translate(0)"/>
  </g>
</svg>
