<svg xmlns="http://www.w3.org/2000/svg" xmlns:xlink="http://www.w3.org/1999/xlink" width="107.999" height="108" viewBox="0 0 107.999 108">
  <defs>
    <filter id="Rectangle_411831" x="0" y="0" width="107.999" height="108" filterUnits="userSpaceOnUse">
      <feOffset dy="3" input="SourceAlpha"/>
      <feGaussianBlur stdDeviation="3" result="blur"/>
      <feFlood flood-opacity="0.161"/>
      <feComposite operator="in" in2="blur"/>
      <feComposite in="SourceGraphic"/>
    </filter>
    <clipPath id="clip-path">
      <rect id="Rectangle_425301" data-name="Rectangle 425301" width="54" height="62" transform="translate(-6744 -6575)" fill="#fff" stroke="#707070" stroke-width="1" opacity="0"/>
    </clipPath>
  </defs>
  <g id="Group_1205451" data-name="Group 1205451" transform="translate(6770.961 6595.266)">
    <g id="Group_1205301" data-name="Group 1205301" transform="translate(-7562.742 -8551.266)">
      <g id="Group_1203409" data-name="Group 1203409" transform="translate(800.781 1962)">
        <g transform="matrix(1, 0, 0, 1, -9, -6)" filter="url(#Rectangle_411831)">
          <g id="Rectangle_411831-2" data-name="Rectangle 411831" transform="translate(9 6)" fill="#8fe8d5" stroke="#fff" stroke-width="2">
            <path d="M5,0H58A32,32,0,0,1,90,32V85a5,5,0,0,1-5,5H32A32,32,0,0,1,0,58V5A5,5,0,0,1,5,0Z" stroke="none"/>
            <path d="M5,1H58A31,31,0,0,1,89,32V85a4,4,0,0,1-4,4H32A31,31,0,0,1,1,58V5A4,4,0,0,1,5,1Z" fill="none"/>
          </g>
        </g>
      </g>
      <path id="Path_1260076" data-name="Path 1260076" d="M15.052.687H.856V6.415H10.991L.856,16.481l4.1,4.068,10.1-10.031V20.549h5.8V.687Z" transform="translate(799.924 2031.451)" fill="#1f1321" fill-rule="evenodd"/>
      <path id="Path_1260092" data-name="Path 1260092" d="M5.27,15.8h10.8V11.438H8.359l7.709-7.657L12.953.687,5.27,8.318V.687H.856V15.8Z" transform="translate(874.712 1961.314)" fill="#1f1321" fill-rule="evenodd"/>
    </g>
    <g id="Mask_Group_1107910" data-name="Mask Group 1107910" clip-path="url(#clip-path)">
      <g id="medios-de-comunicacion-social_1_" data-name="medios-de-comunicacion-social (1)" transform="translate(-6745.768 -6572.768)">
        <path id="Path_1270809" data-name="Path 1270809" d="M26.671,30.233a5.463,5.463,0,0,0,3.211,1.036H40.14v4.974l6.5-4.974h2.806a5.468,5.468,0,0,0,5.476-5.459V6.3A5.468,5.468,0,0,0,49.449.843H29.881A5.468,5.468,0,0,0,24.405,6.3V30.233Z" fill="#f7f3f1"/>
        <path id="Path_1270810" data-name="Path 1270810" d="M49.449.843h-4.69A5.468,5.468,0,0,1,50.235,6.3V25.81a5.468,5.468,0,0,1-5.476,5.459H41.953L40.14,32.656v3.588l6.5-4.974h2.806a5.468,5.468,0,0,0,5.476-5.459V6.3A5.468,5.468,0,0,0,49.449.843Z" fill="#ebe1dc"/>
        <path id="Path_1270811" data-name="Path 1270811" d="M35.445,23.267l.564.457a5.027,5.027,0,0,0,3.163,1.12h8.013a1.337,1.337,0,0,0,1.335-1.4c-.034-.719,0-7.266,0-8A1.337,1.337,0,0,0,47.185,14.1l-5.433-.016.665-1.575a5.7,5.7,0,0,0-.3-5.046.889.889,0,0,0-1.661.441A5.8,5.8,0,0,1,39,11.743l-3.465,3.92H34.275v7.6h1.17Z" fill="#ffd36c"/>
        <path id="Path_1270812" data-name="Path 1270812" d="M34.9,24.473H31.246a.438.438,0,0,1-.438-.438V14.71a.438.438,0,0,1,.438-.438H34.9a.438.438,0,0,1,.438.438v9.326A.438.438,0,0,1,34.9,24.473Z" fill="#8ee6f3"/>
        <path id="Path_1270813" data-name="Path 1270813" d="M26.678,40.01V20.321a4.312,4.312,0,0,0-4.318-4.305H6.929a4.312,4.312,0,0,0-4.318,4.305V35.7A4.312,4.312,0,0,0,6.929,40.01h8.477v3.96l5.128-3.96Z" fill="#4ed5ea"/>
        <path id="Path_1270814" data-name="Path 1270814" d="M22.36,16.016H16.245a4.312,4.312,0,0,1,4.318,4.305V40.01h6.115V20.321A4.312,4.312,0,0,0,22.36,16.016Z" fill="#62a6fd"/>
        <path id="Path_1270815" data-name="Path 1270815" d="M35.032,36.864H24.081a3.06,3.06,0,0,0-3.065,3.055V50.836a3.06,3.06,0,0,0,3.065,3.055H30.1V56.7l3.639-2.81h1.3A3.06,3.06,0,0,0,38.1,50.836V39.919a3.06,3.06,0,0,0-3.065-3.055Z" fill="#fa9084"/>
        <path id="Path_1270816" data-name="Path 1270816" d="M35.032,36.864h-4.72a3.06,3.06,0,0,1,3.065,3.055V50.836a3.06,3.06,0,0,1-3.065,3.055H30.1V56.7l3.639-2.81h1.3A3.06,3.06,0,0,0,38.1,50.836V39.919A3.06,3.06,0,0,0,35.032,36.864Z" fill="#ff6cb5"/>
        <path id="Path_1270817" data-name="Path 1270817" d="M29.557,49.087c2.635-1.4,4-2.586,4-4.427,0-2.54-3.111-3.175-4-1.27-1.016-1.968-4-1.27-4,1.27C25.556,46.5,26.921,47.69,29.557,49.087Z" fill="#f7f3f1"/>
        <path id="Path_1270818" data-name="Path 1270818" d="M49.449,0H46.975a.843.843,0,0,0,0,1.686h2.474A4.63,4.63,0,0,1,54.082,6.3V25.81a4.63,4.63,0,0,1-4.633,4.616H46.643a.843.843,0,0,0-.512.173l-5.148,3.938V31.27a.843.843,0,0,0-.843-.843H29.881a4.61,4.61,0,0,1-2.36-.643V20.321a5.143,5.143,0,0,0-2.274-4.265V6.3a4.63,4.63,0,0,1,4.633-4.616H41.693a.843.843,0,0,0,0-1.686H29.881a6.318,6.318,0,0,0-6.319,6.3v9.013a5.168,5.168,0,0,0-1.2-.142H6.929a5.161,5.161,0,0,0-5.161,5.148v1.82a.843.843,0,0,0,1.686,0v-1.82a3.473,3.473,0,0,1,3.475-3.462H22.36a3.473,3.473,0,0,1,3.475,3.462v9.8a.843.843,0,0,0,0,.223V35.7c0,.106-.006.212-.016.316H24.081a3.911,3.911,0,0,0-3.843,3.2.845.845,0,0,0-.218.122l-3.77,2.911V40.01a.843.843,0,0,0-.843-.843H6.929A3.473,3.473,0,0,1,3.454,35.7V27.2a.843.843,0,0,0-1.686,0V35.7a5.161,5.161,0,0,0,5.161,5.148h7.634v3.117a.856.856,0,0,0,1.358.667l4.252-3.283v9.483a3.907,3.907,0,0,0,3.907,3.9h5.173V56.7a.856.856,0,0,0,1.358.667l3.412-2.634h1.008a3.907,3.907,0,0,0,3.907-3.9v-1.5a.843.843,0,0,0-1.686,0v1.5a2.219,2.219,0,0,1-2.222,2.212h-1.3a.843.843,0,0,0-.515.176L30.94,54.985V53.891a.843.843,0,0,0-.843-.843H24.081a2.219,2.219,0,0,1-2.222-2.212V39.919a2.219,2.219,0,0,1,2.222-2.212H35.032a2.219,2.219,0,0,1,2.222,2.212v4.138a.843.843,0,0,0,1.686,0V39.919a3.907,3.907,0,0,0-3.907-3.9h-7.52c.006-.105.01-4.363.01-4.363a6.309,6.309,0,0,0,2.36.454H39.3v4.131a.856.856,0,0,0,1.355.67l6.277-4.8h2.52a6.318,6.318,0,0,0,6.319-6.3V6.3A6.318,6.318,0,0,0,49.449,0Z"/>
        <path id="Path_1270819" data-name="Path 1270819" d="M41.771,6.228A1.757,1.757,0,0,0,39.61,7.906a4.952,4.952,0,0,1-1.239,3.278l-2.322,2.628a.841.841,0,0,0-.706-.383H30.808a.843.843,0,0,0-.843.843v10.2a.843.843,0,0,0,.843.843h4.534a.842.842,0,0,0,.766-.493,5.89,5.89,0,0,0,3.064.864h8.013A2.206,2.206,0,0,0,49.362,23.4c-.026-.541,0-7.8,0-7.964a2.181,2.181,0,0,0-2.177-2.179l-4.167-.012.173-.409a6.582,6.582,0,0,0-.347-5.792,1.718,1.718,0,0,0-1.075-.819h0ZM34.5,23.63H31.651V15.115H34.5Zm12.686-8.685a.494.494,0,0,1,.494.494c0,.16,0,.6,0,1.186-.012,3.258-.021,6.344,0,6.857a.493.493,0,0,1-.493.519H39.172a4.2,4.2,0,0,1-2.632-.932l-.355-.287V16.2l3.449-3.9A6.637,6.637,0,0,0,41.3,7.906a.047.047,0,0,1,.087-.023,4.886,4.886,0,0,1,.257,4.3l-.665,1.576a.843.843,0,0,0,.774,1.171Z"/>
        <path id="Path_1270820" data-name="Path 1270820" d="M8.986,29.278a.843.843,0,1,0,0,1.686h2.485l-.464,2.807a.843.843,0,1,0,1.663.275l.51-3.082h2.033l-.464,2.807a.843.843,0,1,0,1.663.275l.51-3.082H20.3a.843.843,0,0,0,0-1.686H17.2l.34-2.056H20.3a.843.843,0,1,0,0-1.686H17.819l.464-2.807a.843.843,0,0,0-1.663-.275l-.51,3.082H14.077l.464-2.807a.843.843,0,0,0-1.663-.275l-.51,3.082H8.986a.843.843,0,1,0,0,1.686h3.1l-.34,2.056ZM13.8,27.221h2.033l-.34,2.056H13.458Z"/>
        <path id="Path_1270821" data-name="Path 1270821" d="M29.546,42.056a2.835,2.835,0,0,0-2.495-.561,3.136,3.136,0,0,0-2.339,3.164,4.138,4.138,0,0,0,1.246,2.963,12.366,12.366,0,0,0,3.2,2.209.843.843,0,0,0,.79,0C32.622,48.416,34.4,47,34.4,44.66a3.116,3.116,0,0,0-2.422-3.148,2.827,2.827,0,0,0-2.432.544Zm3.168,2.6c0,1.259-.835,2.191-3.157,3.469-2.322-1.278-3.158-2.21-3.158-3.469a1.442,1.442,0,0,1,1.051-1.526,1.264,1.264,0,0,1,.3-.036,1.163,1.163,0,0,1,1.061.679.843.843,0,0,0,1.513-.03,1.1,1.1,0,0,1,1.292-.588A1.425,1.425,0,0,1,32.714,44.66Z"/>
      </g>
    </g>
  </g>
</svg>
