<svg xmlns="http://www.w3.org/2000/svg" xmlns:xlink="http://www.w3.org/1999/xlink" width="76.345" height="76.345" viewBox="0 0 76.345 76.345">
  <defs>
    <clipPath id="clip-path">
      <rect id="Rectangle_425400" data-name="Rectangle 425400" width="48" height="50" transform="translate(17180 -10961)" fill="#fff" stroke="#707070" stroke-width="1" opacity="0"/>
    </clipPath>
  </defs>
  <g id="Group_1205754" data-name="Group 1205754" transform="translate(-17165.971 10974.645)">
    <g id="Group_1205755" data-name="Group 1205755" transform="translate(3715.091 215.434)">
      <g id="Group_1205279" data-name="Group 1205279" transform="translate(13450.88 -11190.079)">
        <g id="Group_1187152" data-name="Group 1187152">
          <g id="Group_1185946" data-name="Group 1185946">
            <g id="Group_1184280" data-name="Group 1184280">
              <g id="Group_1182168" data-name="Group 1182168">
                <g id="Group_1178877" data-name="Group 1178877">
                  <g id="Group_1111311" data-name="Group 1111311">
                    <g id="Group_1098742" data-name="Group 1098742" transform="translate(0 0)">
                      <g id="Rectangle_400898" data-name="Rectangle 400898" transform="translate(0)" fill="#8fe8d5" stroke="#63a194" stroke-width="1" opacity="0.859">
                        <rect width="76.345" height="76.345" rx="38.172" stroke="none"/>
                        <rect x="0.5" y="0.5" width="75.345" height="75.345" rx="37.672" fill="none"/>
                      </g>
                      <g id="Rectangle_400907" data-name="Rectangle 400907" fill="none" stroke="#63a194" stroke-width="1">
                        <rect width="76.345" height="76.345" rx="38.172" stroke="none"/>
                        <rect x="0.5" y="0.5" width="75.345" height="75.345" rx="37.672" fill="none"/>
                      </g>
                    </g>
                  </g>
                </g>
              </g>
            </g>
          </g>
        </g>
      </g>
    </g>
    <g id="Mask_Group_1107931" data-name="Mask Group 1107931" clip-path="url(#clip-path)">
      <g id="Social_Media" data-name="Social Media" transform="translate(17180 -10960)">
        <path id="Path_1272096" data-name="Path 1272096" d="M36,39H35a2,2,0,0,1,0,4H34a2,2,0,0,1,0,4H20.82a6,6,0,0,1-3.33-1L16,45V33l2.33-1.75a7.35,7.35,0,0,0,.67-.56,8.08,8.08,0,0,0,1.85-2.59l2.39-5.38a1.5,1.5,0,0,1,2.27-.59l.29.22a4,4,0,0,1,1.44,4.3L26,31h9a2,2,0,1,1,0,4h1a2,2,0,0,1,0,4Z" fill="#f6ccaf"/>
        <path id="Path_1272097" data-name="Path 1272097" d="M38,37a2,2,0,0,1-.27,1,1.81,1.81,0,0,1-.32.41A2,2,0,0,1,36,39H35a2,2,0,0,1,1.73,3,1.81,1.81,0,0,1-.32.41A2,2,0,0,1,35,43H34a2,2,0,0,1,2,2H23.82a6,6,0,0,1-3.33-1l-.15-.1A3,3,0,0,1,19,41.39V30.69a8.08,8.08,0,0,0,1.85-2.59l2.39-5.38a1.5,1.5,0,0,1,2.27-.59l.29.22a4,4,0,0,1,1.44,4.3L26,31h9a2,2,0,0,1,1.73,3,1.81,1.81,0,0,1-.32.41A2,2,0,0,1,35,35h1A2,2,0,0,1,38,37Z" fill="#ffdec7"/>
        <path id="Path_1272098" data-name="Path 1272098" d="M19,4V16a2.77,2.77,0,0,1-.18,1A3,3,0,0,1,16,19H4a3,3,0,0,1-3-3V4A3,3,0,0,1,4,1H16A3,3,0,0,1,19,4Z" fill="#db5669"/>
        <path id="Path_1272099" data-name="Path 1272099" d="M19,4V16a2.77,2.77,0,0,1-.18,1H7a3,3,0,0,1-3-3V2a2.77,2.77,0,0,1,.18-1H16A3,3,0,0,1,19,4Z" fill="#f26674"/>
        <path id="Path_1272100" data-name="Path 1272100" d="M47,4V16a2.77,2.77,0,0,1-.18,1A3,3,0,0,1,44,19H32a3,3,0,0,1-3-3V4a3,3,0,0,1,3-3H44A3,3,0,0,1,47,4Z" fill="#6fabe6"/>
        <path id="Path_1272101" data-name="Path 1272101" d="M47,4V16a2.77,2.77,0,0,1-.18,1H35a3,3,0,0,1-3-3V2a2.77,2.77,0,0,1,.18-1H44A3,3,0,0,1,47,4Z" fill="#82bcf4"/>
        <path id="Path_1272102" data-name="Path 1272102" d="M16,33V45a2,2,0,0,1-2,2H9V31h5A2,2,0,0,1,16,33Z" fill="#6fabe6"/>
        <path id="Path_1272103" data-name="Path 1272103" d="M16,33V45a4,4,0,0,1-4-4V31h2A2,2,0,0,1,16,33Z" fill="#82bcf4"/>
        <path id="Path_1272104" data-name="Path 1272104" d="M13,10a3.1,3.1,0,0,1-.13.87A3,3,0,1,1,9.13,7.13,3.1,3.1,0,0,1,10,7a3,3,0,0,1,3,3Z" fill="#dad7e5"/>
        <path id="Path_1272105" data-name="Path 1272105" d="M13,10a3.1,3.1,0,0,1-.13.87,3,3,0,0,1-.32.7A2.91,2.91,0,0,1,11,12,3,3,0,0,1,8,9a2.91,2.91,0,0,1,.43-1.55,3,3,0,0,1,.7-.32A3.1,3.1,0,0,1,10,7a3,3,0,0,1,3,3Z" fill="#edebf2"/>
        <path id="Path_1272106" data-name="Path 1272106" d="M20,16V4a4,4,0,0,0-4-4H4A4,4,0,0,0,0,4V16a4,4,0,0,0,4,4H16A4,4,0,0,0,20,16ZM2,16V4A2,2,0,0,1,4,2H16a2,2,0,0,1,2,2V16a2,2,0,0,1-2,2H4A2,2,0,0,1,2,16Z"/>
        <path id="Path_1272107" data-name="Path 1272107" d="M44,0H32a4,4,0,0,0-4,4V16a4,4,0,0,0,4,4H44a4,4,0,0,0,4-4V4A4,4,0,0,0,44,0Zm2,16a2,2,0,0,1-2,2H32a2,2,0,0,1-2-2V4a2,2,0,0,1,2-2H44a2,2,0,0,1,2,2Z"/>
        <path id="Path_1272108" data-name="Path 1272108" d="M37.6,34.47A2.94,2.94,0,0,0,38,33a3,3,0,0,0-3-3H27.33l.88-3.08a5,5,0,0,0-1.81-5.37l-.29-.22a2.51,2.51,0,0,0-3.79,1l-2.39,5.38a7,7,0,0,1-2.2,2.76l-1.22.92A3,3,0,0,0,14,30H9a1,1,0,0,0-1,1V47a1,1,0,0,0,1,1h5a3,3,0,0,0,2.55-1.43l.38.25A7,7,0,0,0,20.82,48H34a3,3,0,0,0,3-3,2.94,2.94,0,0,0-.4-1.47A3,3,0,0,0,38,41a2.94,2.94,0,0,0-.4-1.47,3,3,0,0,0,0-5.06ZM15,45a1,1,0,0,1-1,1H10V32h4a1,1,0,0,1,1,1Zm19,1H20.82A5,5,0,0,1,18,45.16l-1-.7v-11l1.94-1.45a9.06,9.06,0,0,0,2.82-3.55l2.39-5.37a.47.47,0,0,1,.33-.28.46.46,0,0,1,.43.08l.29.22a3,3,0,0,1,1.08,3.22L25,30.73A1,1,0,0,0,25.96,32h9a1,1,0,0,1,0,2H29a1,1,0,0,0,0,2h7a1,1,0,0,1,0,2H29a1,1,0,0,0,0,2h6a1,1,0,0,1,0,2H29a1,1,0,0,0,0,2h5a1,1,0,0,1,0,2Z"/>
        <path id="Path_1272109" data-name="Path 1272109" d="M10,6a4,4,0,1,0,4,4A4,4,0,0,0,10,6Zm0,6a2,2,0,1,1,2-2A2,2,0,0,1,10,12Z"/>
        <path id="Path_1272110" data-name="Path 1272110" d="M15.71,4.29a1,1,0,0,0-1.09-.21,1.15,1.15,0,0,0-.33.21A1,1,0,1,0,16,5,1.05,1.05,0,0,0,15.71,4.29Z"/>
        <path id="Path_1272111" data-name="Path 1272111" d="M41,4H40a4,4,0,0,0-4,4V9H35a1,1,0,0,0,0,2h1v4a1,1,0,0,0,2,0V11h2a1,1,0,0,0,0-2H38V8a2,2,0,0,1,2-2h1a1,1,0,0,0,0-2Z"/>
      </g>
    </g>
  </g>
</svg>
