<svg xmlns="http://www.w3.org/2000/svg" xmlns:xlink="http://www.w3.org/1999/xlink" width="107.999" height="108" viewBox="0 0 107.999 108">
  <defs>
    <filter id="Rectangle_411831" x="0" y="0" width="107.999" height="108" filterUnits="userSpaceOnUse">
      <feOffset dy="3" input="SourceAlpha"/>
      <feGaussianBlur stdDeviation="3" result="blur"/>
      <feFlood flood-opacity="0.161"/>
      <feComposite operator="in" in2="blur"/>
      <feComposite in="SourceGraphic"/>
    </filter>
    <clipPath id="clip-path">
      <rect id="Rectangle_425301" data-name="Rectangle 425301" width="54" height="62" transform="translate(-6744 -6575)" fill="#fff" stroke="#707070" stroke-width="1" opacity="0"/>
    </clipPath>
  </defs>
  <g id="Group_1205389" data-name="Group 1205389" transform="translate(6770.96 6595.266)">
    <g id="Group_1205301" data-name="Group 1205301" transform="translate(-7562.742 -8551.266)">
      <g id="Group_1203409" data-name="Group 1203409" transform="translate(800.781 1962)">
        <g transform="matrix(1, 0, 0, 1, -9, -6)" filter="url(#Rectangle_411831)">
          <g id="Rectangle_411831-2" data-name="Rectangle 411831" transform="translate(9 6)" fill="#d9aef1" stroke="#fff" stroke-width="2">
            <path d="M5,0H58A32,32,0,0,1,90,32V85a5,5,0,0,1-5,5H32A32,32,0,0,1,0,58V5A5,5,0,0,1,5,0Z" stroke="none"/>
            <path d="M5,1H58A31,31,0,0,1,89,32V85a4,4,0,0,1-4,4H32A31,31,0,0,1,1,58V5A4,4,0,0,1,5,1Z" fill="none"/>
          </g>
        </g>
      </g>
      <path id="Path_1260076" data-name="Path 1260076" d="M15.052.687H.856V6.415H10.991L.856,16.481l4.1,4.068,10.1-10.031V20.549h5.8V.687Z" transform="translate(799.924 2031.451)" fill="#1f1321" fill-rule="evenodd"/>
      <path id="Path_1260092" data-name="Path 1260092" d="M5.27,15.8h10.8V11.438H8.359l7.709-7.657L12.953.687,5.27,8.318V.687H.856V15.8Z" transform="translate(874.712 1961.314)" fill="#1f1321" fill-rule="evenodd"/>
    </g>
    <g id="Mask_Group_1107900" data-name="Mask Group 1107900" clip-path="url(#clip-path)">
      <g id="clasificacion" transform="translate(-6744 -6571)">
        <g id="Group_1205394" data-name="Group 1205394">
          <g id="Group_1205393" data-name="Group 1205393">
            <circle id="Ellipse_12444" data-name="Ellipse 12444" cx="11.93" cy="11.93" r="11.93" transform="translate(0.791 1.185)" fill="#80cb8e"/>
            <path id="Path_1270704" data-name="Path 1270704" d="M14.777,24.868a11.931,11.931,0,1,1,0-23.507,11.932,11.932,0,0,0,0,23.507Z" fill="#6ec17d"/>
          </g>
          <circle id="Ellipse_12445" data-name="Ellipse 12445" cx="11.93" cy="11.93" r="11.93" transform="translate(0.791 28.955)" fill="#dd636e"/>
          <path id="Path_1270705" data-name="Path 1270705" d="M14.777,52.639a11.931,11.931,0,1,1,0-23.507,11.932,11.932,0,0,0,0,23.507Z" fill="#da4a54"/>
          <path id="Path_1270706" data-name="Path 1270706" d="M42.456,23.542a2.176,2.176,0,0,1-1.687-.8l-8.142-9.987A2.176,2.176,0,1,1,36,10l6.05,7.422L49.1,3.861a2.176,2.176,0,1,1,3.862,2.007l-8.576,16.5a2.178,2.178,0,0,1-1.931,1.173Z" fill="#80cb8e"/>
          <path id="Path_1270707" data-name="Path 1270707" d="M45.742,40.885l6.867-6.867a2.05,2.05,0,0,0-2.9-2.9l-6.867,6.867-6.867-6.867a2.05,2.05,0,0,0-2.9,2.9l6.867,6.867-6.867,6.867a2.05,2.05,0,1,0,2.9,2.9l6.867-6.867,6.867,6.867a2.05,2.05,0,0,0,2.9-2.9Z" fill="#dd636e"/>
        </g>
        <g id="Group_1205402" data-name="Group 1205402">
          <g id="Group_1205398" data-name="Group 1205398">
            <path id="Path_1270708" data-name="Path 1270708" d="M12.721,25.837A12.722,12.722,0,0,1,3.636,4.211a.791.791,0,1,1,1.13,1.107A11.126,11.126,0,1,0,7.1,3.5a.791.791,0,1,1-.8-1.364,12.722,12.722,0,1,1,6.427,23.7Z"/>
            <g id="Group_1205397" data-name="Group 1205397">
              <g id="Group_1205395" data-name="Group 1205395">
                <ellipse id="Ellipse_12446" data-name="Ellipse 12446" cx="1.467" cy="2.446" rx="1.467" ry="2.446" transform="translate(5.542 8.542)"/>
                <path id="Path_1270709" data-name="Path 1270709" d="M7.009,13.447c-.816,0-1.481-1.1-1.481-2.459s.664-2.459,1.481-2.459,1.481,1.1,1.481,2.459S7.826,13.447,7.009,13.447Zm0-4.891c-.8,0-1.454,1.091-1.454,2.433s.652,2.433,1.454,2.433,1.454-1.091,1.454-2.433S7.811,8.556,7.009,8.556Z"/>
              </g>
              <g id="Group_1205396" data-name="Group 1205396">
                <ellipse id="Ellipse_12447" data-name="Ellipse 12447" cx="1.467" cy="2.446" rx="1.467" ry="2.446" transform="translate(16.966 8.542)"/>
                <path id="Path_1270710" data-name="Path 1270710" d="M18.433,13.447c-.816,0-1.481-1.1-1.481-2.459s.664-2.459,1.481-2.459,1.481,1.1,1.481,2.459S19.25,13.447,18.433,13.447Zm0-4.891c-.8,0-1.454,1.091-1.454,2.433s.652,2.433,1.454,2.433,1.454-1.091,1.454-2.433-.652-2.433-1.454-2.433Z"/>
              </g>
            </g>
            <path id="Path_1270711" data-name="Path 1270711" d="M12.721,19.864A6.026,6.026,0,0,1,7.158,16.17a.791.791,0,1,1,1.458-.615,4.455,4.455,0,0,0,8.211,0,.791.791,0,1,1,1.458.615,6.026,6.026,0,0,1-5.563,3.693Z"/>
          </g>
          <path id="Path_1270712" data-name="Path 1270712" d="M12.721,53.606A12.721,12.721,0,1,1,25.442,40.885,12.736,12.736,0,0,1,12.721,53.606Zm0-23.86A11.139,11.139,0,1,0,23.86,40.885,11.152,11.152,0,0,0,12.721,29.746Z"/>
          <g id="Group_1205401" data-name="Group 1205401">
            <g id="Group_1205399" data-name="Group 1205399">
              <ellipse id="Ellipse_12448" data-name="Ellipse 12448" cx="1.467" cy="2.446" rx="1.467" ry="2.446" transform="translate(5.542 36.312)"/>
              <path id="Path_1270713" data-name="Path 1270713" d="M7.009,41.217c-.816,0-1.481-1.1-1.481-2.459S6.193,36.3,7.009,36.3,8.49,37.4,8.49,38.758,7.826,41.217,7.009,41.217Zm0-4.891c-.8,0-1.454,1.091-1.454,2.433s.652,2.433,1.454,2.433S8.463,40.1,8.463,38.758,7.811,36.325,7.009,36.325Z"/>
            </g>
            <g id="Group_1205400" data-name="Group 1205400">
              <ellipse id="Ellipse_12449" data-name="Ellipse 12449" cx="1.467" cy="2.446" rx="1.467" ry="2.446" transform="translate(16.966 36.312)"/>
              <path id="Path_1270714" data-name="Path 1270714" d="M18.433,41.217c-.816,0-1.481-1.1-1.481-2.459s.664-2.459,1.481-2.459,1.481,1.1,1.481,2.459S19.25,41.217,18.433,41.217Zm0-4.891c-.8,0-1.454,1.091-1.454,2.433s.652,2.433,1.454,2.433,1.454-1.091,1.454-2.433S19.235,36.325,18.433,36.325Z"/>
            </g>
          </g>
          <path id="Path_1270715" data-name="Path 1270715" d="M17.556,47.633a.791.791,0,0,1-.729-.484,4.455,4.455,0,0,0-8.211,0,.791.791,0,1,1-1.458-.615,6.037,6.037,0,0,1,11.126,0,.791.791,0,0,1-.728,1.1Z"/>
          <path id="Path_1270716" data-name="Path 1270716" d="M42.455,24.333a2.955,2.955,0,0,1-2.3-1.092l-8.142-9.987a2.967,2.967,0,1,1,4.6-3.75l5.29,6.489L48.4,3.5a2.967,2.967,0,1,1,5.266,2.737l-8.576,16.5a2.967,2.967,0,0,1-2.633,1.6ZM34.312,9.994a1.385,1.385,0,0,0-1.072,2.26l8.142,9.987a1.385,1.385,0,0,0,2.3-.237L52.261,5.5A1.385,1.385,0,1,0,49.8,4.226L42.753,17.79a.791.791,0,0,1-1.315.135L35.387,10.5A1.384,1.384,0,0,0,34.312,9.994Z"/>
          <path id="Path_1270717" data-name="Path 1270717" d="M51.158,52.042a2.823,2.823,0,0,1-2.009-.832L42.842,44.9,36.534,51.21a2.841,2.841,0,0,1-4.018-4.018l6.307-6.308-2.12-2.12a.791.791,0,0,1,1.119-1.119L40.5,40.325a.791.791,0,0,1,0,1.119l-6.866,6.867a1.261,1.261,0,0,0,0,1.781,1.26,1.26,0,0,0,1.781,0l6.867-6.867a.791.791,0,0,1,1.119,0l6.866,6.867a1.26,1.26,0,0,0,1.782-1.781l-6.867-6.867a.791.791,0,0,1,0-1.119l6.867-6.867a1.259,1.259,0,1,0-1.782-1.78L43.4,38.545a.791.791,0,0,1-1.119,0l-6.867-6.867a1.259,1.259,0,0,0-1.781,1.781l1.957,1.958a.791.791,0,0,1-1.119,1.118l-1.956-1.958a2.841,2.841,0,0,1,4.018-4.018l6.308,6.308,6.307-6.308a2.841,2.841,0,1,1,4.019,4.018l-6.308,6.308,6.308,6.308a2.841,2.841,0,0,1-2.009,4.85Z"/>
        </g>
      </g>
    </g>
  </g>
</svg>
