<svg xmlns="http://www.w3.org/2000/svg" xmlns:xlink="http://www.w3.org/1999/xlink" width="107.999" height="108" viewBox="0 0 107.999 108">
  <defs>
    <filter id="Rectangle_411831" x="0" y="0" width="107.999" height="108" filterUnits="userSpaceOnUse">
      <feOffset dy="3" input="SourceAlpha"/>
      <feGaussianBlur stdDeviation="3" result="blur"/>
      <feFlood flood-opacity="0.161"/>
      <feComposite operator="in" in2="blur"/>
      <feComposite in="SourceGraphic"/>
    </filter>
    <clipPath id="clip-path">
      <rect id="Rectangle_425301" data-name="Rectangle 425301" width="54" height="62" transform="translate(-6744 -6575)" fill="#fff" stroke="#707070" stroke-width="1" opacity="0"/>
    </clipPath>
  </defs>
  <g id="Group_1205388" data-name="Group 1205388" transform="translate(6770.961 6595.266)">
    <g id="Group_1205301" data-name="Group 1205301" transform="translate(-7562.742 -8551.266)">
      <g id="Group_1203409" data-name="Group 1203409" transform="translate(800.781 1962)">
        <g transform="matrix(1, 0, 0, 1, -9, -6)" filter="url(#Rectangle_411831)">
          <g id="Rectangle_411831-2" data-name="Rectangle 411831" transform="translate(9 6)" fill="#d9aef1" stroke="#fff" stroke-width="2">
            <path d="M5,0H58A32,32,0,0,1,90,32V85a5,5,0,0,1-5,5H32A32,32,0,0,1,0,58V5A5,5,0,0,1,5,0Z" stroke="none"/>
            <path d="M5,1H58A31,31,0,0,1,89,32V85a4,4,0,0,1-4,4H32A31,31,0,0,1,1,58V5A4,4,0,0,1,5,1Z" fill="none"/>
          </g>
        </g>
      </g>
      <path id="Path_1260076" data-name="Path 1260076" d="M15.052.687H.856V6.415H10.991L.856,16.481l4.1,4.068,10.1-10.031V20.549h5.8V.687Z" transform="translate(799.924 2031.451)" fill="#1f1321" fill-rule="evenodd"/>
      <path id="Path_1260092" data-name="Path 1260092" d="M5.27,15.8h10.8V11.438H8.359l7.709-7.657L12.953.687,5.27,8.318V.687H.856V15.8Z" transform="translate(874.712 1961.314)" fill="#1f1321" fill-rule="evenodd"/>
    </g>
    <g id="Mask_Group_1107901" data-name="Mask Group 1107901" clip-path="url(#clip-path)">
      <g id="equilibrio_2_" data-name="equilibrio (2)" transform="translate(-6744 -6571)">
        <rect id="Rectangle_425303" data-name="Rectangle 425303" width="3.494" height="34.891" transform="translate(25.252 12.203)" fill="#cd7a54"/>
        <rect id="Rectangle_425304" data-name="Rectangle 425304" width="3.494" height="3.528" transform="translate(25.252 12.203)" fill="#ba6f4c"/>
        <g id="Group_1205403" data-name="Group 1205403">
          <path id="Path_1270718" data-name="Path 1270718" d="M37.484,31.314a.82.82,0,0,1-.773-1.09l6.115-17.473a.819.819,0,0,1,1.546,0l6.116,17.473a.819.819,0,0,1-1.546.541L43.6,15.5,38.257,30.765A.819.819,0,0,1,37.484,31.314Z" fill="#2e4f5a"/>
          <path id="Path_1270719" data-name="Path 1270719" d="M51.462,33.989a3.494,3.494,0,0,1-3.494,3.494H39.231a3.494,3.494,0,0,1-3.494-3.494v-.874H51.462Z" fill="#2e4f5a"/>
        </g>
        <path id="Path_1270720" data-name="Path 1270720" d="M48.841,33.115v.874a3.494,3.494,0,0,1-3.494,3.494h2.621a3.494,3.494,0,0,0,3.494-3.494v-.874Z" fill="#2a4752"/>
        <path id="Path_1270721" data-name="Path 1270721" d="M51.462,33.989a1.747,1.747,0,1,0,0-3.494H35.736a1.747,1.747,0,1,0,0,3.494Z" fill="#f4b641"/>
        <path id="Path_1270722" data-name="Path 1270722" d="M51.462,30.495H48.841a1.747,1.747,0,1,1,0,3.494h2.621a1.747,1.747,0,1,0,0-3.494Z" fill="#fb8436"/>
        <g id="Group_1205404" data-name="Group 1205404">
          <path id="Path_1270723" data-name="Path 1270723" d="M4.286,31.314a.82.82,0,0,1-.773-1.09L9.628,12.751a.819.819,0,0,1,1.546,0L17.29,30.224a.819.819,0,1,1-1.546.541L10.4,15.5,5.059,30.765A.819.819,0,0,1,4.286,31.314Z" fill="#2e4f5a"/>
          <path id="Path_1270724" data-name="Path 1270724" d="M18.264,33.989a3.494,3.494,0,0,1-3.494,3.494H6.033a3.494,3.494,0,0,1-3.494-3.494v-.874H18.264v.874Z" fill="#2e4f5a"/>
        </g>
        <path id="Path_1270725" data-name="Path 1270725" d="M15.643,33.115v.874a3.494,3.494,0,0,1-3.494,3.494h2.621a3.494,3.494,0,0,0,3.494-3.494v-.874Z" fill="#2a4752"/>
        <path id="Path_1270726" data-name="Path 1270726" d="M18.264,33.989a1.747,1.747,0,0,0,0-3.494H2.538a1.747,1.747,0,0,0,0,3.494Z" fill="#f4b641"/>
        <path id="Path_1270727" data-name="Path 1270727" d="M18.264,30.495H15.643a1.747,1.747,0,0,1,0,3.494h2.621a1.747,1.747,0,0,0,0-3.494Z" fill="#fb8436"/>
        <path id="Path_1270728" data-name="Path 1270728" d="M3.412,8.435V9.527a3.494,3.494,0,0,0,3.494,3.494H47.093a3.494,3.494,0,0,0,3.494-3.494V8.435a.655.655,0,0,0-.655-.655H4.067A.655.655,0,0,0,3.412,8.435Z" fill="#f4b641"/>
        <path id="Path_1270729" data-name="Path 1270729" d="M47.967,7.78V9.527a3.494,3.494,0,0,1-3.494,3.494h2.621a3.494,3.494,0,0,0,3.494-3.494V8.435a.655.655,0,0,0-.655-.655Z" fill="#fb8436"/>
        <circle id="Ellipse_12450" data-name="Ellipse 12450" cx="0.819" cy="0.819" r="0.819" transform="translate(26.188 9.582)" fill="#2e4f5a"/>
        <circle id="Ellipse_12451" data-name="Ellipse 12451" cx="3.503" cy="3.503" r="3.503" transform="translate(23.505 0.791)" fill="#f4b641"/>
        <path id="Path_1270730" data-name="Path 1270730" d="M27.008.791a3.491,3.491,0,0,0-1.314.256,3.5,3.5,0,0,1,0,6.492A3.5,3.5,0,1,0,27.008.791Z" fill="#fb8436"/>
        <path id="Path_1270731" data-name="Path 1270731" d="M35.1,46.22H18.9a.633.633,0,0,0-.633.633v3.736H35.736V46.853A.633.633,0,0,0,35.1,46.22Z" fill="#f4b641"/>
        <g id="Group_1205405" data-name="Group 1205405">
          <path id="Path_1270732" data-name="Path 1270732" d="M35.1,46.22H33.116v4.368h2.621V46.853A.633.633,0,0,0,35.1,46.22Z" fill="#fb8436"/>
          <path id="Path_1270733" data-name="Path 1270733" d="M38.6,49.715H15.4a.633.633,0,0,0-.633.633v2.229a.633.633,0,0,0,.633.633H38.6a.633.633,0,0,0,.633-.633V50.347A.633.633,0,0,0,38.6,49.715Z" fill="#fb8436"/>
        </g>
        <path id="Path_1270734" data-name="Path 1270734" d="M38.6,49.715H36.61v3.495H38.6a.633.633,0,0,0,.633-.633V50.347A.633.633,0,0,0,38.6,49.715Z" fill="#f27029"/>
        <g id="Group_1205406" data-name="Group 1205406">
          <circle id="Ellipse_12452" data-name="Ellipse 12452" cx="0.819" cy="0.819" r="0.819" transform="translate(26.188 9.582)" fill="#121212"/>
          <path id="Path_1270735" data-name="Path 1270735" d="M51.462,29.7H50.276L44.714,13.813h2.38a4.29,4.29,0,0,0,4.285-4.285V8.571h.082a.791.791,0,0,0,0-1.582H30.346a4.293,4.293,0,1,0-6.676,0h-10.1a.791.791,0,0,0,0,1.582H49.8v.956a2.706,2.706,0,0,1-2.7,2.7H6.906a2.706,2.706,0,0,1-2.7-2.7V8.571h6.2a.791.791,0,1,0,0-1.582H2.538a.791.791,0,0,0,0,1.582h.082v.956a4.29,4.29,0,0,0,4.285,4.285h2.38L3.724,29.7H2.538A2.538,2.538,0,0,0,1.8,34.671a4.292,4.292,0,0,0,4.231,3.6h8.737A4.292,4.292,0,0,0,19,34.671a2.538,2.538,0,0,0-.736-4.967H17.078L11.516,13.813H24.462V45.429h-6.2a.791.791,0,0,0-.791.791v2.7h-2.7a.791.791,0,0,0-.791.791v2.7H13.9A.791.791,0,1,0,13.9,54H40.1a.791.791,0,1,0,0-1.582h-.083v-2.7a.791.791,0,0,0-.791-.791h-2.7v-2.7a.791.791,0,0,0-.791-.791h-6.2V13.813H42.484L36.922,29.7H35.736A2.538,2.538,0,0,0,35,34.671a4.292,4.292,0,0,0,4.231,3.6h8.737a4.292,4.292,0,0,0,4.231-3.6,2.538,2.538,0,0,0-.736-4.967ZM27.295,6.989h-.574a2.711,2.711,0,1,1,.574,0Zm-12.526,29.7H6.033A2.708,2.708,0,0,1,3.448,34.78H17.355A2.708,2.708,0,0,1,14.769,36.692Zm3.495-5.407a.956.956,0,0,1,0,1.912H2.538a.956.956,0,0,1,0-1.912H18.264ZM15.4,29.7H5.4l5-14.287ZM26.044,13.813h1.912V45.428H26.044V13.813Zm12.4,36.693v1.912H15.56V50.506Zm-3.494-3.495v1.912H19.055V47.011ZM43.6,15.416l5,14.287h-10Zm4.368,21.276H39.231a2.708,2.708,0,0,1-2.585-1.913H50.553A2.708,2.708,0,0,1,47.967,36.692ZM51.462,33.2H35.736a.956.956,0,1,1,0-1.912H51.462a.956.956,0,0,1,0,1.912Z" fill="#121212"/>
        </g>
      </g>
    </g>
  </g>
</svg>
