<svg xmlns="http://www.w3.org/2000/svg" xmlns:xlink="http://www.w3.org/1999/xlink" width="107.999" height="107.999" viewBox="0 0 107.999 107.999">
  <defs>
    <filter id="Rectangle_411831" x="0" y="0" width="107.999" height="107.999" filterUnits="userSpaceOnUse">
      <feOffset dy="3" input="SourceAlpha"/>
      <feGaussianBlur stdDeviation="3" result="blur"/>
      <feFlood flood-opacity="0.161"/>
      <feComposite operator="in" in2="blur"/>
      <feComposite in="SourceGraphic"/>
    </filter>
    <clipPath id="clip-path">
      <rect id="Rectangle_424839" data-name="Rectangle 424839" width="50.999" height="57.999" transform="translate(-6708 -10662)" fill="#fff" stroke="#707070" stroke-width="1" opacity="0"/>
    </clipPath>
  </defs>
  <g id="Group_1203903" data-name="Group 1203903" transform="translate(6736.27 10684)">
    <g id="Group_1203888" data-name="Group 1203888" transform="translate(-6727.271 -10678)">
      <g id="Group_1203409" data-name="Group 1203409" transform="translate(0.001)">
        <g transform="matrix(1, 0, 0, 1, -9, -6)" filter="url(#Rectangle_411831)">
          <g id="Rectangle_411831-2" data-name="Rectangle 411831" transform="translate(9 6)" fill="#d9aef1" stroke="#fff" stroke-width="2">
            <path d="M5,0H58A32,32,0,0,1,90,32V85a5,5,0,0,1-5,5H32A32,32,0,0,1,0,58V5A5,5,0,0,1,5,0Z" stroke="none"/>
            <path d="M5,1H58A31,31,0,0,1,89,32V85a4,4,0,0,1-4,4H32A31,31,0,0,1,1,58V5A4,4,0,0,1,5,1Z" fill="none"/>
          </g>
        </g>
      </g>
      <path id="Path_1260076" data-name="Path 1260076" d="M16.614.687H.856V7.046h11.25L.856,18.219,5.4,22.735,16.614,11.6V22.735h6.441V.687Z" transform="translate(-0.856 67.265)" fill="#1f1321" fill-rule="evenodd"/>
      <path id="Path_1260092" data-name="Path 1260092" d="M5.755,17.459H17.742V12.622H9.184l8.558-8.5L14.284.687,5.755,9.157V.687H.856V17.459Z" transform="translate(72.258 -0.686)" fill="#1f1321" fill-rule="evenodd"/>
    </g>
    <g id="Mask_Group_1107886" data-name="Mask Group 1107886" clip-path="url(#clip-path)">
      <g id="comunidad_1_" data-name="comunidad (1)" transform="translate(-6708.1 -10658.601)">
        <g id="Group_1205300" data-name="Group 1205300">
          <g id="Group_1205295" data-name="Group 1205295">
            <path id="Path_1270418" data-name="Path 1270418" d="M12.423,50.524H1.156a.307.307,0,0,1-.306-.306v-2.54A5.068,5.068,0,0,1,5.9,42.624H7.676a5.068,5.068,0,0,1,5.054,5.054v2.54A.307.307,0,0,1,12.423,50.524Z" fill="#2891fa" fill-rule="evenodd"/>
            <path id="Path_1270419" data-name="Path 1270419" d="M3.713,43.126a5.008,5.008,0,0,1,2.19-.5H7.676a5.068,5.068,0,0,1,5.054,5.054v2.017a9.508,9.508,0,0,1-9.017-6.568Z" fill="#43a2ff" fill-rule="evenodd"/>
            <ellipse id="Ellipse_12424" data-name="Ellipse 12424" cx="3.381" cy="3.339" rx="3.381" ry="3.339" transform="translate(3.409 36.47)" fill="#fecbaa"/>
            <path id="Path_1270420" data-name="Path 1270420" d="M6.79,36.471a3.4,3.4,0,0,0-1.375.288A3.3,3.3,0,0,0,4.7,38.812a3.36,3.36,0,0,0,3.381,3.339,3.4,3.4,0,0,0,1.375-.288,3.3,3.3,0,0,0,.715-2.054A3.36,3.36,0,0,0,6.79,36.471Z" fill="#fedfc5" fill-rule="evenodd"/>
          </g>
          <g id="Group_1205296" data-name="Group 1205296">
            <path id="Path_1270421" data-name="Path 1270421" d="M12.423,15.078H1.156a.307.307,0,0,1-.306-.306v-2.54A5.068,5.068,0,0,1,5.9,7.178H7.676a5.068,5.068,0,0,1,5.054,5.054v2.54a.307.307,0,0,1-.306.306Z" fill="#eb4e5c" fill-rule="evenodd"/>
            <path id="Path_1270422" data-name="Path 1270422" d="M3.713,7.68a5.007,5.007,0,0,1,2.19-.5H7.676a5.068,5.068,0,0,1,5.054,5.054v2.017A9.508,9.508,0,0,1,3.713,7.68Z" fill="#ff6372" fill-rule="evenodd"/>
            <ellipse id="Ellipse_12425" data-name="Ellipse 12425" cx="3.381" cy="3.339" rx="3.381" ry="3.339" transform="translate(3.409 1.024)" fill="#fecbaa"/>
            <path id="Path_1270423" data-name="Path 1270423" d="M6.79,1.024a3.4,3.4,0,0,0-1.375.288A3.3,3.3,0,0,0,4.7,3.366,3.36,3.36,0,0,0,8.081,6.705a3.4,3.4,0,0,0,1.375-.288,3.3,3.3,0,0,0,.715-2.054A3.36,3.36,0,0,0,6.79,1.024Z" fill="#fedfc5" fill-rule="evenodd"/>
          </g>
          <g id="Group_1205297" data-name="Group 1205297">
            <path id="Path_1270424" data-name="Path 1270424" d="M50.043,15.078H38.776a.307.307,0,0,1-.306-.306v-2.54a5.068,5.068,0,0,1,5.054-5.054H45.3a5.068,5.068,0,0,1,5.054,5.054v2.54a.307.307,0,0,1-.306.306Z" fill="#ffc328" fill-rule="evenodd"/>
            <path id="Path_1270425" data-name="Path 1270425" d="M41.333,7.68a5.007,5.007,0,0,1,2.19-.5H45.3a5.068,5.068,0,0,1,5.054,5.054v2.017A9.508,9.508,0,0,1,41.333,7.68Z" fill="#ffd54f" fill-rule="evenodd"/>
            <ellipse id="Ellipse_12426" data-name="Ellipse 12426" cx="3.381" cy="3.339" rx="3.381" ry="3.339" transform="translate(41.029 1.024)" fill="#fecbaa"/>
            <path id="Path_1270426" data-name="Path 1270426" d="M44.41,1.024a3.4,3.4,0,0,0-1.375.288,3.3,3.3,0,0,0-.715,2.054A3.36,3.36,0,0,0,45.7,6.705a3.4,3.4,0,0,0,1.375-.288,3.3,3.3,0,0,0,.715-2.054A3.36,3.36,0,0,0,44.41,1.024Z" fill="#fedfc5" fill-rule="evenodd"/>
          </g>
          <g id="Group_1205298" data-name="Group 1205298">
            <path id="Path_1270427" data-name="Path 1270427" d="M50.043,50.524H38.776a.307.307,0,0,1-.306-.306v-2.54a5.068,5.068,0,0,1,5.054-5.054H45.3a5.068,5.068,0,0,1,5.054,5.054v2.54a.307.307,0,0,1-.306.306Z" fill="#58d561" fill-rule="evenodd"/>
            <path id="Path_1270428" data-name="Path 1270428" d="M41.333,43.126a5.008,5.008,0,0,1,2.19-.5H45.3a5.068,5.068,0,0,1,5.054,5.054v2.017A9.508,9.508,0,0,1,41.333,43.126Z" fill="#6ce75a" fill-rule="evenodd"/>
            <ellipse id="Ellipse_12427" data-name="Ellipse 12427" cx="3.381" cy="3.339" rx="3.381" ry="3.339" transform="translate(41.029 36.47)" fill="#fecbaa"/>
            <path id="Path_1270429" data-name="Path 1270429" d="M44.41,36.471a3.4,3.4,0,0,0-1.375.288,3.3,3.3,0,0,0-.715,2.054A3.36,3.36,0,0,0,45.7,42.152a3.4,3.4,0,0,0,1.375-.288,3.3,3.3,0,0,0,.715-2.054A3.36,3.36,0,0,0,44.41,36.471Z" fill="#fedfc5" fill-rule="evenodd"/>
          </g>
          <g id="Group_1205299" data-name="Group 1205299">
            <circle id="Ellipse_12428" data-name="Ellipse 12428" cx="14.099" cy="14.099" r="14.099" transform="translate(9.335 14.265) rotate(-9.726)" fill="#2891fa"/>
            <path id="Path_1270430" data-name="Path 1270430" d="M25.6,11.681A14.095,14.095,0,0,1,37.3,33.638a16.345,16.345,0,0,1-3.921.475A16.028,16.028,0,0,1,17.249,18.185a15.761,15.761,0,0,1,.555-4.153,14.026,14.026,0,0,1,7.8-2.352Z" fill="#43a2ff" fill-rule="evenodd"/>
          </g>
        </g>
        <path id="Path_1270431" data-name="Path 1270431" d="M38.921,24.85a13.233,13.233,0,0,0-3.09-7.786A18.074,18.074,0,0,1,32.584,18.3a25.317,25.317,0,0,1,1,6.548h5.335Zm-3.088,9.283a13.231,13.231,0,0,0,3.088-7.783H33.587a25.215,25.215,0,0,1-1,6.544,18.12,18.12,0,0,1,3.249,1.239Zm-5.992,4.083a13.294,13.294,0,0,0,4.911-2.938,17.332,17.332,0,0,0-2.657-.956A13.159,13.159,0,0,1,29.842,38.216ZM16.558,35.29a13.3,13.3,0,0,0,4.9,2.927,13.127,13.127,0,0,1-2.252-3.886A17.075,17.075,0,0,0,16.558,35.29Zm-4.181-8.94a13.237,13.237,0,0,0,3.1,7.8,18.091,18.091,0,0,1,3.245-1.235,25.146,25.146,0,0,1-1.009-6.562Zm3.1-9.3a13.24,13.24,0,0,0-3.1,7.8h5.335a25.3,25.3,0,0,1,1.009-6.567A18.072,18.072,0,0,1,15.479,17.049Zm5.966-4.061a13.315,13.315,0,0,0-4.883,2.919,17.119,17.119,0,0,0,2.647.957c.179-.461.371-.906.579-1.328A11.8,11.8,0,0,1,21.445,12.988Zm10.649,3.886a17.221,17.221,0,0,0,2.656-.955,13.3,13.3,0,0,0-4.9-2.931,11.751,11.751,0,0,1,1.655,2.544C31.72,15.959,31.913,16.408,32.094,16.874Zm-1.47.347a25.3,25.3,0,0,1-4.274.469v-5.3C28.059,12.784,29.577,14.6,30.624,17.221Zm1.462,7.629a23.854,23.854,0,0,0-.962-6.193,26.491,26.491,0,0,1-4.773.534V24.85h5.736Zm-.962,7.689a23.661,23.661,0,0,0,.961-6.189H26.35V32a26.481,26.481,0,0,1,4.773.534ZM26.35,38.81V33.5a25.173,25.173,0,0,1,4.271.47c-.116.288-.237.569-.365.84C29.191,37.06,27.811,38.467,26.35,38.81Zm-5.669-4.83a25.2,25.2,0,0,1,4.169-.472v5.278C23.421,38.4,22.076,37,21.035,34.8,20.911,34.535,20.794,34.261,20.681,33.981ZM19.213,26.35a23.781,23.781,0,0,0,.966,6.2,26.6,26.6,0,0,1,4.671-.547V26.35H19.213Zm.967-7.71a23.909,23.909,0,0,0-.967,6.21H24.85V19.187A26.587,26.587,0,0,1,20.18,18.64Zm4.67-6.227v5.273a25.121,25.121,0,0,1-4.171-.473C21.7,14.644,23.183,12.855,24.85,12.413ZM40.443,25.6A14.793,14.793,0,1,1,25.649,10.806,14.81,14.81,0,0,1,40.443,25.6ZM49.6,47.409a4.039,4.039,0,0,0-3.6-4,4.162,4.162,0,0,1-3.186,0,4.04,4.04,0,0,0-3.6,4V49.6H49.6Zm-7.821-7.773a2.631,2.631,0,1,0,2.631-2.589A2.614,2.614,0,0,0,41.779,39.636Zm9.32,7.773a5.55,5.55,0,0,0-3.525-5.147,4.049,4.049,0,0,0,.967-2.626,4.131,4.131,0,0,0-8.262,0,4.047,4.047,0,0,0,.968,2.626,5.549,5.549,0,0,0-3.527,5.147v2.569A1.122,1.122,0,0,0,38.841,51.1H49.979A1.122,1.122,0,0,0,51.1,49.978Zm-39.119,0a4.039,4.039,0,0,0-3.6-4,4.162,4.162,0,0,1-3.186,0,4.039,4.039,0,0,0-3.6,4V49.6H11.98ZM4.159,39.636A2.631,2.631,0,1,0,6.79,37.047,2.614,2.614,0,0,0,4.159,39.636Zm9.321,7.773a5.55,5.55,0,0,0-3.527-5.147,4.049,4.049,0,0,0,.968-2.626,4.131,4.131,0,0,0-8.262,0,4.046,4.046,0,0,0,.967,2.626A5.55,5.55,0,0,0,.1,47.409v2.569A1.122,1.122,0,0,0,1.221,51.1H12.358a1.123,1.123,0,0,0,1.122-1.121V47.409ZM49.6,11.964a4.04,4.04,0,0,0-3.6-4,4.162,4.162,0,0,1-3.186,0,4.041,4.041,0,0,0-3.6,4v2.189H49.6ZM41.779,4.189a2.631,2.631,0,0,0,5.262,0,2.631,2.631,0,0,0-5.262,0Zm9.32,7.775a5.55,5.55,0,0,0-3.525-5.148,4.05,4.05,0,0,0,.967-2.627,4.131,4.131,0,0,0-8.262,0,4.051,4.051,0,0,0,.968,2.627,5.549,5.549,0,0,0-3.527,5.148v2.568a1.122,1.122,0,0,0,1.121,1.121H49.979A1.122,1.122,0,0,0,51.1,14.532ZM1.6,14.153H11.98V11.964a4.04,4.04,0,0,0-3.6-4,4.162,4.162,0,0,1-3.186,0,4.04,4.04,0,0,0-3.6,4ZM4.159,4.189a2.631,2.631,0,0,0,5.262,0,2.631,2.631,0,0,0-5.262,0ZM.1,14.532a1.122,1.122,0,0,0,1.121,1.121H12.358a1.123,1.123,0,0,0,1.122-1.121V11.964A5.549,5.549,0,0,0,9.953,6.816a4.053,4.053,0,0,0,.968-2.627,4.131,4.131,0,0,0-8.262,0,4.048,4.048,0,0,0,.967,2.627A5.549,5.549,0,0,0,.1,11.964v2.568ZM5.906,22.42a.75.75,0,0,0,1.276-.789L5.25,18.509a.751.751,0,0,0-1.033-.243L1.1,20.2a.75.75,0,1,0,.789,1.276l1.5-.93A22.929,22.929,0,0,0,4,32.831a.75.75,0,0,0,.711.512.738.738,0,0,0,.238-.039.749.749,0,0,0,.473-.949,21.426,21.426,0,0,1-.54-11.6Zm39.341,6.639a.75.75,0,1,0-1.287.771l1.888,3.149a.753.753,0,0,0,.461.342.77.77,0,0,0,.182.022.741.741,0,0,0,.385-.107l3.149-1.887a.75.75,0,0,0-.771-1.287l-1.515.908A22.918,22.918,0,0,0,47.3,18.676a.75.75,0,0,0-1.429.455,21.426,21.426,0,0,1,.377,11.605ZM15.123,7.078a21.3,21.3,0,0,1,19.451-.771l-1.834.666a.75.75,0,0,0,.512,1.41L36.7,7.13a.75.75,0,0,0,.449-.961L35.9,2.719a.75.75,0,0,0-1.41.512l.6,1.661a22.812,22.812,0,0,0-20.709.881.75.75,0,0,0,.74,1.305Zm20.2,38.3a.749.749,0,0,1-.376.992,22.861,22.861,0,0,1-16.9.721l.751,1.6a.75.75,0,0,1-.358,1,.77.77,0,0,1-.32.071.75.75,0,0,1-.679-.43L15.882,46.01a.749.749,0,0,1,.359-1l3.321-1.565A.75.75,0,1,1,20.2,44.8l-1.77.834a21.358,21.358,0,0,0,15.9-.63.75.75,0,0,1,.992.375Z" fill-rule="evenodd"/>
      </g>
    </g>
  </g>
</svg>
