<svg xmlns="http://www.w3.org/2000/svg" xmlns:xlink="http://www.w3.org/1999/xlink" width="107.999" height="108" viewBox="0 0 107.999 108">
  <defs>
    <filter id="Rectangle_411831" x="0" y="0" width="107.999" height="108" filterUnits="userSpaceOnUse">
      <feOffset dy="3" input="SourceAlpha"/>
      <feGaussianBlur stdDeviation="3" result="blur"/>
      <feFlood flood-opacity="0.161"/>
      <feComposite operator="in" in2="blur"/>
      <feComposite in="SourceGraphic"/>
    </filter>
    <clipPath id="clip-path">
      <rect id="Rectangle_425301" data-name="Rectangle 425301" width="54" height="62" transform="translate(-6744 -6575)" fill="#fff" stroke="#707070" stroke-width="1" opacity="0"/>
    </clipPath>
  </defs>
  <g id="Group_1205311" data-name="Group 1205311" transform="translate(6770.96 6595.266)">
    <g id="Group_1205301" data-name="Group 1205301" transform="translate(-7562.742 -8551.266)">
      <g id="Group_1203409" data-name="Group 1203409" transform="translate(800.781 1962)">
        <g transform="matrix(1, 0, 0, 1, -9, -6)" filter="url(#Rectangle_411831)">
          <g id="Rectangle_411831-2" data-name="Rectangle 411831" transform="translate(9 6)" fill="#8fe8d5" stroke="#fff" stroke-width="2">
            <path d="M5,0H58A32,32,0,0,1,90,32V85a5,5,0,0,1-5,5H32A32,32,0,0,1,0,58V5A5,5,0,0,1,5,0Z" stroke="none"/>
            <path d="M5,1H58A31,31,0,0,1,89,32V85a4,4,0,0,1-4,4H32A31,31,0,0,1,1,58V5A4,4,0,0,1,5,1Z" fill="none"/>
          </g>
        </g>
      </g>
      <path id="Path_1260076" data-name="Path 1260076" d="M15.052.687H.856V6.415H10.991L.856,16.481l4.1,4.068,10.1-10.031V20.549h5.8V.687Z" transform="translate(799.924 2031.451)" fill="#1f1321" fill-rule="evenodd"/>
      <path id="Path_1260092" data-name="Path 1260092" d="M5.27,15.8h10.8V11.438H8.359l7.709-7.657L12.953.687,5.27,8.318V.687H.856V15.8Z" transform="translate(874.712 1961.314)" fill="#1f1321" fill-rule="evenodd"/>
    </g>
    <g id="Mask_Group_1107889" data-name="Mask Group 1107889" clip-path="url(#clip-path)">
      <g id="eslogan" transform="translate(-6747.469 -6574.469)">
        <g id="Group_1205329" data-name="Group 1205329">
          <path id="Path_1270463" data-name="Path 1270463" d="M32.251,21.514h6.713v16.3H32.251Z" fill="#ccc" fill-rule="evenodd"/>
          <g id="Group_1205328" data-name="Group 1205328">
            <path id="Path_1270464" data-name="Path 1270464" d="M33.538,34.1l-6.913,1.85a7.693,7.693,0,0,0-2.582,1.219l-.618.444a7.679,7.679,0,0,1-4.654,1.49H11.428v17.8h7.857a7.675,7.675,0,0,1,3.853.987l2.01,1.1a7.675,7.675,0,0,0,3.85.987h8.759V35.973Z" fill="#fbbd80" fill-rule="evenodd"/>
            <path id="Path_1270465" data-name="Path 1270465" d="M44.193,56.914a3.083,3.083,0,0,0-3.076-3.076H35.172a3.074,3.074,0,1,0,0,6.147h5.945A3.082,3.082,0,0,0,44.193,56.914Z" fill="#fbbd80" fill-rule="evenodd"/>
            <path id="Path_1270466" data-name="Path 1270466" d="M45.445,50.763a3.083,3.083,0,0,0-3.076-3.072H36.424a3.074,3.074,0,1,0,0,6.147h5.945A3.085,3.085,0,0,0,45.445,50.763Z" fill="#fbbd80" fill-rule="evenodd"/>
            <path id="Path_1270467" data-name="Path 1270467" d="M47.115,44.615a3.083,3.083,0,0,0-3.076-3.076H38.094a3.076,3.076,0,1,0,0,6.151h5.945A3.085,3.085,0,0,0,47.115,44.615Z" fill="#fbbd80" fill-rule="evenodd"/>
            <path id="Path_1270468" data-name="Path 1270468" d="M45.445,38.467a3.085,3.085,0,0,0-3.076-3.076H36.424a3.074,3.074,0,1,0,0,6.147h5.945A3.083,3.083,0,0,0,45.445,38.467Z" fill="#fbbd80" fill-rule="evenodd"/>
            <path id="Path_1270469" data-name="Path 1270469" d="M24.044,37.169l-.618.444a7.679,7.679,0,0,1-4.654,1.49H11.428v9.459H22.152a5.85,5.85,0,0,0,5.837-5.84V41.95l4.573-1.226,1.291,4.82a3.074,3.074,0,0,0,5.938-1.591L38.5,39.135l-.709-2.651a3.411,3.411,0,0,0-4.171-2.409l-6.994,1.872a7.762,7.762,0,0,0-2.583,1.221Z" fill="#fbbd80" fill-rule="evenodd"/>
          </g>
          <path id="Path_1270470" data-name="Path 1270470" d="M13.984,35.943H5.892A1.476,1.476,0,0,0,4.42,37.414V57.8a1.475,1.475,0,0,0,1.471,1.471h8.092A1.476,1.476,0,0,0,15.457,57.8V37.414A1.475,1.475,0,0,0,13.984,35.943Z" fill="#0593fc" fill-rule="evenodd"/>
          <path id="Path_1270471" data-name="Path 1270471" d="M18.125.953H53.092a3.437,3.437,0,0,1,3.425,3.425V23.665a3.437,3.437,0,0,1-3.425,3.425H18.125A3.438,3.438,0,0,1,14.7,23.665V4.379A3.439,3.439,0,0,1,18.125.953Z" fill="#ebf5fc" fill-rule="evenodd"/>
          <path id="Path_1270472" data-name="Path 1270472" d="M9.938,42.255A1.428,1.428,0,1,0,8.51,40.827,1.429,1.429,0,0,0,9.938,42.255Z" fill="#056bb8" fill-rule="evenodd"/>
          <path id="Path_1270473" data-name="Path 1270473" d="M18.125.953h1.307a3.437,3.437,0,0,0-3.425,3.425V23.665a3.437,3.437,0,0,0,3.425,3.425H18.125A3.438,3.438,0,0,1,14.7,23.665V4.379A3.439,3.439,0,0,1,18.125.953Z" fill="#d4dde3" fill-rule="evenodd"/>
          <path id="Path_1270474" data-name="Path 1270474" d="M7.2,35.943H5.892A1.476,1.476,0,0,0,4.42,37.414V57.8a1.475,1.475,0,0,0,1.471,1.471H7.2A1.474,1.474,0,0,1,5.731,57.8V37.414A1.474,1.474,0,0,1,7.2,35.943Z" fill="#0584e3" fill-rule="evenodd"/>
        </g>
        <path id="Path_1270475" data-name="Path 1270475" d="M53.091,0H18.125a4.384,4.384,0,0,0-4.379,4.379V23.664a4.383,4.383,0,0,0,4.379,4.376H31.3v5.675l-4.918,1.318a8.572,8.572,0,0,0-2.887,1.362l-.624.444a6.711,6.711,0,0,1-4.1,1.316H16.407v-.743a2.425,2.425,0,0,0-2.422-2.422H5.892a2.425,2.425,0,0,0-2.422,2.422V57.8a2.425,2.425,0,0,0,2.422,2.422h8.093a2.425,2.425,0,0,0,2.42-2.361h2.88a6.708,6.708,0,0,1,3.4.871l2.01,1.1A8.613,8.613,0,0,0,29,60.938H41.121a4.024,4.024,0,0,0,3.093-6.6,4.019,4.019,0,0,0,1.364-6,4.027,4.027,0,0,0,0-7.444,4.023,4.023,0,0,0-3.209-6.452H39.916v-6.4H53.091a4.382,4.382,0,0,0,4.379-4.376V4.38A4.383,4.383,0,0,0,53.091,0ZM14.5,57.8a.521.521,0,0,1-.52.52H5.89a.521.521,0,0,1-.52-.52V37.413a.521.521,0,0,1,.52-.52h8.093a.521.521,0,0,1,.52.52Zm11.1.367-2.01-1.1a8.62,8.62,0,0,0-4.311-1.106H16.407v-15.9h2.365a8.64,8.64,0,0,0,5.2-1.671l.622-.443a6.642,6.642,0,0,1,2.273-1.072L33.864,35a2.464,2.464,0,0,1,2.611.913c.007.012.015.023.024.035a2.453,2.453,0,0,1,.374.786L38.228,41.8a.235.235,0,0,0,.008.031l.636,2.374a2.13,2.13,0,0,1-1.5,2.6,2.131,2.131,0,0,1-2.6-1.5l-1.289-4.822a.951.951,0,0,0-1.165-.674l-4.572,1.225a.951.951,0,0,0-.706.919c0,2.736-1.284,5.662-4.888,5.662a.951.951,0,1,0,0,1.9c3.837,0,6.485-2.713,6.766-6.827l2.972-.8,1.044,3.9a3.994,3.994,0,0,0,1.031,1.789,4.013,4.013,0,0,0-.634,5.752,4.023,4.023,0,0,0-1.573,5.7H29a6.714,6.714,0,0,1-3.392-.872Zm15.514.871H35.173a2.124,2.124,0,0,1,0-4.248h5.947a2.124,2.124,0,0,1,0,4.248Zm1.249-6.151H36.424a2.121,2.121,0,0,1-.437-4.2,3.979,3.979,0,0,0,1.866-.048h4.516a2.122,2.122,0,1,1,0,4.244Zm1.673-6.146H40.317a4.021,4.021,0,0,0,.393-3.03l-.326-1.218h3.659a2.124,2.124,0,0,1,0,4.248Zm.449-8.273a2.125,2.125,0,0,1-2.122,2.122H39.875l-1.137-4.244h3.631a2.125,2.125,0,0,1,2.122,2.122ZM38.013,34.44h-.286a4.375,4.375,0,0,0-4.356-1.279l-.169.045V28.04h4.811ZM55.568,23.665a2.477,2.477,0,0,1-2.477,2.473H18.125a2.478,2.478,0,0,1-2.477-2.473V4.38A2.48,2.48,0,0,1,18.125,1.9H53.091A2.48,2.48,0,0,1,55.568,4.38ZM50.486,7.595a.951.951,0,0,1-.951.951H21.685a.951.951,0,1,1,0-1.9H49.536A.951.951,0,0,1,50.486,7.595Zm0,6.427a.951.951,0,0,1-.951.951H21.685a.951.951,0,1,1,0-1.9H49.536A.951.951,0,0,1,50.486,14.022ZM36.56,20.449a.951.951,0,0,1-.951.951H21.685a.951.951,0,0,1,0-1.9H35.609A.951.951,0,0,1,36.56,20.449Zm-26.62,18a2.378,2.378,0,1,0,2.378,2.378A2.382,2.382,0,0,0,9.939,38.449Zm0,2.854a.476.476,0,1,1,.476-.476A.478.478,0,0,1,9.939,41.3Z"/>
      </g>
    </g>
  </g>
</svg>
