<svg xmlns="http://www.w3.org/2000/svg" xmlns:xlink="http://www.w3.org/1999/xlink" width="76.345" height="76.345" viewBox="0 0 76.345 76.345">
  <defs>
    <clipPath id="clip-path">
      <rect id="Rectangle_424831" data-name="Rectangle 424831" width="48" height="52" transform="translate(-9177 -11231)" fill="#fff" stroke="#707070" stroke-width="1" opacity="0"/>
    </clipPath>
  </defs>
  <g id="Group_1203857" data-name="Group 1203857" transform="translate(9191.051 11243)">
    <g id="Group_1203854" data-name="Group 1203854" transform="translate(-9191.051 -11243)">
      <g id="Group_1187152" data-name="Group 1187152">
        <g id="Group_1185946" data-name="Group 1185946">
          <g id="Group_1184280" data-name="Group 1184280">
            <g id="Group_1182168" data-name="Group 1182168">
              <g id="Group_1178877" data-name="Group 1178877">
                <g id="Group_1111311" data-name="Group 1111311">
                  <g id="Group_1098742" data-name="Group 1098742" transform="translate(0 0)">
                    <g id="Rectangle_400898" data-name="Rectangle 400898" transform="translate(0)" fill="#8fe8d5" stroke="#63a194" stroke-width="1" opacity="0.859">
                      <rect width="76.345" height="76.345" rx="38.172" stroke="none"/>
                      <rect x="0.5" y="0.5" width="75.345" height="75.345" rx="37.672" fill="none"/>
                    </g>
                    <g id="Rectangle_400907" data-name="Rectangle 400907" fill="none" stroke="#63a194" stroke-width="1">
                      <rect width="76.345" height="76.345" rx="38.172" stroke="none"/>
                      <rect x="0.5" y="0.5" width="75.345" height="75.345" rx="37.672" fill="none"/>
                    </g>
                  </g>
                </g>
              </g>
            </g>
          </g>
        </g>
      </g>
    </g>
    <g id="Mask_Group_1107781" data-name="Mask Group 1107781" clip-path="url(#clip-path)">
      <g id="redes-sociales" transform="translate(-9177 -11229)">
        <g id="Group_1203874" data-name="Group 1203874">
          <g id="Group_1203862" data-name="Group 1203862">
            <g id="Group_1203861" data-name="Group 1203861">
              <g id="Group_1203860" data-name="Group 1203860">
                <g id="Group_1203859" data-name="Group 1203859">
                  <g id="Group_1203858" data-name="Group 1203858">
                    <path id="Path_1260311" data-name="Path 1260311" d="M34.826,47.054H13.674a3.711,3.711,0,0,1-3.711-3.711V4.657A3.711,3.711,0,0,1,13.674.946H34.826a3.711,3.711,0,0,1,3.711,3.711V43.343A3.711,3.711,0,0,1,34.826,47.054Z" fill="#3d6d93"/>
                    <path id="Path_1260312" data-name="Path 1260312" d="M34.826.946H32.043a3.711,3.711,0,0,1,3.711,3.711V43.343a3.711,3.711,0,0,1-3.711,3.711h2.783a3.711,3.711,0,0,0,3.711-3.711V4.657A3.711,3.711,0,0,0,34.826.946Z" fill="#335e80"/>
                    <path id="Path_1260313" data-name="Path 1260313" d="M31.065,4.471A1.254,1.254,0,0,1,29.81,5.726H18.69a1.254,1.254,0,0,1-1.254-1.254.742.742,0,0,0-.742-.742H14.138a1.392,1.392,0,0,0-1.392,1.392V42.879a1.392,1.392,0,0,0,1.392,1.392H34.362a1.392,1.392,0,0,0,1.392-1.392V5.121a1.392,1.392,0,0,0-1.392-1.392H31.807a.742.742,0,0,0-.742.742Z" fill="#f9f7f8"/>
                  </g>
                </g>
              </g>
            </g>
          </g>
          <g id="Group_1203865" data-name="Group 1203865">
            <g id="Group_1203863" data-name="Group 1203863">
              <circle id="Ellipse_12353" data-name="Ellipse 12353" cx="8.022" cy="8.022" r="8.022" transform="translate(1.196 6.012)" fill="#ffe179"/>
              <path id="Path_1260314" data-name="Path 1260314" d="M9.218,6.012a8.064,8.064,0,0,0-1.392.123,8.021,8.021,0,0,1,0,15.8A8.021,8.021,0,1,0,9.218,6.012Z" fill="#fbd268"/>
            </g>
            <g id="Group_1203864" data-name="Group 1203864">
              <path id="Path_1260315" data-name="Path 1260315" d="M12,18.208H6.435a1.392,1.392,0,0,1-1.392-1.392V11.251A1.392,1.392,0,0,1,6.435,9.859H12a1.392,1.392,0,0,1,1.392,1.392v5.566A1.391,1.391,0,0,1,12,18.208Z" fill="#f58a97"/>
              <path id="Path_1260316" data-name="Path 1260316" d="M12,9.859H9.218a1.392,1.392,0,0,1,1.392,1.392v5.566a1.392,1.392,0,0,1-1.392,1.392H12a1.392,1.392,0,0,0,1.392-1.392V11.251A1.392,1.392,0,0,0,12,9.859Z" fill="#f07281"/>
              <circle id="Ellipse_12354" data-name="Ellipse 12354" cx="1.392" cy="1.392" r="1.392" transform="translate(7.826 12.642)" fill="#fff"/>
            </g>
          </g>
          <g id="Group_1203867" data-name="Group 1203867">
            <g id="Group_1203866" data-name="Group 1203866">
              <circle id="Ellipse_12355" data-name="Ellipse 12355" cx="8.022" cy="8.022" r="8.022" transform="translate(0.696 24.943)" fill="#8fd8fa"/>
              <path id="Path_1260317" data-name="Path 1260317" d="M8.718,24.943a8.056,8.056,0,0,0-1.484.139,8.021,8.021,0,0,1,0,15.765,8.021,8.021,0,1,0,1.484-15.9Z" fill="#6bcdfe"/>
            </g>
            <g id="Shape_2_">
              <path id="Path_1260318" data-name="Path 1260318" d="M11.272,29.889a1.773,1.773,0,0,0-3.11,1.187v.4a4.218,4.218,0,0,1-3.3-1.458.237.237,0,0,0-.408.085A3.682,3.682,0,0,0,6.58,34.823a4.606,4.606,0,0,1-1.852.736c-.172.028-.087.344-.043.457.3.779,3.667,1.1,5.73-.594A5.41,5.41,0,0,0,12.2,32.1a3.648,3.648,0,0,0,.981-1.928.423.423,0,0,0-.607-.45,2.031,2.031,0,0,1-.445.155,2.072,2.072,0,0,1-.854.008Z" fill="#fff"/>
            </g>
          </g>
          <g id="Group_1203870" data-name="Group 1203870">
            <g id="Group_1203868" data-name="Group 1203868">
              <circle id="Ellipse_12356" data-name="Ellipse 12356" cx="8.022" cy="8.022" r="8.022" transform="translate(31.261 24.943)" fill="#f58a97"/>
              <path id="Path_1260319" data-name="Path 1260319" d="M39.282,24.943a8.064,8.064,0,0,0-1.392.123,8.021,8.021,0,0,1,0,15.8,8.021,8.021,0,1,0,1.392-15.921Z" fill="#f07281"/>
            </g>
            <g id="Group_1203869" data-name="Group 1203869">
              <path id="Path_1260320" data-name="Path 1260320" d="M37.313,30.237a.269.269,0,0,1,.4-.233L42.6,32.822a.27.27,0,0,1,0,.467l-4.879,2.818a.269.269,0,0,1-.4-.233Z" fill="#fff"/>
            </g>
          </g>
          <g id="Group_1203872" data-name="Group 1203872">
            <g id="Group_1203871" data-name="Group 1203871">
              <circle id="Ellipse_12357" data-name="Ellipse 12357" cx="8.022" cy="8.022" r="8.022" transform="translate(31.261 6.012)" fill="#8fd8fa"/>
              <path id="Path_1260321" data-name="Path 1260321" d="M39.282,6.012a8.064,8.064,0,0,0-1.392.123,8.02,8.02,0,0,1,0,15.8A8.021,8.021,0,1,0,39.282,6.012Z" fill="#6bcdfe"/>
            </g>
          </g>
          <path id="Path_1260322" data-name="Path 1260322" d="M24.1,18.395a5.607,5.607,0,0,0-5.157,7.413.641.641,0,0,1,0,.419l-.747,2.124a.371.371,0,0,0,.473.473l1.494-.525a.655.655,0,0,1,.624.108A5.607,5.607,0,1,0,24.1,18.395Z" fill="#aee69c"/>
          <g id="Group_1203873" data-name="Group 1203873">
            <path id="Path_1260323" data-name="Path 1260323" d="M24.1,18.395a5.539,5.539,0,0,0-1.238.175,5.605,5.605,0,0,1-.007,10.861A5.607,5.607,0,1,0,24.1,18.395Z" fill="#89daa4"/>
          </g>
        </g>
        <g id="Group_1203875" data-name="Group 1203875">
          <path id="Path_1260324" data-name="Path 1260324" d="M36.85,14.51H37.97v4.423a.7.7,0,1,0,1.392,0V14.51h1.121a.7.7,0,0,0,0-1.392H39.362V11.1a.705.705,0,0,1,.7-.7h1.649a.7.7,0,0,0,0-1.392H40.066a2.1,2.1,0,0,0-2.1,2.1v2.022H36.85a.7.7,0,0,0,0,1.392ZM24.25,4.032a.7.7,0,1,0-.7-.7A.7.7,0,0,0,24.25,4.032ZM9.218,16.121a2.087,2.087,0,1,0-2.087-2.087A2.09,2.09,0,0,0,9.218,16.121Zm0-2.783a.7.7,0,1,1-.7.7A.7.7,0,0,1,9.218,13.338ZM12,18.9a2.09,2.09,0,0,0,2.087-2.087V11.251A2.09,2.09,0,0,0,12,9.163H6.435a2.09,2.09,0,0,0-2.087,2.087v5.566A2.09,2.09,0,0,0,6.435,18.9ZM5.739,16.817V11.251a.7.7,0,0,1,.7-.7H12a.7.7,0,0,1,.7.7v5.566a.7.7,0,0,1-.7.7H6.435A.7.7,0,0,1,5.739,16.817Zm7.7,12.394a1.121,1.121,0,0,0-1.167-.112,1.351,1.351,0,0,1-.293.1,1.334,1.334,0,0,1-.373.03,2.469,2.469,0,0,0-4.115,1.5,3.506,3.506,0,0,1-2.1-1.173.932.932,0,0,0-1.6.343,4.462,4.462,0,0,0,1.328,4.855c-.392.12-.84.111-1.069.508a1.2,1.2,0,0,0-.012,1,1.7,1.7,0,0,0,1.275.918,5.646,5.646,0,0,0,1.406.162,6.585,6.585,0,0,0,4.141-1.386,5.979,5.979,0,0,0,1.99-3.534,4.343,4.343,0,0,0,1.018-2.133,1.112,1.112,0,0,0-.429-1.081ZM11.7,31.619a.7.7,0,0,0-.187.371,4.692,4.692,0,0,1-1.539,2.895,5.469,5.469,0,0,1-3.946,1.022A5.3,5.3,0,0,0,6.97,35.4a.7.7,0,0,0-.108-1.212,2.867,2.867,0,0,1-1.9-3.109A4.881,4.881,0,0,0,8.18,32.167a.7.7,0,0,0,.678-.7v-.4s0-.006,0-.009a1.077,1.077,0,0,1,1.889-.721.7.7,0,0,0,.389.226,2.746,2.746,0,0,0,1.231-.033,2.961,2.961,0,0,1-.67,1.081Zm27.585-7.372h-.049v-1.5h.049a8.717,8.717,0,1,0-.049-17.435v-.66A4.412,4.412,0,0,0,34.826.25H13.674A4.412,4.412,0,0,0,9.268,4.657v.66a8.68,8.68,0,0,0-4.783,1.4A.7.7,0,0,0,5.241,7.88a7.324,7.324,0,1,1-2.1,2.067.7.7,0,0,0-1.154-.777A8.719,8.719,0,0,0,9.218,22.751h.049v1.515c-.182-.011-.365-.018-.55-.018a8.718,8.718,0,0,0,0,17.435c.185,0,.368-.006.55-.018v1.678a4.412,4.412,0,0,0,4.407,4.407H34.826a4.412,4.412,0,0,0,4.407-4.407V41.682h.049a8.718,8.718,0,0,0,0-17.435Zm0-17.54a7.326,7.326,0,1,1-7.326,7.326A7.334,7.334,0,0,1,39.282,6.708ZM37.841,22.632v1.734a8.677,8.677,0,0,0-1.392.35V22.279a8.629,8.629,0,0,0,1.392.353ZM12.051,5.121v.668a8.641,8.641,0,0,0-1.392-.353V4.657a3.018,3.018,0,0,1,3.015-3.015H34.826a3.018,3.018,0,0,1,3.015,3.015v.779a8.641,8.641,0,0,0-1.392.353V5.121a2.09,2.09,0,0,0-2.087-2.087H31.807a1.44,1.44,0,0,0-1.438,1.438.559.559,0,0,1-.559.558H18.69a.559.559,0,0,1-.559-.558,1.437,1.437,0,0,0-1.438-1.438H14.138A2.09,2.09,0,0,0,12.051,5.121ZM10.659,22.632a8.641,8.641,0,0,0,1.392-.353V24.91a8.637,8.637,0,0,0-1.392-.445ZM8.718,40.291a7.326,7.326,0,1,1,7.326-7.326A7.241,7.241,0,0,1,8.718,40.291Zm29.124,3.052a3.018,3.018,0,0,1-3.015,3.015H13.674a3.018,3.018,0,0,1-3.015-3.015V41.465a8.638,8.638,0,0,0,1.392-.445v1.859a2.09,2.09,0,0,0,2.087,2.087H34.362a2.09,2.09,0,0,0,2.087-2.087V41.21a8.641,8.641,0,0,0,1.392.353Zm1.441-3.052a7.333,7.333,0,0,1-7.09-9.178.7.7,0,0,0-1.347-.351,8.725,8.725,0,0,0,4.213,9.827v2.29a.7.7,0,0,1-.7.7H14.138a.7.7,0,0,1-.7-.7V40.288a8.712,8.712,0,0,0,0-14.646V21.657a8.714,8.714,0,0,0,0-15.247V5.121a.7.7,0,0,1,.7-.7h2.556a.046.046,0,0,1,.033.013.044.044,0,0,1,.013.033,1.952,1.952,0,0,0,1.95,1.95H29.81a1.952,1.952,0,0,0,1.95-1.95.047.047,0,0,1,.046-.046h2.556a.7.7,0,0,1,.7.7V6.41a8.714,8.714,0,0,0,0,15.25.71.71,0,0,0,0,.08v3.593a8.735,8.735,0,0,0-2.684,2.314.7.7,0,0,0,1.1.85,7.236,7.236,0,0,1,5.806-2.857,7.326,7.326,0,1,1,0,14.652ZM26.8,23.77a.7.7,0,0,0-.956.234,1.671,1.671,0,0,1-.519.529.632.632,0,0,1-.667.01l-1.041-.632a.645.645,0,0,1-.3-.614,1.633,1.633,0,0,1,.228-.688.7.7,0,1,0-1.189-.722,3.036,3.036,0,0,0-.425,1.28v.014a2.031,2.031,0,0,0,.962,1.919l1.041.632a2.03,2.03,0,0,0,2.146-.031,3.069,3.069,0,0,0,.952-.975A.7.7,0,0,0,26.8,23.77Zm16.144,8.449L38.065,29.4a.973.973,0,0,0-1.448.836v5.636a.975.975,0,0,0,1.448.836l4.879-2.818A.976.976,0,0,0,42.944,32.219Zm-4.935,2.915V30.976l3.6,2.08ZM24.081,17.7a6.3,6.3,0,0,0-5.8,8.312l-.741,2.108a1.067,1.067,0,0,0,1.36,1.36l1.469-.516A6.3,6.3,0,1,0,24.081,17.7Zm.306,11.21a4.928,4.928,0,0,1-3.173-1.05,1.355,1.355,0,0,0-.84-.294,1.339,1.339,0,0,0-.445.076l-.855.3.522-1.485a1.341,1.341,0,0,0,.006-.874,4.911,4.911,0,1,1,4.786,3.326Z"/>
        </g>
      </g>
    </g>
  </g>
</svg>
