<svg xmlns="http://www.w3.org/2000/svg" xmlns:xlink="http://www.w3.org/1999/xlink" width="107.999" height="107.999" viewBox="0 0 107.999 107.999">
  <defs>
    <filter id="Rectangle_411831" x="0" y="0" width="107.999" height="107.999" filterUnits="userSpaceOnUse">
      <feOffset dy="3" input="SourceAlpha"/>
      <feGaussianBlur stdDeviation="3" result="blur"/>
      <feFlood flood-opacity="0.161"/>
      <feComposite operator="in" in2="blur"/>
      <feComposite in="SourceGraphic"/>
    </filter>
    <clipPath id="clip-path">
      <rect id="Rectangle_425353" data-name="Rectangle 425353" width="51" height="54" transform="translate(-1598 -9837)" fill="#fff" stroke="#707070" stroke-width="1" opacity="0"/>
    </clipPath>
  </defs>
  <g id="Group_1205625" data-name="Group 1205625" transform="translate(1626.416 9861.287)">
    <g id="Group_1205618" data-name="Group 1205618" transform="translate(5109.854 822.713)">
      <g id="Group_1203888" data-name="Group 1203888" transform="translate(-6727.271 -10678)">
        <g id="Group_1203409" data-name="Group 1203409" transform="translate(0.001)">
          <g transform="matrix(1, 0, 0, 1, -9, -6)" filter="url(#Rectangle_411831)">
            <g id="Rectangle_411831-2" data-name="Rectangle 411831" transform="translate(9 6)" fill="#d9aef1" stroke="#fff" stroke-width="2">
              <path d="M5,0H58A32,32,0,0,1,90,32V85a5,5,0,0,1-5,5H32A32,32,0,0,1,0,58V5A5,5,0,0,1,5,0Z" stroke="none"/>
              <path d="M5,1H58A31,31,0,0,1,89,32V85a4,4,0,0,1-4,4H32A31,31,0,0,1,1,58V5A4,4,0,0,1,5,1Z" fill="none"/>
            </g>
          </g>
        </g>
        <path id="Path_1260076" data-name="Path 1260076" d="M16.614.687H.856V7.046h11.25L.856,18.219,5.4,22.735,16.614,11.6V22.735h6.441V.687Z" transform="translate(-0.856 67.265)" fill="#1f1321" fill-rule="evenodd"/>
        <path id="Path_1260092" data-name="Path 1260092" d="M5.755,17.459H17.742V12.622H9.184l8.558-8.5L14.284.687,5.755,9.157V.687H.856V17.459Z" transform="translate(72.258 -0.686)" fill="#1f1321" fill-rule="evenodd"/>
      </g>
    </g>
    <g id="Mask_Group_1107928" data-name="Mask Group 1107928" clip-path="url(#clip-path)">
      <g id="apreton-de-manos" transform="translate(-1598 -9835.5)">
        <g id="Group_1205644" data-name="Group 1205644">
          <g id="Group_1205639" data-name="Group 1205639">
            <path id="Path_1271981" data-name="Path 1271981" d="M41.662,24.439l-1.3-10.524-2.428.3v0l-4.707-2.649a2.836,2.836,0,0,0-1.652-.352L24.15,11.9a2.836,2.836,0,0,0-2.191,1.4l-5.238,9.015a1.246,1.246,0,0,0,.637,1.791l.214.081a4.647,4.647,0,0,0,1.259.281l-.664.578L16.841,26.2l-3.776,3.221a1.613,1.613,0,0,0-.156,2.277l.383.439a2.074,2.074,0,0,0,2.925.2l1.443,1.655a2.07,2.07,0,0,0,2.925.2l1.442,1.656a2.075,2.075,0,0,0,2.927.2l.784.677a2.075,2.075,0,0,0,2.927.2L29.728,36l8.954-6.974.01-.009,3.533,0Z" fill="#f29f5c"/>
            <path id="Path_1271982" data-name="Path 1271982" d="M37.825,26.3l-.01.009L28.86,33.287l-1.065.929a2.075,2.075,0,0,1-2.927-.2l-.784-.677a2.075,2.075,0,0,1-2.927-.2l-1.442-1.656a2.07,2.07,0,0,1-2.925-.2l-1.443-1.655a2.073,2.073,0,0,1-2.568.122,1.613,1.613,0,0,0,.128,1.951l.383.439a2.074,2.074,0,0,0,2.925.2l1.443,1.655a2.07,2.07,0,0,0,2.925.2l1.442,1.656a2.075,2.075,0,0,0,2.927.2l.784.677a2.075,2.075,0,0,0,2.927.2L29.728,36l8.954-6.974.01-.009,3.533,0-.391-3.175Z" fill="#d37d42"/>
          </g>
          <g id="Group_1205640" data-name="Group 1205640">
            <path id="Path_1271983" data-name="Path 1271983" d="M39.455,30.857l-4.8-4.137-1.334-1.149-.955-.822-4.1-3.538.474-4.035a2.785,2.785,0,0,0-2.023-3.009l-8.947-2.476a2.071,2.071,0,0,0-2.4,1.052l-1.125,2.2-4.83-.328L8.18,25.142l-.538,4.577,4.7.313.01.009,9.822,8.466,1.07.923a2.074,2.074,0,0,0,2.926-.217L27.6,37.55a2.075,2.075,0,0,0,2.926-.217l1.433-1.664a2.07,2.07,0,0,0,2.924-.216L36.32,33.79a2.074,2.074,0,0,0,2.924-.216l.381-.441A1.613,1.613,0,0,0,39.455,30.857Z" fill="#f9c295"/>
            <path id="Path_1271984" data-name="Path 1271984" d="M39.455,30.857,37.994,29.6a1.713,1.713,0,0,1-.071,2.148l-.4.468a2.2,2.2,0,0,1-3.1.229l-1.522,1.766a2.2,2.2,0,0,1-3.1.229L28.268,36.2a2.2,2.2,0,0,1-3.106.231L23.642,38.2a2.187,2.187,0,0,1-1.043.673l.647.559a2.074,2.074,0,0,0,2.926-.217L27.6,37.55a2.075,2.075,0,0,0,2.926-.217l1.433-1.664a2.07,2.07,0,0,0,2.924-.216L36.32,33.79a2.074,2.074,0,0,0,2.924-.216l.381-.441A1.614,1.614,0,0,0,39.455,30.857Z" fill="#e59f6a"/>
          </g>
          <g id="Group_1205642" data-name="Group 1205642">
            <g id="Group_1205641" data-name="Group 1205641">
              <path id="Path_1271985" data-name="Path 1271985" d="M12.589,30.02l-.569.751a1.859,1.859,0,0,0,.36,2.6h0a1.859,1.859,0,0,0,2.6-.36l.569-.751a1.859,1.859,0,0,0-.36-2.6h0A1.859,1.859,0,0,0,12.589,30.02Z" fill="#f29f5c"/>
              <path id="Path_1271986" data-name="Path 1271986" d="M16.055,31.6l-1.072,1.415a1.859,1.859,0,0,0,.36,2.6h0a1.859,1.859,0,0,0,2.6-.36l1.072-1.415a1.859,1.859,0,0,0-.36-2.6h0A1.859,1.859,0,0,0,16.055,31.6Z" fill="#f29f5c"/>
              <path id="Path_1271987" data-name="Path 1271987" d="M19.407,33.332,17.947,35.26a1.859,1.859,0,0,0,.36,2.6h0a1.859,1.859,0,0,0,2.6-.36l1.461-1.929a1.859,1.859,0,0,0-.36-2.6h0A1.859,1.859,0,0,0,19.407,33.332Z" fill="#f29f5c"/>
              <path id="Path_1271988" data-name="Path 1271988" d="M22.455,35.464,20.91,37.5a1.859,1.859,0,0,0,.36,2.6h0a1.859,1.859,0,0,0,2.6-.36l1.545-2.04a1.859,1.859,0,0,0-.36-2.6h0A1.859,1.859,0,0,0,22.455,35.464Z" fill="#f29f5c"/>
            </g>
          </g>
          <path id="Path_1271989" data-name="Path 1271989" d="M37.94,14.212l-4.707-2.649a2.836,2.836,0,0,0-1.652-.352L24.15,11.9a2.836,2.836,0,0,0-2.191,1.4l-5.238,9.015a1.246,1.246,0,0,0,.637,1.791l.214.081a4.657,4.657,0,0,0,5.339-1.519l2.007-2.612s4.824,5.585,10.135-.937" fill="#f29f5c"/>
          <path id="Path_1271990" data-name="Path 1271990" d="M47.791,10.514l2.462,20L44.5,31.22a1.985,1.985,0,0,1-2.212-1.727L40.308,13.435a1.985,1.985,0,0,1,1.727-2.212Z" fill="#5c9cee"/>
          <path id="Path_1271991" data-name="Path 1271991" d="M44.4,28.963a2.176,2.176,0,0,1-2.388-1.678l.272,2.208A1.985,1.985,0,0,0,44.5,31.22l5.756-.709-.275-2.235Z" fill="#3580d3"/>
          <path id="Path_1271992" data-name="Path 1271992" d="M3.209,10.514l-2.462,20L6.5,31.22a1.985,1.985,0,0,0,2.212-1.727l1.977-16.057a1.985,1.985,0,0,0-1.727-2.212Z" fill="#ed5575"/>
          <path id="Path_1271993" data-name="Path 1271993" d="M6.639,28.913l-5.61-.691L.747,30.511,6.5,31.22a1.985,1.985,0,0,0,2.212-1.727l.209-1.7A2.331,2.331,0,0,1,6.639,28.913Z" fill="#cc3a60"/>
          <g id="Group_1205643" data-name="Group 1205643">
            <circle id="Ellipse_12495" data-name="Ellipse 12495" cx="1.444" cy="1.444" r="1.444" transform="translate(44.775 25.774)" fill="#ebeef2"/>
            <circle id="Ellipse_12496" data-name="Ellipse 12496" cx="1.444" cy="1.444" r="1.444" transform="translate(3.257 25.774)" fill="#ebeef2"/>
          </g>
        </g>
        <g id="Group_1205645" data-name="Group 1205645">
          <path id="Path_1271994" data-name="Path 1271994" d="M25.51,34.509a2.6,2.6,0,0,0-2.052-.483,2.6,2.6,0,0,0-2.926-2.153,2.633,2.633,0,0,0-.5.118,2.6,2.6,0,0,0-3.494-1.675,2.607,2.607,0,0,0-4.29-1.04l-2.734-.182,1.676-13.615,3,.2.051,0a.747.747,0,0,0,.665-.406l1.125-2.2a1.329,1.329,0,0,1,1.531-.672l1.671.462a.747.747,0,1,0,.4-1.44l-1.671-.462a2.829,2.829,0,0,0-3.259,1.43l-.9,1.758-2.431-.165.058-.468a2.735,2.735,0,0,0-2.377-3.045L3.3,9.773a.747.747,0,0,0-.183,1.483l5.756.709a1.238,1.238,0,0,1,1.077,1.38L7.974,29.4a1.24,1.24,0,0,1-1.38,1.077L.838,29.77a.747.747,0,1,0-.183,1.483l5.756.709a2.729,2.729,0,0,0,2.727-1.395l2.046.136A2.606,2.606,0,0,0,13.5,34.5a2.657,2.657,0,0,0,.362-.025l.023,0c0,.008,0,.015,0,.023a2.6,2.6,0,0,0,2.578,2.248,2.628,2.628,0,0,0,.384-.029,2.6,2.6,0,0,0,2.58,2.273,2.626,2.626,0,0,0,.382-.029c0,.008,0,.017,0,.025a2.607,2.607,0,0,0,2.576,2.25,2.654,2.654,0,0,0,.362-.025A2.589,2.589,0,0,0,24.469,40.2l1.545-2.04A2.608,2.608,0,0,0,25.51,34.509ZM13.654,33a1.112,1.112,0,0,1-1.038-1.772l.569-.751a1.112,1.112,0,0,1,1.772,1.342l-.569.751A1.1,1.1,0,0,1,13.654,33Zm2.14,2.029a1.111,1.111,0,0,1-.215-1.557l.569-.751h0l.5-.664a1.112,1.112,0,0,1,1.772,1.342l-1.072,1.415A1.113,1.113,0,0,1,15.794,35.024Zm2.963,2.244a1.112,1.112,0,0,1-.215-1.557h0L19.614,34.3h0L20,33.782a1.112,1.112,0,0,1,1.773,1.342l-1.461,1.929h0A1.113,1.113,0,0,1,18.757,37.268Zm6.066-.011L23.278,39.3a1.112,1.112,0,1,1-1.772-1.342l1.461-1.929h0l.084-.111a1.111,1.111,0,1,1,1.772,1.342Z"/>
          <path id="Path_1271995" data-name="Path 1271995" d="M50.994,30.42a.747.747,0,0,0-.833-.65l-5.756.709a1.239,1.239,0,0,1-1.38-1.077l-.059-.479h0l-.014-.111-1.9-15.467a1.238,1.238,0,0,1,1.077-1.38l5.756-.709A.747.747,0,1,0,47.7,9.773l-5.756.709a2.735,2.735,0,0,0-2.4,2.782l-1.452.179L33.6,10.913a3.567,3.567,0,0,0-2.087-.446h0l-1.353.125a.747.747,0,1,0,.138,1.488l1.357-.126a2.08,2.08,0,0,1,1.217.26l4.66,2.623a.747.747,0,0,0,.5.118l1.686-.207,1.237,10.045.428,3.474-2.689,0a.747.747,0,0,0-.488.182L38,28.613l-6.751-5.819a9.062,9.062,0,0,0,4.389-3.205.747.747,0,1,0-1.159-.943c-1.537,1.888-3.153,2.859-4.8,2.888a6.105,6.105,0,0,1-4.187-1.967.747.747,0,0,0-1.158.033l-2.007,2.612a3.887,3.887,0,0,1-4.482,1.276l-.214-.081a.5.5,0,0,1-.255-.717l5.238-9.015a2.092,2.092,0,0,1,1.614-1.03l3.1-.287a.747.747,0,1,0-.138-1.488l-3.1.287a3.589,3.589,0,0,0-2.768,1.768l-5.238,9.015A1.993,1.993,0,0,0,17.095,24.8l.214.081a5.443,5.443,0,0,0,1.926.354,5.373,5.373,0,0,0,4.27-2.117L25,21.173a7.378,7.378,0,0,0,4.21,1.841l9.756,8.409a.867.867,0,0,1,.091,1.222l-.38.441a1.329,1.329,0,0,1-1.871.137.747.747,0,0,0-.1-.07l-2.533-2.184A.747.747,0,0,0,33.2,32.1l2.058,1.775-.939,1.09a1.324,1.324,0,0,1-1.871.138l-.011-.009-2.353-2.029a.747.747,0,0,0-.976,1.132l1.8,1.551-.944,1.1A1.328,1.328,0,0,1,28.8,37.3a.747.747,0,1,0-.174,1.484A2.821,2.821,0,0,0,31.1,37.82l1.01-1.172a2.819,2.819,0,0,0,3.347-.707l1.011-1.174a2.827,2.827,0,0,0,3.346-.7l.381-.442a2.361,2.361,0,0,0-.247-3.329l-.613-.528,2.241,0a2.73,2.73,0,0,0,3.017,2.2l5.756-.709A.747.747,0,0,0,50.994,30.42Z"/>
          <path id="Path_1271996" data-name="Path 1271996" d="M46.219,25.027a2.191,2.191,0,1,0,2.191,2.191A2.194,2.194,0,0,0,46.219,25.027Zm0,2.888a.7.7,0,1,1,.7-.7A.7.7,0,0,1,46.219,27.915Z"/>
          <path id="Path_1271997" data-name="Path 1271997" d="M6.892,27.218A2.191,2.191,0,1,0,4.7,29.409,2.194,2.194,0,0,0,6.892,27.218ZM4,27.218a.7.7,0,1,1,.7.7A.7.7,0,0,1,4,27.218Z"/>
        </g>
      </g>
    </g>
  </g>
</svg>
