<svg xmlns="http://www.w3.org/2000/svg" xmlns:xlink="http://www.w3.org/1999/xlink" width="107.999" height="107.999" viewBox="0 0 107.999 107.999">
  <defs>
    <filter id="Rectangle_411831" x="0" y="0" width="107.999" height="107.999" filterUnits="userSpaceOnUse">
      <feOffset dy="3" input="SourceAlpha"/>
      <feGaussianBlur stdDeviation="3" result="blur"/>
      <feFlood flood-opacity="0.161"/>
      <feComposite operator="in" in2="blur"/>
      <feComposite in="SourceGraphic"/>
    </filter>
    <clipPath id="clip-path">
      <rect id="Rectangle_425353" data-name="Rectangle 425353" width="51" height="54" transform="translate(-1598 -9837)" fill="#fff" stroke="#707070" stroke-width="1" opacity="0"/>
    </clipPath>
  </defs>
  <g id="Group_1205629" data-name="Group 1205629" transform="translate(1626.416 9861.287)">
    <g id="Group_1205618" data-name="Group 1205618" transform="translate(5109.854 822.713)">
      <g id="Group_1203888" data-name="Group 1203888" transform="translate(-6727.271 -10678)">
        <g id="Group_1203409" data-name="Group 1203409" transform="translate(0.001)">
          <g transform="matrix(1, 0, 0, 1, -9, -6)" filter="url(#Rectangle_411831)">
            <g id="Rectangle_411831-2" data-name="Rectangle 411831" transform="translate(9 6)" fill="#d9aef1" stroke="#fff" stroke-width="2">
              <path d="M5,0H58A32,32,0,0,1,90,32V85a5,5,0,0,1-5,5H32A32,32,0,0,1,0,58V5A5,5,0,0,1,5,0Z" stroke="none"/>
              <path d="M5,1H58A31,31,0,0,1,89,32V85a4,4,0,0,1-4,4H32A31,31,0,0,1,1,58V5A4,4,0,0,1,5,1Z" fill="none"/>
            </g>
          </g>
        </g>
        <path id="Path_1260076" data-name="Path 1260076" d="M16.614.687H.856V7.046h11.25L.856,18.219,5.4,22.735,16.614,11.6V22.735h6.441V.687Z" transform="translate(-0.856 67.265)" fill="#1f1321" fill-rule="evenodd"/>
        <path id="Path_1260092" data-name="Path 1260092" d="M5.755,17.459H17.742V12.622H9.184l8.558-8.5L14.284.687,5.755,9.157V.687H.856V17.459Z" transform="translate(72.258 -0.686)" fill="#1f1321" fill-rule="evenodd"/>
      </g>
    </g>
    <g id="Mask_Group_1107929" data-name="Mask Group 1107929" clip-path="url(#clip-path)">
      <g id="interaccion-positiva" transform="translate(-1598.101 -9835.601)">
        <g id="Group_1205651" data-name="Group 1205651">
          <g id="Group_1205646" data-name="Group 1205646">
            <path id="Path_1271998" data-name="Path 1271998" d="M31.547,49.6a9.4,9.4,0,0,1,18.752,0,.653.653,0,0,1-.654.7H32.2a.653.653,0,0,1-.654-.7Z" fill="#72d561" fill-rule="evenodd"/>
            <path id="Path_1271999" data-name="Path 1271999" d="M39.874,40.958A9.4,9.4,0,0,1,50.3,49.6a.653.653,0,0,1-.654.7h-2.1a.653.653,0,0,0,.654-.7A9.44,9.44,0,0,0,39.874,40.958Z" fill="#57ca5a" fill-rule="evenodd"/>
            <circle id="Ellipse_12497" data-name="Ellipse 12497" cx="5.083" cy="5.083" r="5.083" transform="translate(35.745 30.356) rotate(-1.088)" fill="#ffd6bd"/>
            <path id="Path_1272000" data-name="Path 1272000" d="M37.07,38.639a5.082,5.082,0,1,0,6.582-7.6,5.082,5.082,0,0,1-6.582,7.6Z" fill="#f9c6aa" fill-rule="evenodd"/>
          </g>
          <g id="Group_1205647" data-name="Group 1205647">
            <path id="Path_1272001" data-name="Path 1272001" d="M4.455,36.306H3.4a.427.427,0,0,1-.339-.689l3.185-4.122a.427.427,0,0,1,.677,0l3.185,4.122a.427.427,0,0,1-.339.689H8.808c1.168,7.247,7.858,9.1,12.962,9.331C14.488,48.935,5.4,44.15,4.455,36.306Z" fill="#72d561" fill-rule="evenodd"/>
            <path id="Path_1272002" data-name="Path 1272002" d="M6.1,31.679l.142-.184a.427.427,0,0,1,.677,0l3.185,4.122a.427.427,0,0,1-.339.689H7.846c1.168,7.247,7.858,9.1,12.962,9.331a11.894,11.894,0,0,1-4.457,1.046,11.968,11.968,0,0,0,5.419-1.046c-5.1-.23-11.794-2.084-12.962-9.331a.427.427,0,0,0,.339-.689Z" fill="#57ca5a" fill-rule="evenodd"/>
          </g>
          <g id="Group_1205648" data-name="Group 1205648">
            <path id="Path_1272003" data-name="Path 1272003" d="M42.63,17.134h1.055a.427.427,0,0,1,.339.689l-3.185,4.122a.427.427,0,0,1-.677,0l-3.185-4.122a.427.427,0,0,1,.339-.689h.962c-1.169-7.247-7.858-9.1-12.962-9.331C32.6,4.5,41.681,9.29,42.63,17.134Z" fill="#ffda2d" fill-rule="evenodd"/>
            <path id="Path_1272004" data-name="Path 1272004" d="M40.98,21.761l-.142.184a.427.427,0,0,1-.677,0l-3.185-4.122a.427.427,0,0,1,.339-.689h1.924C38.07,9.887,31.38,8.032,26.276,7.8a11.894,11.894,0,0,1,4.457-1.046A11.968,11.968,0,0,0,25.314,7.8c5.1.23,11.794,2.084,12.962,9.331a.427.427,0,0,0-.339.689Z" fill="#ffc700" fill-rule="evenodd"/>
          </g>
          <g id="Group_1205649" data-name="Group 1205649">
            <path id="Path_1272005" data-name="Path 1272005" d="M.9,20.252a9.4,9.4,0,0,1,18.752,0,.653.653,0,0,1-.654.7H1.556a.653.653,0,0,1-.654-.7Z" fill="#ffda2d" fill-rule="evenodd"/>
            <path id="Path_1272006" data-name="Path 1272006" d="M9.229,11.614a9.4,9.4,0,0,1,10.425,8.638.653.653,0,0,1-.654.7H16.9a.653.653,0,0,0,.654-.7,9.441,9.441,0,0,0-8.327-8.638Z" fill="#ffc700" fill-rule="evenodd"/>
            <circle id="Ellipse_12498" data-name="Ellipse 12498" cx="5.082" cy="5.082" r="5.082" transform="translate(5.197 0.9)" fill="#ffd6bd"/>
            <path id="Path_1272007" data-name="Path 1272007" d="M6.425,9.295a5.082,5.082,0,1,0,6.582-7.6,5.082,5.082,0,0,1-6.582,7.6Z" fill="#f9c6aa" fill-rule="evenodd"/>
          </g>
          <g id="Group_1205650" data-name="Group 1205650">
            <path id="Path_1272008" data-name="Path 1272008" d="M18.571,27.166l-.45,8.85,3.256,1.709h9.186a1.7,1.7,0,0,0,0-3.393h.851a1.7,1.7,0,0,0,0-3.4h.851a1.7,1.7,0,0,0,0-3.4h.851a1.7,1.7,0,0,0,0-3.4l-6.058.031c.646-2.515,1.693-5.843,1.791-6.9.227-2.448-1.8-4.182-2.957-2.257Z" fill="#ffd6bd" fill-rule="evenodd"/>
            <path id="Path_1272009" data-name="Path 1272009" d="M18.177,34.9l-.057,1.115,3.256,1.709h9.186a1.7,1.7,0,0,0,1.6-2.269,1.7,1.7,0,0,1-1.6,1.124H21.376Zm10.67-17.652c.191-2.06-1.214-3.613-2.353-2.908a3.044,3.044,0,0,1,1.164,2.908c-.1,1.061-1.145,4.389-1.791,6.9l1.19-.006c.646-2.514,1.691-5.837,1.79-6.9Zm2.565,17.083a1.7,1.7,0,0,0,1.6-2.274,1.7,1.7,0,0,1-1.6,1.129H27.374a.572.572,0,1,0,0,1.145Zm.851-3.4a1.7,1.7,0,0,0,1.6-2.274,1.7,1.7,0,0,1-1.6,1.129H28.224a.572.572,0,0,0,0,1.145h4.039Zm.851-3.4a1.706,1.706,0,0,0,1.6-2.274h0a1.7,1.7,0,0,1-1.6,1.129H29.075a.572.572,0,0,0,0,1.145Z" fill="#f9c6aa" fill-rule="evenodd"/>
            <path id="Path_1272010" data-name="Path 1272010" d="M16.219,37.726h2.4a.582.582,0,0,0,.58-.58V25.285a.582.582,0,0,0-.58-.58h-2.4a.582.582,0,0,0-.58.58V37.146A.582.582,0,0,0,16.219,37.726Z" fill="#64b5f6" fill-rule="evenodd"/>
            <path id="Path_1272011" data-name="Path 1272011" d="M18.206,37.726h.411a.582.582,0,0,0,.58-.58V25.285a.582.582,0,0,0-.58-.58h-2.4a.582.582,0,0,0-.58.58v.367h1.987a.582.582,0,0,1,.58.58V37.726Z" fill="#42a5f5" fill-rule="evenodd"/>
          </g>
        </g>
        <path id="Path_1272012" data-name="Path 1272012" d="M1.714,20.157a8.6,8.6,0,0,1,17.13,0ZM6,5.982a4.282,4.282,0,1,1,4.282,4.282A4.287,4.287,0,0,1,6,5.982Zm14.072,15.31a1.464,1.464,0,0,0,.384-1.1,10.258,10.258,0,0,0-7.37-9.041,5.882,5.882,0,1,0-5.608,0A10.258,10.258,0,0,0,.1,20.193a1.453,1.453,0,0,0,1.452,1.564H19A1.461,1.461,0,0,0,20.069,21.293ZM36.2,9.124a10.828,10.828,0,0,1,5.634,8.107.8.8,0,0,0,.794.7h.3L40.5,21.076l-2.427-3.142h.2a.8.8,0,0,0,.79-.927,10.573,10.573,0,0,0-5.4-7.865,15.631,15.631,0,0,0-4.118-1.57A12.086,12.086,0,0,1,36.2,9.124ZM25.278,8.6c3.884.174,10.437,1.429,12.019,7.732a1.227,1.227,0,0,0-.954,1.978l3.185,4.122a1.228,1.228,0,0,0,1.943,0l3.186-4.122a1.228,1.228,0,0,0-.972-1.979h-.368a12.473,12.473,0,0,0-6.33-8.6,13.355,13.355,0,0,0-12-.656A.8.8,0,0,0,25.278,8.6Zm-14.4,35.715A10.827,10.827,0,0,1,5.25,36.21a.8.8,0,0,0-.794-.7h-.3l2.427-3.141,2.427,3.141h-.2a.8.8,0,0,0-.79.928,10.576,10.576,0,0,0,5.4,7.865,15.6,15.6,0,0,0,4.117,1.57,12.1,12.1,0,0,1-6.653-1.552Zm10.924.521c-3.884-.174-10.437-1.43-12.018-7.732a1.227,1.227,0,0,0,.954-1.979L7.557,31.006a1.226,1.226,0,0,0-1.943,0L2.429,35.128A1.227,1.227,0,0,0,3.4,37.106h.368a12.48,12.48,0,0,0,6.33,8.6,13.748,13.748,0,0,0,6.728,1.779A12.786,12.786,0,0,0,22.1,46.366a.8.8,0,0,0-.294-1.528ZM32.358,49.5a8.6,8.6,0,0,1,17.129,0Zm4.283-14.176a4.282,4.282,0,1,1,4.282,4.282A4.287,4.287,0,0,1,36.642,35.326ZM51.1,49.536a10.247,10.247,0,0,0-7.368-9.04,5.882,5.882,0,1,0-5.608,0,10.255,10.255,0,0,0-7.37,9.04A1.454,1.454,0,0,0,32.2,51.1H49.648A1.451,1.451,0,0,0,51.1,49.536ZM16.62,35.621a.8.8,0,0,0,1.6,0v-1.2a.8.8,0,0,0-1.6,0Zm14.794-2.089H27.376a.8.8,0,0,0,0,1.6h3.188a.9.9,0,0,1,0,1.794H21.576L20,36.1v-9.75L26.577,15.4c.206-.342.408-.483.6-.419a2.146,2.146,0,0,1,.873,2.189,37.194,37.194,0,0,1-.982,3.9c-.273.97-.555,1.974-.789,2.88a.8.8,0,0,0,.775,1h0l6.054-.03a.9.9,0,0,1,0,1.8H29.077a.8.8,0,1,0,0,1.6h3.188a.9.9,0,0,1,0,1.8H28.226a.8.8,0,0,0,0,1.6h3.188a.9.9,0,0,1,0,1.8ZM18.4,36.926V25.5H16.441V36.926Zm14.662-.9a2.48,2.48,0,0,0-.344-1.264,2.5,2.5,0,0,0,.85-3.4,2.505,2.505,0,0,0,.85-3.4,2.5,2.5,0,0,0-1.3-4.636l-5.013.025c.164-.6.34-1.229.512-1.841a34.156,34.156,0,0,0,1.035-4.184c.165-1.777-.68-3.435-1.966-3.857a2.078,2.078,0,0,0-2.474,1.115l-5.769,9.6a1.366,1.366,0,0,0-.818-.272h-2.4a1.381,1.381,0,0,0-1.38,1.38V37.146a1.381,1.381,0,0,0,1.38,1.38h2.4a1.381,1.381,0,0,0,1.206-.712l1.181.62a.807.807,0,0,0,.372.092h9.186a2.5,2.5,0,0,0,2.5-2.5Z" fill-rule="evenodd"/>
      </g>
    </g>
  </g>
</svg>
