<svg xmlns="http://www.w3.org/2000/svg" xmlns:xlink="http://www.w3.org/1999/xlink" width="107.999" height="107.999" viewBox="0 0 107.999 107.999">
  <defs>
    <filter id="Rectangle_411831" x="0" y="0" width="107.999" height="107.999" filterUnits="userSpaceOnUse">
      <feOffset dy="3" input="SourceAlpha"/>
      <feGaussianBlur stdDeviation="3" result="blur"/>
      <feFlood flood-opacity="0.161"/>
      <feComposite operator="in" in2="blur"/>
      <feComposite in="SourceGraphic"/>
    </filter>
    <clipPath id="clip-path">
      <rect id="Rectangle_424839" data-name="Rectangle 424839" width="50.999" height="57.999" transform="translate(-6708 -10662)" fill="#fff" stroke="#707070" stroke-width="1" opacity="0"/>
    </clipPath>
  </defs>
  <g id="Group_1203898" data-name="Group 1203898" transform="translate(6736.27 10684)">
    <g id="Group_1203888" data-name="Group 1203888" transform="translate(-6727.271 -10678)">
      <g id="Group_1203409" data-name="Group 1203409" transform="translate(0.001)">
        <g transform="matrix(1, 0, 0, 1, -9, -6)" filter="url(#Rectangle_411831)">
          <g id="Rectangle_411831-2" data-name="Rectangle 411831" transform="translate(9 6)" fill="#d9aef1" stroke="#fff" stroke-width="2">
            <path d="M5,0H58A32,32,0,0,1,90,32V85a5,5,0,0,1-5,5H32A32,32,0,0,1,0,58V5A5,5,0,0,1,5,0Z" stroke="none"/>
            <path d="M5,1H58A31,31,0,0,1,89,32V85a4,4,0,0,1-4,4H32A31,31,0,0,1,1,58V5A4,4,0,0,1,5,1Z" fill="none"/>
          </g>
        </g>
      </g>
      <path id="Path_1260076" data-name="Path 1260076" d="M16.614.687H.856V7.046h11.25L.856,18.219,5.4,22.735,16.614,11.6V22.735h6.441V.687Z" transform="translate(-0.856 67.265)" fill="#1f1321" fill-rule="evenodd"/>
      <path id="Path_1260092" data-name="Path 1260092" d="M5.755,17.459H17.742V12.622H9.184l8.558-8.5L14.284.687,5.755,9.157V.687H.856V17.459Z" transform="translate(72.258 -0.686)" fill="#1f1321" fill-rule="evenodd"/>
    </g>
    <g id="Mask_Group_1107881" data-name="Mask Group 1107881" clip-path="url(#clip-path)">
      <g id="falsificacion" transform="translate(-6708.405 -10658.904)">
        <g id="Group_1205289" data-name="Group 1205289">
          <g id="Group_1205288" data-name="Group 1205288">
            <path id="Path_1270358" data-name="Path 1270358" d="M12.924,35.872,4.91,33.725l-3.9,14.547,5-2.618,3.018,4.766Z" fill="#fd7a6e" fill-rule="evenodd"/>
            <path id="Path_1270359" data-name="Path 1270359" d="M8.917,34.8,4.91,33.725l-3.9,14.547,5-2.618Z" fill="#fb695b" fill-rule="evenodd"/>
            <path id="Path_1270360" data-name="Path 1270360" d="M12.924,35.872l8.014-2.147,3.9,14.547-5-2.618-3.018,4.766Z" fill="#fd7a6e" fill-rule="evenodd"/>
            <path id="Path_1270361" data-name="Path 1270361" d="M16.93,34.8l4.007-1.074,3.9,14.547-5-2.618Z" fill="#fd7a6e" fill-rule="evenodd"/>
            <path id="Path_1270362" data-name="Path 1270362" d="M38.885,35.872l-8.014-2.147-3.9,14.547,5-2.618,3.018,4.766Z" fill="#fd7a6e" fill-rule="evenodd"/>
            <path id="Path_1270363" data-name="Path 1270363" d="M34.878,34.8l-4.007-1.074-3.9,14.547,5-2.618Z" fill="#fb695b" fill-rule="evenodd"/>
            <path id="Path_1270364" data-name="Path 1270364" d="M38.885,35.872,46.9,33.725l3.9,14.547-5-2.618-3.018,4.766Z" fill="#fb695b" fill-rule="evenodd"/>
            <path id="Path_1270365" data-name="Path 1270365" d="M42.892,34.8,46.9,33.725l3.9,14.547-5-2.618h0Z" fill="#fd7a6e" fill-rule="evenodd"/>
            <path id="Path_1270366" data-name="Path 1270366" d="M15.759,13.1l4.828,2.787v-1.6H36.049V11.915H20.587v-1.6Z" fill="#83deff" fill-rule="evenodd"/>
            <path id="Path_1270367" data-name="Path 1270367" d="M36.049,6.729,31.221,3.942v1.6H15.759V7.917H31.221v1.6Z" fill="#ffe54e" fill-rule="evenodd"/>
          </g>
          <path id="Path_1270368" data-name="Path 1270368" d="M17.4,8.729h17.02v2.377H17.4Z" transform="translate(9.621 32.371) rotate(-74.991)" fill="#fd7a6e"/>
          <path id="Path_1270369" data-name="Path 1270369" d="M10.96,17.062a3.1,3.1,0,0,1,3.559,0,2.858,2.858,0,0,0,1.965.526,3.1,3.1,0,0,1,3.082,1.779A2.858,2.858,0,0,0,21,20.806a3.1,3.1,0,0,1,1.779,3.082,2.858,2.858,0,0,0,.526,1.965,3.1,3.1,0,0,1,0,3.559,2.858,2.858,0,0,0-.526,1.965A3.1,3.1,0,0,1,21,34.458,2.858,2.858,0,0,0,19.565,35.9a3.1,3.1,0,0,1-3.082,1.779,2.858,2.858,0,0,0-1.965.526,3.1,3.1,0,0,1-3.559,0,2.858,2.858,0,0,0-1.965-.526A3.1,3.1,0,0,1,5.913,35.9a2.858,2.858,0,0,0-1.438-1.438A3.1,3.1,0,0,1,2.7,31.376a2.858,2.858,0,0,0-.526-1.965,3.1,3.1,0,0,1,0-3.559A2.858,2.858,0,0,0,2.7,23.887a3.1,3.1,0,0,1,1.779-3.082,2.858,2.858,0,0,0,1.438-1.438,3.1,3.1,0,0,1,3.082-1.779,2.858,2.858,0,0,0,1.965-.526Z" fill="#fad51b" fill-rule="evenodd"/>
          <path id="Path_1270370" data-name="Path 1270370" d="M14.721,17.193a2.841,2.841,0,0,0,1.762.395,3.1,3.1,0,0,1,3.082,1.779A2.858,2.858,0,0,0,21,20.806a3.1,3.1,0,0,1,1.779,3.082,2.858,2.858,0,0,0,.526,1.965,3.1,3.1,0,0,1,0,3.558,2.858,2.858,0,0,0-.526,1.965A3.1,3.1,0,0,1,21,34.457,2.858,2.858,0,0,0,19.565,35.9a3.1,3.1,0,0,1-3.082,1.779,2.842,2.842,0,0,0-1.762.395,2.932,2.932,0,0,1-2.236-.475,2.694,2.694,0,0,0-1.852-.5,2.926,2.926,0,0,1-2.905-1.677,2.694,2.694,0,0,0-1.356-1.356,2.926,2.926,0,0,1-1.677-2.9,2.694,2.694,0,0,0-.5-1.852,2.926,2.926,0,0,1,0-3.354,2.694,2.694,0,0,0,.5-1.852A2.926,2.926,0,0,1,6.372,21.2a2.694,2.694,0,0,0,1.356-1.356,2.926,2.926,0,0,1,2.905-1.677,2.694,2.694,0,0,0,1.852-.5,2.932,2.932,0,0,1,2.236-.475Z" fill="#ffe54e" fill-rule="evenodd"/>
          <circle id="Ellipse_12413" data-name="Ellipse 12413" cx="5.573" cy="5.573" r="5.573" transform="translate(6.211 23.215) rotate(-10.894)" fill="#dbe2ec"/>
          <path id="Path_1270371" data-name="Path 1270371" d="M13.783,22.157a5.574,5.574,0,0,1,0,10.95,5.574,5.574,0,0,1,0-10.95Z" fill="#f3f5fb" fill-rule="evenodd"/>
          <path id="Path_1270372" data-name="Path 1270372" d="M36.921,17.062a3.1,3.1,0,0,1,3.559,0,2.858,2.858,0,0,0,1.965.526,3.1,3.1,0,0,1,3.082,1.779,2.858,2.858,0,0,0,1.438,1.438,3.1,3.1,0,0,1,1.779,3.082,2.858,2.858,0,0,0,.526,1.965,3.1,3.1,0,0,1,0,3.559,2.858,2.858,0,0,0-.526,1.965,3.1,3.1,0,0,1-1.779,3.082A2.858,2.858,0,0,0,45.526,35.9a3.1,3.1,0,0,1-3.082,1.779,2.858,2.858,0,0,0-1.965.526,3.1,3.1,0,0,1-3.559,0,2.858,2.858,0,0,0-1.965-.526A3.1,3.1,0,0,1,31.874,35.9a2.858,2.858,0,0,0-1.438-1.438,3.1,3.1,0,0,1-1.779-3.082,2.858,2.858,0,0,0-.526-1.965,3.1,3.1,0,0,1,0-3.559,2.858,2.858,0,0,0,.526-1.965,3.1,3.1,0,0,1,1.779-3.082,2.858,2.858,0,0,0,1.438-1.438,3.1,3.1,0,0,1,3.082-1.779,2.858,2.858,0,0,0,1.965-.526Z" fill="#57cffa" fill-rule="evenodd"/>
          <path id="Path_1270373" data-name="Path 1270373" d="M40.682,17.193a2.841,2.841,0,0,0,1.762.395,3.1,3.1,0,0,1,3.082,1.779,2.858,2.858,0,0,0,1.438,1.438,3.1,3.1,0,0,1,1.779,3.082,2.858,2.858,0,0,0,.526,1.965,3.1,3.1,0,0,1,0,3.558,2.858,2.858,0,0,0-.526,1.965,3.1,3.1,0,0,1-1.779,3.082A2.858,2.858,0,0,0,45.526,35.9a3.1,3.1,0,0,1-3.082,1.779,2.842,2.842,0,0,0-1.762.395,2.932,2.932,0,0,1-2.236-.475,2.694,2.694,0,0,0-1.852-.5,2.926,2.926,0,0,1-2.905-1.677,2.693,2.693,0,0,0-1.356-1.356,2.926,2.926,0,0,1-1.677-2.9,2.694,2.694,0,0,0-.5-1.852,2.926,2.926,0,0,1,0-3.354,2.694,2.694,0,0,0,.5-1.852A2.926,2.926,0,0,1,32.333,21.2a2.694,2.694,0,0,0,1.356-1.356,2.926,2.926,0,0,1,2.905-1.677,2.694,2.694,0,0,0,1.852-.5,2.932,2.932,0,0,1,2.236-.475Z" fill="#83deff" fill-rule="evenodd"/>
          <path id="Path_1270374" data-name="Path 1270374" d="M33.127,22.059H44.273V33.2H33.127Z" fill="#dbe2ec"/>
          <path id="Path_1270375" data-name="Path 1270375" d="M35.214,22.059h9.059V33.2H35.214Z" fill="#f3f5fb"/>
        </g>
        <path id="Path_1270376" data-name="Path 1270376" d="M23.347,12.522l-.312,1.162H20.588a.607.607,0,0,0-.607.607v.548L16.973,13.1l3.007-1.736v.547a.606.606,0,0,0,.607.607h2.76ZM27.388,2.133,23.3,17.4l1.123.3,4.09-15.267-1.123-.3ZM16.366,7.31V6.148h8.689L24.744,7.31ZM31.22,6.148a.607.607,0,0,0,.607-.607V4.994l3.007,1.735L31.827,8.466V7.917a.607.607,0,0,0-.607-.607h-2.76l.312-1.162H31.22Zm4.221,6.374v1.162H26.753l.312-1.162ZM20.891,9.79a.608.608,0,0,0-.607,0l-4.829,2.788a.607.607,0,0,0,0,1.051l4.829,2.788a.607.607,0,0,0,.911-.525V14.9h1.516l-.743,2.772a.607.607,0,0,0,.429.743l2.3.615a.589.589,0,0,0,.157.021.609.609,0,0,0,.3-.082.6.6,0,0,0,.282-.368l.992-3.7H36.05a.607.607,0,0,0,.607-.608V11.915a.607.607,0,0,0-.607-.607H27.39l.746-2.784h2.478v.993a.606.606,0,0,0,.911.525l4.828-2.787a.606.606,0,0,0,0-1.051L31.524,3.416a.607.607,0,0,0-.911.525v.993H29.1l.743-2.773a.606.606,0,0,0-.429-.743L27.116.8a.606.606,0,0,0-.743.429l-.992,3.7H15.76a.607.607,0,0,0-.607.607V7.917a.607.607,0,0,0,.607.607h8.659l-.746,2.784H21.2v-.992a.61.61,0,0,0-.3-.526ZM43.666,32.6H33.734V22.666h9.932Zm1.215.607V22.059a.606.606,0,0,0-.607-.607H33.127a.607.607,0,0,0-.607.607V33.205a.608.608,0,0,0,.607.607H44.273A.607.607,0,0,0,44.88,33.205Zm1.2,11.91a.608.608,0,0,0-.8.214l-2.277,3.6-2.657-9.917a3.651,3.651,0,0,0,.478-.284A2.258,2.258,0,0,1,42.4,38.3a3.718,3.718,0,0,0,3.692-2.131,2.285,2.285,0,0,1,.615-.817l3.145,11.737-3.769-1.976ZM38.7,38.179a2.491,2.491,0,0,1-1.435-.451,3.477,3.477,0,0,0-2.034-.651c-.111,0-.223,0-.337.015a2.5,2.5,0,0,1-2.485-1.435,3.47,3.47,0,0,0-1.459-1.592.543.543,0,0,0-.062-.033c-.071-.037-.14-.076-.214-.11a2.5,2.5,0,0,1-1.435-2.485,3.492,3.492,0,0,0-.636-2.371,2.506,2.506,0,0,1,0-2.869,3.5,3.5,0,0,0,.636-2.372,2.5,2.5,0,0,1,1.435-2.484A3.492,3.492,0,0,0,32.41,19.6a2.506,2.506,0,0,1,2.485-1.434,3.49,3.49,0,0,0,2.371-.635,2.5,2.5,0,0,1,2.87,0,3.489,3.489,0,0,0,2.371.635A2.5,2.5,0,0,1,44.99,19.6a3.5,3.5,0,0,0,1.736,1.737,2.5,2.5,0,0,1,1.434,2.484A3.5,3.5,0,0,0,48.8,26.2a2.5,2.5,0,0,1,0,2.869,3.492,3.492,0,0,0-.636,2.371,2.5,2.5,0,0,1-1.434,2.485,3.492,3.492,0,0,0-1.736,1.736,2.5,2.5,0,0,1-2.484,1.435,3.489,3.489,0,0,0-2.371.636,2.492,2.492,0,0,1-1.435.451ZM34.759,48.923l2.619-9.774a3.7,3.7,0,0,1-.809-.428A2.25,2.25,0,0,0,35,38.3a3.718,3.718,0,0,1-3.692-2.132,2.427,2.427,0,0,0-.325-.523L27.918,47.091l3.769-1.976a.607.607,0,0,1,.8.214Zm16.624-.809a.608.608,0,0,1-.869.695l-4.5-2.358L43.3,50.744a.608.608,0,0,1-.513.282.53.53,0,0,1-.091-.007.605.605,0,0,1-.495-.443L39.19,39.359a3.7,3.7,0,0,1-.489.034c-.044,0-.086,0-.13,0l-3,11.187a.607.607,0,0,1-.495.443.536.536,0,0,1-.092.007.609.609,0,0,1-.513-.282L31.756,46.45l-4.5,2.358a.607.607,0,0,1-.869-.695L29.926,34.9a3.717,3.717,0,0,1-1.9-3.572,2.251,2.251,0,0,0-.42-1.567,3.718,3.718,0,0,1,0-4.263,2.251,2.251,0,0,0,.42-1.567,3.714,3.714,0,0,1,2.132-3.692,2.252,2.252,0,0,0,1.146-1.147A3.721,3.721,0,0,1,35,16.961a2.25,2.25,0,0,0,1.567-.42,3.718,3.718,0,0,1,4.263,0,2.249,2.249,0,0,0,1.568.42,3.719,3.719,0,0,1,3.692,2.132,2.252,2.252,0,0,0,1.147,1.147,3.719,3.719,0,0,1,2.132,3.692,2.244,2.244,0,0,0,.42,1.567,3.718,3.718,0,0,1,0,4.263,2.251,2.251,0,0,0-.42,1.567A3.719,3.719,0,0,1,47.79,34.7l3.593,13.41ZM12.738,32.6A4.966,4.966,0,1,1,17.7,27.632,4.972,4.972,0,0,1,12.738,32.6Zm6.181-4.966a6.18,6.18,0,1,0-6.181,6.18A6.187,6.187,0,0,0,18.919,27.632Zm1.2,17.483a.607.607,0,0,0-.794.214l-2.277,3.6-2.657-9.917a3.731,3.731,0,0,0,.478-.284,2.253,2.253,0,0,1,1.568-.42,3.721,3.721,0,0,0,3.692-2.131,2.274,2.274,0,0,1,.615-.817L23.89,47.091l-3.77-1.976Zm-7.382-6.936a2.484,2.484,0,0,1-1.434-.451,3.479,3.479,0,0,0-2.034-.651c-.111,0-.223,0-.338.015a2.5,2.5,0,0,1-2.484-1.435A3.479,3.479,0,0,0,4.99,34.065a.557.557,0,0,0-.063-.033c-.07-.037-.14-.076-.214-.111a2.5,2.5,0,0,1-1.435-2.485,3.494,3.494,0,0,0-.635-2.371,2.5,2.5,0,0,1,0-2.869,3.5,3.5,0,0,0,.635-2.372,2.5,2.5,0,0,1,1.435-2.484,3.5,3.5,0,0,0,1.735-1.737,2.5,2.5,0,0,1,2.485-1.434,3.493,3.493,0,0,0,2.371-.635,2.5,2.5,0,0,1,2.869,0,3.492,3.492,0,0,0,2.371.635,2.507,2.507,0,0,1,2.485,1.434,3.5,3.5,0,0,0,1.735,1.737A2.5,2.5,0,0,1,22.2,23.826a3.5,3.5,0,0,0,.636,2.372,2.5,2.5,0,0,1,0,2.869,3.493,3.493,0,0,0-.636,2.371,2.5,2.5,0,0,1-1.435,2.485,3.493,3.493,0,0,0-1.735,1.736,2.5,2.5,0,0,1-2.485,1.435,3.493,3.493,0,0,0-2.371.636,2.488,2.488,0,0,1-1.435.451ZM8.8,48.924l2.619-9.774a3.672,3.672,0,0,1-.809-.428A2.252,2.252,0,0,0,9.04,38.3a3.718,3.718,0,0,1-3.692-2.131,2.46,2.46,0,0,0-.325-.524L1.957,47.091l3.769-1.976a.608.608,0,0,1,.8.214l2.277,3.6ZM21.828,34.7l3.593,13.41a.607.607,0,0,1-.868.695l-4.5-2.358-2.718,4.293a.609.609,0,0,1-.513.282.546.546,0,0,1-.092-.007.608.608,0,0,1-.495-.443L13.229,39.359a3.725,3.725,0,0,1-.491.034c-.042,0-.086,0-.128,0l-3,11.187a.605.605,0,0,1-.495.443.519.519,0,0,1-.091.007.608.608,0,0,1-.513-.282L5.794,46.451l-4.5,2.358a.607.607,0,0,1-.868-.695L3.965,34.9a3.719,3.719,0,0,1-1.9-3.572,2.243,2.243,0,0,0-.42-1.567,3.72,3.72,0,0,1,0-4.263,2.242,2.242,0,0,0,.42-1.567A3.718,3.718,0,0,1,4.2,20.241a2.253,2.253,0,0,0,1.148-1.147A3.721,3.721,0,0,1,9.04,16.961a2.25,2.25,0,0,0,1.568-.42,3.718,3.718,0,0,1,4.263,0,2.247,2.247,0,0,0,1.568.42,3.722,3.722,0,0,1,3.692,2.132,2.252,2.252,0,0,0,1.147,1.147,3.716,3.716,0,0,1,2.131,3.692,2.253,2.253,0,0,0,.42,1.567,3.717,3.717,0,0,1,0,4.263,2.254,2.254,0,0,0-.42,1.567A3.711,3.711,0,0,1,21.828,34.7Z" fill="#242222" fill-rule="evenodd"/>
      </g>
    </g>
  </g>
</svg>
