<svg xmlns="http://www.w3.org/2000/svg" xmlns:xlink="http://www.w3.org/1999/xlink" width="107.999" height="107.999" viewBox="0 0 107.999 107.999">
  <defs>
    <filter id="Rectangle_411831" x="0" y="0" width="107.999" height="107.999" filterUnits="userSpaceOnUse">
      <feOffset dy="3" input="SourceAlpha"/>
      <feGaussianBlur stdDeviation="3" result="blur"/>
      <feFlood flood-opacity="0.161"/>
      <feComposite operator="in" in2="blur"/>
      <feComposite in="SourceGraphic"/>
    </filter>
    <clipPath id="clip-path">
      <rect id="Rectangle_425353" data-name="Rectangle 425353" width="51" height="54" transform="translate(-1598 -9837)" fill="#fff" stroke="#707070" stroke-width="1" opacity="0"/>
    </clipPath>
  </defs>
  <g id="Group_1205627" data-name="Group 1205627" transform="translate(1626.416 9861.287)">
    <g id="Group_1205618" data-name="Group 1205618" transform="translate(5109.854 822.713)">
      <g id="Group_1203888" data-name="Group 1203888" transform="translate(-6727.271 -10678)">
        <g id="Group_1203409" data-name="Group 1203409" transform="translate(0.001)">
          <g transform="matrix(1, 0, 0, 1, -9, -6)" filter="url(#Rectangle_411831)">
            <g id="Rectangle_411831-2" data-name="Rectangle 411831" transform="translate(9 6)" fill="#d9aef1" stroke="#fff" stroke-width="2">
              <path d="M5,0H58A32,32,0,0,1,90,32V85a5,5,0,0,1-5,5H32A32,32,0,0,1,0,58V5A5,5,0,0,1,5,0Z" stroke="none"/>
              <path d="M5,1H58A31,31,0,0,1,89,32V85a4,4,0,0,1-4,4H32A31,31,0,0,1,1,58V5A4,4,0,0,1,5,1Z" fill="none"/>
            </g>
          </g>
        </g>
        <path id="Path_1260076" data-name="Path 1260076" d="M16.614.687H.856V7.046h11.25L.856,18.219,5.4,22.735,16.614,11.6V22.735h6.441V.687Z" transform="translate(-0.856 67.265)" fill="#1f1321" fill-rule="evenodd"/>
        <path id="Path_1260092" data-name="Path 1260092" d="M5.755,17.459H17.742V12.622H9.184l8.558-8.5L14.284.687,5.755,9.157V.687H.856V17.459Z" transform="translate(72.258 -0.686)" fill="#1f1321" fill-rule="evenodd"/>
      </g>
    </g>
    <g id="Mask_Group_1107926" data-name="Mask Group 1107926" clip-path="url(#clip-path)">
      <g id="_05-idea" data-name="05-idea" transform="translate(-1598 -9835.499)">
        <g id="Group_1205638" data-name="Group 1205638">
          <circle id="Ellipse_12493" data-name="Ellipse 12493" cx="2.391" cy="2.391" r="2.391" transform="translate(0.797 45.421)" fill="#6cf1ca"/>
          <circle id="Ellipse_12494" data-name="Ellipse 12494" cx="2.391" cy="2.391" r="2.391" transform="translate(8.765 42.233)" fill="#6cf1ca"/>
          <path id="Path_1271964" data-name="Path 1271964" d="M50.2,22.312a7.969,7.969,0,0,0-6.034-7.722,7.955,7.955,0,0,0-11.59-9.474,7.96,7.96,0,0,0-14.157,0A7.953,7.953,0,0,0,6.831,14.59,7.963,7.963,0,0,0,6.465,29.94,7.964,7.964,0,0,0,18.13,38.09a7.969,7.969,0,0,0,14.742,0A7.936,7.936,0,0,0,44.534,29.94,7.969,7.969,0,0,0,50.2,22.312Z" fill="#6cf1ca"/>
        </g>
        <path id="Path_1271965" data-name="Path 1271965" d="M31.8,19.587a6.307,6.307,0,1,0-11.923,2.859A11.679,11.679,0,0,1,21.3,27.757V28H29.7v-.273a11.517,11.517,0,0,1,1.406-5.259A6.244,6.244,0,0,0,31.8,19.587Z" fill="#ffe536"/>
        <path id="Path_1271966" data-name="Path 1271966" d="M22.346,34.3h6.306a3.153,3.153,0,1,1-6.306,0Z" fill="#ea4505"/>
        <path id="Path_1271967" data-name="Path 1271967" d="M29.7,28.79H21.3a.8.8,0,0,1-.8-.8v-.239a10.908,10.908,0,0,0-1.325-4.947A7.1,7.1,0,1,1,32.6,19.587a7,7,0,0,1-.784,3.238,10.734,10.734,0,0,0-1.318,4.9v.273A.8.8,0,0,1,29.7,28.79ZM22.077,27.2H28.92A12.611,12.611,0,0,1,30.4,22.1a5.411,5.411,0,0,0,.607-2.508,5.492,5.492,0,0,0-2.035-4.276A5.564,5.564,0,0,0,24.309,14.2a5.5,5.5,0,0,0-3.717,7.881A12.816,12.816,0,0,1,22.077,27.2Z"/>
        <path id="Path_1271968" data-name="Path 1271968" d="M29.7,31.943H21.3a.8.8,0,0,1,0-1.594H29.7a.8.8,0,1,1,0,1.594Z"/>
        <path id="Path_1271969" data-name="Path 1271969" d="M25.5,38.249A3.955,3.955,0,0,1,21.55,34.3a.8.8,0,0,1,.8-.8h6.3a.8.8,0,0,1,.8.8,3.955,3.955,0,0,1-3.949,3.95ZM23.282,35.1a2.355,2.355,0,0,0,4.434,0Z"/>
        <path id="Path_1271970" data-name="Path 1271970" d="M25.5,43.827a8.735,8.735,0,0,1-7.75-4.672A8.765,8.765,0,0,1,5.578,31.077c0-.191.008-.386.024-.592a8.759,8.759,0,0,1,.239-16.429,8.643,8.643,0,0,1-.263-2.1,8.752,8.752,0,0,1,12.538-7.9,8.756,8.756,0,0,1,14.766,0A8.749,8.749,0,0,1,45.159,14.056,8.759,8.759,0,0,1,45.4,30.485c.016.206.024.4.024.592a8.765,8.765,0,0,1-12.173,8.078,8.735,8.735,0,0,1-7.75,4.672ZM18.13,37.293a.8.8,0,0,1,.737.493,7.172,7.172,0,0,0,13.264,0,.8.8,0,0,1,1.116-.4,7.136,7.136,0,0,0,10.5-7.336.8.8,0,0,1,.558-.877,7.166,7.166,0,0,0-.329-13.814.8.8,0,0,1-.558-1.036A7.158,7.158,0,0,0,32.99,5.8a.8.8,0,0,1-1.116-.319,7.162,7.162,0,0,0-12.74,0,.8.8,0,0,1-1.116.319A7.157,7.157,0,0,0,7.589,14.326a.8.8,0,0,1-.558,1.036,7.166,7.166,0,0,0-.338,13.815.8.8,0,0,1,.558.877,7.165,7.165,0,0,0,10.5,7.335A.8.8,0,0,1,18.13,37.293Z"/>
        <path id="Path_1271971" data-name="Path 1271971" d="M3.187,51a3.187,3.187,0,1,1,3.187-3.187A3.187,3.187,0,0,1,3.187,51Zm0-4.781a1.594,1.594,0,1,0,1.594,1.594A1.594,1.594,0,0,0,3.187,46.217Z"/>
        <path id="Path_1271972" data-name="Path 1271972" d="M11.156,47.811a3.187,3.187,0,1,1,3.187-3.187A3.187,3.187,0,0,1,11.156,47.811Zm0-4.781a1.594,1.594,0,1,0,1.594,1.594A1.594,1.594,0,0,0,11.156,43.03Z"/>
        <path id="Path_1271973" data-name="Path 1271973" d="M22.347,19.332a.8.8,0,0,1-.8-.8,2.9,2.9,0,0,1,2.9-2.9.8.8,0,0,1,0,1.594,1.306,1.306,0,0,0-1.305,1.305A.8.8,0,0,1,22.347,19.332Z"/>
        <path id="Path_1271974" data-name="Path 1271974" d="M37.585,20.121H35a.8.8,0,0,1,0-1.594h2.59a.8.8,0,0,1,0,1.594Z"/>
        <path id="Path_1271975" data-name="Path 1271975" d="M16,20.121h-2.59a.8.8,0,1,1,0-1.594H16a.8.8,0,0,1,0,1.594Z"/>
        <path id="Path_1271976" data-name="Path 1271976" d="M36.342,27.942a.8.8,0,0,1-.563-.233l-1.833-1.833a.8.8,0,1,1,1.127-1.127l1.833,1.833a.8.8,0,0,1-.563,1.36Z"/>
        <path id="Path_1271977" data-name="Path 1271977" d="M14.657,27.942a.8.8,0,0,1-.563-1.36l1.833-1.833a.8.8,0,1,1,1.127,1.128L15.22,27.711a.8.8,0,0,1-.563.232Z"/>
        <path id="Path_1271978" data-name="Path 1271978" d="M33.648,14.13a.8.8,0,0,1-.563-1.36l1.833-1.833a.8.8,0,1,1,1.127,1.127L34.211,13.9a.8.8,0,0,1-.563.233Z"/>
        <path id="Path_1271979" data-name="Path 1271979" d="M17.351,14.13a.8.8,0,0,1-.563-.233l-1.833-1.833a.8.8,0,1,1,1.127-1.127l1.833,1.833a.8.8,0,0,1-.563,1.36Z"/>
        <path id="Path_1271980" data-name="Path 1271980" d="M25.5,9.761a.8.8,0,0,1-.8-.8V6.375a.8.8,0,0,1,1.594,0v2.59A.8.8,0,0,1,25.5,9.761Z"/>
      </g>
    </g>
  </g>
</svg>
