<svg xmlns="http://www.w3.org/2000/svg" xmlns:xlink="http://www.w3.org/1999/xlink" width="107.999" height="108" viewBox="0 0 107.999 108">
  <defs>
    <filter id="Rectangle_411831" x="0" y="0" width="107.999" height="108" filterUnits="userSpaceOnUse">
      <feOffset dy="3" input="SourceAlpha"/>
      <feGaussianBlur stdDeviation="3" result="blur"/>
      <feFlood flood-opacity="0.161"/>
      <feComposite operator="in" in2="blur"/>
      <feComposite in="SourceGraphic"/>
    </filter>
    <clipPath id="clip-path">
      <rect id="Rectangle_425301" data-name="Rectangle 425301" width="54" height="62" transform="translate(-6744 -6575)" fill="#fff" stroke="#707070" stroke-width="1" opacity="0"/>
    </clipPath>
    <clipPath id="clip-path-2">
      <path id="path621" d="M0-54H54V0H0Z"/>
    </clipPath>
  </defs>
  <g id="Group_1205361" data-name="Group 1205361" transform="translate(6770.961 6595.266)">
    <g id="Group_1205301" data-name="Group 1205301" transform="translate(-7562.742 -8551.266)">
      <g id="Group_1203409" data-name="Group 1203409" transform="translate(800.781 1962)">
        <g transform="matrix(1, 0, 0, 1, -9, -6)" filter="url(#Rectangle_411831)">
          <g id="Rectangle_411831-2" data-name="Rectangle 411831" transform="translate(9 6)" fill="#8fe8d5" stroke="#fff" stroke-width="2">
            <path d="M5,0H58A32,32,0,0,1,90,32V85a5,5,0,0,1-5,5H32A32,32,0,0,1,0,58V5A5,5,0,0,1,5,0Z" stroke="none"/>
            <path d="M5,1H58A31,31,0,0,1,89,32V85a4,4,0,0,1-4,4H32A31,31,0,0,1,1,58V5A4,4,0,0,1,5,1Z" fill="none"/>
          </g>
        </g>
      </g>
      <path id="Path_1260076" data-name="Path 1260076" d="M15.052.687H.856V6.415H10.991L.856,16.481l4.1,4.068,10.1-10.031V20.549h5.8V.687Z" transform="translate(799.924 2031.451)" fill="#1f1321" fill-rule="evenodd"/>
      <path id="Path_1260092" data-name="Path 1260092" d="M5.27,15.8h10.8V11.438H8.359l7.709-7.657L12.953.687,5.27,8.318V.687H.856V15.8Z" transform="translate(874.712 1961.314)" fill="#1f1321" fill-rule="evenodd"/>
    </g>
    <g id="Mask_Group_1107893" data-name="Mask Group 1107893" clip-path="url(#clip-path)">
      <g id="g615" transform="translate(-6744 -6517)">
        <g id="g617">
          <g id="g619" clip-path="url(#clip-path-2)">
            <g id="g625" transform="translate(53.209 -50.045)">
              <path id="path627" d="M0,0V46.09a3.164,3.164,0,0,1-3.164,3.164h-46.09a3.164,3.164,0,0,1-3.164-3.164V0a3.164,3.164,0,0,1,3.164-3.164h46.09A3.164,3.164,0,0,1,0,0" fill="#38bdce"/>
            </g>
            <g id="g629" transform="translate(7.366 -0.791)">
              <path id="path631" d="M0,0H-3.411A3.164,3.164,0,0,1-6.575-3.164v-46.09a3.164,3.164,0,0,1,3.164-3.164H0a3.164,3.164,0,0,0-3.164,3.164v46.09A3.164,3.164,0,0,0,0,0" fill="#55ced9"/>
            </g>
            <g id="g633" transform="translate(53.209 -50.045)">
              <path id="path635" d="M0,0V46.09a3.164,3.164,0,0,1-3.164,3.164H-23.541c15.621-18,17.4-43.1,17.489-52.418h2.888A3.164,3.164,0,0,1,0,0" fill="#06a9bf"/>
            </g>
            <g id="g637" transform="translate(0.791 -14.666)">
              <path id="path639" d="M0,0V10.711a3.164,3.164,0,0,0,3.164,3.164h46.09a3.164,3.164,0,0,0,3.164-3.164v-46.09a3.164,3.164,0,0,0-3.164-3.164H3.164A3.164,3.164,0,0,0,0-35.378V-3.641" fill="none" stroke="#000" stroke-linecap="round" stroke-linejoin="round" stroke-miterlimit="10" stroke-width="1.582"/>
            </g>
            <g id="g641" transform="translate(40.678 -31.011)">
              <path id="path643" d="M0,0C0,9.966-8.08,17.89-11.82,21.024a2.892,2.892,0,0,1-3.717,0C-19.277,17.89-27.357,9.966-27.357,0A13.678,13.678,0,0,1-13.678-13.678,13.678,13.678,0,0,1,0,0" fill="#deefff"/>
            </g>
            <g id="g645" transform="translate(34.798 -42.249)">
              <path id="path647" d="M0,0A13.615,13.615,0,0,0-7.8-2.44,13.678,13.678,0,0,0-21.476,11.238c0,9.966,8.08,17.89,11.82,21.024a2.892,2.892,0,0,0,3.717,0A42.513,42.513,0,0,0-.265,26.5" fill="none" stroke="#000" stroke-linecap="round" stroke-linejoin="round" stroke-miterlimit="10" stroke-width="1.582"/>
            </g>
            <g id="g649" transform="translate(36.698 -18.729)">
              <path id="path651" d="M0,0A22.8,22.8,0,0,0,3.98-12.282a13.623,13.623,0,0,0-3.19-8.779" fill="none" stroke="#000" stroke-linecap="round" stroke-linejoin="round" stroke-miterlimit="10" stroke-width="1.582"/>
            </g>
            <g id="g653" transform="translate(27 -22.335)">
              <path id="path655" d="M0,0A9.568,9.568,0,0,1-9.557-9.557,9.568,9.568,0,0,1,0-19.114,9.568,9.568,0,0,1,9.557-9.557,9.568,9.568,0,0,1,0,0" fill="#b8daef"/>
            </g>
            <g id="g657" transform="translate(35.108 -31.892)">
              <path id="path659" d="M0,0A8.108,8.108,0,0,1-8.108,8.108,8.108,8.108,0,0,1-16.215,0,8.108,8.108,0,0,1-8.108-8.108,8.108,8.108,0,0,1,0,0" fill="#f75820"/>
            </g>
            <g id="g661" transform="translate(35.108 -31.892)">
              <path id="path663" d="M0,0A8.108,8.108,0,0,1-8.108,8.108,8.108,8.108,0,0,1-16.215,0,8.108,8.108,0,0,1-8.108-8.108,8.108,8.108,0,0,1,0,0Z" fill="none" stroke="#000" stroke-linecap="round" stroke-linejoin="round" stroke-miterlimit="10" stroke-width="1.582"/>
            </g>
            <g id="g665" transform="translate(27.99 -33.91)">
              <path id="path667" d="M0,0A2.361,2.361,0,0,1-2.361,2.361,2.361,2.361,0,0,1-4.722,0,2.361,2.361,0,0,1-2.361-2.361,2.361,2.361,0,0,1,0,0" fill="#deefff"/>
            </g>
            <g id="g669" transform="translate(27.99 -33.91)">
              <path id="path671" d="M0,0A2.361,2.361,0,0,1-2.361,2.361,2.361,2.361,0,0,1-4.722,0,2.361,2.361,0,0,1-2.361-2.361,2.361,2.361,0,0,1,0,0Z" fill="none" stroke="#000" stroke-linecap="round" stroke-linejoin="round" stroke-miterlimit="10" stroke-width="1.582"/>
            </g>
          </g>
        </g>
      </g>
    </g>
  </g>
</svg>
