<svg xmlns="http://www.w3.org/2000/svg" xmlns:xlink="http://www.w3.org/1999/xlink" width="107.999" height="108" viewBox="0 0 107.999 108">
  <defs>
    <filter id="Rectangle_411831" x="0" y="0" width="107.999" height="108" filterUnits="userSpaceOnUse">
      <feOffset dy="3" input="SourceAlpha"/>
      <feGaussianBlur stdDeviation="3" result="blur"/>
      <feFlood flood-opacity="0.161"/>
      <feComposite operator="in" in2="blur"/>
      <feComposite in="SourceGraphic"/>
    </filter>
    <clipPath id="clip-path">
      <rect id="Rectangle_425301" data-name="Rectangle 425301" width="54" height="62" transform="translate(-6744 -6575)" fill="#fff" stroke="#707070" stroke-width="1" opacity="0"/>
    </clipPath>
    <clipPath id="clip-path-2">
      <path id="path417" d="M0-54H54V0H0Z" fill="#d1f5ee"/>
    </clipPath>
  </defs>
  <g id="Group_1205363" data-name="Group 1205363" transform="translate(6770.96 6595.266)">
    <g id="Group_1205301" data-name="Group 1205301" transform="translate(-7562.742 -8551.266)">
      <g id="Group_1203409" data-name="Group 1203409" transform="translate(800.781 1962)">
        <g transform="matrix(1, 0, 0, 1, -9, -6)" filter="url(#Rectangle_411831)">
          <g id="Rectangle_411831-2" data-name="Rectangle 411831" transform="translate(9 6)" fill="#8fe8d5" stroke="#fff" stroke-width="2">
            <path d="M5,0H58A32,32,0,0,1,90,32V85a5,5,0,0,1-5,5H32A32,32,0,0,1,0,58V5A5,5,0,0,1,5,0Z" stroke="none"/>
            <path d="M5,1H58A31,31,0,0,1,89,32V85a4,4,0,0,1-4,4H32A31,31,0,0,1,1,58V5A4,4,0,0,1,5,1Z" fill="none"/>
          </g>
        </g>
      </g>
      <path id="Path_1260076" data-name="Path 1260076" d="M15.052.687H.856V6.415H10.991L.856,16.481l4.1,4.068,10.1-10.031V20.549h5.8V.687Z" transform="translate(799.924 2031.451)" fill="#1f1321" fill-rule="evenodd"/>
      <path id="Path_1260092" data-name="Path 1260092" d="M5.27,15.8h10.8V11.438H8.359l7.709-7.657L12.953.687,5.27,8.318V.687H.856V15.8Z" transform="translate(874.712 1961.314)" fill="#1f1321" fill-rule="evenodd"/>
    </g>
    <g id="Mask_Group_1107895" data-name="Mask Group 1107895" clip-path="url(#clip-path)">
      <g id="g411" transform="translate(-6744 -6517)">
        <g id="g413">
          <g id="g415" clip-path="url(#clip-path-2)">
            <g id="g421" transform="translate(53.209 -50.045)">
              <path id="path423" d="M0,0V46.09a3.164,3.164,0,0,1-3.164,3.164h-46.09a3.164,3.164,0,0,1-3.164-3.164V0a3.164,3.164,0,0,1,3.164-3.164h46.09A3.164,3.164,0,0,1,0,0" fill="#d1f5ee"/>
            </g>
            <g id="g425" transform="translate(7.366 -0.791)">
              <path id="path427" d="M0,0H-3.411A3.164,3.164,0,0,1-6.575-3.164v-46.09a3.164,3.164,0,0,1,3.164-3.164H0a3.164,3.164,0,0,0-3.164,3.164v46.09A3.164,3.164,0,0,0,0,0" fill="#d1f5ee"/>
            </g>
            <g id="g429" transform="translate(53.209 -50.045)">
              <path id="path431" d="M0,0V46.09a3.164,3.164,0,0,1-3.164,3.164H-23.541c15.621-18,17.4-43.1,17.489-52.418h2.888A3.164,3.164,0,0,1,0,0" fill="#d1f5ee"/>
            </g>
            <g id="g433" transform="translate(38.261 -53.209)">
              <path id="path435" d="M0,0H-34.306A3.164,3.164,0,0,0-37.47,3.164v46.09a3.164,3.164,0,0,0,3.164,3.164h12.159" fill="none" stroke="#000" stroke-linecap="round" stroke-linejoin="round" stroke-miterlimit="10" stroke-width="1.582"/>
            </g>
            <g id="g437" transform="translate(19.755 -0.791)">
              <path id="path439" d="M0,0H30.29a3.164,3.164,0,0,0,3.164-3.164v-46.09a3.164,3.164,0,0,0-3.164-3.164H22.317" fill="none" stroke="#000" stroke-linecap="round" stroke-linejoin="round" stroke-miterlimit="10" stroke-width="1.582"/>
            </g>
            <g id="g441" transform="translate(24.165 -15.883)">
              <path id="path443" d="M0,0H0A1.952,1.952,0,0,1-1.952-1.952V-12.885A1.952,1.952,0,0,1,0-14.836a1.952,1.952,0,0,1,1.952,1.952V-1.952A1.952,1.952,0,0,1,0,0" fill="#d1f5ee"/>
            </g>
            <g id="g445" transform="translate(18.778 -17.263)">
              <path id="path447" d="M0,0H0A1.952,1.952,0,0,0,0-2.76L-4.311-7.071l2.855-2.855a1.952,1.952,0,0,0,0-2.76,1.952,1.952,0,0,0-2.76,0L-8.708-8.194V-18.9a1.952,1.952,0,0,0-1.952-1.952A1.952,1.952,0,0,0-12.611-18.9V-.572A1.952,1.952,0,0,0-10.659,1.38,1.952,1.952,0,0,0-8.708-.572v-2.1l1.637-1.637L-2.76,0A1.952,1.952,0,0,0,0,0" fill="#d1f5ee"/>
            </g>
            <g id="g449" transform="translate(41.909 -17.263)">
              <path id="path451" d="M0,0A1.954,1.954,0,0,1-2.2.392,1.949,1.949,0,0,1-2.76,0l-4.31-4.311L-8.707-2.674v2.1A1.942,1.942,0,0,1-9.279.808a1.947,1.947,0,0,1-1.381.572A1.951,1.951,0,0,1-12.611-.572V-18.9a1.944,1.944,0,0,1,.572-1.38,1.944,1.944,0,0,1,1.38-.572A1.952,1.952,0,0,1-8.707-18.9V-8.194l4.492-4.493a1.946,1.946,0,0,1,1.381-.571,1.944,1.944,0,0,1,1.38.571,1.951,1.951,0,0,1,0,2.76L-4.31-7.071l3.12,3.12.544.544L0-2.76A1.951,1.951,0,0,1,0,0" fill="#d1f5ee"/>
            </g>
            <g id="g453" transform="translate(41.909 -17.263)">
              <path id="path455" d="M0,0A1.954,1.954,0,0,1-2.2.392q.835-1.9,1.552-3.8L0-2.76A1.951,1.951,0,0,1,0,0" fill="#d1f5ee"/>
            </g>
            <g id="g457" transform="translate(47.833 -24.346)">
              <path id="path459" d="M0,0A1.949,1.949,0,0,1-1.949,1.949,1.949,1.949,0,0,1-3.9,0,1.949,1.949,0,0,1-1.949-1.949,1.949,1.949,0,0,1,0,0" fill="#d1f5ee"/>
            </g>
            <g id="g461" transform="translate(24.165 -15.883)">
              <path id="path463" d="M0,0H0A1.952,1.952,0,0,1-1.952-1.952V-12.885A1.952,1.952,0,0,1,0-14.836a1.952,1.952,0,0,1,1.952,1.952V-1.952A1.952,1.952,0,0,1,0,0Z" fill="none" stroke="#000" stroke-linecap="round" stroke-linejoin="round" stroke-miterlimit="10" stroke-width="1.582"/>
            </g>
            <g id="g465" transform="translate(10.07 -33.748)">
              <path id="path467" d="M0,0V-2.417A1.952,1.952,0,0,0-1.952-4.369,1.952,1.952,0,0,0-3.9-2.417V15.914a1.952,1.952,0,0,0,1.952,1.952A1.952,1.952,0,0,0,0,15.914v-2.1l1.637-1.637,4.311,4.311a1.952,1.952,0,1,0,2.76-2.76L4.4,9.415,7.253,6.559A1.952,1.952,0,0,0,4.493,3.8L0,8.292V3.641" fill="none" stroke="#000" stroke-linecap="round" stroke-linejoin="round" stroke-miterlimit="10" stroke-width="1.582"/>
            </g>
            <g id="g469" transform="translate(41.909 -17.263)">
              <path id="path471" d="M0,0H0A1.952,1.952,0,0,0,0-2.76L-4.311-7.071l2.855-2.855a1.952,1.952,0,0,0,0-2.76,1.952,1.952,0,0,0-2.76,0L-8.708-8.194V-18.9a1.952,1.952,0,0,0-1.952-1.952A1.952,1.952,0,0,0-12.611-18.9V-.572A1.952,1.952,0,0,0-10.659,1.38,1.952,1.952,0,0,0-8.708-.572v-2.1l1.637-1.637L-2.76,0A1.952,1.952,0,0,0,0,0Z" fill="none" stroke="#000" stroke-linecap="round" stroke-linejoin="round" stroke-miterlimit="10" stroke-width="1.582"/>
            </g>
            <g id="g473" transform="translate(47.833 -24.346)">
              <path id="path475" d="M0,0A1.949,1.949,0,0,1-1.949,1.949,1.949,1.949,0,0,1-3.9,0,1.949,1.949,0,0,1-1.949-1.949,1.949,1.949,0,0,1,0,0Z" fill="none" stroke="#000" stroke-linecap="round" stroke-linejoin="round" stroke-miterlimit="10" stroke-width="1.582"/>
            </g>
          </g>
        </g>
      </g>
    </g>
  </g>
</svg>
