<svg xmlns="http://www.w3.org/2000/svg" xmlns:xlink="http://www.w3.org/1999/xlink" width="107.999" height="108" viewBox="0 0 107.999 108">
  <defs>
    <filter id="Rectangle_411831" x="0" y="0" width="107.999" height="108" filterUnits="userSpaceOnUse">
      <feOffset dy="3" input="SourceAlpha"/>
      <feGaussianBlur stdDeviation="3" result="blur"/>
      <feFlood flood-opacity="0.161"/>
      <feComposite operator="in" in2="blur"/>
      <feComposite in="SourceGraphic"/>
    </filter>
    <clipPath id="clip-path">
      <rect id="Rectangle_425301" data-name="Rectangle 425301" width="54" height="62" transform="translate(-6744 -6575)" fill="#fff" stroke="#707070" stroke-width="1" opacity="0"/>
    </clipPath>
  </defs>
  <g id="Group_1205366" data-name="Group 1205366" transform="translate(6770.96 6595.266)">
    <g id="Group_1205301" data-name="Group 1205301" transform="translate(-7562.742 -8551.266)">
      <g id="Group_1203409" data-name="Group 1203409" transform="translate(800.781 1962)">
        <g transform="matrix(1, 0, 0, 1, -9, -6)" filter="url(#Rectangle_411831)">
          <g id="Rectangle_411831-2" data-name="Rectangle 411831" transform="translate(9 6)" fill="#8fe8d5" stroke="#fff" stroke-width="2">
            <path d="M5,0H58A32,32,0,0,1,90,32V85a5,5,0,0,1-5,5H32A32,32,0,0,1,0,58V5A5,5,0,0,1,5,0Z" stroke="none"/>
            <path d="M5,1H58A31,31,0,0,1,89,32V85a4,4,0,0,1-4,4H32A31,31,0,0,1,1,58V5A4,4,0,0,1,5,1Z" fill="none"/>
          </g>
        </g>
      </g>
      <path id="Path_1260076" data-name="Path 1260076" d="M15.052.687H.856V6.415H10.991L.856,16.481l4.1,4.068,10.1-10.031V20.549h5.8V.687Z" transform="translate(799.924 2031.451)" fill="#1f1321" fill-rule="evenodd"/>
      <path id="Path_1260092" data-name="Path 1260092" d="M5.27,15.8h10.8V11.438H8.359l7.709-7.657L12.953.687,5.27,8.318V.687H.856V15.8Z" transform="translate(874.712 1961.314)" fill="#1f1321" fill-rule="evenodd"/>
    </g>
    <g id="Mask_Group_1107898" data-name="Mask Group 1107898" clip-path="url(#clip-path)">
      <g id="coherencia_3_" data-name="coherencia (3)" transform="translate(-6745.804 -6572.804)">
        <path id="Path_1270593" data-name="Path 1270593" d="M25.93,4.83a.716.716,0,0,1,1.241-.713l1.676,2.9A.716.716,0,0,1,28.585,8h0l-2.9,1.676a.717.717,0,0,1-.719-1.241l1.5-.864A13.214,13.214,0,0,0,12.278,15.03a.718.718,0,0,1-1.3-.606,14.661,14.661,0,0,1,15.719-8.27L25.93,4.83Z" fill-rule="evenodd"/>
        <path id="Path_1270594" data-name="Path 1270594" d="M14.843,17.192a.717.717,0,0,1,1,.174l2.669,3.8A3.867,3.867,0,0,1,22.9,27.411l2.668,3.8a.717.717,0,0,1-.174,1l-4.345,3.052a.717.717,0,0,1-1-.174,2.432,2.432,0,0,0-3.981,2.795.717.717,0,0,1-.174,1L13.877,40.3c.484,1.576.471,2.536-.322,5.048l.183,1.266a1.507,1.507,0,0,1,1.3.146,1.129,1.129,0,0,1,.442.745l.528,3.653a1.129,1.129,0,0,1-.958,1.278L5.334,53.838a1.129,1.129,0,0,1-1.278-.958l-.522-3.607a1.131,1.131,0,0,1,.992-1.33l.5-.072-.194-1.344L2.942,41.939c-.674-1.637-.867-5.422.345-6.945l1.333-1.675-2.177-3.1A3.541,3.541,0,0,1,3.3,25.3l11.538-8.1Z" fill-rule="evenodd"/>
        <path id="Path_1270595" data-name="Path 1270595" d="M40.977,30.025l-2.217-.08a3.868,3.868,0,0,1-3.885,3.012v0a3.864,3.864,0,0,1-3.709-3.286l-4.807-.175a.716.716,0,0,1-.691-.741l.19-5.248a.716.716,0,0,1,.762-.727,2.452,2.452,0,0,0,1.92-4.131A2.413,2.413,0,0,0,26.78,17.9a.716.716,0,0,1-.691-.741l.193-5.307a.716.716,0,0,1,.741-.691l13.425.487A4.361,4.361,0,0,1,44.64,16.15l-.07,1.939,2.031.679c1.845.617,3.745,3.888,4.073,5.636l.916,4.879.568,1.23c.478-.221.836-.456,1.359-.264a1.127,1.127,0,0,1,.636.587L55.7,34.187a1.129,1.129,0,0,1-.552,1.5l-8.87,4.093a1.132,1.132,0,0,1-1.56-.575L43.19,35.894a1.129,1.129,0,0,1,.552-1.5l.423-.2-.536-1.162a8.261,8.261,0,0,1-2.652-3.015Z" fill-rule="evenodd"/>
        <path id="Path_1270596" data-name="Path 1270596" d="M13.4,38.881l1.139-.8a3.867,3.867,0,0,1,6.22-4.368l3.225-2.265-2.64-3.759a.716.716,0,0,1,.215-1.026A2.432,2.432,0,1,0,18.738,22.7a.721.721,0,0,1-1.036-.191l-2.62-3.731L4.13,26.469a2.111,2.111,0,0,0-.512,2.925L8.384,36.18l-.167-1.154a2.125,2.125,0,0,1,4.2-.642l.773,3.917.2.579Z" fill="#696" fill-rule="evenodd"/>
        <path id="Path_1270597" data-name="Path 1270597" d="M10.233,38.942a.718.718,0,0,1-1.307.507L5.481,34.543l-1.07,1.344A4.387,4.387,0,0,0,3.847,38.2a8.51,8.51,0,0,0,.421,3.193l1.924,4.674a.719.719,0,0,1,.047.171h0l.206,1.426,5.873-.85-.207-1.429h0a.715.715,0,0,1,.027-.32c.914-2.853.708-3.434-.1-5.719-.032-.091-.067-.189-.205-.584-.078-.2-.725-3.594-.826-4.1a.724.724,0,0,0-1.124-.493.629.629,0,0,0-.247.657l.6,4.118Z" fill="#f6bfac" fill-rule="evenodd"/>
        <path id="Path_1270598" data-name="Path 1270598" d="M42.974,22.539l.234-6.44A2.932,2.932,0,0,0,40.4,13.075l-12.71-.461-.142,3.924a3.88,3.88,0,0,1-.278,7.648l-.142,3.9,4.741.172a.716.716,0,0,1,.691.716h0a.757.757,0,0,1,0,.077,2.435,2.435,0,0,0,2.318,2.467v0a.754.754,0,0,1,.077,0A2.435,2.435,0,0,0,37.419,29.2h0a.717.717,0,0,1,.8-.714l2.279.083c-.083-.317-.166-.666-.26-1.056-.029-.121-.059-.246-.143-.588l-1.484-3.7a2.152,2.152,0,0,1,2.005-2.993,2,2,0,0,1,1.867,1.246l.489,1.059Z" fill="#eb5757" fill-rule="evenodd"/>
        <path id="Path_1270599" data-name="Path 1270599" d="M44.515,19.582,44.3,25.553a.718.718,0,0,1-1.369.314l-1.747-3.786a.656.656,0,0,0-1.128-.164.705.705,0,0,0-.112.776c.183.456,1.5,3.7,1.539,3.873l.149.621c.565,2.354.709,2.952,3.031,4.849a.713.713,0,0,1,.2.256h0l.6,1.31,5.388-2.486c-.111-.241-.624-1.3-.658-1.478l-.933-4.968a8.514,8.514,0,0,0-1.387-2.907,4.389,4.389,0,0,0-1.731-1.634l-1.631-.545Z" fill="#f6bfac" fill-rule="evenodd"/>
        <g id="Group_1205369" data-name="Group 1205369">
          <path id="Path_1270600" data-name="Path 1270600" d="M13.232,48.134l-8.24,1.192.441,3.048,9.11-1.318L14.1,48.008Z" fill="#6babff" fill-rule="evenodd"/>
          <path id="Path_1270601" data-name="Path 1270601" d="M45.419,35.2l-.8.369,1.291,2.8,8.358-3.857-1.291-2.8Z" fill="#6babff" fill-rule="evenodd"/>
        </g>
      </g>
    </g>
  </g>
</svg>
