<svg xmlns="http://www.w3.org/2000/svg" xmlns:xlink="http://www.w3.org/1999/xlink" width="107.999" height="107.999" viewBox="0 0 107.999 107.999">
  <defs>
    <filter id="Rectangle_411831" x="0" y="0" width="107.999" height="107.999" filterUnits="userSpaceOnUse">
      <feOffset dy="3" input="SourceAlpha"/>
      <feGaussianBlur stdDeviation="3" result="blur"/>
      <feFlood flood-opacity="0.161"/>
      <feComposite operator="in" in2="blur"/>
      <feComposite in="SourceGraphic"/>
    </filter>
    <clipPath id="clip-path">
      <rect id="Rectangle_424839" data-name="Rectangle 424839" width="50.999" height="57.999" transform="translate(-6708 -10662)" fill="#fff" stroke="#707070" stroke-width="1" opacity="0"/>
    </clipPath>
  </defs>
  <g id="Group_1203902" data-name="Group 1203902" transform="translate(6736.27 10684)">
    <g id="Group_1203888" data-name="Group 1203888" transform="translate(-6727.271 -10678)">
      <g id="Group_1203409" data-name="Group 1203409" transform="translate(0.001)">
        <g transform="matrix(1, 0, 0, 1, -9, -6)" filter="url(#Rectangle_411831)">
          <g id="Rectangle_411831-2" data-name="Rectangle 411831" transform="translate(9 6)" fill="#d9aef1" stroke="#fff" stroke-width="2">
            <path d="M5,0H58A32,32,0,0,1,90,32V85a5,5,0,0,1-5,5H32A32,32,0,0,1,0,58V5A5,5,0,0,1,5,0Z" stroke="none"/>
            <path d="M5,1H58A31,31,0,0,1,89,32V85a4,4,0,0,1-4,4H32A31,31,0,0,1,1,58V5A4,4,0,0,1,5,1Z" fill="none"/>
          </g>
        </g>
      </g>
      <path id="Path_1260076" data-name="Path 1260076" d="M16.614.687H.856V7.046h11.25L.856,18.219,5.4,22.735,16.614,11.6V22.735h6.441V.687Z" transform="translate(-0.856 67.265)" fill="#1f1321" fill-rule="evenodd"/>
      <path id="Path_1260092" data-name="Path 1260092" d="M5.755,17.459H17.742V12.622H9.184l8.558-8.5L14.284.687,5.755,9.157V.687H.856V17.459Z" transform="translate(72.258 -0.686)" fill="#1f1321" fill-rule="evenodd"/>
    </g>
    <g id="Mask_Group_1107885" data-name="Mask Group 1107885" clip-path="url(#clip-path)">
      <g id="conexion" transform="translate(-6708.823 -10659.322)">
        <circle id="Ellipse_12420" data-name="Ellipse 12420" cx="12.338" cy="12.338" r="12.338" transform="translate(13.984 1.645)" fill="#3f8044"/>
        <path id="Path_1270407" data-name="Path 1270407" d="M38.661,13.984A12.338,12.338,0,0,1,26.322,26.322c3.635,0,6.581-5.524,6.581-12.338S29.957,1.645,26.322,1.645A12.338,12.338,0,0,1,38.661,13.984Z" fill="#65cc6d"/>
        <path id="Path_1270408" data-name="Path 1270408" d="M26.322,1.645V26.322c-3.635,0-6.581-5.524-6.581-12.338S22.687,1.645,26.322,1.645Z" fill="#4c9952"/>
        <path id="Path_1270409" data-name="Path 1270409" d="M32.9,13.984c0,6.815-2.942,12.338-6.581,12.338V1.645C29.957,1.645,32.9,7.169,32.9,13.984Z" fill="#59b360"/>
        <path id="Path_1270410" data-name="Path 1270410" d="M20.564,51V43.6a3.29,3.29,0,0,1,3.29-3.29H28.79a3.29,3.29,0,0,1,3.29,3.29V51Z" fill="#3186f2"/>
        <circle id="Ellipse_12421" data-name="Ellipse 12421" cx="3.085" cy="3.085" r="3.085" transform="translate(23.237 33.314)" fill="#ffc173"/>
        <path id="Path_1270411" data-name="Path 1270411" d="M39.483,46.886v-7.4a3.29,3.29,0,0,1,3.29-3.29h4.935A3.29,3.29,0,0,1,51,39.483v7.4Z" fill="#2c77d9"/>
        <circle id="Ellipse_12422" data-name="Ellipse 12422" cx="3.085" cy="3.085" r="3.085" transform="translate(42.156 29.201)" fill="#ffc173"/>
        <path id="Path_1270412" data-name="Path 1270412" d="M1.645,46.886v-7.4a3.29,3.29,0,0,1,3.29-3.29H9.871a3.29,3.29,0,0,1,3.29,3.29v7.4Z" fill="#2c77d9"/>
        <circle id="Ellipse_12423" data-name="Ellipse 12423" cx="3.085" cy="3.085" r="3.085" transform="translate(4.318 29.201)" fill="#ffc173"/>
        <path id="Path_1270413" data-name="Path 1270413" d="M19.742,43.6V51a.823.823,0,0,0,.823.823H32.08A.823.823,0,0,0,32.9,51V43.6a4.118,4.118,0,0,0-4.113-4.113h-.1a3.907,3.907,0,1,0-4.74,0h-.1A4.118,4.118,0,0,0,19.742,43.6Zm6.581-9.459A2.262,2.262,0,1,1,24.06,36.4,2.262,2.262,0,0,1,26.322,34.136Zm2.468,6.992A2.468,2.468,0,0,1,31.257,43.6v6.581H21.387V43.6a2.468,2.468,0,0,1,2.468-2.468Z"/>
        <path id="Path_1270414" data-name="Path 1270414" d="M51.822,46.886v-7.4a4.118,4.118,0,0,0-4.113-4.113h-.1a3.907,3.907,0,1,0-4.74,0h-.1a4.118,4.118,0,0,0-4.113,4.113v7.4a.823.823,0,0,0,.823.823H51A.823.823,0,0,0,51.822,46.886ZM45.241,30.024a2.262,2.262,0,1,1-2.262,2.262,2.262,2.262,0,0,1,2.262-2.262Zm4.935,16.04H40.306V39.483a2.468,2.468,0,0,1,2.468-2.468h4.935a2.468,2.468,0,0,1,2.468,2.468Z"/>
        <path id="Path_1270415" data-name="Path 1270415" d="M1.645,47.709H13.161a.823.823,0,0,0,.823-.823v-7.4A4.118,4.118,0,0,0,9.871,35.37h-.1a3.907,3.907,0,1,0-4.74,0h-.1A4.118,4.118,0,0,0,.823,39.483v7.4A.823.823,0,0,0,1.645,47.709ZM7.4,30.024a2.262,2.262,0,1,1-2.262,2.262A2.262,2.262,0,0,1,7.4,30.024ZM2.468,39.483a2.468,2.468,0,0,1,2.468-2.468H9.871a2.468,2.468,0,0,1,2.468,2.468v6.581H2.468Z"/>
        <path id="Path_1270416" data-name="Path 1270416" d="M11.187,13.833l-.95-1.344c-1.662,1.172-2.011,2.354-2.011,3.14,0,2.362,2.848,4.12,6.874,5.223a13.3,13.3,0,0,0,1.613,2.126,13.079,13.079,0,0,0,9.174,4.16c.145,0,.289.007.433.007h.014A13.116,13.116,0,0,0,37.54,20.854c4.028-1.1,6.878-2.863,6.878-5.225A3.931,3.931,0,0,0,42.427,12.5l-.953,1.341c.592.417,1.3,1.069,1.3,1.785,0,2.33-7.035,4.935-16.451,4.935S9.871,17.959,9.871,15.629C9.871,14.911,10.585,14.256,11.187,13.833Zm21.082,8.022c.974-.118,1.926-.264,2.842-.44a10.789,10.789,0,0,1-.918.976,11.48,11.48,0,0,1-3.468,2.227,12.134,12.134,0,0,0,1.541-2.762Zm-5.125.347c1.079-.018,2.162-.071,3.23-.156a6.011,6.011,0,0,1-3.23,3.316Zm-1.645,0v3.159a6.011,6.011,0,0,1-3.23-3.316C23.338,22.132,24.42,22.185,25.5,22.2Zm-5.121-.347a12.068,12.068,0,0,0,1.545,2.764,11.467,11.467,0,0,1-4.008-2.766c-.132-.141-.252-.29-.375-.437C18.453,21.592,19.405,21.738,20.378,21.856Z"/>
        <path id="Path_1270417" data-name="Path 1270417" d="M13.478,16.8a17.792,17.792,0,0,0,1.879.688,11.482,11.482,0,0,1-.519-2.685h4.1a22.709,22.709,0,0,0,.411,3.592c.546.087,1.126.165,1.727.232a20.709,20.709,0,0,1-.494-3.824H25.5v4.1c.274,0,.54.013.823.013s.549-.008.823-.013v-4.1h4.914a20.709,20.709,0,0,1-.494,3.824c.6-.068,1.182-.145,1.727-.232a22.709,22.709,0,0,0,.411-3.592H37.8a11.643,11.643,0,0,1-.524,2.69,17.839,17.839,0,0,0,1.9-.7,13.309,13.309,0,0,0,.3-2.385A13.161,13.161,0,0,0,26.757.83c-.1,0-.2.006-.3,0-.047,0-.092-.012-.139-.012-.068,0-.135.015-.2.017A13.11,13.11,0,0,0,13.478,16.8Zm22.491-9.1a11.391,11.391,0,0,1,1.838,5.454H33.7a22.17,22.17,0,0,0-.637-4.673,20.984,20.984,0,0,0,2.9-.781ZM34.73,6.114c.065.07.121.146.184.217a20.7,20.7,0,0,1-2.325.576,12.819,12.819,0,0,0-1.868-3.559A11.467,11.467,0,0,1,34.73,6.114ZM27.145,2.605c1.526.46,2.875,2.163,3.776,4.567a35.19,35.19,0,0,1-3.776.278Zm0,6.49a36.548,36.548,0,0,0,4.277-.334,20.428,20.428,0,0,1,.637,4.4H27.145ZM25.5,13.161H20.586a20.42,20.42,0,0,1,.633-4.4,36.021,36.021,0,0,0,4.277.329Zm0-10.556V7.449a34.778,34.778,0,0,1-3.777-.276C22.621,4.771,23.974,3.065,25.5,2.605ZM18.453,5.576A11.476,11.476,0,0,1,21.93,3.34,12.778,12.778,0,0,0,20.057,6.9a21.694,21.694,0,0,1-2.33-.576C17.957,6.068,18.2,5.816,18.453,5.576ZM16.677,7.709a21.268,21.268,0,0,0,2.9.777,22.127,22.127,0,0,0-.637,4.675H14.849a11.416,11.416,0,0,1,1.828-5.452Z"/>
      </g>
    </g>
  </g>
</svg>
