<svg xmlns="http://www.w3.org/2000/svg" width="87.468" height="73.507" viewBox="0 0 87.468 73.507">
  <g id="editor-de-texto" transform="translate(0 -40.862)">
    <g id="Group_1205685" data-name="Group 1205685" transform="translate(1.283 42.145)">
      <path id="Path_1272040" data-name="Path 1272040" d="M8.5,48.375H91.42a1,1,0,0,1,1,.993v8.755a1,1,0,0,1-1,1H8.5a1,1,0,0,1-.993-1V49.368A.994.994,0,0,1,8.5,48.375Z" transform="translate(-7.511 -48.375)" fill="#365e7d" fill-rule="evenodd"/>
      <path id="Path_1272041" data-name="Path 1272041" d="M469.565,48.375h4.973a1,1,0,0,1,1,.993v8.755a1,1,0,0,1-1,1h-4.973a1,1,0,0,0,.993-1V49.368A.994.994,0,0,0,469.565,48.375Z" transform="translate(-390.629 -48.375)" fill="#2b4d66" fill-rule="evenodd"/>
      <path id="Path_1272042" data-name="Path 1272042" d="M7.511,105.437H92.418v60.2a1,1,0,0,1-1,.993H8.5a.994.994,0,0,1-.993-.993Q7.511,135.534,7.511,105.437Z" transform="translate(-7.511 -95.689)" fill="#b1e4f9" fill-rule="evenodd"/>
      <path id="Path_1272043" data-name="Path 1272043" d="M61.371,179.705h66.5v35.821h-66.5Z" transform="translate(-52.17 -157.269)" fill="#fff9df" fill-rule="evenodd"/>
      <path id="Path_1272044" data-name="Path 1272044" d="M470.558,105.437h4.978v60.2a1,1,0,0,1-1,.993h-4.973a.994.994,0,0,0,.993-.993Z" transform="translate(-390.629 -95.689)" fill="#90d8f9" fill-rule="evenodd"/>
      <path id="Path_1272045" data-name="Path 1272045" d="M75.718,159.807h4.809a.994.994,0,0,1,.993.993v4.809a1,1,0,0,1-.993,1H75.718a1,1,0,0,1-1-1V160.8A1,1,0,0,1,75.718,159.807Zm-33.25,0h4.809a.994.994,0,0,1,.993.993v4.809a1,1,0,0,1-.993,1H42.469a1,1,0,0,1-1-1V160.8A1,1,0,0,1,42.469,159.807Zm0,17.908h4.809a1,1,0,0,1,.993,1v4.809a.994.994,0,0,1-.993.993H42.469a1,1,0,0,1-1-.993v-4.809A1,1,0,0,1,42.469,177.715Zm0,17.913h4.809a.994.994,0,0,1,.993.993v4.809a1,1,0,0,1-.993,1H42.469a1,1,0,0,1-1-1v-4.809A1,1,0,0,1,42.469,195.628Zm33.25,0h4.809a.994.994,0,0,1,.993.993v4.809a1,1,0,0,1-.993,1H75.718a1,1,0,0,1-1-1v-4.809A1,1,0,0,1,75.718,195.628Zm33.25,0h4.809a.994.994,0,0,1,.993.993v4.809a1,1,0,0,1-.993,1h-4.809a1,1,0,0,1-1-1v-4.809A1,1,0,0,1,108.968,195.628Zm0-17.913h4.809a1,1,0,0,1,.993,1v4.809a.994.994,0,0,1-.993.993h-4.809a1,1,0,0,1-1-.993v-4.809A1,1,0,0,1,108.968,177.715Zm0-17.908h4.809a.994.994,0,0,1,.993.993v4.809a1,1,0,0,1-.993,1h-4.809a1,1,0,0,1-1-1V160.8A1,1,0,0,1,108.968,159.807Z" transform="translate(-35.669 -140.77)" fill="#78c2a4" fill-rule="evenodd"/>
    </g>
    <path id="Path_1272046" data-name="Path 1272046" d="M84.907,108.112a1.281,1.281,0,1,1,2.562,0v4.973a1.278,1.278,0,0,1-1.278,1.283H1.283A1.282,1.282,0,0,1,0,113.085V62.674a1.281,1.281,0,0,1,2.562,0v49.134H84.907ZM48.417,63.3H72.306V61.182A1.281,1.281,0,0,1,73.584,59.9h6.8a1.286,1.286,0,0,1,1.284,1.283v6.8a1.286,1.286,0,0,1-1.284,1.283H78.267v8.547h2.116a1.281,1.281,0,0,1,1.284,1.278v6.8a1.286,1.286,0,0,1-1.284,1.283H78.267V95.72h2.116A1.286,1.286,0,0,1,81.667,97v6.8a1.281,1.281,0,0,1-1.284,1.278h-6.8a1.277,1.277,0,0,1-1.278-1.278v-2.121H48.417V103.8a1.281,1.281,0,0,1-1.283,1.278h-6.8a1.277,1.277,0,0,1-1.278-1.278v-2.121H15.167V103.8a1.281,1.281,0,0,1-1.283,1.278h-6.8A1.277,1.277,0,0,1,5.806,103.8V97A1.281,1.281,0,0,1,7.085,95.72H9.206V87.173H7.085a1.281,1.281,0,0,1-1.278-1.283v-6.8a1.277,1.277,0,0,1,1.278-1.278H9.206V69.264H7.085a1.281,1.281,0,0,1-1.278-1.283v-6.8A1.282,1.282,0,0,1,7.085,59.9h6.8a1.286,1.286,0,0,1,1.283,1.283V63.3H39.056V61.182A1.281,1.281,0,0,1,40.335,59.9h6.8a1.286,1.286,0,0,1,1.283,1.283V63.3Zm23.889,2.567H48.417v2.116a1.285,1.285,0,0,1-1.283,1.283h-6.8a1.281,1.281,0,0,1-1.278-1.283V65.865H15.167v2.116a1.285,1.285,0,0,1-1.283,1.283H11.768v8.547h2.116a1.281,1.281,0,0,1,1.283,1.278v6.8a1.285,1.285,0,0,1-1.283,1.283H11.768V95.72h2.116A1.285,1.285,0,0,1,15.167,97v2.116H39.056V97a1.281,1.281,0,0,1,1.278-1.283h6.8A1.285,1.285,0,0,1,48.417,97v2.116H72.306V97a1.281,1.281,0,0,1,1.278-1.283h2.121V87.173H73.584a1.281,1.281,0,0,1-1.278-1.283v-6.8a1.277,1.277,0,0,1,1.278-1.278h2.121V69.264H73.584a1.281,1.281,0,0,1-1.278-1.283V65.865Zm-59.7-3.4H8.368V66.7h4.237Zm66.5,0H74.868V66.7H79.1Zm0,35.816H74.868v4.237H79.1Zm0-17.908H74.868v4.238H79.1ZM45.855,98.282H41.618v4.237h4.237Zm0-35.816H41.618V66.7h4.237ZM12.606,98.282H8.368v4.237h4.237Zm0-17.908H8.368v4.238h4.237ZM39.4,73.9a1.281,1.281,0,0,1,0,2.562H34.581v4.683h4.373a1.281,1.281,0,1,1,0,2.562H34.581v4.683H39.4a1.281,1.281,0,0,1,0,2.562H33.3a1.281,1.281,0,0,1-1.278-1.283V75.182A1.281,1.281,0,0,1,33.3,73.9H39.4Zm19.971,2.562a1.281,1.281,0,1,1,0-2.562h8.073a1.281,1.281,0,1,1,0,2.562h-2.77V89.8a1.281,1.281,0,0,1-2.562,0V76.461Zm-39.356,0a1.281,1.281,0,0,1,0-2.562H28.1a1.281,1.281,0,0,1,0,2.562H25.322V89.8a1.281,1.281,0,0,1-2.562,0V76.461Zm23.545-.542a1.279,1.279,0,0,1,2.092-1.472l3.729,5.3,3.739-5.3a1.279,1.279,0,1,1,2.092,1.472L50.95,81.972l4.993,7.094a1.279,1.279,0,0,1-2.092,1.472l-4.465-6.344-4.47,6.344a1.279,1.279,0,1,1-2.092-1.472l5-7.094ZM80.872,45.739a1.281,1.281,0,0,1,0,2.562h-3.06a1.281,1.281,0,1,1,0-2.562Zm-16.073,0a1.281,1.281,0,1,1,0,2.562H61.744a1.281,1.281,0,1,1,0-2.562Zm8.039,0a1.281,1.281,0,0,1,0,2.562H69.778a1.281,1.281,0,1,1,0-2.562ZM1.283,40.862H86.19a1.281,1.281,0,0,1,1.278,1.283v60.165a1.281,1.281,0,0,1-2.562,0V53.177H2.562v3.7a1.281,1.281,0,0,1-2.562,0V42.145a1.286,1.286,0,0,1,1.283-1.283Zm83.623,2.562H2.562v7.191H84.907Z" transform="translate(0 0)"/>
  </g>
</svg>
